%TF.GenerationSoftware,KiCad,Pcbnew,8.0.5*%
%TF.CreationDate,2024-11-04T18:47:41-08:00*%
%TF.ProjectId,digitalclock,64696769-7461-46c6-936c-6f636b2e6b69,rev?*%
%TF.SameCoordinates,Original*%
%TF.FileFunction,Soldermask,Bot*%
%TF.FilePolarity,Negative*%
%FSLAX46Y46*%
G04 Gerber Fmt 4.6, Leading zero omitted, Abs format (unit mm)*
G04 Created by KiCad (PCBNEW 8.0.5) date 2024-11-04 18:47:41*
%MOMM*%
%LPD*%
G01*
G04 APERTURE LIST*
G04 Aperture macros list*
%AMRoundRect*
0 Rectangle with rounded corners*
0 $1 Rounding radius*
0 $2 $3 $4 $5 $6 $7 $8 $9 X,Y pos of 4 corners*
0 Add a 4 corners polygon primitive as box body*
4,1,4,$2,$3,$4,$5,$6,$7,$8,$9,$2,$3,0*
0 Add four circle primitives for the rounded corners*
1,1,$1+$1,$2,$3*
1,1,$1+$1,$4,$5*
1,1,$1+$1,$6,$7*
1,1,$1+$1,$8,$9*
0 Add four rect primitives between the rounded corners*
20,1,$1+$1,$2,$3,$4,$5,0*
20,1,$1+$1,$4,$5,$6,$7,0*
20,1,$1+$1,$6,$7,$8,$9,0*
20,1,$1+$1,$8,$9,$2,$3,0*%
G04 Aperture macros list end*
%ADD10C,1.524000*%
%ADD11C,0.950000*%
%ADD12C,2.500000*%
%ADD13R,1.000000X1.000000*%
%ADD14C,3.301600*%
%ADD15R,1.700000X1.700000*%
%ADD16O,1.700000X1.700000*%
%ADD17O,1.550000X0.890000*%
%ADD18O,0.950000X1.250000*%
%ADD19RoundRect,0.685800X0.000010X0.000010X-0.000010X0.000010X-0.000010X-0.000010X0.000010X-0.000010X0*%
%ADD20RoundRect,0.800800X-0.000010X-0.000010X0.000010X-0.000010X0.000010X0.000010X-0.000010X0.000010X0*%
G04 APERTURE END LIST*
D10*
%TO.C,J4*%
X128440000Y-110280000D03*
X128440000Y-107740000D03*
X128440000Y-105200000D03*
X128440000Y-102660000D03*
X128440000Y-100120000D03*
%TD*%
D11*
%TO.C,J2*%
X136070000Y-124580000D03*
X142870000Y-124580000D03*
%TD*%
D12*
%TO.C,@HOLE1*%
X117720000Y-66070000D03*
%TD*%
D13*
%TO.C,TP1*%
X174040800Y-108712000D03*
%TD*%
D14*
%TO.C,P$1*%
X117720000Y-121070000D03*
%TD*%
D15*
%TO.C,J6*%
X169030000Y-73150000D03*
D16*
X166490000Y-73150000D03*
X163950000Y-73150000D03*
X161410000Y-73150000D03*
X158870000Y-73150000D03*
X156330000Y-73150000D03*
X153790000Y-73150000D03*
%TD*%
D15*
%TO.C,J7*%
X153790000Y-67700000D03*
D16*
X156330000Y-67700000D03*
X158870000Y-67700000D03*
X161410000Y-67700000D03*
X163950000Y-67700000D03*
X166490000Y-67700000D03*
X169030000Y-67700000D03*
%TD*%
D15*
%TO.C,J3*%
X180650000Y-82170000D03*
D16*
X180650000Y-84710000D03*
X180650000Y-87250000D03*
X180650000Y-89790000D03*
X180650000Y-92330000D03*
X180650000Y-94870000D03*
X180650000Y-97410000D03*
X180650000Y-99950000D03*
X180650000Y-102490000D03*
X180650000Y-105030000D03*
X180650000Y-107570000D03*
X180650000Y-110110000D03*
%TD*%
D14*
%TO.C,P$2*%
X189720000Y-121070000D03*
%TD*%
D15*
%TO.C,J8*%
X169030000Y-77150000D03*
D16*
X166490000Y-77150000D03*
X163950000Y-77150000D03*
X161410000Y-77150000D03*
X158870000Y-77150000D03*
X156330000Y-77150000D03*
X153790000Y-77150000D03*
%TD*%
D17*
%TO.C,X2*%
X114540000Y-83310000D03*
D18*
X117240000Y-84310000D03*
X117240000Y-89310000D03*
D17*
X114540000Y-90310000D03*
%TD*%
D12*
%TO.C,@HOLE2*%
X189720000Y-66070000D03*
%TD*%
D15*
%TO.C,J5*%
X153790000Y-63600000D03*
D16*
X156330000Y-63600000D03*
X158870000Y-63600000D03*
X161410000Y-63600000D03*
X163950000Y-63600000D03*
X166490000Y-63600000D03*
X169030000Y-63600000D03*
%TD*%
D19*
%TO.C,TP3*%
X125145800Y-91236800D03*
%TD*%
%TO.C,TP2*%
X121800000Y-91960000D03*
%TD*%
D20*
%TO.C,TP5*%
X170350000Y-97800000D03*
%TD*%
%TO.C,TP4*%
X166850000Y-97950000D03*
%TD*%
M02*
