%TF.GenerationSoftware,KiCad,Pcbnew,8.0.5*%
%TF.CreationDate,2024-11-04T18:47:41-08:00*%
%TF.ProjectId,digitalclock,64696769-7461-46c6-936c-6f636b2e6b69,rev?*%
%TF.SameCoordinates,Original*%
%TF.FileFunction,Copper,L2,Inr*%
%TF.FilePolarity,Positive*%
%FSLAX46Y46*%
G04 Gerber Fmt 4.6, Leading zero omitted, Abs format (unit mm)*
G04 Created by KiCad (PCBNEW 8.0.5) date 2024-11-04 18:47:41*
%MOMM*%
%LPD*%
G01*
G04 APERTURE LIST*
%ADD10C,0.300000*%
%TA.AperFunction,NonConductor*%
%ADD11C,0.300000*%
%TD*%
%TA.AperFunction,ComponentPad*%
%ADD12C,1.524000*%
%TD*%
%TA.AperFunction,ComponentPad*%
%ADD13R,1.000000X1.000000*%
%TD*%
%TA.AperFunction,ComponentPad*%
%ADD14C,3.200000*%
%TD*%
%TA.AperFunction,ComponentPad*%
%ADD15R,1.700000X1.700000*%
%TD*%
%TA.AperFunction,ComponentPad*%
%ADD16O,1.700000X1.700000*%
%TD*%
%TA.AperFunction,ComponentPad*%
%ADD17O,1.550000X0.890000*%
%TD*%
%TA.AperFunction,ComponentPad*%
%ADD18O,0.950000X1.250000*%
%TD*%
%TA.AperFunction,ViaPad*%
%ADD19C,0.700000*%
%TD*%
%TA.AperFunction,ViaPad*%
%ADD20C,1.000000*%
%TD*%
%TA.AperFunction,ViaPad*%
%ADD21C,0.600000*%
%TD*%
G04 APERTURE END LIST*
D10*
D11*
X191364082Y-77818685D02*
X191435510Y-77747257D01*
X191435510Y-77747257D02*
X191578368Y-77675828D01*
X191578368Y-77675828D02*
X191935510Y-77675828D01*
X191935510Y-77675828D02*
X192078368Y-77747257D01*
X192078368Y-77747257D02*
X192149796Y-77818685D01*
X192149796Y-77818685D02*
X192221225Y-77961542D01*
X192221225Y-77961542D02*
X192221225Y-78104400D01*
X192221225Y-78104400D02*
X192149796Y-78318685D01*
X192149796Y-78318685D02*
X191292653Y-79175828D01*
X191292653Y-79175828D02*
X192221225Y-79175828D01*
D10*
D11*
X190748025Y-80236457D02*
X190605168Y-80165028D01*
X190605168Y-80165028D02*
X190390882Y-80165028D01*
X190390882Y-80165028D02*
X190176596Y-80236457D01*
X190176596Y-80236457D02*
X190033739Y-80379314D01*
X190033739Y-80379314D02*
X189962310Y-80522171D01*
X189962310Y-80522171D02*
X189890882Y-80807885D01*
X189890882Y-80807885D02*
X189890882Y-81022171D01*
X189890882Y-81022171D02*
X189962310Y-81307885D01*
X189962310Y-81307885D02*
X190033739Y-81450742D01*
X190033739Y-81450742D02*
X190176596Y-81593600D01*
X190176596Y-81593600D02*
X190390882Y-81665028D01*
X190390882Y-81665028D02*
X190533739Y-81665028D01*
X190533739Y-81665028D02*
X190748025Y-81593600D01*
X190748025Y-81593600D02*
X190819453Y-81522171D01*
X190819453Y-81522171D02*
X190819453Y-81022171D01*
X190819453Y-81022171D02*
X190533739Y-81022171D01*
X191462310Y-81665028D02*
X191462310Y-80165028D01*
X191462310Y-80165028D02*
X192319453Y-81665028D01*
X192319453Y-81665028D02*
X192319453Y-80165028D01*
X193033739Y-81665028D02*
X193033739Y-80165028D01*
X193033739Y-80165028D02*
X193390882Y-80165028D01*
X193390882Y-80165028D02*
X193605168Y-80236457D01*
X193605168Y-80236457D02*
X193748025Y-80379314D01*
X193748025Y-80379314D02*
X193819454Y-80522171D01*
X193819454Y-80522171D02*
X193890882Y-80807885D01*
X193890882Y-80807885D02*
X193890882Y-81022171D01*
X193890882Y-81022171D02*
X193819454Y-81307885D01*
X193819454Y-81307885D02*
X193748025Y-81450742D01*
X193748025Y-81450742D02*
X193605168Y-81593600D01*
X193605168Y-81593600D02*
X193390882Y-81665028D01*
X193390882Y-81665028D02*
X193033739Y-81665028D01*
D12*
%TO.N,+3V3*%
%TO.C,J4*%
X128440000Y-110280000D03*
%TO.N,/Light Sensor/3Vo*%
X128440000Y-107740000D03*
%TO.N,GND*%
X128440000Y-105200000D03*
%TO.N,/SCL*%
X128440000Y-102660000D03*
%TO.N,/SDA*%
X128440000Y-100120000D03*
%TD*%
D13*
%TO.N,Net-(R9-Pad2)*%
%TO.C,TP1*%
X174040800Y-108712000D03*
%TD*%
D14*
%TO.N,N/C*%
%TO.C,P$1*%
X117720000Y-121070000D03*
%TD*%
D15*
%TO.N,/Display/RED_1*%
%TO.C,J6*%
X169030000Y-73150000D03*
D16*
%TO.N,/Display/A*%
X166490000Y-73150000D03*
%TO.N,/Display/B*%
X163950000Y-73150000D03*
%TO.N,/Display/GREEN_1*%
X161410000Y-73150000D03*
%TO.N,/Display/BLUE_1*%
X158870000Y-73150000D03*
%TO.N,/Display/C*%
X156330000Y-73150000D03*
%TO.N,/Display/BLUE_2*%
X153790000Y-73150000D03*
%TD*%
D15*
%TO.N,/Display/E*%
%TO.C,J7*%
X153790000Y-67700000D03*
D16*
%TO.N,/Display/D*%
X156330000Y-67700000D03*
%TO.N,/Display/DP*%
X158870000Y-67700000D03*
%TO.N,/Display/RED_4*%
X161410000Y-67700000D03*
%TO.N,/Display/F*%
X163950000Y-67700000D03*
%TO.N,/Display/G*%
X166490000Y-67700000D03*
%TO.N,/Display/GREEN_4*%
X169030000Y-67700000D03*
%TD*%
D15*
%TO.N,VBAT*%
%TO.C,J3*%
X180650000Y-82170000D03*
D16*
%TO.N,/Wi-Fi/3Vo*%
X180650000Y-84710000D03*
%TO.N,GND*%
X180650000Y-87250000D03*
%TO.N,/SCLK*%
X180650000Y-89790000D03*
%TO.N,/MISO*%
X180650000Y-92330000D03*
%TO.N,/MOSI*%
X180650000Y-94870000D03*
%TO.N,/CS1*%
X180650000Y-97410000D03*
%TO.N,/BUSY*%
X180650000Y-99950000D03*
%TO.N,/~{WIFIRST}*%
X180650000Y-102490000D03*
%TO.N,/Wi-Fi/GP0*%
X180650000Y-105030000D03*
%TO.N,/Wi-Fi/RXI*%
X180650000Y-107570000D03*
%TO.N,/Wi-Fi/TXO*%
X180650000Y-110110000D03*
%TD*%
D14*
%TO.N,N/C*%
%TO.C,P$2*%
X189720000Y-121070000D03*
%TD*%
D15*
%TO.N,/Display/RED_3*%
%TO.C,J8*%
X169030000Y-77150000D03*
D16*
%TO.N,/Display/A*%
X166490000Y-77150000D03*
%TO.N,/Display/B*%
X163950000Y-77150000D03*
%TO.N,/Display/GREEN_3*%
X161410000Y-77150000D03*
%TO.N,/Display/BLUE_3*%
X158870000Y-77150000D03*
%TO.N,/Display/C*%
X156330000Y-77150000D03*
%TO.N,/Display/BLUE_4*%
X153790000Y-77150000D03*
%TD*%
D17*
%TO.N,GND*%
%TO.C,X2*%
X114540000Y-83310000D03*
D18*
X117240000Y-84310000D03*
X117240000Y-89310000D03*
D17*
X114540000Y-90310000D03*
%TD*%
D15*
%TO.N,/Display/E*%
%TO.C,J5*%
X153790000Y-63600000D03*
D16*
%TO.N,/Display/D*%
X156330000Y-63600000D03*
%TO.N,/Display/DP*%
X158870000Y-63600000D03*
%TO.N,/Display/RED_2*%
X161410000Y-63600000D03*
%TO.N,/Display/F*%
X163950000Y-63600000D03*
%TO.N,/Display/G*%
X166490000Y-63600000D03*
%TO.N,/Display/GREEN_2*%
X169030000Y-63600000D03*
%TD*%
D19*
%TO.N,GND*%
X132160000Y-77510000D03*
X144450000Y-93900000D03*
X155250000Y-104475000D03*
X157140000Y-115390000D03*
X151500000Y-84500000D03*
D20*
X130030000Y-124800000D03*
X149850000Y-123500000D03*
D19*
X137050000Y-67500000D03*
X126250000Y-75660000D03*
X145000000Y-85000000D03*
X143500000Y-90750000D03*
X125700000Y-78400000D03*
D20*
X149840000Y-124850000D03*
D19*
X145350000Y-87150000D03*
X165180000Y-107220000D03*
X168925000Y-94750000D03*
X157500000Y-87500000D03*
D20*
X172679000Y-111000000D03*
D19*
X125700000Y-85540000D03*
X136550000Y-111550000D03*
X151700000Y-105450000D03*
X129200000Y-73750000D03*
D20*
X137050000Y-88750000D03*
X141650000Y-87350000D03*
D19*
X171500000Y-84250000D03*
X155150000Y-85650000D03*
X129150000Y-81900000D03*
D20*
X131875000Y-111375000D03*
D19*
X137270000Y-73630000D03*
X170250000Y-102250000D03*
D20*
X148000000Y-111500000D03*
D19*
X164991600Y-92764825D03*
X163830000Y-111000000D03*
X162500000Y-101000000D03*
D20*
X134700000Y-85400000D03*
D19*
X185535000Y-73215000D03*
D20*
X130015000Y-123500000D03*
D19*
X164612500Y-89200000D03*
X186166600Y-67982717D03*
D20*
X130150000Y-88150000D03*
D19*
X149550000Y-95525000D03*
D20*
X146550000Y-97650000D03*
D19*
X175350000Y-101150000D03*
D20*
%TO.N,VBAT*%
X179850000Y-70100000D03*
X129300000Y-76050000D03*
D19*
X151575000Y-69675000D03*
X135850000Y-75350000D03*
D20*
X128300000Y-88350000D03*
D19*
X170817081Y-70132919D03*
%TO.N,/~{RST}*%
X161766942Y-88866942D03*
X159280000Y-88580000D03*
X138560000Y-89030000D03*
%TO.N,+3V3*%
X149500000Y-96750000D03*
X159405000Y-108375000D03*
X154114142Y-104948869D03*
X163750000Y-92125000D03*
X177000000Y-94500000D03*
X145862000Y-92634000D03*
D20*
X138750000Y-108650000D03*
X136500000Y-108650000D03*
D19*
X138750000Y-111500000D03*
X155250000Y-113675000D03*
X163750000Y-100250000D03*
X161500000Y-90318750D03*
X159330000Y-110250000D03*
D20*
X130800000Y-85990000D03*
X143350000Y-109350000D03*
D19*
X134600000Y-80950000D03*
D20*
X167690800Y-114089600D03*
D19*
X149450000Y-99100000D03*
X156500000Y-89300000D03*
X175600000Y-102600000D03*
X158980000Y-115300000D03*
X151495000Y-82995000D03*
X165790000Y-89710000D03*
D20*
X133477000Y-108712000D03*
%TO.N,VBUS*%
X121310000Y-74710000D03*
X121300000Y-79740000D03*
D19*
%TO.N,/SWDIO*%
X170810000Y-95040000D03*
%TO.N,/SWCLK*%
X173200000Y-95200000D03*
%TO.N,/MOSI*%
X183280000Y-94950000D03*
X137420000Y-63470000D03*
X137930000Y-81750000D03*
%TO.N,/MISO*%
X188320000Y-92320000D03*
%TO.N,/SDA*%
X159816800Y-105308400D03*
D20*
X140716000Y-100177600D03*
D19*
%TO.N,/SCL*%
X159600000Y-103850000D03*
D20*
X140614400Y-102311200D03*
D19*
%TO.N,/Display/E*%
X172750000Y-72550000D03*
%TO.N,/Display/D*%
X172200000Y-75755000D03*
%TO.N,/Display/DP*%
X172762500Y-74437500D03*
%TO.N,/Display/RED_1*%
X137425000Y-69850000D03*
%TO.N,/Display/C*%
X150650000Y-67800000D03*
X156400000Y-70300000D03*
%TO.N,/Display/BLUE_2*%
X136100000Y-66010000D03*
%TO.N,/Display/BLUE_1*%
X136750000Y-64740000D03*
%TO.N,/Display/GREEN_1*%
X137450000Y-76175000D03*
%TO.N,/Display/A*%
X172695000Y-64390000D03*
%TO.N,/Display/GREEN_4*%
X185300000Y-65595000D03*
%TO.N,/Display/RED_4*%
X186000000Y-71950000D03*
X171525000Y-67600000D03*
%TO.N,/Display/GREEN_3*%
X182150000Y-78600000D03*
%TO.N,/Display/BLUE_3*%
X185325000Y-75775000D03*
%TO.N,/Display/RED_3*%
X185375000Y-70700000D03*
%TO.N,/Display/BLUE_4*%
X163950000Y-80700000D03*
X186000000Y-74500000D03*
%TO.N,/CS*%
X157930000Y-107100000D03*
X155455000Y-108800000D03*
%TO.N,/MCU_OSC/V_DIV*%
X153800000Y-89350000D03*
X142150000Y-89700000D03*
%TO.N,/D+*%
X166490000Y-93200000D03*
X120940000Y-89330000D03*
%TO.N,/D-*%
X122230000Y-88890000D03*
X164149316Y-94099316D03*
D20*
%TO.N,/CS3*%
X184734200Y-80594200D03*
D19*
X164340000Y-95525000D03*
X136650000Y-84400000D03*
D21*
X186131200Y-66675000D03*
%TD*%
%TA.AperFunction,Conductor*%
%TO.N,GND*%
G36*
X189683602Y-61285117D02*
G01*
X190093817Y-61303028D01*
X190104554Y-61303968D01*
X190508957Y-61357208D01*
X190519595Y-61359083D01*
X190917825Y-61447369D01*
X190928265Y-61450167D01*
X191317263Y-61572817D01*
X191327424Y-61576515D01*
X191704263Y-61732608D01*
X191714055Y-61737174D01*
X192075865Y-61925520D01*
X192085205Y-61930913D01*
X192370536Y-62112689D01*
X192429209Y-62150068D01*
X192438070Y-62156272D01*
X192761666Y-62404576D01*
X192769953Y-62411530D01*
X193070667Y-62687083D01*
X193078316Y-62694732D01*
X193353869Y-62995446D01*
X193360823Y-63003733D01*
X193609127Y-63327329D01*
X193615331Y-63336190D01*
X193834478Y-63680180D01*
X193839883Y-63689542D01*
X193929982Y-63862620D01*
X194028222Y-64051338D01*
X194032794Y-64061142D01*
X194188883Y-64437973D01*
X194192583Y-64448139D01*
X194315231Y-64837130D01*
X194318031Y-64847578D01*
X194406314Y-65245796D01*
X194408192Y-65256450D01*
X194461429Y-65660826D01*
X194462372Y-65671602D01*
X194480282Y-66081797D01*
X194480400Y-66087206D01*
X194480400Y-76761800D01*
X194460715Y-76828839D01*
X194407911Y-76874594D01*
X194356400Y-76885800D01*
X188744400Y-76885800D01*
X188677361Y-76866115D01*
X188631606Y-76813311D01*
X188620400Y-76761800D01*
X188620400Y-76758831D01*
X188569600Y-82880200D01*
X194356400Y-82880200D01*
X194423439Y-82899885D01*
X194469194Y-82952689D01*
X194480400Y-83004200D01*
X194480400Y-121081793D01*
X194480282Y-121087202D01*
X194462372Y-121497397D01*
X194461429Y-121508173D01*
X194408192Y-121912549D01*
X194406314Y-121923203D01*
X194318031Y-122321421D01*
X194315231Y-122331869D01*
X194192583Y-122720860D01*
X194188883Y-122731026D01*
X194032794Y-123107857D01*
X194028222Y-123117661D01*
X193839887Y-123479451D01*
X193834478Y-123488819D01*
X193615331Y-123832809D01*
X193609127Y-123841670D01*
X193360823Y-124165266D01*
X193353869Y-124173553D01*
X193078316Y-124474267D01*
X193070667Y-124481916D01*
X192769953Y-124757469D01*
X192761666Y-124764423D01*
X192438070Y-125012727D01*
X192429209Y-125018931D01*
X192085219Y-125238078D01*
X192075851Y-125243487D01*
X191714061Y-125431822D01*
X191704257Y-125436394D01*
X191327426Y-125592483D01*
X191317260Y-125596183D01*
X190928269Y-125718831D01*
X190917821Y-125721631D01*
X190519603Y-125809914D01*
X190508949Y-125811792D01*
X190104573Y-125865029D01*
X190093797Y-125865972D01*
X189683603Y-125883882D01*
X189678194Y-125884000D01*
X117683606Y-125884000D01*
X117678197Y-125883882D01*
X117268002Y-125865972D01*
X117257226Y-125865029D01*
X116852850Y-125811792D01*
X116842196Y-125809914D01*
X116443978Y-125721631D01*
X116433530Y-125718831D01*
X116044539Y-125596183D01*
X116034373Y-125592483D01*
X115657542Y-125436394D01*
X115647738Y-125431822D01*
X115528026Y-125369504D01*
X115285942Y-125243483D01*
X115276586Y-125238082D01*
X115104585Y-125128504D01*
X114932590Y-125018931D01*
X114923729Y-125012727D01*
X114600133Y-124764423D01*
X114591846Y-124757469D01*
X114476154Y-124651457D01*
X135344499Y-124651457D01*
X135372379Y-124791614D01*
X135372381Y-124791620D01*
X135427069Y-124923650D01*
X135427074Y-124923659D01*
X135506467Y-125042478D01*
X135506470Y-125042482D01*
X135607517Y-125143529D01*
X135607521Y-125143532D01*
X135726340Y-125222925D01*
X135726346Y-125222928D01*
X135726347Y-125222929D01*
X135858380Y-125277619D01*
X135858384Y-125277619D01*
X135858385Y-125277620D01*
X135998542Y-125305500D01*
X135998545Y-125305500D01*
X136141457Y-125305500D01*
X136235751Y-125286742D01*
X136281620Y-125277619D01*
X136413653Y-125222929D01*
X136532479Y-125143532D01*
X136633532Y-125042479D01*
X136712929Y-124923653D01*
X136767619Y-124791620D01*
X136795500Y-124651457D01*
X142144499Y-124651457D01*
X142172379Y-124791614D01*
X142172381Y-124791620D01*
X142227069Y-124923650D01*
X142227074Y-124923659D01*
X142306467Y-125042478D01*
X142306470Y-125042482D01*
X142407517Y-125143529D01*
X142407521Y-125143532D01*
X142526340Y-125222925D01*
X142526346Y-125222928D01*
X142526347Y-125222929D01*
X142658380Y-125277619D01*
X142658384Y-125277619D01*
X142658385Y-125277620D01*
X142798542Y-125305500D01*
X142798545Y-125305500D01*
X142941457Y-125305500D01*
X143035751Y-125286742D01*
X143081620Y-125277619D01*
X143213653Y-125222929D01*
X143332479Y-125143532D01*
X143433532Y-125042479D01*
X143512929Y-124923653D01*
X143567619Y-124791620D01*
X143595500Y-124651455D01*
X143595500Y-124508545D01*
X143595500Y-124508542D01*
X143567620Y-124368385D01*
X143567619Y-124368384D01*
X143567619Y-124368380D01*
X143512929Y-124236347D01*
X143512928Y-124236346D01*
X143512925Y-124236340D01*
X143433532Y-124117521D01*
X143433529Y-124117517D01*
X143332482Y-124016470D01*
X143332478Y-124016467D01*
X143213659Y-123937074D01*
X143213650Y-123937069D01*
X143081620Y-123882381D01*
X143081614Y-123882379D01*
X142941457Y-123854500D01*
X142941455Y-123854500D01*
X142798545Y-123854500D01*
X142798543Y-123854500D01*
X142658385Y-123882379D01*
X142658379Y-123882381D01*
X142526349Y-123937069D01*
X142526340Y-123937074D01*
X142407521Y-124016467D01*
X142407517Y-124016470D01*
X142306470Y-124117517D01*
X142306467Y-124117521D01*
X142227074Y-124236340D01*
X142227069Y-124236349D01*
X142172381Y-124368379D01*
X142172379Y-124368385D01*
X142144500Y-124508542D01*
X142144500Y-124508545D01*
X142144500Y-124651455D01*
X142144500Y-124651457D01*
X142144499Y-124651457D01*
X136795500Y-124651457D01*
X136795500Y-124651455D01*
X136795500Y-124508545D01*
X136795500Y-124508542D01*
X136767620Y-124368385D01*
X136767619Y-124368384D01*
X136767619Y-124368380D01*
X136712929Y-124236347D01*
X136712928Y-124236346D01*
X136712925Y-124236340D01*
X136633532Y-124117521D01*
X136633529Y-124117517D01*
X136532482Y-124016470D01*
X136532478Y-124016467D01*
X136413659Y-123937074D01*
X136413650Y-123937069D01*
X136281620Y-123882381D01*
X136281614Y-123882379D01*
X136141457Y-123854500D01*
X136141455Y-123854500D01*
X135998545Y-123854500D01*
X135998543Y-123854500D01*
X135858385Y-123882379D01*
X135858379Y-123882381D01*
X135726349Y-123937069D01*
X135726340Y-123937074D01*
X135607521Y-124016467D01*
X135607517Y-124016470D01*
X135506470Y-124117517D01*
X135506467Y-124117521D01*
X135427074Y-124236340D01*
X135427069Y-124236349D01*
X135372381Y-124368379D01*
X135372379Y-124368385D01*
X135344500Y-124508542D01*
X135344500Y-124508545D01*
X135344500Y-124651455D01*
X135344500Y-124651457D01*
X135344499Y-124651457D01*
X114476154Y-124651457D01*
X114291132Y-124481916D01*
X114283483Y-124474267D01*
X114007930Y-124173553D01*
X114000976Y-124165266D01*
X113752672Y-123841670D01*
X113746468Y-123832809D01*
X113692970Y-123748834D01*
X113527313Y-123488805D01*
X113521920Y-123479465D01*
X113333574Y-123117655D01*
X113329005Y-123107857D01*
X113214028Y-122830280D01*
X113172915Y-122731024D01*
X113169216Y-122720860D01*
X113141720Y-122633655D01*
X113046567Y-122331865D01*
X113043768Y-122321421D01*
X112955483Y-121923195D01*
X112953607Y-121912549D01*
X112945820Y-121853398D01*
X112900368Y-121508154D01*
X112899428Y-121497417D01*
X112881518Y-121087202D01*
X112881400Y-121081793D01*
X112881400Y-121069995D01*
X115914451Y-121069995D01*
X115914451Y-121070004D01*
X115934616Y-121339101D01*
X115973206Y-121508173D01*
X115994666Y-121602195D01*
X116093257Y-121853398D01*
X116228185Y-122087102D01*
X116364080Y-122257509D01*
X116396442Y-122298089D01*
X116583183Y-122471358D01*
X116594259Y-122481635D01*
X116817226Y-122633651D01*
X117060359Y-122750738D01*
X117318228Y-122830280D01*
X117318229Y-122830280D01*
X117318232Y-122830281D01*
X117585063Y-122870499D01*
X117585068Y-122870499D01*
X117585071Y-122870500D01*
X117585072Y-122870500D01*
X117854928Y-122870500D01*
X117854929Y-122870500D01*
X117854936Y-122870499D01*
X118121767Y-122830281D01*
X118121768Y-122830280D01*
X118121772Y-122830280D01*
X118379641Y-122750738D01*
X118622775Y-122633651D01*
X118845741Y-122481635D01*
X118999259Y-122339190D01*
X119043557Y-122298089D01*
X119043557Y-122298087D01*
X119043561Y-122298085D01*
X119211815Y-122087102D01*
X119346743Y-121853398D01*
X119445334Y-121602195D01*
X119505383Y-121339103D01*
X119524260Y-121087202D01*
X119525549Y-121070004D01*
X119525549Y-121069995D01*
X187914451Y-121069995D01*
X187914451Y-121070004D01*
X187934616Y-121339101D01*
X187973206Y-121508173D01*
X187994666Y-121602195D01*
X188093257Y-121853398D01*
X188228185Y-122087102D01*
X188364080Y-122257509D01*
X188396442Y-122298089D01*
X188583183Y-122471358D01*
X188594259Y-122481635D01*
X188817226Y-122633651D01*
X189060359Y-122750738D01*
X189318228Y-122830280D01*
X189318229Y-122830280D01*
X189318232Y-122830281D01*
X189585063Y-122870499D01*
X189585068Y-122870499D01*
X189585071Y-122870500D01*
X189585072Y-122870500D01*
X189854928Y-122870500D01*
X189854929Y-122870500D01*
X189854936Y-122870499D01*
X190121767Y-122830281D01*
X190121768Y-122830280D01*
X190121772Y-122830280D01*
X190379641Y-122750738D01*
X190622775Y-122633651D01*
X190845741Y-122481635D01*
X190999259Y-122339190D01*
X191043557Y-122298089D01*
X191043557Y-122298087D01*
X191043561Y-122298085D01*
X191211815Y-122087102D01*
X191346743Y-121853398D01*
X191445334Y-121602195D01*
X191505383Y-121339103D01*
X191524260Y-121087202D01*
X191525549Y-121070004D01*
X191525549Y-121069995D01*
X191505383Y-120800898D01*
X191445335Y-120537811D01*
X191445334Y-120537805D01*
X191346743Y-120286602D01*
X191211815Y-120052898D01*
X191043561Y-119841915D01*
X191043560Y-119841914D01*
X191043557Y-119841910D01*
X190845741Y-119658365D01*
X190622775Y-119506349D01*
X190622769Y-119506346D01*
X190622768Y-119506345D01*
X190622767Y-119506344D01*
X190379643Y-119389263D01*
X190379645Y-119389263D01*
X190121773Y-119309720D01*
X190121767Y-119309718D01*
X189854936Y-119269500D01*
X189854929Y-119269500D01*
X189585071Y-119269500D01*
X189585063Y-119269500D01*
X189318232Y-119309718D01*
X189318226Y-119309720D01*
X189060358Y-119389262D01*
X188817230Y-119506346D01*
X188594258Y-119658365D01*
X188396442Y-119841910D01*
X188228185Y-120052898D01*
X188093258Y-120286599D01*
X188093256Y-120286603D01*
X187994666Y-120537804D01*
X187994664Y-120537811D01*
X187934616Y-120800898D01*
X187914451Y-121069995D01*
X119525549Y-121069995D01*
X119505383Y-120800898D01*
X119445335Y-120537811D01*
X119445334Y-120537805D01*
X119346743Y-120286602D01*
X119211815Y-120052898D01*
X119043561Y-119841915D01*
X119043560Y-119841914D01*
X119043557Y-119841910D01*
X118845741Y-119658365D01*
X118622775Y-119506349D01*
X118622769Y-119506346D01*
X118622768Y-119506345D01*
X118622767Y-119506344D01*
X118379643Y-119389263D01*
X118379645Y-119389263D01*
X118121773Y-119309720D01*
X118121767Y-119309718D01*
X117854936Y-119269500D01*
X117854929Y-119269500D01*
X117585071Y-119269500D01*
X117585063Y-119269500D01*
X117318232Y-119309718D01*
X117318226Y-119309720D01*
X117060358Y-119389262D01*
X116817230Y-119506346D01*
X116594258Y-119658365D01*
X116396442Y-119841910D01*
X116228185Y-120052898D01*
X116093258Y-120286599D01*
X116093256Y-120286603D01*
X115994666Y-120537804D01*
X115994664Y-120537811D01*
X115934616Y-120800898D01*
X115914451Y-121069995D01*
X112881400Y-121069995D01*
X112881400Y-115299999D01*
X158424750Y-115299999D01*
X158424750Y-115300000D01*
X158443670Y-115443708D01*
X158443671Y-115443712D01*
X158499137Y-115577622D01*
X158499138Y-115577624D01*
X158499139Y-115577625D01*
X158587379Y-115692621D01*
X158702375Y-115780861D01*
X158836291Y-115836330D01*
X158963280Y-115853048D01*
X158979999Y-115855250D01*
X158980000Y-115855250D01*
X158980001Y-115855250D01*
X158994977Y-115853278D01*
X159123709Y-115836330D01*
X159257625Y-115780861D01*
X159372621Y-115692621D01*
X159460861Y-115577625D01*
X159516330Y-115443709D01*
X159535250Y-115300000D01*
X159516330Y-115156291D01*
X159460861Y-115022375D01*
X159372621Y-114907379D01*
X159257625Y-114819139D01*
X159257624Y-114819138D01*
X159257622Y-114819137D01*
X159123712Y-114763671D01*
X159123710Y-114763670D01*
X159123709Y-114763670D01*
X159015244Y-114749390D01*
X158980001Y-114744750D01*
X158979999Y-114744750D01*
X158836291Y-114763670D01*
X158836287Y-114763671D01*
X158702377Y-114819137D01*
X158587379Y-114907379D01*
X158499137Y-115022377D01*
X158443671Y-115156287D01*
X158443670Y-115156291D01*
X158424750Y-115299999D01*
X112881400Y-115299999D01*
X112881400Y-113674999D01*
X154694750Y-113674999D01*
X154694750Y-113675000D01*
X154713670Y-113818708D01*
X154713671Y-113818712D01*
X154769137Y-113952622D01*
X154769138Y-113952624D01*
X154769139Y-113952625D01*
X154857379Y-114067621D01*
X154972375Y-114155861D01*
X155106291Y-114211330D01*
X155233280Y-114228048D01*
X155249999Y-114230250D01*
X155250000Y-114230250D01*
X155250001Y-114230250D01*
X155264977Y-114228278D01*
X155393709Y-114211330D01*
X155527625Y-114155861D01*
X155613978Y-114089600D01*
X166985155Y-114089600D01*
X167005659Y-114258469D01*
X167005660Y-114258474D01*
X167065982Y-114417531D01*
X167128275Y-114507777D01*
X167162617Y-114557529D01*
X167268305Y-114651160D01*
X167289950Y-114670336D01*
X167431734Y-114744750D01*
X167440575Y-114749390D01*
X167605744Y-114790100D01*
X167775856Y-114790100D01*
X167941025Y-114749390D01*
X168020492Y-114707681D01*
X168091649Y-114670336D01*
X168091650Y-114670334D01*
X168091652Y-114670334D01*
X168218983Y-114557529D01*
X168315618Y-114417530D01*
X168375940Y-114258472D01*
X168396445Y-114089600D01*
X168375940Y-113920728D01*
X168315618Y-113761670D01*
X168218983Y-113621671D01*
X168091652Y-113508866D01*
X168091649Y-113508863D01*
X167941026Y-113429810D01*
X167775856Y-113389100D01*
X167605744Y-113389100D01*
X167440573Y-113429810D01*
X167289950Y-113508863D01*
X167162616Y-113621672D01*
X167065982Y-113761668D01*
X167005660Y-113920725D01*
X167005659Y-113920730D01*
X166985155Y-114089600D01*
X155613978Y-114089600D01*
X155642621Y-114067621D01*
X155730861Y-113952625D01*
X155786330Y-113818709D01*
X155805250Y-113675000D01*
X155786330Y-113531291D01*
X155730861Y-113397375D01*
X155642621Y-113282379D01*
X155527625Y-113194139D01*
X155527624Y-113194138D01*
X155527622Y-113194137D01*
X155393712Y-113138671D01*
X155393710Y-113138670D01*
X155393709Y-113138670D01*
X155321854Y-113129210D01*
X155250001Y-113119750D01*
X155249999Y-113119750D01*
X155106291Y-113138670D01*
X155106287Y-113138671D01*
X154972377Y-113194137D01*
X154857379Y-113282379D01*
X154769137Y-113397377D01*
X154713671Y-113531287D01*
X154713670Y-113531291D01*
X154694750Y-113674999D01*
X112881400Y-113674999D01*
X112881400Y-111499999D01*
X138194750Y-111499999D01*
X138194750Y-111500000D01*
X138213670Y-111643708D01*
X138213671Y-111643712D01*
X138269137Y-111777622D01*
X138269138Y-111777624D01*
X138269139Y-111777625D01*
X138357379Y-111892621D01*
X138472375Y-111980861D01*
X138606291Y-112036330D01*
X138733280Y-112053048D01*
X138749999Y-112055250D01*
X138750000Y-112055250D01*
X138750001Y-112055250D01*
X138764977Y-112053278D01*
X138893709Y-112036330D01*
X139027625Y-111980861D01*
X139142621Y-111892621D01*
X139230861Y-111777625D01*
X139286330Y-111643709D01*
X139305250Y-111500000D01*
X139286330Y-111356291D01*
X139241126Y-111247157D01*
X139230862Y-111222377D01*
X139230861Y-111222376D01*
X139230861Y-111222375D01*
X139142621Y-111107379D01*
X139027625Y-111019139D01*
X139027624Y-111019138D01*
X139027622Y-111019137D01*
X138893712Y-110963671D01*
X138893710Y-110963670D01*
X138893709Y-110963670D01*
X138821854Y-110954210D01*
X138750001Y-110944750D01*
X138749999Y-110944750D01*
X138606291Y-110963670D01*
X138606287Y-110963671D01*
X138472377Y-111019137D01*
X138357379Y-111107379D01*
X138269137Y-111222377D01*
X138213671Y-111356287D01*
X138213670Y-111356291D01*
X138194750Y-111499999D01*
X112881400Y-111499999D01*
X112881400Y-110280000D01*
X127472843Y-110280000D01*
X127491426Y-110468681D01*
X127491427Y-110468683D01*
X127546463Y-110650115D01*
X127546464Y-110650118D01*
X127546465Y-110650119D01*
X127546466Y-110650122D01*
X127635834Y-110817318D01*
X127635838Y-110817325D01*
X127756116Y-110963883D01*
X127902674Y-111084161D01*
X127902681Y-111084165D01*
X128069877Y-111173533D01*
X128069878Y-111173533D01*
X128069885Y-111173537D01*
X128251317Y-111228573D01*
X128251316Y-111228573D01*
X128268233Y-111230239D01*
X128440000Y-111247157D01*
X128628683Y-111228573D01*
X128810115Y-111173537D01*
X128977324Y-111084162D01*
X129123883Y-110963883D01*
X129244162Y-110817324D01*
X129333537Y-110650115D01*
X129388573Y-110468683D01*
X129407157Y-110280000D01*
X129404202Y-110249999D01*
X158774750Y-110249999D01*
X158774750Y-110250000D01*
X158793670Y-110393708D01*
X158793671Y-110393712D01*
X158849137Y-110527622D01*
X158849138Y-110527624D01*
X158849139Y-110527625D01*
X158937379Y-110642621D01*
X159052375Y-110730861D01*
X159186291Y-110786330D01*
X159313280Y-110803048D01*
X159329999Y-110805250D01*
X159330000Y-110805250D01*
X159330001Y-110805250D01*
X159344977Y-110803278D01*
X159473709Y-110786330D01*
X159607625Y-110730861D01*
X159722621Y-110642621D01*
X159810861Y-110527625D01*
X159866330Y-110393709D01*
X159885250Y-110250000D01*
X159866818Y-110110000D01*
X179594417Y-110110000D01*
X179614699Y-110315932D01*
X179638293Y-110393712D01*
X179674768Y-110513954D01*
X179772315Y-110696450D01*
X179772317Y-110696452D01*
X179903589Y-110856410D01*
X180000209Y-110935702D01*
X180063550Y-110987685D01*
X180246046Y-111085232D01*
X180444066Y-111145300D01*
X180444065Y-111145300D01*
X180462529Y-111147118D01*
X180650000Y-111165583D01*
X180855934Y-111145300D01*
X181053954Y-111085232D01*
X181236450Y-110987685D01*
X181396410Y-110856410D01*
X181527685Y-110696450D01*
X181625232Y-110513954D01*
X181685300Y-110315934D01*
X181705583Y-110110000D01*
X181685300Y-109904066D01*
X181625232Y-109706046D01*
X181527685Y-109523550D01*
X181475702Y-109460209D01*
X181396410Y-109363589D01*
X181236452Y-109232317D01*
X181236453Y-109232317D01*
X181236450Y-109232315D01*
X181053954Y-109134768D01*
X180855934Y-109074700D01*
X180855932Y-109074699D01*
X180855934Y-109074699D01*
X180650000Y-109054417D01*
X180444067Y-109074699D01*
X180246043Y-109134769D01*
X180137813Y-109192620D01*
X180063550Y-109232315D01*
X180063548Y-109232316D01*
X180063547Y-109232317D01*
X179903589Y-109363589D01*
X179772317Y-109523547D01*
X179674769Y-109706043D01*
X179614699Y-109904067D01*
X179594417Y-110110000D01*
X159866818Y-110110000D01*
X159866330Y-110106291D01*
X159810861Y-109972375D01*
X159722621Y-109857379D01*
X159607625Y-109769139D01*
X159607624Y-109769138D01*
X159607622Y-109769137D01*
X159473712Y-109713671D01*
X159473710Y-109713670D01*
X159473709Y-109713670D01*
X159401854Y-109704210D01*
X159330001Y-109694750D01*
X159329999Y-109694750D01*
X159186291Y-109713670D01*
X159186287Y-109713671D01*
X159052377Y-109769137D01*
X158937379Y-109857379D01*
X158849137Y-109972377D01*
X158793671Y-110106287D01*
X158793670Y-110106291D01*
X158774750Y-110249999D01*
X129404202Y-110249999D01*
X129388573Y-110091317D01*
X129333537Y-109909885D01*
X129284386Y-109817929D01*
X129244165Y-109742681D01*
X129244161Y-109742674D01*
X129123883Y-109596116D01*
X128977325Y-109475838D01*
X128977318Y-109475834D01*
X128810122Y-109386466D01*
X128810119Y-109386465D01*
X128810118Y-109386464D01*
X128810115Y-109386463D01*
X128628683Y-109331427D01*
X128628681Y-109331426D01*
X128628683Y-109331426D01*
X128440000Y-109312843D01*
X128251318Y-109331426D01*
X128145292Y-109363589D01*
X128069885Y-109386463D01*
X128069882Y-109386464D01*
X128069880Y-109386465D01*
X128069877Y-109386466D01*
X127902681Y-109475834D01*
X127902674Y-109475838D01*
X127756116Y-109596116D01*
X127635838Y-109742674D01*
X127635834Y-109742681D01*
X127546466Y-109909877D01*
X127546465Y-109909880D01*
X127491426Y-110091318D01*
X127472843Y-110280000D01*
X112881400Y-110280000D01*
X112881400Y-108712000D01*
X132771355Y-108712000D01*
X132791859Y-108880869D01*
X132791860Y-108880874D01*
X132852182Y-109039931D01*
X132876181Y-109074699D01*
X132948817Y-109179929D01*
X133054505Y-109273560D01*
X133076150Y-109292736D01*
X133211149Y-109363589D01*
X133226775Y-109371790D01*
X133391944Y-109412500D01*
X133562056Y-109412500D01*
X133727225Y-109371790D01*
X133845357Y-109309789D01*
X133877849Y-109292736D01*
X133877850Y-109292734D01*
X133877852Y-109292734D01*
X134005183Y-109179929D01*
X134101818Y-109039930D01*
X134162140Y-108880872D01*
X134182645Y-108712000D01*
X134175117Y-108650000D01*
X135794355Y-108650000D01*
X135814859Y-108818869D01*
X135814860Y-108818874D01*
X135875182Y-108977931D01*
X135937475Y-109068177D01*
X135971817Y-109117929D01*
X136056126Y-109192620D01*
X136099150Y-109230736D01*
X136249773Y-109309789D01*
X136249775Y-109309790D01*
X136414944Y-109350500D01*
X136585056Y-109350500D01*
X136750225Y-109309790D01*
X136829692Y-109268081D01*
X136900849Y-109230736D01*
X136900850Y-109230734D01*
X136900852Y-109230734D01*
X137028183Y-109117929D01*
X137124818Y-108977930D01*
X137185140Y-108818872D01*
X137205645Y-108650000D01*
X138044355Y-108650000D01*
X138064859Y-108818869D01*
X138064860Y-108818874D01*
X138125182Y-108977931D01*
X138187475Y-109068177D01*
X138221817Y-109117929D01*
X138306126Y-109192620D01*
X138349150Y-109230736D01*
X138499773Y-109309789D01*
X138499775Y-109309790D01*
X138664944Y-109350500D01*
X138835056Y-109350500D01*
X138837085Y-109350000D01*
X142644355Y-109350000D01*
X142664859Y-109518869D01*
X142664860Y-109518874D01*
X142725182Y-109677931D01*
X142749852Y-109713671D01*
X142821817Y-109817929D01*
X142919046Y-109904066D01*
X142949150Y-109930736D01*
X143099773Y-110009789D01*
X143099775Y-110009790D01*
X143264944Y-110050500D01*
X143435056Y-110050500D01*
X143600225Y-110009790D01*
X143679692Y-109968081D01*
X143750849Y-109930736D01*
X143750850Y-109930734D01*
X143750852Y-109930734D01*
X143878183Y-109817929D01*
X143974818Y-109677930D01*
X144035140Y-109518872D01*
X144055645Y-109350000D01*
X144035140Y-109181128D01*
X143974818Y-109022070D01*
X143878183Y-108882071D01*
X143785544Y-108800000D01*
X154899750Y-108800000D01*
X154910397Y-108880874D01*
X154918670Y-108943708D01*
X154918671Y-108943712D01*
X154974137Y-109077622D01*
X154974138Y-109077624D01*
X154974139Y-109077625D01*
X155062379Y-109192621D01*
X155177375Y-109280861D01*
X155177376Y-109280861D01*
X155177377Y-109280862D01*
X155206039Y-109292734D01*
X155311291Y-109336330D01*
X155438280Y-109353048D01*
X155454999Y-109355250D01*
X155455000Y-109355250D01*
X155455001Y-109355250D01*
X155469977Y-109353278D01*
X155598709Y-109336330D01*
X155732625Y-109280861D01*
X155847621Y-109192621D01*
X155935861Y-109077625D01*
X155991330Y-108943709D01*
X156010250Y-108800000D01*
X155991330Y-108656291D01*
X155935861Y-108522375D01*
X155847621Y-108407379D01*
X155805423Y-108374999D01*
X158849750Y-108374999D01*
X158849750Y-108375000D01*
X158868670Y-108518708D01*
X158868671Y-108518712D01*
X158924137Y-108652622D01*
X158924138Y-108652624D01*
X158924139Y-108652625D01*
X159012379Y-108767621D01*
X159127375Y-108855861D01*
X159261291Y-108911330D01*
X159388280Y-108928048D01*
X159404999Y-108930250D01*
X159405000Y-108930250D01*
X159405001Y-108930250D01*
X159419977Y-108928278D01*
X159548709Y-108911330D01*
X159682625Y-108855861D01*
X159797621Y-108767621D01*
X159885861Y-108652625D01*
X159941330Y-108518709D01*
X159960250Y-108375000D01*
X159941330Y-108231291D01*
X159925158Y-108192247D01*
X173340300Y-108192247D01*
X173340300Y-109231752D01*
X173351931Y-109290229D01*
X173351932Y-109290230D01*
X173396247Y-109356552D01*
X173462569Y-109400867D01*
X173462570Y-109400868D01*
X173521047Y-109412499D01*
X173521050Y-109412500D01*
X173521052Y-109412500D01*
X174560550Y-109412500D01*
X174560551Y-109412499D01*
X174575368Y-109409552D01*
X174619029Y-109400868D01*
X174619029Y-109400867D01*
X174619031Y-109400867D01*
X174685352Y-109356552D01*
X174729667Y-109290231D01*
X174729667Y-109290229D01*
X174729668Y-109290229D01*
X174741299Y-109231752D01*
X174741300Y-109231750D01*
X174741300Y-108192249D01*
X174741299Y-108192247D01*
X174729668Y-108133770D01*
X174729667Y-108133769D01*
X174685352Y-108067447D01*
X174619030Y-108023132D01*
X174619029Y-108023131D01*
X174560552Y-108011500D01*
X174560548Y-108011500D01*
X173521052Y-108011500D01*
X173521047Y-108011500D01*
X173462570Y-108023131D01*
X173462569Y-108023132D01*
X173396247Y-108067447D01*
X173351932Y-108133769D01*
X173351931Y-108133770D01*
X173340300Y-108192247D01*
X159925158Y-108192247D01*
X159885861Y-108097375D01*
X159797621Y-107982379D01*
X159682625Y-107894139D01*
X159682624Y-107894138D01*
X159682622Y-107894137D01*
X159548712Y-107838671D01*
X159548710Y-107838670D01*
X159548709Y-107838670D01*
X159476854Y-107829210D01*
X159405001Y-107819750D01*
X159404999Y-107819750D01*
X159261291Y-107838670D01*
X159261287Y-107838671D01*
X159127377Y-107894137D01*
X159012379Y-107982379D01*
X158924137Y-108097377D01*
X158868671Y-108231287D01*
X158868670Y-108231291D01*
X158849750Y-108374999D01*
X155805423Y-108374999D01*
X155732625Y-108319139D01*
X155732624Y-108319138D01*
X155732622Y-108319137D01*
X155598712Y-108263671D01*
X155598710Y-108263670D01*
X155598709Y-108263670D01*
X155526854Y-108254210D01*
X155455001Y-108244750D01*
X155454999Y-108244750D01*
X155311291Y-108263670D01*
X155311287Y-108263671D01*
X155177377Y-108319137D01*
X155062379Y-108407379D01*
X154974137Y-108522377D01*
X154918671Y-108656287D01*
X154918670Y-108656291D01*
X154899750Y-108800000D01*
X143785544Y-108800000D01*
X143750852Y-108769266D01*
X143750849Y-108769263D01*
X143600226Y-108690210D01*
X143435056Y-108649500D01*
X143264944Y-108649500D01*
X143099773Y-108690210D01*
X142949150Y-108769263D01*
X142851402Y-108855861D01*
X142823171Y-108880872D01*
X142821816Y-108882072D01*
X142725182Y-109022068D01*
X142664860Y-109181125D01*
X142664859Y-109181130D01*
X142644355Y-109350000D01*
X138837085Y-109350000D01*
X139000225Y-109309790D01*
X139079692Y-109268081D01*
X139150849Y-109230736D01*
X139150850Y-109230734D01*
X139150852Y-109230734D01*
X139278183Y-109117929D01*
X139374818Y-108977930D01*
X139435140Y-108818872D01*
X139455645Y-108650000D01*
X139435140Y-108481128D01*
X139374818Y-108322070D01*
X139372793Y-108319137D01*
X139312157Y-108231291D01*
X139278183Y-108182071D01*
X139150852Y-108069266D01*
X139150849Y-108069263D01*
X139000226Y-107990210D01*
X138835056Y-107949500D01*
X138664944Y-107949500D01*
X138499773Y-107990210D01*
X138349150Y-108069263D01*
X138221816Y-108182072D01*
X138125182Y-108322068D01*
X138064860Y-108481125D01*
X138064859Y-108481130D01*
X138044355Y-108650000D01*
X137205645Y-108650000D01*
X137185140Y-108481128D01*
X137124818Y-108322070D01*
X137122793Y-108319137D01*
X137062157Y-108231291D01*
X137028183Y-108182071D01*
X136900852Y-108069266D01*
X136900849Y-108069263D01*
X136750226Y-107990210D01*
X136585056Y-107949500D01*
X136414944Y-107949500D01*
X136249773Y-107990210D01*
X136099150Y-108069263D01*
X135971816Y-108182072D01*
X135875182Y-108322068D01*
X135814860Y-108481125D01*
X135814859Y-108481130D01*
X135794355Y-108650000D01*
X134175117Y-108650000D01*
X134162140Y-108543128D01*
X134101818Y-108384070D01*
X134095557Y-108375000D01*
X134055115Y-108316410D01*
X134005183Y-108244071D01*
X133906279Y-108156450D01*
X133877849Y-108131263D01*
X133727226Y-108052210D01*
X133562056Y-108011500D01*
X133391944Y-108011500D01*
X133226773Y-108052210D01*
X133076150Y-108131263D01*
X132948816Y-108244072D01*
X132852182Y-108384068D01*
X132791860Y-108543125D01*
X132791859Y-108543130D01*
X132771355Y-108712000D01*
X112881400Y-108712000D01*
X112881400Y-107740000D01*
X127472843Y-107740000D01*
X127491426Y-107928681D01*
X127505160Y-107973954D01*
X127546463Y-108110115D01*
X127546464Y-108110118D01*
X127546465Y-108110119D01*
X127546466Y-108110122D01*
X127635834Y-108277318D01*
X127635838Y-108277325D01*
X127756116Y-108423883D01*
X127902674Y-108544161D01*
X127902681Y-108544165D01*
X128069877Y-108633533D01*
X128069878Y-108633533D01*
X128069885Y-108633537D01*
X128251317Y-108688573D01*
X128251316Y-108688573D01*
X128267937Y-108690210D01*
X128440000Y-108707157D01*
X128628683Y-108688573D01*
X128810115Y-108633537D01*
X128977324Y-108544162D01*
X129123883Y-108423883D01*
X129244162Y-108277324D01*
X129333537Y-108110115D01*
X129388573Y-107928683D01*
X129407157Y-107740000D01*
X129388573Y-107551317D01*
X129333537Y-107369885D01*
X129244162Y-107202676D01*
X129244161Y-107202674D01*
X129159898Y-107100000D01*
X157374750Y-107100000D01*
X157388268Y-107202681D01*
X157393670Y-107243708D01*
X157393671Y-107243712D01*
X157449137Y-107377622D01*
X157449138Y-107377624D01*
X157449139Y-107377625D01*
X157537379Y-107492621D01*
X157652375Y-107580861D01*
X157786291Y-107636330D01*
X157913280Y-107653048D01*
X157929999Y-107655250D01*
X157930000Y-107655250D01*
X157930001Y-107655250D01*
X157944977Y-107653278D01*
X158073709Y-107636330D01*
X158207625Y-107580861D01*
X158221779Y-107570000D01*
X179594417Y-107570000D01*
X179614699Y-107775932D01*
X179633731Y-107838671D01*
X179674768Y-107973954D01*
X179772315Y-108156450D01*
X179793342Y-108182072D01*
X179903589Y-108316410D01*
X179986032Y-108384068D01*
X180063550Y-108447685D01*
X180246046Y-108545232D01*
X180444066Y-108605300D01*
X180444065Y-108605300D01*
X180462529Y-108607118D01*
X180650000Y-108625583D01*
X180855934Y-108605300D01*
X181053954Y-108545232D01*
X181236450Y-108447685D01*
X181396410Y-108316410D01*
X181527685Y-108156450D01*
X181625232Y-107973954D01*
X181685300Y-107775934D01*
X181705583Y-107570000D01*
X181685300Y-107364066D01*
X181625232Y-107166046D01*
X181527685Y-106983550D01*
X181415184Y-106846466D01*
X181396410Y-106823589D01*
X181278677Y-106726969D01*
X181236450Y-106692315D01*
X181053954Y-106594768D01*
X180855934Y-106534700D01*
X180855932Y-106534699D01*
X180855934Y-106534699D01*
X180650000Y-106514417D01*
X180444067Y-106534699D01*
X180246043Y-106594769D01*
X180200455Y-106619137D01*
X180063550Y-106692315D01*
X180063548Y-106692316D01*
X180063547Y-106692317D01*
X179903589Y-106823589D01*
X179772317Y-106983547D01*
X179674769Y-107166043D01*
X179614699Y-107364067D01*
X179594417Y-107570000D01*
X158221779Y-107570000D01*
X158322621Y-107492621D01*
X158410861Y-107377625D01*
X158466330Y-107243709D01*
X158485250Y-107100000D01*
X158466330Y-106956291D01*
X158420839Y-106846465D01*
X158410862Y-106822377D01*
X158410861Y-106822376D01*
X158410861Y-106822375D01*
X158322621Y-106707379D01*
X158207625Y-106619139D01*
X158207624Y-106619138D01*
X158207622Y-106619137D01*
X158073712Y-106563671D01*
X158073710Y-106563670D01*
X158073709Y-106563670D01*
X158001854Y-106554210D01*
X157930001Y-106544750D01*
X157929999Y-106544750D01*
X157786291Y-106563670D01*
X157786287Y-106563671D01*
X157652377Y-106619137D01*
X157537379Y-106707379D01*
X157449137Y-106822377D01*
X157393671Y-106956287D01*
X157393670Y-106956291D01*
X157380528Y-107056116D01*
X157374750Y-107100000D01*
X129159898Y-107100000D01*
X129123883Y-107056116D01*
X128977325Y-106935838D01*
X128977318Y-106935834D01*
X128810122Y-106846466D01*
X128810119Y-106846465D01*
X128810118Y-106846464D01*
X128810115Y-106846463D01*
X128628683Y-106791427D01*
X128628681Y-106791426D01*
X128628683Y-106791426D01*
X128440000Y-106772843D01*
X128251318Y-106791426D01*
X128149294Y-106822375D01*
X128069885Y-106846463D01*
X128069882Y-106846464D01*
X128069880Y-106846465D01*
X128069877Y-106846466D01*
X127902681Y-106935834D01*
X127902674Y-106935838D01*
X127756116Y-107056116D01*
X127635838Y-107202674D01*
X127635834Y-107202681D01*
X127546466Y-107369877D01*
X127546465Y-107369880D01*
X127546464Y-107369882D01*
X127546463Y-107369885D01*
X127523921Y-107444194D01*
X127491426Y-107551318D01*
X127472843Y-107740000D01*
X112881400Y-107740000D01*
X112881400Y-105199999D01*
X127173179Y-105199999D01*
X127173179Y-105200000D01*
X127192424Y-105419976D01*
X127192426Y-105419986D01*
X127249575Y-105633270D01*
X127249580Y-105633284D01*
X127342898Y-105833405D01*
X127342901Y-105833411D01*
X127388258Y-105898187D01*
X127388259Y-105898188D01*
X127950504Y-105335942D01*
X127966619Y-105396081D01*
X128033498Y-105511920D01*
X128128080Y-105606502D01*
X128243919Y-105673381D01*
X128304057Y-105689494D01*
X127741810Y-106251740D01*
X127806590Y-106297099D01*
X127806592Y-106297100D01*
X128006715Y-106390419D01*
X128006729Y-106390424D01*
X128220013Y-106447573D01*
X128220023Y-106447575D01*
X128439999Y-106466821D01*
X128440001Y-106466821D01*
X128659976Y-106447575D01*
X128659986Y-106447573D01*
X128873270Y-106390424D01*
X128873284Y-106390419D01*
X129073407Y-106297100D01*
X129073417Y-106297094D01*
X129138188Y-106251741D01*
X128575942Y-105689494D01*
X128636081Y-105673381D01*
X128751920Y-105606502D01*
X128846502Y-105511920D01*
X128913381Y-105396081D01*
X128929495Y-105335942D01*
X129491741Y-105898188D01*
X129537094Y-105833417D01*
X129537100Y-105833407D01*
X129630419Y-105633284D01*
X129630424Y-105633270D01*
X129687573Y-105419986D01*
X129687575Y-105419976D01*
X129706821Y-105200000D01*
X129706821Y-105199999D01*
X129687575Y-104980023D01*
X129687573Y-104980013D01*
X129679228Y-104948868D01*
X153558892Y-104948868D01*
X153558892Y-104948869D01*
X153577812Y-105092577D01*
X153577813Y-105092581D01*
X153633279Y-105226491D01*
X153633280Y-105226493D01*
X153633281Y-105226494D01*
X153721521Y-105341490D01*
X153836517Y-105429730D01*
X153836518Y-105429730D01*
X153836519Y-105429731D01*
X153881155Y-105448219D01*
X153970433Y-105485199D01*
X154097422Y-105501917D01*
X154114141Y-105504119D01*
X154114142Y-105504119D01*
X154114143Y-105504119D01*
X154129119Y-105502147D01*
X154257851Y-105485199D01*
X154391767Y-105429730D01*
X154506763Y-105341490D01*
X154532155Y-105308399D01*
X159261550Y-105308399D01*
X159261550Y-105308400D01*
X159280470Y-105452108D01*
X159280471Y-105452112D01*
X159335937Y-105586022D01*
X159335938Y-105586024D01*
X159335939Y-105586025D01*
X159424179Y-105701021D01*
X159539175Y-105789261D01*
X159673091Y-105844730D01*
X159800080Y-105861448D01*
X159816799Y-105863650D01*
X159816800Y-105863650D01*
X159816801Y-105863650D01*
X159831777Y-105861678D01*
X159960509Y-105844730D01*
X160094425Y-105789261D01*
X160209421Y-105701021D01*
X160297661Y-105586025D01*
X160353130Y-105452109D01*
X160372050Y-105308400D01*
X160353130Y-105164691D01*
X160297661Y-105030775D01*
X160297066Y-105030000D01*
X179594417Y-105030000D01*
X179614699Y-105235932D01*
X179614700Y-105235934D01*
X179674768Y-105433954D01*
X179772315Y-105616450D01*
X179772317Y-105616452D01*
X179903589Y-105776410D01*
X179986836Y-105844728D01*
X180063550Y-105907685D01*
X180246046Y-106005232D01*
X180444066Y-106065300D01*
X180444065Y-106065300D01*
X180462529Y-106067118D01*
X180650000Y-106085583D01*
X180855934Y-106065300D01*
X181053954Y-106005232D01*
X181236450Y-105907685D01*
X181396410Y-105776410D01*
X181527685Y-105616450D01*
X181625232Y-105433954D01*
X181685300Y-105235934D01*
X181705583Y-105030000D01*
X181685300Y-104824066D01*
X181625232Y-104626046D01*
X181527685Y-104443550D01*
X181435204Y-104330861D01*
X181396410Y-104283589D01*
X181236452Y-104152317D01*
X181236453Y-104152317D01*
X181236450Y-104152315D01*
X181053954Y-104054768D01*
X180855934Y-103994700D01*
X180855932Y-103994699D01*
X180855934Y-103994699D01*
X180650000Y-103974417D01*
X180444067Y-103994699D01*
X180246043Y-104054769D01*
X180156002Y-104102898D01*
X180063550Y-104152315D01*
X180063548Y-104152316D01*
X180063547Y-104152317D01*
X179903589Y-104283589D01*
X179772317Y-104443547D01*
X179674769Y-104626043D01*
X179614699Y-104824067D01*
X179594417Y-105030000D01*
X160297066Y-105030000D01*
X160209421Y-104915779D01*
X160094425Y-104827539D01*
X160094424Y-104827538D01*
X160094422Y-104827537D01*
X159960512Y-104772071D01*
X159960510Y-104772070D01*
X159960509Y-104772070D01*
X159888654Y-104762610D01*
X159816801Y-104753150D01*
X159816799Y-104753150D01*
X159673091Y-104772070D01*
X159673087Y-104772071D01*
X159539177Y-104827537D01*
X159424179Y-104915779D01*
X159335937Y-105030777D01*
X159280471Y-105164687D01*
X159280470Y-105164691D01*
X159261550Y-105308399D01*
X154532155Y-105308399D01*
X154595003Y-105226494D01*
X154650472Y-105092578D01*
X154669392Y-104948869D01*
X154650472Y-104805160D01*
X154595003Y-104671244D01*
X154506763Y-104556248D01*
X154391767Y-104468008D01*
X154391766Y-104468007D01*
X154391764Y-104468006D01*
X154257854Y-104412540D01*
X154257852Y-104412539D01*
X154257851Y-104412539D01*
X154185996Y-104403079D01*
X154114143Y-104393619D01*
X154114141Y-104393619D01*
X153970433Y-104412539D01*
X153970429Y-104412540D01*
X153836519Y-104468006D01*
X153721521Y-104556248D01*
X153633279Y-104671246D01*
X153577813Y-104805156D01*
X153577812Y-104805160D01*
X153558892Y-104948868D01*
X129679228Y-104948868D01*
X129630424Y-104766729D01*
X129630420Y-104766720D01*
X129537096Y-104566586D01*
X129491741Y-104501811D01*
X129491740Y-104501810D01*
X128929494Y-105064056D01*
X128913381Y-105003919D01*
X128846502Y-104888080D01*
X128751920Y-104793498D01*
X128636081Y-104726619D01*
X128575942Y-104710505D01*
X129138188Y-104148259D01*
X129138187Y-104148258D01*
X129073411Y-104102901D01*
X129073405Y-104102898D01*
X128873284Y-104009580D01*
X128873270Y-104009575D01*
X128659986Y-103952426D01*
X128659976Y-103952424D01*
X128440001Y-103933179D01*
X128439999Y-103933179D01*
X128220023Y-103952424D01*
X128220013Y-103952426D01*
X128006729Y-104009575D01*
X128006720Y-104009579D01*
X127806590Y-104102901D01*
X127741811Y-104148258D01*
X128304057Y-104710504D01*
X128243919Y-104726619D01*
X128128080Y-104793498D01*
X128033498Y-104888080D01*
X127966619Y-105003919D01*
X127950504Y-105064057D01*
X127388258Y-104501811D01*
X127342901Y-104566590D01*
X127249579Y-104766720D01*
X127249575Y-104766729D01*
X127192426Y-104980013D01*
X127192424Y-104980023D01*
X127173179Y-105199999D01*
X112881400Y-105199999D01*
X112881400Y-103849999D01*
X159044750Y-103849999D01*
X159044750Y-103850000D01*
X159063670Y-103993708D01*
X159063671Y-103993712D01*
X159119137Y-104127622D01*
X159119138Y-104127624D01*
X159119139Y-104127625D01*
X159207379Y-104242621D01*
X159322375Y-104330861D01*
X159456291Y-104386330D01*
X159583280Y-104403048D01*
X159599999Y-104405250D01*
X159600000Y-104405250D01*
X159600001Y-104405250D01*
X159614977Y-104403278D01*
X159743709Y-104386330D01*
X159877625Y-104330861D01*
X159992621Y-104242621D01*
X160080861Y-104127625D01*
X160136330Y-103993709D01*
X160155250Y-103850000D01*
X160136330Y-103706291D01*
X160099350Y-103617013D01*
X160080862Y-103572377D01*
X160080861Y-103572376D01*
X160080861Y-103572375D01*
X159992621Y-103457379D01*
X159877625Y-103369139D01*
X159877624Y-103369138D01*
X159877622Y-103369137D01*
X159743712Y-103313671D01*
X159743710Y-103313670D01*
X159743709Y-103313670D01*
X159671854Y-103304210D01*
X159600001Y-103294750D01*
X159599999Y-103294750D01*
X159456291Y-103313670D01*
X159456287Y-103313671D01*
X159322377Y-103369137D01*
X159207379Y-103457379D01*
X159119137Y-103572377D01*
X159063671Y-103706287D01*
X159063670Y-103706291D01*
X159044750Y-103849999D01*
X112881400Y-103849999D01*
X112881400Y-102660000D01*
X127472843Y-102660000D01*
X127491426Y-102848681D01*
X127491427Y-102848683D01*
X127546463Y-103030115D01*
X127546464Y-103030118D01*
X127546465Y-103030119D01*
X127546466Y-103030122D01*
X127635834Y-103197318D01*
X127635838Y-103197325D01*
X127756116Y-103343883D01*
X127902674Y-103464161D01*
X127902681Y-103464165D01*
X128069877Y-103553533D01*
X128069878Y-103553533D01*
X128069885Y-103553537D01*
X128251317Y-103608573D01*
X128251316Y-103608573D01*
X128268233Y-103610239D01*
X128440000Y-103627157D01*
X128628683Y-103608573D01*
X128810115Y-103553537D01*
X128977324Y-103464162D01*
X129123883Y-103343883D01*
X129244162Y-103197324D01*
X129333537Y-103030115D01*
X129388573Y-102848683D01*
X129407157Y-102660000D01*
X129388573Y-102471317D01*
X129340003Y-102311200D01*
X139908755Y-102311200D01*
X139929259Y-102480069D01*
X139929260Y-102480074D01*
X139989582Y-102639131D01*
X140028790Y-102695932D01*
X140086217Y-102779129D01*
X140164728Y-102848683D01*
X140213550Y-102891936D01*
X140364173Y-102970989D01*
X140364175Y-102970990D01*
X140529344Y-103011700D01*
X140699456Y-103011700D01*
X140864625Y-102970990D01*
X140944092Y-102929281D01*
X141015249Y-102891936D01*
X141015250Y-102891934D01*
X141015252Y-102891934D01*
X141142583Y-102779129D01*
X141239218Y-102639130D01*
X141254058Y-102599999D01*
X175044750Y-102599999D01*
X175044750Y-102600000D01*
X175063670Y-102743708D01*
X175063671Y-102743712D01*
X175119137Y-102877622D01*
X175119138Y-102877624D01*
X175119139Y-102877625D01*
X175207379Y-102992621D01*
X175322375Y-103080861D01*
X175456291Y-103136330D01*
X175583280Y-103153048D01*
X175599999Y-103155250D01*
X175600000Y-103155250D01*
X175600001Y-103155250D01*
X175614977Y-103153278D01*
X175743709Y-103136330D01*
X175877625Y-103080861D01*
X175992621Y-102992621D01*
X176080861Y-102877625D01*
X176136330Y-102743709D01*
X176155250Y-102600000D01*
X176140768Y-102490000D01*
X179594417Y-102490000D01*
X179614699Y-102695932D01*
X179614700Y-102695934D01*
X179674768Y-102893954D01*
X179772315Y-103076450D01*
X179772317Y-103076452D01*
X179903589Y-103236410D01*
X179974678Y-103294750D01*
X180063550Y-103367685D01*
X180246046Y-103465232D01*
X180444066Y-103525300D01*
X180444065Y-103525300D01*
X180462529Y-103527118D01*
X180650000Y-103545583D01*
X180855934Y-103525300D01*
X181053954Y-103465232D01*
X181236450Y-103367685D01*
X181396410Y-103236410D01*
X181527685Y-103076450D01*
X181625232Y-102893954D01*
X181685300Y-102695934D01*
X181705583Y-102490000D01*
X181685300Y-102284066D01*
X181625232Y-102086046D01*
X181527685Y-101903550D01*
X181415184Y-101766466D01*
X181396410Y-101743589D01*
X181236452Y-101612317D01*
X181236453Y-101612317D01*
X181236450Y-101612315D01*
X181053954Y-101514768D01*
X180855934Y-101454700D01*
X180855932Y-101454699D01*
X180855934Y-101454699D01*
X180650000Y-101434417D01*
X180444067Y-101454699D01*
X180246043Y-101514769D01*
X180135898Y-101573643D01*
X180063550Y-101612315D01*
X180063548Y-101612316D01*
X180063547Y-101612317D01*
X179903589Y-101743589D01*
X179772317Y-101903547D01*
X179674769Y-102086043D01*
X179614699Y-102284067D01*
X179594417Y-102490000D01*
X176140768Y-102490000D01*
X176136330Y-102456291D01*
X176080861Y-102322375D01*
X175992621Y-102207379D01*
X175877625Y-102119139D01*
X175877624Y-102119138D01*
X175877622Y-102119137D01*
X175743712Y-102063671D01*
X175743710Y-102063670D01*
X175743709Y-102063670D01*
X175671854Y-102054210D01*
X175600001Y-102044750D01*
X175599999Y-102044750D01*
X175456291Y-102063670D01*
X175456287Y-102063671D01*
X175322377Y-102119137D01*
X175207379Y-102207379D01*
X175119137Y-102322377D01*
X175063671Y-102456287D01*
X175063670Y-102456291D01*
X175044750Y-102599999D01*
X141254058Y-102599999D01*
X141299540Y-102480072D01*
X141320045Y-102311200D01*
X141299540Y-102142328D01*
X141239218Y-101983270D01*
X141142583Y-101843271D01*
X141015252Y-101730466D01*
X141015249Y-101730463D01*
X140864626Y-101651410D01*
X140699456Y-101610700D01*
X140529344Y-101610700D01*
X140364173Y-101651410D01*
X140213550Y-101730463D01*
X140086216Y-101843272D01*
X139989582Y-101983268D01*
X139929260Y-102142325D01*
X139929259Y-102142330D01*
X139908755Y-102311200D01*
X129340003Y-102311200D01*
X129333537Y-102289885D01*
X129289437Y-102207379D01*
X129244165Y-102122681D01*
X129244161Y-102122674D01*
X129123883Y-101976116D01*
X128977325Y-101855838D01*
X128977318Y-101855834D01*
X128810122Y-101766466D01*
X128810119Y-101766465D01*
X128810118Y-101766464D01*
X128810115Y-101766463D01*
X128628683Y-101711427D01*
X128628681Y-101711426D01*
X128628683Y-101711426D01*
X128440000Y-101692843D01*
X128251318Y-101711426D01*
X128145292Y-101743589D01*
X128069885Y-101766463D01*
X128069882Y-101766464D01*
X128069880Y-101766465D01*
X128069877Y-101766466D01*
X127902681Y-101855834D01*
X127902674Y-101855838D01*
X127756116Y-101976116D01*
X127635838Y-102122674D01*
X127635834Y-102122681D01*
X127546466Y-102289877D01*
X127546465Y-102289880D01*
X127546464Y-102289882D01*
X127546463Y-102289885D01*
X127536607Y-102322377D01*
X127491426Y-102471318D01*
X127472843Y-102660000D01*
X112881400Y-102660000D01*
X112881400Y-100120000D01*
X127472843Y-100120000D01*
X127491426Y-100308681D01*
X127505160Y-100353954D01*
X127546463Y-100490115D01*
X127546464Y-100490118D01*
X127546465Y-100490119D01*
X127546466Y-100490122D01*
X127635834Y-100657318D01*
X127635838Y-100657325D01*
X127756116Y-100803883D01*
X127902674Y-100924161D01*
X127902681Y-100924165D01*
X128069877Y-101013533D01*
X128069878Y-101013533D01*
X128069885Y-101013537D01*
X128251317Y-101068573D01*
X128251316Y-101068573D01*
X128268233Y-101070239D01*
X128440000Y-101087157D01*
X128628683Y-101068573D01*
X128810115Y-101013537D01*
X128977324Y-100924162D01*
X129123883Y-100803883D01*
X129244162Y-100657324D01*
X129333537Y-100490115D01*
X129388573Y-100308683D01*
X129401484Y-100177600D01*
X140010355Y-100177600D01*
X140030859Y-100346469D01*
X140030860Y-100346474D01*
X140091182Y-100505531D01*
X140112526Y-100536452D01*
X140187817Y-100645529D01*
X140293505Y-100739160D01*
X140315150Y-100758336D01*
X140447278Y-100827682D01*
X140465775Y-100837390D01*
X140630944Y-100878100D01*
X140801056Y-100878100D01*
X140966225Y-100837390D01*
X141063513Y-100786329D01*
X141116849Y-100758336D01*
X141116850Y-100758334D01*
X141116852Y-100758334D01*
X141244183Y-100645529D01*
X141340818Y-100505530D01*
X141401140Y-100346472D01*
X141412854Y-100249999D01*
X163194750Y-100249999D01*
X163194750Y-100250000D01*
X163213670Y-100393708D01*
X163213671Y-100393712D01*
X163269137Y-100527622D01*
X163269138Y-100527624D01*
X163269139Y-100527625D01*
X163357379Y-100642621D01*
X163472375Y-100730861D01*
X163606291Y-100786330D01*
X163733280Y-100803048D01*
X163749999Y-100805250D01*
X163750000Y-100805250D01*
X163750001Y-100805250D01*
X163764977Y-100803278D01*
X163893709Y-100786330D01*
X164027625Y-100730861D01*
X164142621Y-100642621D01*
X164230861Y-100527625D01*
X164286330Y-100393709D01*
X164305250Y-100250000D01*
X164286330Y-100106291D01*
X164230861Y-99972375D01*
X164213692Y-99950000D01*
X179594417Y-99950000D01*
X179614699Y-100155932D01*
X179614700Y-100155934D01*
X179674768Y-100353954D01*
X179772315Y-100536450D01*
X179772317Y-100536452D01*
X179903589Y-100696410D01*
X179945570Y-100730862D01*
X180063550Y-100827685D01*
X180246046Y-100925232D01*
X180444066Y-100985300D01*
X180444065Y-100985300D01*
X180462529Y-100987118D01*
X180650000Y-101005583D01*
X180855934Y-100985300D01*
X181053954Y-100925232D01*
X181236450Y-100827685D01*
X181396410Y-100696410D01*
X181527685Y-100536450D01*
X181625232Y-100353954D01*
X181685300Y-100155934D01*
X181705583Y-99950000D01*
X181685300Y-99744066D01*
X181625232Y-99546046D01*
X181527685Y-99363550D01*
X181475702Y-99300209D01*
X181396410Y-99203589D01*
X181236452Y-99072317D01*
X181236453Y-99072317D01*
X181236450Y-99072315D01*
X181053954Y-98974768D01*
X180855934Y-98914700D01*
X180855932Y-98914699D01*
X180855934Y-98914699D01*
X180650000Y-98894417D01*
X180444067Y-98914699D01*
X180246043Y-98974769D01*
X180135898Y-99033643D01*
X180063550Y-99072315D01*
X180063548Y-99072316D01*
X180063547Y-99072317D01*
X179903589Y-99203589D01*
X179772317Y-99363547D01*
X179772315Y-99363550D01*
X179764792Y-99377625D01*
X179674769Y-99546043D01*
X179614699Y-99744067D01*
X179594417Y-99950000D01*
X164213692Y-99950000D01*
X164142621Y-99857379D01*
X164027625Y-99769139D01*
X164027624Y-99769138D01*
X164027622Y-99769137D01*
X163893712Y-99713671D01*
X163893710Y-99713670D01*
X163893709Y-99713670D01*
X163821854Y-99704210D01*
X163750001Y-99694750D01*
X163749999Y-99694750D01*
X163606291Y-99713670D01*
X163606287Y-99713671D01*
X163472377Y-99769137D01*
X163357379Y-99857379D01*
X163269137Y-99972377D01*
X163213671Y-100106287D01*
X163213670Y-100106291D01*
X163194750Y-100249999D01*
X141412854Y-100249999D01*
X141421645Y-100177600D01*
X141401140Y-100008728D01*
X141340818Y-99849670D01*
X141244183Y-99709671D01*
X141116852Y-99596866D01*
X141116849Y-99596863D01*
X140966226Y-99517810D01*
X140801056Y-99477100D01*
X140630944Y-99477100D01*
X140465773Y-99517810D01*
X140315150Y-99596863D01*
X140187816Y-99709672D01*
X140091182Y-99849668D01*
X140030860Y-100008725D01*
X140030859Y-100008730D01*
X140010355Y-100177600D01*
X129401484Y-100177600D01*
X129407157Y-100120000D01*
X129388573Y-99931317D01*
X129333537Y-99749885D01*
X129330427Y-99744066D01*
X129244165Y-99582681D01*
X129244161Y-99582674D01*
X129123883Y-99436116D01*
X128977325Y-99315838D01*
X128977318Y-99315834D01*
X128810122Y-99226466D01*
X128810119Y-99226465D01*
X128810118Y-99226464D01*
X128810115Y-99226463D01*
X128628683Y-99171427D01*
X128628681Y-99171426D01*
X128628683Y-99171426D01*
X128440000Y-99152843D01*
X128251318Y-99171426D01*
X128145292Y-99203589D01*
X128069885Y-99226463D01*
X128069882Y-99226464D01*
X128069880Y-99226465D01*
X128069877Y-99226466D01*
X127902681Y-99315834D01*
X127902674Y-99315838D01*
X127756116Y-99436116D01*
X127635838Y-99582674D01*
X127635834Y-99582681D01*
X127546466Y-99749877D01*
X127546465Y-99749880D01*
X127546464Y-99749882D01*
X127546463Y-99749885D01*
X127523921Y-99824194D01*
X127491426Y-99931318D01*
X127472843Y-100120000D01*
X112881400Y-100120000D01*
X112881400Y-99100000D01*
X148894750Y-99100000D01*
X148911399Y-99226463D01*
X148913670Y-99243708D01*
X148913671Y-99243712D01*
X148969137Y-99377622D01*
X148969138Y-99377624D01*
X148969139Y-99377625D01*
X149057379Y-99492621D01*
X149172375Y-99580861D01*
X149172376Y-99580861D01*
X149172377Y-99580862D01*
X149176769Y-99582681D01*
X149306291Y-99636330D01*
X149433280Y-99653048D01*
X149449999Y-99655250D01*
X149450000Y-99655250D01*
X149450001Y-99655250D01*
X149464977Y-99653278D01*
X149593709Y-99636330D01*
X149727625Y-99580861D01*
X149842621Y-99492621D01*
X149930861Y-99377625D01*
X149986330Y-99243709D01*
X150005250Y-99100000D01*
X149986330Y-98956291D01*
X149930861Y-98822375D01*
X149842621Y-98707379D01*
X149727625Y-98619139D01*
X149727624Y-98619138D01*
X149727622Y-98619137D01*
X149593712Y-98563671D01*
X149593710Y-98563670D01*
X149593709Y-98563670D01*
X149521854Y-98554210D01*
X149450001Y-98544750D01*
X149449999Y-98544750D01*
X149306291Y-98563670D01*
X149306287Y-98563671D01*
X149172377Y-98619137D01*
X149057379Y-98707379D01*
X148969137Y-98822377D01*
X148913671Y-98956287D01*
X148913670Y-98956291D01*
X148898395Y-99072317D01*
X148894750Y-99100000D01*
X112881400Y-99100000D01*
X112881400Y-97410000D01*
X179594417Y-97410000D01*
X179614699Y-97615932D01*
X179614700Y-97615934D01*
X179674768Y-97813954D01*
X179772315Y-97996450D01*
X179772317Y-97996452D01*
X179903589Y-98156410D01*
X180000209Y-98235702D01*
X180063550Y-98287685D01*
X180246046Y-98385232D01*
X180444066Y-98445300D01*
X180444065Y-98445300D01*
X180462529Y-98447118D01*
X180650000Y-98465583D01*
X180855934Y-98445300D01*
X181053954Y-98385232D01*
X181236450Y-98287685D01*
X181396410Y-98156410D01*
X181527685Y-97996450D01*
X181625232Y-97813954D01*
X181685300Y-97615934D01*
X181705583Y-97410000D01*
X181685300Y-97204066D01*
X181625232Y-97006046D01*
X181527685Y-96823550D01*
X181475702Y-96760209D01*
X181396410Y-96663589D01*
X181236452Y-96532317D01*
X181236453Y-96532317D01*
X181236450Y-96532315D01*
X181053954Y-96434768D01*
X180855934Y-96374700D01*
X180855932Y-96374699D01*
X180855934Y-96374699D01*
X180650000Y-96354417D01*
X180444067Y-96374699D01*
X180246043Y-96434769D01*
X180175685Y-96472377D01*
X180063550Y-96532315D01*
X180063548Y-96532316D01*
X180063547Y-96532317D01*
X179903589Y-96663589D01*
X179772317Y-96823547D01*
X179674769Y-97006043D01*
X179614699Y-97204067D01*
X179594417Y-97410000D01*
X112881400Y-97410000D01*
X112881400Y-96749999D01*
X148944750Y-96749999D01*
X148944750Y-96750000D01*
X148963670Y-96893708D01*
X148963671Y-96893712D01*
X149019137Y-97027622D01*
X149019138Y-97027624D01*
X149019139Y-97027625D01*
X149107379Y-97142621D01*
X149222375Y-97230861D01*
X149356291Y-97286330D01*
X149483280Y-97303048D01*
X149499999Y-97305250D01*
X149500000Y-97305250D01*
X149500001Y-97305250D01*
X149514977Y-97303278D01*
X149643709Y-97286330D01*
X149777625Y-97230861D01*
X149892621Y-97142621D01*
X149980861Y-97027625D01*
X150036330Y-96893709D01*
X150055250Y-96750000D01*
X150036330Y-96606291D01*
X149980861Y-96472375D01*
X149892621Y-96357379D01*
X149777625Y-96269139D01*
X149777624Y-96269138D01*
X149777622Y-96269137D01*
X149643712Y-96213671D01*
X149643710Y-96213670D01*
X149643709Y-96213670D01*
X149571854Y-96204210D01*
X149500001Y-96194750D01*
X149499999Y-96194750D01*
X149356291Y-96213670D01*
X149356287Y-96213671D01*
X149222377Y-96269137D01*
X149107379Y-96357379D01*
X149019137Y-96472377D01*
X148963671Y-96606287D01*
X148963670Y-96606291D01*
X148944750Y-96749999D01*
X112881400Y-96749999D01*
X112881400Y-95524999D01*
X163784750Y-95524999D01*
X163784750Y-95525000D01*
X163803670Y-95668708D01*
X163803671Y-95668712D01*
X163859137Y-95802622D01*
X163859138Y-95802624D01*
X163859139Y-95802625D01*
X163947379Y-95917621D01*
X164062375Y-96005861D01*
X164196291Y-96061330D01*
X164323280Y-96078048D01*
X164339999Y-96080250D01*
X164340000Y-96080250D01*
X164340001Y-96080250D01*
X164354977Y-96078278D01*
X164483709Y-96061330D01*
X164617625Y-96005861D01*
X164732621Y-95917621D01*
X164820861Y-95802625D01*
X164876330Y-95668709D01*
X164895250Y-95525000D01*
X164876330Y-95381291D01*
X164820861Y-95247375D01*
X164732621Y-95132379D01*
X164617625Y-95044139D01*
X164617624Y-95044138D01*
X164617622Y-95044137D01*
X164607632Y-95039999D01*
X170254750Y-95039999D01*
X170254750Y-95040000D01*
X170273670Y-95183708D01*
X170273671Y-95183712D01*
X170329137Y-95317622D01*
X170329138Y-95317624D01*
X170329139Y-95317625D01*
X170417379Y-95432621D01*
X170532375Y-95520861D01*
X170532376Y-95520861D01*
X170532377Y-95520862D01*
X170577013Y-95539350D01*
X170666291Y-95576330D01*
X170790024Y-95592620D01*
X170809999Y-95595250D01*
X170810000Y-95595250D01*
X170810001Y-95595250D01*
X170829976Y-95592620D01*
X170953709Y-95576330D01*
X171087625Y-95520861D01*
X171202621Y-95432621D01*
X171290861Y-95317625D01*
X171339583Y-95199999D01*
X172644750Y-95199999D01*
X172644750Y-95200000D01*
X172663670Y-95343708D01*
X172663671Y-95343712D01*
X172719137Y-95477622D01*
X172719138Y-95477624D01*
X172719139Y-95477625D01*
X172807379Y-95592621D01*
X172922375Y-95680861D01*
X173056291Y-95736330D01*
X173183280Y-95753048D01*
X173199999Y-95755250D01*
X173200000Y-95755250D01*
X173200001Y-95755250D01*
X173214977Y-95753278D01*
X173343709Y-95736330D01*
X173477625Y-95680861D01*
X173592621Y-95592621D01*
X173680861Y-95477625D01*
X173736330Y-95343709D01*
X173755250Y-95200000D01*
X173736330Y-95056291D01*
X173699350Y-94967013D01*
X173680862Y-94922377D01*
X173680861Y-94922376D01*
X173680861Y-94922375D01*
X173592621Y-94807379D01*
X173477625Y-94719139D01*
X173477624Y-94719138D01*
X173477622Y-94719137D01*
X173343712Y-94663671D01*
X173343710Y-94663670D01*
X173343709Y-94663670D01*
X173271854Y-94654210D01*
X173200001Y-94644750D01*
X173199999Y-94644750D01*
X173056291Y-94663670D01*
X173056287Y-94663671D01*
X172922377Y-94719137D01*
X172807379Y-94807379D01*
X172719137Y-94922377D01*
X172663671Y-95056287D01*
X172663670Y-95056291D01*
X172644750Y-95199999D01*
X171339583Y-95199999D01*
X171346330Y-95183709D01*
X171365250Y-95040000D01*
X171346330Y-94896291D01*
X171297178Y-94777625D01*
X171290862Y-94762377D01*
X171290861Y-94762376D01*
X171290861Y-94762375D01*
X171202621Y-94647379D01*
X171087625Y-94559139D01*
X171087624Y-94559138D01*
X171087622Y-94559137D01*
X170953712Y-94503671D01*
X170953710Y-94503670D01*
X170953709Y-94503670D01*
X170925833Y-94500000D01*
X176444750Y-94500000D01*
X176462608Y-94635646D01*
X176463670Y-94643708D01*
X176463671Y-94643712D01*
X176519137Y-94777622D01*
X176519138Y-94777624D01*
X176519139Y-94777625D01*
X176607379Y-94892621D01*
X176722375Y-94980861D01*
X176856291Y-95036330D01*
X176983280Y-95053048D01*
X176999999Y-95055250D01*
X177000000Y-95055250D01*
X177000001Y-95055250D01*
X177014977Y-95053278D01*
X177143709Y-95036330D01*
X177277625Y-94980861D01*
X177392621Y-94892621D01*
X177409979Y-94870000D01*
X179594417Y-94870000D01*
X179614699Y-95075932D01*
X179620092Y-95093709D01*
X179674768Y-95273954D01*
X179772315Y-95456450D01*
X179772317Y-95456452D01*
X179903589Y-95616410D01*
X179982124Y-95680861D01*
X180063550Y-95747685D01*
X180246046Y-95845232D01*
X180444066Y-95905300D01*
X180444065Y-95905300D01*
X180462529Y-95907118D01*
X180650000Y-95925583D01*
X180855934Y-95905300D01*
X181053954Y-95845232D01*
X181236450Y-95747685D01*
X181396410Y-95616410D01*
X181527685Y-95456450D01*
X181625232Y-95273954D01*
X181685300Y-95075934D01*
X181697704Y-94949999D01*
X182724750Y-94949999D01*
X182724750Y-94950000D01*
X182743670Y-95093708D01*
X182743671Y-95093712D01*
X182799137Y-95227622D01*
X182799138Y-95227624D01*
X182799139Y-95227625D01*
X182887379Y-95342621D01*
X183002375Y-95430861D01*
X183002376Y-95430861D01*
X183002377Y-95430862D01*
X183006624Y-95432621D01*
X183136291Y-95486330D01*
X183263280Y-95503048D01*
X183279999Y-95505250D01*
X183280000Y-95505250D01*
X183280001Y-95505250D01*
X183294977Y-95503278D01*
X183423709Y-95486330D01*
X183557625Y-95430861D01*
X183672621Y-95342621D01*
X183760861Y-95227625D01*
X183816330Y-95093709D01*
X183835250Y-94950000D01*
X183816330Y-94806291D01*
X183760861Y-94672375D01*
X183672621Y-94557379D01*
X183557625Y-94469139D01*
X183557624Y-94469138D01*
X183557622Y-94469137D01*
X183423712Y-94413671D01*
X183423710Y-94413670D01*
X183423709Y-94413670D01*
X183351854Y-94404210D01*
X183280001Y-94394750D01*
X183279999Y-94394750D01*
X183136291Y-94413670D01*
X183136287Y-94413671D01*
X183002377Y-94469137D01*
X182887379Y-94557379D01*
X182799137Y-94672377D01*
X182743671Y-94806287D01*
X182743670Y-94806291D01*
X182724750Y-94949999D01*
X181697704Y-94949999D01*
X181705583Y-94870000D01*
X181685300Y-94664066D01*
X181625232Y-94466046D01*
X181527685Y-94283550D01*
X181475702Y-94220209D01*
X181396410Y-94123589D01*
X181236452Y-93992317D01*
X181236453Y-93992317D01*
X181236450Y-93992315D01*
X181053954Y-93894768D01*
X180855934Y-93834700D01*
X180855932Y-93834699D01*
X180855934Y-93834699D01*
X180650000Y-93814417D01*
X180444067Y-93834699D01*
X180246043Y-93894769D01*
X180152537Y-93944750D01*
X180063550Y-93992315D01*
X180063548Y-93992316D01*
X180063547Y-93992317D01*
X179903589Y-94123589D01*
X179772317Y-94283547D01*
X179674769Y-94466043D01*
X179614699Y-94664067D01*
X179594417Y-94870000D01*
X177409979Y-94870000D01*
X177480861Y-94777625D01*
X177536330Y-94643709D01*
X177555250Y-94500000D01*
X177554188Y-94491937D01*
X177541393Y-94394750D01*
X177536330Y-94356291D01*
X177480861Y-94222375D01*
X177392621Y-94107379D01*
X177277625Y-94019139D01*
X177277624Y-94019138D01*
X177277622Y-94019137D01*
X177143712Y-93963671D01*
X177143710Y-93963670D01*
X177143709Y-93963670D01*
X177071854Y-93954210D01*
X177000001Y-93944750D01*
X176999999Y-93944750D01*
X176856291Y-93963670D01*
X176856287Y-93963671D01*
X176722377Y-94019137D01*
X176607379Y-94107379D01*
X176519137Y-94222377D01*
X176463671Y-94356287D01*
X176463670Y-94356291D01*
X176445812Y-94491937D01*
X176444750Y-94500000D01*
X170925833Y-94500000D01*
X170864582Y-94491936D01*
X170810001Y-94484750D01*
X170809999Y-94484750D01*
X170666291Y-94503670D01*
X170666287Y-94503671D01*
X170532377Y-94559137D01*
X170417379Y-94647379D01*
X170329137Y-94762377D01*
X170273671Y-94896287D01*
X170273670Y-94896291D01*
X170254750Y-95039999D01*
X164607632Y-95039999D01*
X164483712Y-94988671D01*
X164483710Y-94988670D01*
X164483709Y-94988670D01*
X164411854Y-94979210D01*
X164340001Y-94969750D01*
X164339999Y-94969750D01*
X164196291Y-94988670D01*
X164196287Y-94988671D01*
X164062377Y-95044137D01*
X163947379Y-95132379D01*
X163859137Y-95247377D01*
X163803671Y-95381287D01*
X163803670Y-95381291D01*
X163784750Y-95524999D01*
X112881400Y-95524999D01*
X112881400Y-94099315D01*
X163594066Y-94099315D01*
X163594066Y-94099316D01*
X163612986Y-94243024D01*
X163612987Y-94243028D01*
X163668453Y-94376938D01*
X163668454Y-94376940D01*
X163668455Y-94376941D01*
X163756695Y-94491937D01*
X163871691Y-94580177D01*
X164005607Y-94635646D01*
X164132596Y-94652364D01*
X164149315Y-94654566D01*
X164149316Y-94654566D01*
X164149317Y-94654566D01*
X164164293Y-94652594D01*
X164293025Y-94635646D01*
X164426941Y-94580177D01*
X164541937Y-94491937D01*
X164630177Y-94376941D01*
X164685646Y-94243025D01*
X164704566Y-94099316D01*
X164685646Y-93955607D01*
X164648666Y-93866329D01*
X164630178Y-93821693D01*
X164630177Y-93821692D01*
X164630177Y-93821691D01*
X164541937Y-93706695D01*
X164426941Y-93618455D01*
X164426940Y-93618454D01*
X164426938Y-93618453D01*
X164293028Y-93562987D01*
X164293026Y-93562986D01*
X164293025Y-93562986D01*
X164221170Y-93553526D01*
X164149317Y-93544066D01*
X164149315Y-93544066D01*
X164005607Y-93562986D01*
X164005603Y-93562987D01*
X163871693Y-93618453D01*
X163756695Y-93706695D01*
X163668453Y-93821693D01*
X163612987Y-93955603D01*
X163612986Y-93955607D01*
X163594066Y-94099315D01*
X112881400Y-94099315D01*
X112881400Y-93199999D01*
X165934750Y-93199999D01*
X165934750Y-93200000D01*
X165953670Y-93343708D01*
X165953671Y-93343712D01*
X166009137Y-93477622D01*
X166009138Y-93477624D01*
X166009139Y-93477625D01*
X166097379Y-93592621D01*
X166212375Y-93680861D01*
X166346291Y-93736330D01*
X166473280Y-93753048D01*
X166489999Y-93755250D01*
X166490000Y-93755250D01*
X166490001Y-93755250D01*
X166504977Y-93753278D01*
X166633709Y-93736330D01*
X166767625Y-93680861D01*
X166882621Y-93592621D01*
X166970861Y-93477625D01*
X167026330Y-93343709D01*
X167045250Y-93200000D01*
X167026330Y-93056291D01*
X166970861Y-92922375D01*
X166882621Y-92807379D01*
X166767625Y-92719139D01*
X166767624Y-92719138D01*
X166767622Y-92719137D01*
X166633712Y-92663671D01*
X166633710Y-92663670D01*
X166633709Y-92663670D01*
X166561854Y-92654210D01*
X166490001Y-92644750D01*
X166489999Y-92644750D01*
X166346291Y-92663670D01*
X166346287Y-92663671D01*
X166212377Y-92719137D01*
X166097379Y-92807379D01*
X166009137Y-92922377D01*
X165953671Y-93056287D01*
X165953670Y-93056291D01*
X165934750Y-93199999D01*
X112881400Y-93199999D01*
X112881400Y-92634000D01*
X145306750Y-92634000D01*
X145319909Y-92733954D01*
X145325670Y-92777708D01*
X145325671Y-92777712D01*
X145381137Y-92911622D01*
X145381138Y-92911624D01*
X145381139Y-92911625D01*
X145469379Y-93026621D01*
X145584375Y-93114861D01*
X145718291Y-93170330D01*
X145845280Y-93187048D01*
X145861999Y-93189250D01*
X145862000Y-93189250D01*
X145862001Y-93189250D01*
X145876977Y-93187278D01*
X146005709Y-93170330D01*
X146139625Y-93114861D01*
X146254621Y-93026621D01*
X146342861Y-92911625D01*
X146398330Y-92777709D01*
X146417250Y-92634000D01*
X146398330Y-92490291D01*
X146342861Y-92356375D01*
X146254621Y-92241379D01*
X146139625Y-92153139D01*
X146139624Y-92153138D01*
X146139622Y-92153137D01*
X146071689Y-92124999D01*
X163194750Y-92124999D01*
X163194750Y-92125000D01*
X163213670Y-92268708D01*
X163213671Y-92268712D01*
X163269137Y-92402622D01*
X163269138Y-92402624D01*
X163269139Y-92402625D01*
X163357379Y-92517621D01*
X163472375Y-92605861D01*
X163606291Y-92661330D01*
X163733280Y-92678048D01*
X163749999Y-92680250D01*
X163750000Y-92680250D01*
X163750001Y-92680250D01*
X163764977Y-92678278D01*
X163893709Y-92661330D01*
X164027625Y-92605861D01*
X164142621Y-92517621D01*
X164230861Y-92402625D01*
X164260943Y-92330000D01*
X179594417Y-92330000D01*
X179614699Y-92535932D01*
X179635912Y-92605861D01*
X179674768Y-92733954D01*
X179772315Y-92916450D01*
X179777179Y-92922377D01*
X179903589Y-93076410D01*
X179950444Y-93114862D01*
X180063550Y-93207685D01*
X180246046Y-93305232D01*
X180444066Y-93365300D01*
X180444065Y-93365300D01*
X180462529Y-93367118D01*
X180650000Y-93385583D01*
X180855934Y-93365300D01*
X181053954Y-93305232D01*
X181236450Y-93207685D01*
X181396410Y-93076410D01*
X181527685Y-92916450D01*
X181625232Y-92733954D01*
X181685300Y-92535934D01*
X181705583Y-92330000D01*
X181704598Y-92319999D01*
X187764750Y-92319999D01*
X187764750Y-92320000D01*
X187783670Y-92463708D01*
X187783671Y-92463712D01*
X187839137Y-92597622D01*
X187839138Y-92597624D01*
X187839139Y-92597625D01*
X187927379Y-92712621D01*
X188042375Y-92800861D01*
X188176291Y-92856330D01*
X188303280Y-92873048D01*
X188319999Y-92875250D01*
X188320000Y-92875250D01*
X188320001Y-92875250D01*
X188334977Y-92873278D01*
X188463709Y-92856330D01*
X188597625Y-92800861D01*
X188712621Y-92712621D01*
X188800861Y-92597625D01*
X188856330Y-92463709D01*
X188875250Y-92320000D01*
X188856330Y-92176291D01*
X188800861Y-92042375D01*
X188712621Y-91927379D01*
X188597625Y-91839139D01*
X188597624Y-91839138D01*
X188597622Y-91839137D01*
X188463712Y-91783671D01*
X188463710Y-91783670D01*
X188463709Y-91783670D01*
X188391854Y-91774210D01*
X188320001Y-91764750D01*
X188319999Y-91764750D01*
X188176291Y-91783670D01*
X188176287Y-91783671D01*
X188042377Y-91839137D01*
X187927379Y-91927379D01*
X187839137Y-92042377D01*
X187783671Y-92176287D01*
X187783670Y-92176291D01*
X187764750Y-92319999D01*
X181704598Y-92319999D01*
X181685300Y-92124066D01*
X181625232Y-91926046D01*
X181527685Y-91743550D01*
X181446101Y-91644139D01*
X181396410Y-91583589D01*
X181236452Y-91452317D01*
X181236453Y-91452317D01*
X181236450Y-91452315D01*
X181053954Y-91354768D01*
X180855934Y-91294700D01*
X180855932Y-91294699D01*
X180855934Y-91294699D01*
X180650000Y-91274417D01*
X180444067Y-91294699D01*
X180246043Y-91354769D01*
X180135898Y-91413643D01*
X180063550Y-91452315D01*
X180063548Y-91452316D01*
X180063547Y-91452317D01*
X179903589Y-91583589D01*
X179772317Y-91743547D01*
X179772315Y-91743550D01*
X179750870Y-91783670D01*
X179674769Y-91926043D01*
X179614699Y-92124067D01*
X179594417Y-92330000D01*
X164260943Y-92330000D01*
X164286330Y-92268709D01*
X164305250Y-92125000D01*
X164286330Y-91981291D01*
X164230861Y-91847375D01*
X164142621Y-91732379D01*
X164027625Y-91644139D01*
X164027624Y-91644138D01*
X164027622Y-91644137D01*
X163893712Y-91588671D01*
X163893710Y-91588670D01*
X163893709Y-91588670D01*
X163821854Y-91579210D01*
X163750001Y-91569750D01*
X163749999Y-91569750D01*
X163606291Y-91588670D01*
X163606287Y-91588671D01*
X163472377Y-91644137D01*
X163357379Y-91732379D01*
X163269137Y-91847377D01*
X163213671Y-91981287D01*
X163213670Y-91981291D01*
X163194750Y-92124999D01*
X146071689Y-92124999D01*
X146005712Y-92097671D01*
X146005710Y-92097670D01*
X146005709Y-92097670D01*
X145933854Y-92088210D01*
X145862001Y-92078750D01*
X145861999Y-92078750D01*
X145718291Y-92097670D01*
X145718287Y-92097671D01*
X145584377Y-92153137D01*
X145469379Y-92241379D01*
X145381137Y-92356377D01*
X145325671Y-92490287D01*
X145325670Y-92490291D01*
X145310455Y-92605862D01*
X145306750Y-92634000D01*
X112881400Y-92634000D01*
X112881400Y-90060000D01*
X113296216Y-90060000D01*
X114165272Y-90060000D01*
X114073386Y-90098060D01*
X114003060Y-90168386D01*
X113965000Y-90260272D01*
X113965000Y-90359728D01*
X114003060Y-90451614D01*
X114073386Y-90521940D01*
X114165272Y-90560000D01*
X113296216Y-90560000D01*
X113301316Y-90585644D01*
X113301317Y-90585649D01*
X113372548Y-90757618D01*
X113372555Y-90757631D01*
X113475970Y-90912401D01*
X113475973Y-90912405D01*
X113607594Y-91044026D01*
X113607598Y-91044029D01*
X113762368Y-91147444D01*
X113762377Y-91147449D01*
X113934353Y-91218683D01*
X113934361Y-91218685D01*
X114116921Y-91254999D01*
X114116924Y-91255000D01*
X114290000Y-91255000D01*
X114290000Y-90560000D01*
X114790000Y-90560000D01*
X114790000Y-91255000D01*
X114963076Y-91255000D01*
X114963078Y-91254999D01*
X115145638Y-91218685D01*
X115145646Y-91218683D01*
X115317622Y-91147449D01*
X115317631Y-91147444D01*
X115472401Y-91044029D01*
X115472405Y-91044026D01*
X115604026Y-90912405D01*
X115604029Y-90912401D01*
X115707444Y-90757631D01*
X115707451Y-90757618D01*
X115778682Y-90585649D01*
X115778683Y-90585644D01*
X115783784Y-90560000D01*
X114914728Y-90560000D01*
X115006614Y-90521940D01*
X115076940Y-90451614D01*
X115115000Y-90359728D01*
X115115000Y-90260272D01*
X115076940Y-90168386D01*
X115006614Y-90098060D01*
X114914728Y-90060000D01*
X115783784Y-90060000D01*
X115778683Y-90034355D01*
X115778682Y-90034350D01*
X115707451Y-89862381D01*
X115707444Y-89862368D01*
X115604029Y-89707598D01*
X115604026Y-89707594D01*
X115472405Y-89575973D01*
X115472401Y-89575970D01*
X115317631Y-89472555D01*
X115317622Y-89472550D01*
X115145646Y-89401316D01*
X115145638Y-89401314D01*
X114963077Y-89365000D01*
X114790000Y-89365000D01*
X114790000Y-90060000D01*
X114290000Y-90060000D01*
X114290000Y-89365000D01*
X114116923Y-89365000D01*
X113934361Y-89401314D01*
X113934353Y-89401316D01*
X113762377Y-89472550D01*
X113762368Y-89472555D01*
X113607598Y-89575970D01*
X113607594Y-89575973D01*
X113475973Y-89707594D01*
X113475970Y-89707598D01*
X113372555Y-89862368D01*
X113372548Y-89862381D01*
X113301317Y-90034350D01*
X113301316Y-90034355D01*
X113296216Y-90060000D01*
X112881400Y-90060000D01*
X112881400Y-89059999D01*
X116265789Y-89059999D01*
X116265790Y-89060000D01*
X116983763Y-89060000D01*
X116965000Y-89105299D01*
X116965000Y-89514701D01*
X116983763Y-89560000D01*
X116265789Y-89560000D01*
X116302466Y-89744389D01*
X116302468Y-89744397D01*
X116375964Y-89921833D01*
X116375969Y-89921842D01*
X116482667Y-90081526D01*
X116482670Y-90081530D01*
X116618469Y-90217329D01*
X116618473Y-90217332D01*
X116778157Y-90324030D01*
X116778167Y-90324035D01*
X116955599Y-90397530D01*
X116955606Y-90397533D01*
X116990000Y-90404373D01*
X116990000Y-89575056D01*
X117006866Y-89615775D01*
X117084225Y-89693134D01*
X117185299Y-89735000D01*
X117294701Y-89735000D01*
X117395775Y-89693134D01*
X117473134Y-89615775D01*
X117490000Y-89575056D01*
X117490000Y-90404372D01*
X117524393Y-90397533D01*
X117524400Y-90397530D01*
X117701832Y-90324035D01*
X117701842Y-90324030D01*
X117709744Y-90318750D01*
X160944750Y-90318750D01*
X160952346Y-90376450D01*
X160963670Y-90462458D01*
X160963671Y-90462462D01*
X161019137Y-90596372D01*
X161019138Y-90596374D01*
X161019139Y-90596375D01*
X161107379Y-90711371D01*
X161222375Y-90799611D01*
X161356291Y-90855080D01*
X161483280Y-90871798D01*
X161499999Y-90874000D01*
X161500000Y-90874000D01*
X161500001Y-90874000D01*
X161514977Y-90872028D01*
X161643709Y-90855080D01*
X161777625Y-90799611D01*
X161892621Y-90711371D01*
X161980861Y-90596375D01*
X162036330Y-90462459D01*
X162055250Y-90318750D01*
X162036330Y-90175041D01*
X161980861Y-90041125D01*
X161892621Y-89926129D01*
X161777625Y-89837889D01*
X161777624Y-89837888D01*
X161777622Y-89837887D01*
X161643712Y-89782421D01*
X161643710Y-89782420D01*
X161643709Y-89782420D01*
X161571854Y-89772960D01*
X161500001Y-89763500D01*
X161499999Y-89763500D01*
X161356291Y-89782420D01*
X161356287Y-89782421D01*
X161222377Y-89837887D01*
X161107379Y-89926129D01*
X161019137Y-90041127D01*
X160963671Y-90175037D01*
X160963670Y-90175041D01*
X160951794Y-90265250D01*
X160944750Y-90318750D01*
X117709744Y-90318750D01*
X117861526Y-90217332D01*
X117861530Y-90217329D01*
X117997329Y-90081530D01*
X117997332Y-90081526D01*
X118104030Y-89921842D01*
X118104035Y-89921833D01*
X118177531Y-89744397D01*
X118177533Y-89744389D01*
X118214210Y-89560000D01*
X117496237Y-89560000D01*
X117515000Y-89514701D01*
X117515000Y-89330000D01*
X120384750Y-89330000D01*
X120403517Y-89472550D01*
X120403670Y-89473708D01*
X120403671Y-89473712D01*
X120459137Y-89607622D01*
X120459138Y-89607624D01*
X120459139Y-89607625D01*
X120547379Y-89722621D01*
X120662375Y-89810861D01*
X120796291Y-89866330D01*
X120923280Y-89883048D01*
X120939999Y-89885250D01*
X120940000Y-89885250D01*
X120940001Y-89885250D01*
X120954977Y-89883278D01*
X121083709Y-89866330D01*
X121217625Y-89810861D01*
X121332621Y-89722621D01*
X121349979Y-89700000D01*
X141594750Y-89700000D01*
X141612698Y-89836329D01*
X141613670Y-89843708D01*
X141613671Y-89843712D01*
X141669137Y-89977622D01*
X141669138Y-89977624D01*
X141669139Y-89977625D01*
X141757379Y-90092621D01*
X141872375Y-90180861D01*
X141872376Y-90180861D01*
X141872377Y-90180862D01*
X141917013Y-90199350D01*
X142006291Y-90236330D01*
X142133280Y-90253048D01*
X142149999Y-90255250D01*
X142150000Y-90255250D01*
X142150001Y-90255250D01*
X142164977Y-90253278D01*
X142293709Y-90236330D01*
X142427625Y-90180861D01*
X142542621Y-90092621D01*
X142630861Y-89977625D01*
X142686330Y-89843709D01*
X142705250Y-89700000D01*
X142686330Y-89556291D01*
X142632499Y-89426329D01*
X142630862Y-89422377D01*
X142630861Y-89422376D01*
X142630861Y-89422375D01*
X142575325Y-89349999D01*
X153244750Y-89349999D01*
X153244750Y-89350000D01*
X153263670Y-89493708D01*
X153263671Y-89493712D01*
X153319137Y-89627622D01*
X153319138Y-89627624D01*
X153319139Y-89627625D01*
X153407379Y-89742621D01*
X153522375Y-89830861D01*
X153522376Y-89830861D01*
X153522377Y-89830862D01*
X153567013Y-89849350D01*
X153656291Y-89886330D01*
X153783280Y-89903048D01*
X153799999Y-89905250D01*
X153800000Y-89905250D01*
X153800001Y-89905250D01*
X153814977Y-89903278D01*
X153943709Y-89886330D01*
X154077625Y-89830861D01*
X154192621Y-89742621D01*
X154280861Y-89627625D01*
X154336330Y-89493709D01*
X154355250Y-89350000D01*
X154348667Y-89300000D01*
X155944750Y-89300000D01*
X155958088Y-89401314D01*
X155963670Y-89443708D01*
X155963671Y-89443712D01*
X156019137Y-89577622D01*
X156019138Y-89577624D01*
X156019139Y-89577625D01*
X156107379Y-89692621D01*
X156222375Y-89780861D01*
X156222376Y-89780861D01*
X156222377Y-89780862D01*
X156226141Y-89782421D01*
X156356291Y-89836330D01*
X156483280Y-89853048D01*
X156499999Y-89855250D01*
X156500000Y-89855250D01*
X156500001Y-89855250D01*
X156514977Y-89853278D01*
X156643709Y-89836330D01*
X156777625Y-89780861D01*
X156869972Y-89710000D01*
X165234750Y-89710000D01*
X165252353Y-89843709D01*
X165253670Y-89853708D01*
X165253671Y-89853712D01*
X165309137Y-89987622D01*
X165309138Y-89987624D01*
X165309139Y-89987625D01*
X165397379Y-90102621D01*
X165512375Y-90190861D01*
X165646291Y-90246330D01*
X165773280Y-90263048D01*
X165789999Y-90265250D01*
X165790000Y-90265250D01*
X165790001Y-90265250D01*
X165804977Y-90263278D01*
X165933709Y-90246330D01*
X166067625Y-90190861D01*
X166182621Y-90102621D01*
X166270861Y-89987625D01*
X166326330Y-89853709D01*
X166345250Y-89710000D01*
X166343933Y-89700000D01*
X166342962Y-89692620D01*
X166326330Y-89566291D01*
X166270861Y-89432375D01*
X166182621Y-89317379D01*
X166067625Y-89229139D01*
X166067624Y-89229138D01*
X166067622Y-89229137D01*
X165933712Y-89173671D01*
X165933710Y-89173670D01*
X165933709Y-89173670D01*
X165861854Y-89164210D01*
X165790001Y-89154750D01*
X165789999Y-89154750D01*
X165646291Y-89173670D01*
X165646287Y-89173671D01*
X165512377Y-89229137D01*
X165397379Y-89317379D01*
X165309137Y-89432377D01*
X165253671Y-89566287D01*
X165253670Y-89566291D01*
X165236067Y-89700000D01*
X165234750Y-89710000D01*
X156869972Y-89710000D01*
X156892621Y-89692621D01*
X156980861Y-89577625D01*
X157036330Y-89443709D01*
X157055250Y-89300000D01*
X157036330Y-89156291D01*
X156992511Y-89050500D01*
X156980862Y-89022377D01*
X156980861Y-89022376D01*
X156980861Y-89022375D01*
X156892621Y-88907379D01*
X156777625Y-88819139D01*
X156777624Y-88819138D01*
X156777622Y-88819137D01*
X156643712Y-88763671D01*
X156643710Y-88763670D01*
X156643709Y-88763670D01*
X156557917Y-88752375D01*
X156500001Y-88744750D01*
X156499999Y-88744750D01*
X156356291Y-88763670D01*
X156356287Y-88763671D01*
X156222377Y-88819137D01*
X156107379Y-88907379D01*
X156019137Y-89022377D01*
X155963671Y-89156287D01*
X155963670Y-89156291D01*
X155957449Y-89203547D01*
X155944750Y-89300000D01*
X154348667Y-89300000D01*
X154336330Y-89206291D01*
X154280861Y-89072375D01*
X154192621Y-88957379D01*
X154077625Y-88869139D01*
X154077624Y-88869138D01*
X154077622Y-88869137D01*
X153943712Y-88813671D01*
X153943710Y-88813670D01*
X153943709Y-88813670D01*
X153871854Y-88804210D01*
X153800001Y-88794750D01*
X153799999Y-88794750D01*
X153656291Y-88813670D01*
X153656287Y-88813671D01*
X153522377Y-88869137D01*
X153407379Y-88957379D01*
X153319137Y-89072377D01*
X153263671Y-89206287D01*
X153263670Y-89206291D01*
X153244750Y-89349999D01*
X142575325Y-89349999D01*
X142542621Y-89307379D01*
X142427625Y-89219139D01*
X142427624Y-89219138D01*
X142427622Y-89219137D01*
X142293712Y-89163671D01*
X142293710Y-89163670D01*
X142293709Y-89163670D01*
X142221854Y-89154210D01*
X142150001Y-89144750D01*
X142149999Y-89144750D01*
X142006291Y-89163670D01*
X142006287Y-89163671D01*
X141872377Y-89219137D01*
X141757379Y-89307379D01*
X141669137Y-89422377D01*
X141613671Y-89556287D01*
X141613670Y-89556291D01*
X141595722Y-89692620D01*
X141594750Y-89700000D01*
X121349979Y-89700000D01*
X121420861Y-89607625D01*
X121476330Y-89473709D01*
X121495250Y-89330000D01*
X121476330Y-89186291D01*
X121429145Y-89072375D01*
X121420862Y-89052377D01*
X121420861Y-89052376D01*
X121420861Y-89052375D01*
X121332621Y-88937379D01*
X121270876Y-88890000D01*
X121674750Y-88890000D01*
X121685627Y-88972621D01*
X121693670Y-89033708D01*
X121693671Y-89033712D01*
X121749137Y-89167622D01*
X121749138Y-89167624D01*
X121749139Y-89167625D01*
X121837379Y-89282621D01*
X121952375Y-89370861D01*
X122086291Y-89426330D01*
X122213280Y-89443048D01*
X122229999Y-89445250D01*
X122230000Y-89445250D01*
X122230001Y-89445250D01*
X122244977Y-89443278D01*
X122373709Y-89426330D01*
X122507625Y-89370861D01*
X122622621Y-89282621D01*
X122710861Y-89167625D01*
X122766330Y-89033709D01*
X122785250Y-88890000D01*
X122783355Y-88875610D01*
X122779870Y-88849137D01*
X122766330Y-88746291D01*
X122710861Y-88612375D01*
X122622621Y-88497379D01*
X122507625Y-88409139D01*
X122507624Y-88409138D01*
X122507622Y-88409137D01*
X122373712Y-88353671D01*
X122373710Y-88353670D01*
X122373709Y-88353670D01*
X122345833Y-88350000D01*
X127594355Y-88350000D01*
X127614859Y-88518869D01*
X127614860Y-88518874D01*
X127675182Y-88677931D01*
X127734364Y-88763670D01*
X127771817Y-88817929D01*
X127836917Y-88875602D01*
X127899150Y-88930736D01*
X128039172Y-89004225D01*
X128049775Y-89009790D01*
X128214944Y-89050500D01*
X128385056Y-89050500D01*
X128468229Y-89030000D01*
X138004750Y-89030000D01*
X138022348Y-89163671D01*
X138023670Y-89173708D01*
X138023671Y-89173712D01*
X138079137Y-89307622D01*
X138079138Y-89307624D01*
X138079139Y-89307625D01*
X138167379Y-89422621D01*
X138282375Y-89510861D01*
X138282376Y-89510861D01*
X138282377Y-89510862D01*
X138327013Y-89529350D01*
X138416291Y-89566330D01*
X138543280Y-89583048D01*
X138559999Y-89585250D01*
X138560000Y-89585250D01*
X138560001Y-89585250D01*
X138574977Y-89583278D01*
X138703709Y-89566330D01*
X138837625Y-89510861D01*
X138952621Y-89422621D01*
X139040861Y-89307625D01*
X139096330Y-89173709D01*
X139115250Y-89030000D01*
X139096330Y-88886291D01*
X139045540Y-88763671D01*
X139040862Y-88752377D01*
X139040861Y-88752376D01*
X139040861Y-88752375D01*
X138952621Y-88637379D01*
X138877842Y-88579999D01*
X158724750Y-88579999D01*
X158724750Y-88580000D01*
X158743670Y-88723708D01*
X158743671Y-88723712D01*
X158799137Y-88857622D01*
X158799138Y-88857624D01*
X158799139Y-88857625D01*
X158887379Y-88972621D01*
X159002375Y-89060861D01*
X159136291Y-89116330D01*
X159263280Y-89133048D01*
X159279999Y-89135250D01*
X159280000Y-89135250D01*
X159280001Y-89135250D01*
X159294977Y-89133278D01*
X159423709Y-89116330D01*
X159557625Y-89060861D01*
X159672621Y-88972621D01*
X159753712Y-88866942D01*
X161211692Y-88866942D01*
X161223598Y-88957379D01*
X161230612Y-89010650D01*
X161230613Y-89010654D01*
X161286079Y-89144564D01*
X161286080Y-89144566D01*
X161286081Y-89144567D01*
X161374321Y-89259563D01*
X161489317Y-89347803D01*
X161489318Y-89347803D01*
X161489319Y-89347804D01*
X161494621Y-89350000D01*
X161623233Y-89403272D01*
X161750222Y-89419990D01*
X161766941Y-89422192D01*
X161766942Y-89422192D01*
X161766943Y-89422192D01*
X161781919Y-89420220D01*
X161910651Y-89403272D01*
X162044567Y-89347803D01*
X162159563Y-89259563D01*
X162247803Y-89144567D01*
X162303272Y-89010651D01*
X162322192Y-88866942D01*
X162303272Y-88723233D01*
X162266292Y-88633955D01*
X162247804Y-88589319D01*
X162247803Y-88589318D01*
X162247803Y-88589317D01*
X162159563Y-88474321D01*
X162044567Y-88386081D01*
X162044566Y-88386080D01*
X162044564Y-88386079D01*
X161910654Y-88330613D01*
X161910652Y-88330612D01*
X161910651Y-88330612D01*
X161838796Y-88321152D01*
X161766943Y-88311692D01*
X161766941Y-88311692D01*
X161623233Y-88330612D01*
X161623229Y-88330613D01*
X161489319Y-88386079D01*
X161374321Y-88474321D01*
X161286079Y-88589319D01*
X161230613Y-88723229D01*
X161230612Y-88723233D01*
X161217986Y-88819139D01*
X161211692Y-88866942D01*
X159753712Y-88866942D01*
X159760861Y-88857625D01*
X159816330Y-88723709D01*
X159835250Y-88580000D01*
X159816330Y-88436291D01*
X159760861Y-88302375D01*
X159672621Y-88187379D01*
X159557625Y-88099139D01*
X159557624Y-88099138D01*
X159557622Y-88099137D01*
X159423712Y-88043671D01*
X159423710Y-88043670D01*
X159423709Y-88043670D01*
X159351854Y-88034210D01*
X159280001Y-88024750D01*
X159279999Y-88024750D01*
X159136291Y-88043670D01*
X159136287Y-88043671D01*
X159002377Y-88099137D01*
X158887379Y-88187379D01*
X158799137Y-88302377D01*
X158743671Y-88436287D01*
X158743670Y-88436291D01*
X158724750Y-88579999D01*
X138877842Y-88579999D01*
X138837625Y-88549139D01*
X138837624Y-88549138D01*
X138837622Y-88549137D01*
X138703712Y-88493671D01*
X138703710Y-88493670D01*
X138703709Y-88493670D01*
X138631854Y-88484210D01*
X138560001Y-88474750D01*
X138559999Y-88474750D01*
X138416291Y-88493670D01*
X138416287Y-88493671D01*
X138282377Y-88549137D01*
X138167379Y-88637379D01*
X138079137Y-88752377D01*
X138023671Y-88886287D01*
X138023670Y-88886291D01*
X138005754Y-89022377D01*
X138004750Y-89030000D01*
X128468229Y-89030000D01*
X128550225Y-89009790D01*
X128650085Y-88957379D01*
X128700849Y-88930736D01*
X128700850Y-88930734D01*
X128700852Y-88930734D01*
X128828183Y-88817929D01*
X128924818Y-88677930D01*
X128985140Y-88518872D01*
X129005645Y-88350000D01*
X128985140Y-88181128D01*
X128924818Y-88022070D01*
X128828183Y-87882071D01*
X128700852Y-87769266D01*
X128700849Y-87769263D01*
X128550226Y-87690210D01*
X128385056Y-87649500D01*
X128214944Y-87649500D01*
X128049773Y-87690210D01*
X127899150Y-87769263D01*
X127771816Y-87882072D01*
X127675182Y-88022068D01*
X127614860Y-88181125D01*
X127614859Y-88181130D01*
X127594355Y-88350000D01*
X122345833Y-88350000D01*
X122301854Y-88344210D01*
X122230001Y-88334750D01*
X122229999Y-88334750D01*
X122086291Y-88353670D01*
X122086287Y-88353671D01*
X121952377Y-88409137D01*
X121837379Y-88497379D01*
X121749137Y-88612377D01*
X121693671Y-88746287D01*
X121693670Y-88746291D01*
X121676645Y-88875610D01*
X121674750Y-88890000D01*
X121270876Y-88890000D01*
X121217625Y-88849139D01*
X121217624Y-88849138D01*
X121217622Y-88849137D01*
X121083712Y-88793671D01*
X121083710Y-88793670D01*
X121083709Y-88793670D01*
X120969418Y-88778623D01*
X120940001Y-88774750D01*
X120939999Y-88774750D01*
X120796291Y-88793670D01*
X120796287Y-88793671D01*
X120662377Y-88849137D01*
X120547379Y-88937379D01*
X120459137Y-89052377D01*
X120403671Y-89186287D01*
X120403670Y-89186291D01*
X120386412Y-89317379D01*
X120384750Y-89330000D01*
X117515000Y-89330000D01*
X117515000Y-89105299D01*
X117496237Y-89060000D01*
X118214210Y-89060000D01*
X118214210Y-89059999D01*
X118177533Y-88875610D01*
X118177531Y-88875602D01*
X118104035Y-88698166D01*
X118104030Y-88698157D01*
X117997332Y-88538473D01*
X117997329Y-88538469D01*
X117861530Y-88402670D01*
X117861526Y-88402667D01*
X117701842Y-88295969D01*
X117701833Y-88295964D01*
X117524397Y-88222468D01*
X117524389Y-88222466D01*
X117490000Y-88215625D01*
X117490000Y-89044943D01*
X117473134Y-89004225D01*
X117395775Y-88926866D01*
X117294701Y-88885000D01*
X117185299Y-88885000D01*
X117084225Y-88926866D01*
X117006866Y-89004225D01*
X116990000Y-89044943D01*
X116990000Y-88215625D01*
X116955610Y-88222466D01*
X116955602Y-88222468D01*
X116778166Y-88295964D01*
X116778157Y-88295969D01*
X116618473Y-88402667D01*
X116618469Y-88402670D01*
X116482670Y-88538469D01*
X116482667Y-88538473D01*
X116375969Y-88698157D01*
X116375964Y-88698166D01*
X116302468Y-88875602D01*
X116302466Y-88875610D01*
X116265789Y-89059999D01*
X112881400Y-89059999D01*
X112881400Y-86999999D01*
X179319364Y-86999999D01*
X179319364Y-87000000D01*
X180216988Y-87000000D01*
X180184075Y-87057007D01*
X180150000Y-87184174D01*
X180150000Y-87315826D01*
X180184075Y-87442993D01*
X180216988Y-87500000D01*
X179319364Y-87500000D01*
X179376567Y-87713486D01*
X179376570Y-87713492D01*
X179476399Y-87927578D01*
X179611894Y-88121082D01*
X179778917Y-88288105D01*
X179972421Y-88423600D01*
X180186507Y-88523429D01*
X180186516Y-88523433D01*
X180308649Y-88556158D01*
X180368310Y-88592523D01*
X180398839Y-88655369D01*
X180390545Y-88724745D01*
X180346059Y-88778623D01*
X180312552Y-88794593D01*
X180246046Y-88814767D01*
X180115358Y-88884622D01*
X180063550Y-88912315D01*
X180063548Y-88912316D01*
X180063547Y-88912317D01*
X179903589Y-89043589D01*
X179772317Y-89203547D01*
X179772315Y-89203550D01*
X179742376Y-89259562D01*
X179674769Y-89386043D01*
X179614699Y-89584067D01*
X179594417Y-89790000D01*
X179614699Y-89995932D01*
X179614700Y-89995934D01*
X179674768Y-90193954D01*
X179772315Y-90376450D01*
X179772317Y-90376452D01*
X179903589Y-90536410D01*
X179963582Y-90585644D01*
X180063550Y-90667685D01*
X180246046Y-90765232D01*
X180444066Y-90825300D01*
X180444065Y-90825300D01*
X180462529Y-90827118D01*
X180650000Y-90845583D01*
X180855934Y-90825300D01*
X181053954Y-90765232D01*
X181236450Y-90667685D01*
X181396410Y-90536410D01*
X181527685Y-90376450D01*
X181625232Y-90193954D01*
X181685300Y-89995934D01*
X181705583Y-89790000D01*
X181685300Y-89584066D01*
X181625232Y-89386046D01*
X181527685Y-89203550D01*
X181420035Y-89072377D01*
X181396410Y-89043589D01*
X181258894Y-88930734D01*
X181236450Y-88912315D01*
X181066554Y-88821502D01*
X181053956Y-88814769D01*
X181053955Y-88814768D01*
X181053954Y-88814768D01*
X180987447Y-88794593D01*
X180929009Y-88756296D01*
X180900553Y-88692484D01*
X180911113Y-88623417D01*
X180957337Y-88571023D01*
X180991350Y-88556158D01*
X181113483Y-88523433D01*
X181113492Y-88523429D01*
X181327578Y-88423600D01*
X181521082Y-88288105D01*
X181688105Y-88121082D01*
X181823600Y-87927578D01*
X181923429Y-87713492D01*
X181923432Y-87713486D01*
X181980636Y-87500000D01*
X181083012Y-87500000D01*
X181115925Y-87442993D01*
X181150000Y-87315826D01*
X181150000Y-87184174D01*
X181115925Y-87057007D01*
X181083012Y-87000000D01*
X181980636Y-87000000D01*
X181980635Y-86999999D01*
X181923432Y-86786513D01*
X181923429Y-86786507D01*
X181823600Y-86572422D01*
X181823599Y-86572420D01*
X181688113Y-86378926D01*
X181688108Y-86378920D01*
X181521082Y-86211894D01*
X181327578Y-86076399D01*
X181113492Y-85976570D01*
X181113486Y-85976567D01*
X180991349Y-85943841D01*
X180931689Y-85907476D01*
X180901160Y-85844629D01*
X180909455Y-85775253D01*
X180953940Y-85721375D01*
X180987444Y-85705407D01*
X181053954Y-85685232D01*
X181236450Y-85587685D01*
X181396410Y-85456410D01*
X181527685Y-85296450D01*
X181625232Y-85113954D01*
X181685300Y-84915934D01*
X181705583Y-84710000D01*
X181685300Y-84504066D01*
X181625232Y-84306046D01*
X181527685Y-84123550D01*
X181462422Y-84044026D01*
X181396410Y-83963589D01*
X181236452Y-83832317D01*
X181236453Y-83832317D01*
X181236450Y-83832315D01*
X181053954Y-83734768D01*
X180855934Y-83674700D01*
X180855932Y-83674699D01*
X180855934Y-83674699D01*
X180650000Y-83654417D01*
X180444067Y-83674699D01*
X180246043Y-83734769D01*
X180135898Y-83793643D01*
X180063550Y-83832315D01*
X180063548Y-83832316D01*
X180063547Y-83832317D01*
X179903589Y-83963589D01*
X179772317Y-84123547D01*
X179772315Y-84123550D01*
X179759541Y-84147449D01*
X179674769Y-84306043D01*
X179614699Y-84504067D01*
X179594417Y-84710000D01*
X179614699Y-84915932D01*
X179620887Y-84936330D01*
X179674768Y-85113954D01*
X179772315Y-85296450D01*
X179772317Y-85296452D01*
X179903589Y-85456410D01*
X179983600Y-85522072D01*
X180063550Y-85587685D01*
X180246046Y-85685232D01*
X180312551Y-85705405D01*
X180370989Y-85743702D01*
X180399446Y-85807514D01*
X180388887Y-85876581D01*
X180342663Y-85928975D01*
X180308650Y-85943841D01*
X180186514Y-85976567D01*
X180186507Y-85976570D01*
X179972422Y-86076399D01*
X179972420Y-86076400D01*
X179778926Y-86211886D01*
X179778920Y-86211891D01*
X179611891Y-86378920D01*
X179611886Y-86378926D01*
X179476400Y-86572420D01*
X179476399Y-86572422D01*
X179376570Y-86786507D01*
X179376567Y-86786513D01*
X179319364Y-86999999D01*
X112881400Y-86999999D01*
X112881400Y-85990000D01*
X130094355Y-85990000D01*
X130114859Y-86158869D01*
X130114860Y-86158874D01*
X130175182Y-86317931D01*
X130217285Y-86378926D01*
X130271817Y-86457929D01*
X130377505Y-86551560D01*
X130399150Y-86570736D01*
X130549773Y-86649789D01*
X130549775Y-86649790D01*
X130714944Y-86690500D01*
X130885056Y-86690500D01*
X131050225Y-86649790D01*
X131129692Y-86608081D01*
X131200849Y-86570736D01*
X131200850Y-86570734D01*
X131200852Y-86570734D01*
X131328183Y-86457929D01*
X131424818Y-86317930D01*
X131485140Y-86158872D01*
X131505645Y-85990000D01*
X131485140Y-85821128D01*
X131424818Y-85662070D01*
X131328183Y-85522071D01*
X131200852Y-85409266D01*
X131200849Y-85409263D01*
X131050226Y-85330210D01*
X130885056Y-85289500D01*
X130714944Y-85289500D01*
X130549773Y-85330210D01*
X130399150Y-85409263D01*
X130271816Y-85522072D01*
X130175182Y-85662068D01*
X130114860Y-85821125D01*
X130114859Y-85821130D01*
X130094355Y-85990000D01*
X112881400Y-85990000D01*
X112881400Y-83060000D01*
X113296216Y-83060000D01*
X114165272Y-83060000D01*
X114073386Y-83098060D01*
X114003060Y-83168386D01*
X113965000Y-83260272D01*
X113965000Y-83359728D01*
X114003060Y-83451614D01*
X114073386Y-83521940D01*
X114165272Y-83560000D01*
X113296216Y-83560000D01*
X113301316Y-83585644D01*
X113301317Y-83585649D01*
X113372548Y-83757618D01*
X113372555Y-83757631D01*
X113475970Y-83912401D01*
X113475973Y-83912405D01*
X113607594Y-84044026D01*
X113607598Y-84044029D01*
X113762368Y-84147444D01*
X113762377Y-84147449D01*
X113934353Y-84218683D01*
X113934361Y-84218685D01*
X114116921Y-84254999D01*
X114116924Y-84255000D01*
X114290000Y-84255000D01*
X114290000Y-83560000D01*
X114790000Y-83560000D01*
X114790000Y-84255000D01*
X114963076Y-84255000D01*
X114963078Y-84254999D01*
X115145638Y-84218685D01*
X115145646Y-84218683D01*
X115317622Y-84147449D01*
X115317631Y-84147444D01*
X115448500Y-84059999D01*
X116265789Y-84059999D01*
X116265790Y-84060000D01*
X116983763Y-84060000D01*
X116965000Y-84105299D01*
X116965000Y-84514701D01*
X116983763Y-84560000D01*
X116265789Y-84560000D01*
X116302466Y-84744389D01*
X116302468Y-84744397D01*
X116375964Y-84921833D01*
X116375969Y-84921842D01*
X116482667Y-85081526D01*
X116482670Y-85081530D01*
X116618469Y-85217329D01*
X116618473Y-85217332D01*
X116778157Y-85324030D01*
X116778167Y-85324035D01*
X116955599Y-85397530D01*
X116955606Y-85397533D01*
X116990000Y-85404373D01*
X116990000Y-84575056D01*
X117006866Y-84615775D01*
X117084225Y-84693134D01*
X117185299Y-84735000D01*
X117294701Y-84735000D01*
X117395775Y-84693134D01*
X117473134Y-84615775D01*
X117490000Y-84575056D01*
X117490000Y-85404372D01*
X117524393Y-85397533D01*
X117524400Y-85397530D01*
X117701832Y-85324035D01*
X117701842Y-85324030D01*
X117861526Y-85217332D01*
X117861530Y-85217329D01*
X117997329Y-85081530D01*
X117997332Y-85081526D01*
X118104030Y-84921842D01*
X118104035Y-84921833D01*
X118177531Y-84744397D01*
X118177533Y-84744389D01*
X118214210Y-84560000D01*
X117496237Y-84560000D01*
X117515000Y-84514701D01*
X117515000Y-84399999D01*
X136094750Y-84399999D01*
X136094750Y-84400000D01*
X136113670Y-84543708D01*
X136113671Y-84543712D01*
X136169137Y-84677622D01*
X136169138Y-84677624D01*
X136169139Y-84677625D01*
X136257379Y-84792621D01*
X136372375Y-84880861D01*
X136506291Y-84936330D01*
X136633280Y-84953048D01*
X136649999Y-84955250D01*
X136650000Y-84955250D01*
X136650001Y-84955250D01*
X136664977Y-84953278D01*
X136793709Y-84936330D01*
X136927625Y-84880861D01*
X137042621Y-84792621D01*
X137130861Y-84677625D01*
X137186330Y-84543709D01*
X137205250Y-84400000D01*
X137186330Y-84256291D01*
X137131348Y-84123550D01*
X137130862Y-84122377D01*
X137130861Y-84122376D01*
X137130861Y-84122375D01*
X137042621Y-84007379D01*
X136927625Y-83919139D01*
X136927624Y-83919138D01*
X136927622Y-83919137D01*
X136793712Y-83863671D01*
X136793710Y-83863670D01*
X136793709Y-83863670D01*
X136721854Y-83854210D01*
X136650001Y-83844750D01*
X136649999Y-83844750D01*
X136506291Y-83863670D01*
X136506287Y-83863671D01*
X136372377Y-83919137D01*
X136257379Y-84007379D01*
X136169137Y-84122377D01*
X136113671Y-84256287D01*
X136113670Y-84256291D01*
X136094750Y-84399999D01*
X117515000Y-84399999D01*
X117515000Y-84105299D01*
X117496237Y-84060000D01*
X118214210Y-84060000D01*
X118214210Y-84059999D01*
X118177533Y-83875610D01*
X118177531Y-83875602D01*
X118104035Y-83698166D01*
X118104030Y-83698157D01*
X117997332Y-83538473D01*
X117997329Y-83538469D01*
X117861530Y-83402670D01*
X117861526Y-83402667D01*
X117701842Y-83295969D01*
X117701833Y-83295964D01*
X117524397Y-83222468D01*
X117524389Y-83222466D01*
X117490000Y-83215625D01*
X117490000Y-84044943D01*
X117473134Y-84004225D01*
X117395775Y-83926866D01*
X117294701Y-83885000D01*
X117185299Y-83885000D01*
X117084225Y-83926866D01*
X117006866Y-84004225D01*
X116990000Y-84044943D01*
X116990000Y-83215625D01*
X116955610Y-83222466D01*
X116955602Y-83222468D01*
X116778166Y-83295964D01*
X116778157Y-83295969D01*
X116618473Y-83402667D01*
X116618469Y-83402670D01*
X116482670Y-83538469D01*
X116482667Y-83538473D01*
X116375969Y-83698157D01*
X116375964Y-83698166D01*
X116302468Y-83875602D01*
X116302466Y-83875610D01*
X116265789Y-84059999D01*
X115448500Y-84059999D01*
X115472401Y-84044029D01*
X115472405Y-84044026D01*
X115604026Y-83912405D01*
X115604029Y-83912401D01*
X115707444Y-83757631D01*
X115707451Y-83757618D01*
X115778682Y-83585649D01*
X115778683Y-83585644D01*
X115783784Y-83560000D01*
X114914728Y-83560000D01*
X115006614Y-83521940D01*
X115076940Y-83451614D01*
X115115000Y-83359728D01*
X115115000Y-83260272D01*
X115076940Y-83168386D01*
X115006614Y-83098060D01*
X114914728Y-83060000D01*
X115783784Y-83060000D01*
X115778683Y-83034355D01*
X115778682Y-83034350D01*
X115762382Y-82994999D01*
X150939750Y-82994999D01*
X150939750Y-82995000D01*
X150958670Y-83138708D01*
X150958671Y-83138712D01*
X151014137Y-83272622D01*
X151014138Y-83272624D01*
X151014139Y-83272625D01*
X151102379Y-83387621D01*
X151217375Y-83475861D01*
X151351291Y-83531330D01*
X151478280Y-83548048D01*
X151494999Y-83550250D01*
X151495000Y-83550250D01*
X151495001Y-83550250D01*
X151509977Y-83548278D01*
X151638709Y-83531330D01*
X151772625Y-83475861D01*
X151887621Y-83387621D01*
X151975861Y-83272625D01*
X152031330Y-83138709D01*
X152050250Y-82995000D01*
X152031330Y-82851291D01*
X151975861Y-82717375D01*
X151887621Y-82602379D01*
X151772625Y-82514139D01*
X151772624Y-82514138D01*
X151772622Y-82514137D01*
X151638712Y-82458671D01*
X151638710Y-82458670D01*
X151638709Y-82458670D01*
X151566854Y-82449210D01*
X151495001Y-82439750D01*
X151494999Y-82439750D01*
X151351291Y-82458670D01*
X151351287Y-82458671D01*
X151217377Y-82514137D01*
X151102379Y-82602379D01*
X151014137Y-82717377D01*
X150958671Y-82851287D01*
X150958670Y-82851291D01*
X150939750Y-82994999D01*
X115762382Y-82994999D01*
X115707451Y-82862381D01*
X115707444Y-82862368D01*
X115604029Y-82707598D01*
X115604026Y-82707594D01*
X115472405Y-82575973D01*
X115472401Y-82575970D01*
X115317631Y-82472555D01*
X115317622Y-82472550D01*
X115145646Y-82401316D01*
X115145638Y-82401314D01*
X114963077Y-82365000D01*
X114790000Y-82365000D01*
X114790000Y-83060000D01*
X114290000Y-83060000D01*
X114290000Y-82365000D01*
X114116923Y-82365000D01*
X113934361Y-82401314D01*
X113934353Y-82401316D01*
X113762377Y-82472550D01*
X113762368Y-82472555D01*
X113607598Y-82575970D01*
X113607594Y-82575973D01*
X113475973Y-82707594D01*
X113475970Y-82707598D01*
X113372555Y-82862368D01*
X113372548Y-82862381D01*
X113301317Y-83034350D01*
X113301316Y-83034355D01*
X113296216Y-83060000D01*
X112881400Y-83060000D01*
X112881400Y-81749999D01*
X137374750Y-81749999D01*
X137374750Y-81750000D01*
X137393670Y-81893708D01*
X137393671Y-81893712D01*
X137449137Y-82027622D01*
X137449138Y-82027624D01*
X137449139Y-82027625D01*
X137537379Y-82142621D01*
X137652375Y-82230861D01*
X137786291Y-82286330D01*
X137913280Y-82303048D01*
X137929999Y-82305250D01*
X137930000Y-82305250D01*
X137930001Y-82305250D01*
X137944977Y-82303278D01*
X138073709Y-82286330D01*
X138207625Y-82230861D01*
X138322621Y-82142621D01*
X138410861Y-82027625D01*
X138466330Y-81893709D01*
X138485250Y-81750000D01*
X138466330Y-81606291D01*
X138416641Y-81486329D01*
X138410862Y-81472377D01*
X138410861Y-81472376D01*
X138410861Y-81472375D01*
X138322621Y-81357379D01*
X138248166Y-81300247D01*
X179599500Y-81300247D01*
X179599500Y-83039752D01*
X179611131Y-83098229D01*
X179611132Y-83098230D01*
X179655447Y-83164552D01*
X179721769Y-83208867D01*
X179721770Y-83208868D01*
X179780247Y-83220499D01*
X179780250Y-83220500D01*
X179780252Y-83220500D01*
X181519750Y-83220500D01*
X181519751Y-83220499D01*
X181534568Y-83217552D01*
X181578229Y-83208868D01*
X181578229Y-83208867D01*
X181578231Y-83208867D01*
X181644552Y-83164552D01*
X181688867Y-83098231D01*
X181688867Y-83098229D01*
X181688868Y-83098229D01*
X181700499Y-83039752D01*
X181700500Y-83039750D01*
X181700500Y-81300249D01*
X181700499Y-81300247D01*
X181688868Y-81241770D01*
X181688867Y-81241769D01*
X181644552Y-81175447D01*
X181578230Y-81131132D01*
X181578229Y-81131131D01*
X181519752Y-81119500D01*
X181519748Y-81119500D01*
X179780252Y-81119500D01*
X179780247Y-81119500D01*
X179721770Y-81131131D01*
X179721769Y-81131132D01*
X179655447Y-81175447D01*
X179611132Y-81241769D01*
X179611131Y-81241770D01*
X179599500Y-81300247D01*
X138248166Y-81300247D01*
X138207625Y-81269139D01*
X138207624Y-81269138D01*
X138207622Y-81269137D01*
X138073712Y-81213671D01*
X138073710Y-81213670D01*
X138073709Y-81213670D01*
X138001854Y-81204210D01*
X137930001Y-81194750D01*
X137929999Y-81194750D01*
X137786291Y-81213670D01*
X137786287Y-81213671D01*
X137652377Y-81269137D01*
X137537379Y-81357379D01*
X137449137Y-81472377D01*
X137393671Y-81606287D01*
X137393670Y-81606291D01*
X137374750Y-81749999D01*
X112881400Y-81749999D01*
X112881400Y-80949999D01*
X134044750Y-80949999D01*
X134044750Y-80950000D01*
X134063670Y-81093708D01*
X134063671Y-81093712D01*
X134119137Y-81227622D01*
X134119138Y-81227624D01*
X134119139Y-81227625D01*
X134207379Y-81342621D01*
X134322375Y-81430861D01*
X134456291Y-81486330D01*
X134583280Y-81503048D01*
X134599999Y-81505250D01*
X134600000Y-81505250D01*
X134600001Y-81505250D01*
X134614977Y-81503278D01*
X134743709Y-81486330D01*
X134877625Y-81430861D01*
X134992621Y-81342621D01*
X135080861Y-81227625D01*
X135136330Y-81093709D01*
X135155250Y-80950000D01*
X135136330Y-80806291D01*
X135099350Y-80717013D01*
X135092303Y-80699999D01*
X163394750Y-80699999D01*
X163394750Y-80700000D01*
X163413670Y-80843708D01*
X163413671Y-80843712D01*
X163469137Y-80977622D01*
X163469138Y-80977624D01*
X163469139Y-80977625D01*
X163557379Y-81092621D01*
X163672375Y-81180861D01*
X163672376Y-81180861D01*
X163672377Y-81180862D01*
X163717013Y-81199350D01*
X163806291Y-81236330D01*
X163933280Y-81253048D01*
X163949999Y-81255250D01*
X163950000Y-81255250D01*
X163950001Y-81255250D01*
X163964977Y-81253278D01*
X164093709Y-81236330D01*
X164227625Y-81180861D01*
X164342621Y-81092621D01*
X164430861Y-80977625D01*
X164486330Y-80843709D01*
X164505250Y-80700000D01*
X164491321Y-80594200D01*
X184028555Y-80594200D01*
X184049059Y-80763069D01*
X184049060Y-80763074D01*
X184109382Y-80922131D01*
X184171675Y-81012377D01*
X184206017Y-81062129D01*
X184283906Y-81131132D01*
X184333350Y-81174936D01*
X184433741Y-81227625D01*
X184483975Y-81253990D01*
X184649144Y-81294700D01*
X184819256Y-81294700D01*
X184984425Y-81253990D01*
X185063892Y-81212281D01*
X185135049Y-81174936D01*
X185135050Y-81174934D01*
X185135052Y-81174934D01*
X185262383Y-81062129D01*
X185359018Y-80922130D01*
X185419340Y-80763072D01*
X185439845Y-80594200D01*
X185419340Y-80425328D01*
X185409654Y-80399789D01*
X185359017Y-80266268D01*
X185318746Y-80207927D01*
X185262383Y-80126271D01*
X185135052Y-80013466D01*
X185135049Y-80013463D01*
X184984426Y-79934410D01*
X184819256Y-79893700D01*
X184649144Y-79893700D01*
X184483973Y-79934410D01*
X184333350Y-80013463D01*
X184206016Y-80126272D01*
X184109382Y-80266268D01*
X184049060Y-80425325D01*
X184049059Y-80425330D01*
X184028555Y-80594200D01*
X164491321Y-80594200D01*
X164486330Y-80556291D01*
X164430861Y-80422375D01*
X164342621Y-80307379D01*
X164227625Y-80219139D01*
X164227624Y-80219138D01*
X164227622Y-80219137D01*
X164093712Y-80163671D01*
X164093710Y-80163670D01*
X164093709Y-80163670D01*
X164021854Y-80154210D01*
X163950001Y-80144750D01*
X163949999Y-80144750D01*
X163806291Y-80163670D01*
X163806287Y-80163671D01*
X163672377Y-80219137D01*
X163557379Y-80307379D01*
X163469137Y-80422377D01*
X163413671Y-80556287D01*
X163413670Y-80556291D01*
X163394750Y-80699999D01*
X135092303Y-80699999D01*
X135080862Y-80672377D01*
X135080861Y-80672376D01*
X135080861Y-80672375D01*
X134992621Y-80557379D01*
X134877625Y-80469139D01*
X134877624Y-80469138D01*
X134877622Y-80469137D01*
X134743712Y-80413671D01*
X134743710Y-80413670D01*
X134743709Y-80413670D01*
X134638282Y-80399790D01*
X134600001Y-80394750D01*
X134599999Y-80394750D01*
X134456291Y-80413670D01*
X134456287Y-80413671D01*
X134322377Y-80469137D01*
X134207379Y-80557379D01*
X134119137Y-80672377D01*
X134063671Y-80806287D01*
X134063670Y-80806291D01*
X134044750Y-80949999D01*
X112881400Y-80949999D01*
X112881400Y-79740000D01*
X120594355Y-79740000D01*
X120614859Y-79908869D01*
X120614860Y-79908874D01*
X120675182Y-80067931D01*
X120715452Y-80126271D01*
X120771817Y-80207929D01*
X120837671Y-80266270D01*
X120899150Y-80320736D01*
X121040172Y-80394750D01*
X121049775Y-80399790D01*
X121214944Y-80440500D01*
X121385056Y-80440500D01*
X121550225Y-80399790D01*
X121629692Y-80358081D01*
X121700849Y-80320736D01*
X121700850Y-80320734D01*
X121700852Y-80320734D01*
X121828183Y-80207929D01*
X121924818Y-80067930D01*
X121985140Y-79908872D01*
X122005645Y-79740000D01*
X121985140Y-79571128D01*
X121924818Y-79412070D01*
X121828183Y-79272071D01*
X121700852Y-79159266D01*
X121700849Y-79159263D01*
X121550226Y-79080210D01*
X121385056Y-79039500D01*
X121214944Y-79039500D01*
X121049773Y-79080210D01*
X120899150Y-79159263D01*
X120771816Y-79272072D01*
X120675182Y-79412068D01*
X120614860Y-79571125D01*
X120614859Y-79571130D01*
X120594355Y-79740000D01*
X112881400Y-79740000D01*
X112881400Y-78599999D01*
X181594750Y-78599999D01*
X181594750Y-78600000D01*
X181613670Y-78743708D01*
X181613671Y-78743712D01*
X181669137Y-78877622D01*
X181669138Y-78877624D01*
X181669139Y-78877625D01*
X181757379Y-78992621D01*
X181872375Y-79080861D01*
X182006291Y-79136330D01*
X182133280Y-79153048D01*
X182149999Y-79155250D01*
X182150000Y-79155250D01*
X182150001Y-79155250D01*
X182164977Y-79153278D01*
X182293709Y-79136330D01*
X182427625Y-79080861D01*
X182542621Y-78992621D01*
X182630861Y-78877625D01*
X182686330Y-78743709D01*
X182705250Y-78600000D01*
X182686330Y-78456291D01*
X182630861Y-78322375D01*
X182542621Y-78207379D01*
X182427625Y-78119139D01*
X182427624Y-78119138D01*
X182427622Y-78119137D01*
X182293712Y-78063671D01*
X182293710Y-78063670D01*
X182293709Y-78063670D01*
X182221854Y-78054210D01*
X182150001Y-78044750D01*
X182149999Y-78044750D01*
X182006291Y-78063670D01*
X182006287Y-78063671D01*
X181872377Y-78119137D01*
X181757379Y-78207379D01*
X181669137Y-78322377D01*
X181613671Y-78456287D01*
X181613670Y-78456291D01*
X181594750Y-78599999D01*
X112881400Y-78599999D01*
X112881400Y-77150000D01*
X152734417Y-77150000D01*
X152754699Y-77355932D01*
X152754700Y-77355934D01*
X152814768Y-77553954D01*
X152912315Y-77736450D01*
X152912317Y-77736452D01*
X153043589Y-77896410D01*
X153140209Y-77975702D01*
X153203550Y-78027685D01*
X153386046Y-78125232D01*
X153584066Y-78185300D01*
X153584065Y-78185300D01*
X153602529Y-78187118D01*
X153790000Y-78205583D01*
X153995934Y-78185300D01*
X154193954Y-78125232D01*
X154376450Y-78027685D01*
X154536410Y-77896410D01*
X154667685Y-77736450D01*
X154765232Y-77553954D01*
X154825300Y-77355934D01*
X154845583Y-77150000D01*
X155274417Y-77150000D01*
X155294699Y-77355932D01*
X155294700Y-77355934D01*
X155354768Y-77553954D01*
X155452315Y-77736450D01*
X155452317Y-77736452D01*
X155583589Y-77896410D01*
X155680209Y-77975702D01*
X155743550Y-78027685D01*
X155926046Y-78125232D01*
X156124066Y-78185300D01*
X156124065Y-78185300D01*
X156142529Y-78187118D01*
X156330000Y-78205583D01*
X156535934Y-78185300D01*
X156733954Y-78125232D01*
X156916450Y-78027685D01*
X157076410Y-77896410D01*
X157207685Y-77736450D01*
X157305232Y-77553954D01*
X157365300Y-77355934D01*
X157385583Y-77150000D01*
X157814417Y-77150000D01*
X157834699Y-77355932D01*
X157834700Y-77355934D01*
X157894768Y-77553954D01*
X157992315Y-77736450D01*
X157992317Y-77736452D01*
X158123589Y-77896410D01*
X158220209Y-77975702D01*
X158283550Y-78027685D01*
X158466046Y-78125232D01*
X158664066Y-78185300D01*
X158664065Y-78185300D01*
X158682529Y-78187118D01*
X158870000Y-78205583D01*
X159075934Y-78185300D01*
X159273954Y-78125232D01*
X159456450Y-78027685D01*
X159616410Y-77896410D01*
X159747685Y-77736450D01*
X159845232Y-77553954D01*
X159905300Y-77355934D01*
X159925583Y-77150000D01*
X160354417Y-77150000D01*
X160374699Y-77355932D01*
X160374700Y-77355934D01*
X160434768Y-77553954D01*
X160532315Y-77736450D01*
X160532317Y-77736452D01*
X160663589Y-77896410D01*
X160760209Y-77975702D01*
X160823550Y-78027685D01*
X161006046Y-78125232D01*
X161204066Y-78185300D01*
X161204065Y-78185300D01*
X161222529Y-78187118D01*
X161410000Y-78205583D01*
X161615934Y-78185300D01*
X161813954Y-78125232D01*
X161996450Y-78027685D01*
X162156410Y-77896410D01*
X162287685Y-77736450D01*
X162385232Y-77553954D01*
X162445300Y-77355934D01*
X162465583Y-77150000D01*
X162894417Y-77150000D01*
X162914699Y-77355932D01*
X162914700Y-77355934D01*
X162974768Y-77553954D01*
X163072315Y-77736450D01*
X163072317Y-77736452D01*
X163203589Y-77896410D01*
X163300209Y-77975702D01*
X163363550Y-78027685D01*
X163546046Y-78125232D01*
X163744066Y-78185300D01*
X163744065Y-78185300D01*
X163762529Y-78187118D01*
X163950000Y-78205583D01*
X164155934Y-78185300D01*
X164353954Y-78125232D01*
X164536450Y-78027685D01*
X164696410Y-77896410D01*
X164827685Y-77736450D01*
X164925232Y-77553954D01*
X164985300Y-77355934D01*
X165005583Y-77150000D01*
X165434417Y-77150000D01*
X165454699Y-77355932D01*
X165454700Y-77355934D01*
X165514768Y-77553954D01*
X165612315Y-77736450D01*
X165612317Y-77736452D01*
X165743589Y-77896410D01*
X165840209Y-77975702D01*
X165903550Y-78027685D01*
X166086046Y-78125232D01*
X166284066Y-78185300D01*
X166284065Y-78185300D01*
X166302529Y-78187118D01*
X166490000Y-78205583D01*
X166695934Y-78185300D01*
X166893954Y-78125232D01*
X167076450Y-78027685D01*
X167236410Y-77896410D01*
X167367685Y-77736450D01*
X167465232Y-77553954D01*
X167525300Y-77355934D01*
X167545583Y-77150000D01*
X167525300Y-76944066D01*
X167465232Y-76746046D01*
X167367685Y-76563550D01*
X167276652Y-76452625D01*
X167236410Y-76403589D01*
X167099619Y-76291329D01*
X167086115Y-76280247D01*
X167979500Y-76280247D01*
X167979500Y-78019752D01*
X167991131Y-78078229D01*
X167991132Y-78078230D01*
X168035447Y-78144552D01*
X168101769Y-78188867D01*
X168101770Y-78188868D01*
X168160247Y-78200499D01*
X168160250Y-78200500D01*
X168160252Y-78200500D01*
X169899750Y-78200500D01*
X169899751Y-78200499D01*
X169914568Y-78197552D01*
X169958229Y-78188868D01*
X169958229Y-78188867D01*
X169958231Y-78188867D01*
X170024552Y-78144552D01*
X170068867Y-78078231D01*
X170068867Y-78078229D01*
X170068868Y-78078229D01*
X170080499Y-78019752D01*
X170080500Y-78019750D01*
X170080500Y-76280249D01*
X170080499Y-76280247D01*
X170068868Y-76221770D01*
X170068867Y-76221769D01*
X170024552Y-76155447D01*
X169958230Y-76111132D01*
X169958229Y-76111131D01*
X169899752Y-76099500D01*
X169899748Y-76099500D01*
X168160252Y-76099500D01*
X168160247Y-76099500D01*
X168101770Y-76111131D01*
X168101769Y-76111132D01*
X168035447Y-76155447D01*
X167991132Y-76221769D01*
X167991131Y-76221770D01*
X167979500Y-76280247D01*
X167086115Y-76280247D01*
X167076450Y-76272315D01*
X166893954Y-76174768D01*
X166695934Y-76114700D01*
X166695932Y-76114699D01*
X166695934Y-76114699D01*
X166490000Y-76094417D01*
X166284067Y-76114699D01*
X166086043Y-76174769D01*
X166003534Y-76218872D01*
X165903550Y-76272315D01*
X165903548Y-76272316D01*
X165903547Y-76272317D01*
X165743589Y-76403589D01*
X165612317Y-76563547D01*
X165514769Y-76746043D01*
X165454699Y-76944067D01*
X165434417Y-77150000D01*
X165005583Y-77150000D01*
X164985300Y-76944066D01*
X164925232Y-76746046D01*
X164827685Y-76563550D01*
X164736652Y-76452625D01*
X164696410Y-76403589D01*
X164559619Y-76291329D01*
X164536450Y-76272315D01*
X164353954Y-76174768D01*
X164155934Y-76114700D01*
X164155932Y-76114699D01*
X164155934Y-76114699D01*
X163950000Y-76094417D01*
X163744067Y-76114699D01*
X163546043Y-76174769D01*
X163463534Y-76218872D01*
X163363550Y-76272315D01*
X163363548Y-76272316D01*
X163363547Y-76272317D01*
X163203589Y-76403589D01*
X163072317Y-76563547D01*
X162974769Y-76746043D01*
X162914699Y-76944067D01*
X162894417Y-77150000D01*
X162465583Y-77150000D01*
X162445300Y-76944066D01*
X162385232Y-76746046D01*
X162287685Y-76563550D01*
X162196652Y-76452625D01*
X162156410Y-76403589D01*
X162019619Y-76291329D01*
X161996450Y-76272315D01*
X161813954Y-76174768D01*
X161615934Y-76114700D01*
X161615932Y-76114699D01*
X161615934Y-76114699D01*
X161410000Y-76094417D01*
X161204067Y-76114699D01*
X161006043Y-76174769D01*
X160923534Y-76218872D01*
X160823550Y-76272315D01*
X160823548Y-76272316D01*
X160823547Y-76272317D01*
X160663589Y-76403589D01*
X160532317Y-76563547D01*
X160434769Y-76746043D01*
X160374699Y-76944067D01*
X160354417Y-77150000D01*
X159925583Y-77150000D01*
X159905300Y-76944066D01*
X159845232Y-76746046D01*
X159747685Y-76563550D01*
X159656652Y-76452625D01*
X159616410Y-76403589D01*
X159479619Y-76291329D01*
X159456450Y-76272315D01*
X159273954Y-76174768D01*
X159075934Y-76114700D01*
X159075932Y-76114699D01*
X159075934Y-76114699D01*
X158870000Y-76094417D01*
X158664067Y-76114699D01*
X158466043Y-76174769D01*
X158383534Y-76218872D01*
X158283550Y-76272315D01*
X158283548Y-76272316D01*
X158283547Y-76272317D01*
X158123589Y-76403589D01*
X157992317Y-76563547D01*
X157894769Y-76746043D01*
X157834699Y-76944067D01*
X157814417Y-77150000D01*
X157385583Y-77150000D01*
X157365300Y-76944066D01*
X157305232Y-76746046D01*
X157207685Y-76563550D01*
X157116652Y-76452625D01*
X157076410Y-76403589D01*
X156939619Y-76291329D01*
X156916450Y-76272315D01*
X156733954Y-76174768D01*
X156535934Y-76114700D01*
X156535932Y-76114699D01*
X156535934Y-76114699D01*
X156330000Y-76094417D01*
X156124067Y-76114699D01*
X155926043Y-76174769D01*
X155843534Y-76218872D01*
X155743550Y-76272315D01*
X155743548Y-76272316D01*
X155743547Y-76272317D01*
X155583589Y-76403589D01*
X155452317Y-76563547D01*
X155354769Y-76746043D01*
X155294699Y-76944067D01*
X155274417Y-77150000D01*
X154845583Y-77150000D01*
X154825300Y-76944066D01*
X154765232Y-76746046D01*
X154667685Y-76563550D01*
X154576652Y-76452625D01*
X154536410Y-76403589D01*
X154399619Y-76291329D01*
X154376450Y-76272315D01*
X154193954Y-76174768D01*
X153995934Y-76114700D01*
X153995932Y-76114699D01*
X153995934Y-76114699D01*
X153790000Y-76094417D01*
X153584067Y-76114699D01*
X153386043Y-76174769D01*
X153303534Y-76218872D01*
X153203550Y-76272315D01*
X153203548Y-76272316D01*
X153203547Y-76272317D01*
X153043589Y-76403589D01*
X152912317Y-76563547D01*
X152814769Y-76746043D01*
X152754699Y-76944067D01*
X152734417Y-77150000D01*
X112881400Y-77150000D01*
X112881400Y-76050000D01*
X128594355Y-76050000D01*
X128614859Y-76218869D01*
X128614860Y-76218874D01*
X128675182Y-76377931D01*
X128737475Y-76468177D01*
X128771817Y-76517929D01*
X128823313Y-76563550D01*
X128899150Y-76630736D01*
X129049773Y-76709789D01*
X129049775Y-76709790D01*
X129214944Y-76750500D01*
X129385056Y-76750500D01*
X129550225Y-76709790D01*
X129652977Y-76655861D01*
X129700849Y-76630736D01*
X129700850Y-76630734D01*
X129700852Y-76630734D01*
X129828183Y-76517929D01*
X129924818Y-76377930D01*
X129985140Y-76218872D01*
X129990467Y-76175000D01*
X136894750Y-76175000D01*
X136912698Y-76311329D01*
X136913670Y-76318708D01*
X136913671Y-76318712D01*
X136969137Y-76452622D01*
X136969138Y-76452624D01*
X136969139Y-76452625D01*
X137057379Y-76567621D01*
X137172375Y-76655861D01*
X137306291Y-76711330D01*
X137433280Y-76728048D01*
X137449999Y-76730250D01*
X137450000Y-76730250D01*
X137450001Y-76730250D01*
X137464977Y-76728278D01*
X137593709Y-76711330D01*
X137727625Y-76655861D01*
X137842621Y-76567621D01*
X137930861Y-76452625D01*
X137986330Y-76318709D01*
X138005250Y-76175000D01*
X138005219Y-76174768D01*
X137997311Y-76114699D01*
X137986330Y-76031291D01*
X137930861Y-75897375D01*
X137842621Y-75782379D01*
X137806940Y-75755000D01*
X171644750Y-75755000D01*
X171663494Y-75897375D01*
X171663670Y-75898708D01*
X171663671Y-75898712D01*
X171719137Y-76032622D01*
X171719138Y-76032624D01*
X171719139Y-76032625D01*
X171807379Y-76147621D01*
X171922375Y-76235861D01*
X172056291Y-76291330D01*
X172183280Y-76308048D01*
X172199999Y-76310250D01*
X172200000Y-76310250D01*
X172200001Y-76310250D01*
X172214977Y-76308278D01*
X172343709Y-76291330D01*
X172477625Y-76235861D01*
X172592621Y-76147621D01*
X172680861Y-76032625D01*
X172736330Y-75898709D01*
X172752617Y-75774999D01*
X184769750Y-75774999D01*
X184769750Y-75775000D01*
X184788670Y-75918708D01*
X184788671Y-75918712D01*
X184844137Y-76052622D01*
X184844138Y-76052624D01*
X184844139Y-76052625D01*
X184932379Y-76167621D01*
X185047375Y-76255861D01*
X185181291Y-76311330D01*
X185308280Y-76328048D01*
X185324999Y-76330250D01*
X185325000Y-76330250D01*
X185325001Y-76330250D01*
X185339977Y-76328278D01*
X185468709Y-76311330D01*
X185602625Y-76255861D01*
X185717621Y-76167621D01*
X185805861Y-76052625D01*
X185861330Y-75918709D01*
X185880250Y-75775000D01*
X185861330Y-75631291D01*
X185805861Y-75497375D01*
X185717621Y-75382379D01*
X185602625Y-75294139D01*
X185602624Y-75294138D01*
X185602622Y-75294137D01*
X185468712Y-75238671D01*
X185468710Y-75238670D01*
X185468709Y-75238670D01*
X185396854Y-75229210D01*
X185325001Y-75219750D01*
X185324999Y-75219750D01*
X185181291Y-75238670D01*
X185181287Y-75238671D01*
X185047377Y-75294137D01*
X184932379Y-75382379D01*
X184844137Y-75497377D01*
X184788671Y-75631287D01*
X184788670Y-75631291D01*
X184769750Y-75774999D01*
X172752617Y-75774999D01*
X172755250Y-75755000D01*
X172736330Y-75611291D01*
X172680861Y-75477375D01*
X172592621Y-75362379D01*
X172477625Y-75274139D01*
X172477624Y-75274138D01*
X172477622Y-75274137D01*
X172343712Y-75218671D01*
X172343710Y-75218670D01*
X172343709Y-75218670D01*
X172249653Y-75206287D01*
X172200001Y-75199750D01*
X172199999Y-75199750D01*
X172056291Y-75218670D01*
X172056287Y-75218671D01*
X171922377Y-75274137D01*
X171807379Y-75362379D01*
X171719137Y-75477377D01*
X171663671Y-75611287D01*
X171663670Y-75611291D01*
X171644750Y-75755000D01*
X137806940Y-75755000D01*
X137727625Y-75694139D01*
X137727624Y-75694138D01*
X137727622Y-75694137D01*
X137593712Y-75638671D01*
X137593710Y-75638670D01*
X137593709Y-75638670D01*
X137521854Y-75629210D01*
X137450001Y-75619750D01*
X137449999Y-75619750D01*
X137306291Y-75638670D01*
X137306287Y-75638671D01*
X137172377Y-75694137D01*
X137057379Y-75782379D01*
X136969137Y-75897377D01*
X136913671Y-76031287D01*
X136913670Y-76031291D01*
X136894781Y-76174768D01*
X136894750Y-76175000D01*
X129990467Y-76175000D01*
X130005645Y-76050000D01*
X129985140Y-75881128D01*
X129924818Y-75722070D01*
X129905538Y-75694139D01*
X129867251Y-75638671D01*
X129828183Y-75582071D01*
X129728441Y-75493708D01*
X129700849Y-75469263D01*
X129550226Y-75390210D01*
X129387081Y-75349999D01*
X135294750Y-75349999D01*
X135294750Y-75350000D01*
X135313670Y-75493708D01*
X135313671Y-75493712D01*
X135369137Y-75627622D01*
X135369138Y-75627624D01*
X135369139Y-75627625D01*
X135457379Y-75742621D01*
X135572375Y-75830861D01*
X135706291Y-75886330D01*
X135833280Y-75903048D01*
X135849999Y-75905250D01*
X135850000Y-75905250D01*
X135850001Y-75905250D01*
X135864977Y-75903278D01*
X135993709Y-75886330D01*
X136127625Y-75830861D01*
X136242621Y-75742621D01*
X136330861Y-75627625D01*
X136386330Y-75493709D01*
X136405250Y-75350000D01*
X136386330Y-75206291D01*
X136330861Y-75072375D01*
X136242621Y-74957379D01*
X136127625Y-74869139D01*
X136127624Y-74869138D01*
X136127622Y-74869137D01*
X135993712Y-74813671D01*
X135993710Y-74813670D01*
X135993709Y-74813670D01*
X135921854Y-74804210D01*
X135850001Y-74794750D01*
X135849999Y-74794750D01*
X135706291Y-74813670D01*
X135706287Y-74813671D01*
X135572377Y-74869137D01*
X135457379Y-74957379D01*
X135369137Y-75072377D01*
X135313671Y-75206287D01*
X135313670Y-75206291D01*
X135294750Y-75349999D01*
X129387081Y-75349999D01*
X129385056Y-75349500D01*
X129214944Y-75349500D01*
X129049773Y-75390210D01*
X128899150Y-75469263D01*
X128771816Y-75582072D01*
X128675182Y-75722068D01*
X128614860Y-75881125D01*
X128614859Y-75881130D01*
X128594355Y-76050000D01*
X112881400Y-76050000D01*
X112881400Y-74710000D01*
X120604355Y-74710000D01*
X120624859Y-74878869D01*
X120624860Y-74878874D01*
X120685182Y-75037931D01*
X120708959Y-75072377D01*
X120781817Y-75177929D01*
X120850380Y-75238670D01*
X120909150Y-75290736D01*
X121059773Y-75369789D01*
X121059775Y-75369790D01*
X121224944Y-75410500D01*
X121395056Y-75410500D01*
X121560225Y-75369790D01*
X121639692Y-75328081D01*
X121710849Y-75290736D01*
X121710850Y-75290734D01*
X121710852Y-75290734D01*
X121838183Y-75177929D01*
X121934818Y-75037930D01*
X121995140Y-74878872D01*
X122015645Y-74710000D01*
X121995140Y-74541128D01*
X121955839Y-74437499D01*
X172207250Y-74437499D01*
X172207250Y-74437500D01*
X172226170Y-74581208D01*
X172226171Y-74581212D01*
X172281637Y-74715122D01*
X172281638Y-74715124D01*
X172281639Y-74715125D01*
X172369879Y-74830121D01*
X172484875Y-74918361D01*
X172618791Y-74973830D01*
X172745780Y-74990548D01*
X172762499Y-74992750D01*
X172762500Y-74992750D01*
X172762501Y-74992750D01*
X172777477Y-74990778D01*
X172906209Y-74973830D01*
X173040125Y-74918361D01*
X173155121Y-74830121D01*
X173243361Y-74715125D01*
X173298830Y-74581209D01*
X173309522Y-74500000D01*
X185444750Y-74500000D01*
X185455441Y-74581208D01*
X185463670Y-74643708D01*
X185463671Y-74643712D01*
X185519137Y-74777622D01*
X185519138Y-74777624D01*
X185519139Y-74777625D01*
X185607379Y-74892621D01*
X185722375Y-74980861D01*
X185856291Y-75036330D01*
X185983280Y-75053048D01*
X185999999Y-75055250D01*
X186000000Y-75055250D01*
X186000001Y-75055250D01*
X186014977Y-75053278D01*
X186143709Y-75036330D01*
X186277625Y-74980861D01*
X186392621Y-74892621D01*
X186480861Y-74777625D01*
X186536330Y-74643709D01*
X186555250Y-74500000D01*
X186536330Y-74356291D01*
X186480861Y-74222375D01*
X186392621Y-74107379D01*
X186277625Y-74019139D01*
X186277624Y-74019138D01*
X186277622Y-74019137D01*
X186143712Y-73963671D01*
X186143710Y-73963670D01*
X186143709Y-73963670D01*
X186071854Y-73954210D01*
X186000001Y-73944750D01*
X185999999Y-73944750D01*
X185856291Y-73963670D01*
X185856287Y-73963671D01*
X185722377Y-74019137D01*
X185607379Y-74107379D01*
X185519137Y-74222377D01*
X185463671Y-74356287D01*
X185463670Y-74356291D01*
X185452979Y-74437499D01*
X185444750Y-74500000D01*
X173309522Y-74500000D01*
X173317750Y-74437500D01*
X173298830Y-74293791D01*
X173243361Y-74159875D01*
X173155121Y-74044879D01*
X173040125Y-73956639D01*
X173040124Y-73956638D01*
X173040122Y-73956637D01*
X172906212Y-73901171D01*
X172906210Y-73901170D01*
X172906209Y-73901170D01*
X172834354Y-73891710D01*
X172762501Y-73882250D01*
X172762499Y-73882250D01*
X172618791Y-73901170D01*
X172618787Y-73901171D01*
X172484877Y-73956637D01*
X172369879Y-74044879D01*
X172281637Y-74159877D01*
X172226171Y-74293787D01*
X172226170Y-74293791D01*
X172207250Y-74437499D01*
X121955839Y-74437499D01*
X121934818Y-74382070D01*
X121838183Y-74242071D01*
X121743316Y-74158026D01*
X121710849Y-74129263D01*
X121560226Y-74050210D01*
X121395056Y-74009500D01*
X121224944Y-74009500D01*
X121059773Y-74050210D01*
X120909150Y-74129263D01*
X120781816Y-74242072D01*
X120685182Y-74382068D01*
X120624860Y-74541125D01*
X120624859Y-74541130D01*
X120604355Y-74710000D01*
X112881400Y-74710000D01*
X112881400Y-73150000D01*
X152734417Y-73150000D01*
X152754699Y-73355932D01*
X152754700Y-73355934D01*
X152814768Y-73553954D01*
X152912315Y-73736450D01*
X152912317Y-73736452D01*
X153043589Y-73896410D01*
X153125547Y-73963670D01*
X153203550Y-74027685D01*
X153386046Y-74125232D01*
X153584066Y-74185300D01*
X153584065Y-74185300D01*
X153602529Y-74187118D01*
X153790000Y-74205583D01*
X153995934Y-74185300D01*
X154193954Y-74125232D01*
X154376450Y-74027685D01*
X154536410Y-73896410D01*
X154667685Y-73736450D01*
X154765232Y-73553954D01*
X154825300Y-73355934D01*
X154845583Y-73150000D01*
X155274417Y-73150000D01*
X155294699Y-73355932D01*
X155294700Y-73355934D01*
X155354768Y-73553954D01*
X155452315Y-73736450D01*
X155452317Y-73736452D01*
X155583589Y-73896410D01*
X155665547Y-73963670D01*
X155743550Y-74027685D01*
X155926046Y-74125232D01*
X156124066Y-74185300D01*
X156124065Y-74185300D01*
X156142529Y-74187118D01*
X156330000Y-74205583D01*
X156535934Y-74185300D01*
X156733954Y-74125232D01*
X156916450Y-74027685D01*
X157076410Y-73896410D01*
X157207685Y-73736450D01*
X157305232Y-73553954D01*
X157365300Y-73355934D01*
X157385583Y-73150000D01*
X157814417Y-73150000D01*
X157834699Y-73355932D01*
X157834700Y-73355934D01*
X157894768Y-73553954D01*
X157992315Y-73736450D01*
X157992317Y-73736452D01*
X158123589Y-73896410D01*
X158205547Y-73963670D01*
X158283550Y-74027685D01*
X158466046Y-74125232D01*
X158664066Y-74185300D01*
X158664065Y-74185300D01*
X158682529Y-74187118D01*
X158870000Y-74205583D01*
X159075934Y-74185300D01*
X159273954Y-74125232D01*
X159456450Y-74027685D01*
X159616410Y-73896410D01*
X159747685Y-73736450D01*
X159845232Y-73553954D01*
X159905300Y-73355934D01*
X159925583Y-73150000D01*
X160354417Y-73150000D01*
X160374699Y-73355932D01*
X160374700Y-73355934D01*
X160434768Y-73553954D01*
X160532315Y-73736450D01*
X160532317Y-73736452D01*
X160663589Y-73896410D01*
X160745547Y-73963670D01*
X160823550Y-74027685D01*
X161006046Y-74125232D01*
X161204066Y-74185300D01*
X161204065Y-74185300D01*
X161222529Y-74187118D01*
X161410000Y-74205583D01*
X161615934Y-74185300D01*
X161813954Y-74125232D01*
X161996450Y-74027685D01*
X162156410Y-73896410D01*
X162287685Y-73736450D01*
X162385232Y-73553954D01*
X162445300Y-73355934D01*
X162465583Y-73150000D01*
X162894417Y-73150000D01*
X162914699Y-73355932D01*
X162914700Y-73355934D01*
X162974768Y-73553954D01*
X163072315Y-73736450D01*
X163072317Y-73736452D01*
X163203589Y-73896410D01*
X163285547Y-73963670D01*
X163363550Y-74027685D01*
X163546046Y-74125232D01*
X163744066Y-74185300D01*
X163744065Y-74185300D01*
X163762529Y-74187118D01*
X163950000Y-74205583D01*
X164155934Y-74185300D01*
X164353954Y-74125232D01*
X164536450Y-74027685D01*
X164696410Y-73896410D01*
X164827685Y-73736450D01*
X164925232Y-73553954D01*
X164985300Y-73355934D01*
X165005583Y-73150000D01*
X165434417Y-73150000D01*
X165454699Y-73355932D01*
X165454700Y-73355934D01*
X165514768Y-73553954D01*
X165612315Y-73736450D01*
X165612317Y-73736452D01*
X165743589Y-73896410D01*
X165825547Y-73963670D01*
X165903550Y-74027685D01*
X166086046Y-74125232D01*
X166284066Y-74185300D01*
X166284065Y-74185300D01*
X166302529Y-74187118D01*
X166490000Y-74205583D01*
X166695934Y-74185300D01*
X166893954Y-74125232D01*
X167076450Y-74027685D01*
X167236410Y-73896410D01*
X167367685Y-73736450D01*
X167465232Y-73553954D01*
X167525300Y-73355934D01*
X167545583Y-73150000D01*
X167525300Y-72944066D01*
X167465232Y-72746046D01*
X167367685Y-72563550D01*
X167304311Y-72486328D01*
X167236410Y-72403589D01*
X167086121Y-72280252D01*
X167086115Y-72280247D01*
X167979500Y-72280247D01*
X167979500Y-74019752D01*
X167991131Y-74078229D01*
X167991132Y-74078230D01*
X168035447Y-74144552D01*
X168101769Y-74188867D01*
X168101770Y-74188868D01*
X168160247Y-74200499D01*
X168160250Y-74200500D01*
X168160252Y-74200500D01*
X169899750Y-74200500D01*
X169899751Y-74200499D01*
X169914568Y-74197552D01*
X169958229Y-74188868D01*
X169958229Y-74188867D01*
X169958231Y-74188867D01*
X170024552Y-74144552D01*
X170068867Y-74078231D01*
X170068867Y-74078229D01*
X170068868Y-74078229D01*
X170080499Y-74019752D01*
X170080500Y-74019750D01*
X170080500Y-72549999D01*
X172194750Y-72549999D01*
X172194750Y-72550000D01*
X172213670Y-72693708D01*
X172213671Y-72693712D01*
X172269137Y-72827622D01*
X172269138Y-72827624D01*
X172269139Y-72827625D01*
X172357379Y-72942621D01*
X172472375Y-73030861D01*
X172606291Y-73086330D01*
X172733280Y-73103048D01*
X172749999Y-73105250D01*
X172750000Y-73105250D01*
X172750001Y-73105250D01*
X172764977Y-73103278D01*
X172893709Y-73086330D01*
X173027625Y-73030861D01*
X173142621Y-72942621D01*
X173230861Y-72827625D01*
X173286330Y-72693709D01*
X173305250Y-72550000D01*
X173286330Y-72406291D01*
X173234124Y-72280252D01*
X173230862Y-72272377D01*
X173230861Y-72272376D01*
X173230861Y-72272375D01*
X173142621Y-72157379D01*
X173027625Y-72069139D01*
X173027624Y-72069138D01*
X173027622Y-72069137D01*
X172893712Y-72013671D01*
X172893710Y-72013670D01*
X172893709Y-72013670D01*
X172821854Y-72004210D01*
X172750001Y-71994750D01*
X172749999Y-71994750D01*
X172606291Y-72013670D01*
X172606287Y-72013671D01*
X172472377Y-72069137D01*
X172357379Y-72157379D01*
X172269137Y-72272377D01*
X172213671Y-72406287D01*
X172213670Y-72406291D01*
X172194750Y-72549999D01*
X170080500Y-72549999D01*
X170080500Y-72280249D01*
X170080499Y-72280247D01*
X170068868Y-72221770D01*
X170068867Y-72221769D01*
X170024552Y-72155447D01*
X169958230Y-72111132D01*
X169958229Y-72111131D01*
X169899752Y-72099500D01*
X169899748Y-72099500D01*
X168160252Y-72099500D01*
X168160247Y-72099500D01*
X168101770Y-72111131D01*
X168101769Y-72111132D01*
X168035447Y-72155447D01*
X167991132Y-72221769D01*
X167991131Y-72221770D01*
X167979500Y-72280247D01*
X167086115Y-72280247D01*
X167076450Y-72272315D01*
X166893954Y-72174768D01*
X166695934Y-72114700D01*
X166695932Y-72114699D01*
X166695934Y-72114699D01*
X166490000Y-72094417D01*
X166284067Y-72114699D01*
X166086043Y-72174769D01*
X165998114Y-72221769D01*
X165903550Y-72272315D01*
X165903548Y-72272316D01*
X165903547Y-72272317D01*
X165743589Y-72403589D01*
X165612317Y-72563547D01*
X165514769Y-72746043D01*
X165454699Y-72944067D01*
X165434417Y-73150000D01*
X165005583Y-73150000D01*
X164985300Y-72944066D01*
X164925232Y-72746046D01*
X164827685Y-72563550D01*
X164764311Y-72486328D01*
X164696410Y-72403589D01*
X164546121Y-72280252D01*
X164536450Y-72272315D01*
X164353954Y-72174768D01*
X164155934Y-72114700D01*
X164155932Y-72114699D01*
X164155934Y-72114699D01*
X163950000Y-72094417D01*
X163744067Y-72114699D01*
X163546043Y-72174769D01*
X163458114Y-72221769D01*
X163363550Y-72272315D01*
X163363548Y-72272316D01*
X163363547Y-72272317D01*
X163203589Y-72403589D01*
X163072317Y-72563547D01*
X162974769Y-72746043D01*
X162914699Y-72944067D01*
X162894417Y-73150000D01*
X162465583Y-73150000D01*
X162445300Y-72944066D01*
X162385232Y-72746046D01*
X162287685Y-72563550D01*
X162224311Y-72486328D01*
X162156410Y-72403589D01*
X162006121Y-72280252D01*
X161996450Y-72272315D01*
X161813954Y-72174768D01*
X161615934Y-72114700D01*
X161615932Y-72114699D01*
X161615934Y-72114699D01*
X161410000Y-72094417D01*
X161204067Y-72114699D01*
X161006043Y-72174769D01*
X160918114Y-72221769D01*
X160823550Y-72272315D01*
X160823548Y-72272316D01*
X160823547Y-72272317D01*
X160663589Y-72403589D01*
X160532317Y-72563547D01*
X160434769Y-72746043D01*
X160374699Y-72944067D01*
X160354417Y-73150000D01*
X159925583Y-73150000D01*
X159905300Y-72944066D01*
X159845232Y-72746046D01*
X159747685Y-72563550D01*
X159684311Y-72486328D01*
X159616410Y-72403589D01*
X159466121Y-72280252D01*
X159456450Y-72272315D01*
X159273954Y-72174768D01*
X159075934Y-72114700D01*
X159075932Y-72114699D01*
X159075934Y-72114699D01*
X158870000Y-72094417D01*
X158664067Y-72114699D01*
X158466043Y-72174769D01*
X158378114Y-72221769D01*
X158283550Y-72272315D01*
X158283548Y-72272316D01*
X158283547Y-72272317D01*
X158123589Y-72403589D01*
X157992317Y-72563547D01*
X157894769Y-72746043D01*
X157834699Y-72944067D01*
X157814417Y-73150000D01*
X157385583Y-73150000D01*
X157365300Y-72944066D01*
X157305232Y-72746046D01*
X157207685Y-72563550D01*
X157144311Y-72486328D01*
X157076410Y-72403589D01*
X156926121Y-72280252D01*
X156916450Y-72272315D01*
X156733954Y-72174768D01*
X156535934Y-72114700D01*
X156535932Y-72114699D01*
X156535934Y-72114699D01*
X156330000Y-72094417D01*
X156124067Y-72114699D01*
X155926043Y-72174769D01*
X155838114Y-72221769D01*
X155743550Y-72272315D01*
X155743548Y-72272316D01*
X155743547Y-72272317D01*
X155583589Y-72403589D01*
X155452317Y-72563547D01*
X155354769Y-72746043D01*
X155294699Y-72944067D01*
X155274417Y-73150000D01*
X154845583Y-73150000D01*
X154825300Y-72944066D01*
X154765232Y-72746046D01*
X154667685Y-72563550D01*
X154604311Y-72486328D01*
X154536410Y-72403589D01*
X154386121Y-72280252D01*
X154376450Y-72272315D01*
X154193954Y-72174768D01*
X153995934Y-72114700D01*
X153995932Y-72114699D01*
X153995934Y-72114699D01*
X153790000Y-72094417D01*
X153584067Y-72114699D01*
X153386043Y-72174769D01*
X153298114Y-72221769D01*
X153203550Y-72272315D01*
X153203548Y-72272316D01*
X153203547Y-72272317D01*
X153043589Y-72403589D01*
X152912317Y-72563547D01*
X152814769Y-72746043D01*
X152754699Y-72944067D01*
X152734417Y-73150000D01*
X112881400Y-73150000D01*
X112881400Y-71950000D01*
X185444750Y-71950000D01*
X185453132Y-72013670D01*
X185463670Y-72093708D01*
X185463671Y-72093712D01*
X185519137Y-72227622D01*
X185519138Y-72227624D01*
X185519139Y-72227625D01*
X185607379Y-72342621D01*
X185722375Y-72430861D01*
X185856291Y-72486330D01*
X185983280Y-72503048D01*
X185999999Y-72505250D01*
X186000000Y-72505250D01*
X186000001Y-72505250D01*
X186014977Y-72503278D01*
X186143709Y-72486330D01*
X186277625Y-72430861D01*
X186392621Y-72342621D01*
X186480861Y-72227625D01*
X186536330Y-72093709D01*
X186555250Y-71950000D01*
X186536330Y-71806291D01*
X186480861Y-71672375D01*
X186392621Y-71557379D01*
X186277625Y-71469139D01*
X186277624Y-71469138D01*
X186277622Y-71469137D01*
X186143712Y-71413671D01*
X186143710Y-71413670D01*
X186143709Y-71413670D01*
X186071854Y-71404210D01*
X186000001Y-71394750D01*
X185999999Y-71394750D01*
X185856291Y-71413670D01*
X185856287Y-71413671D01*
X185722377Y-71469137D01*
X185607379Y-71557379D01*
X185519137Y-71672377D01*
X185463671Y-71806287D01*
X185463670Y-71806291D01*
X185444750Y-71950000D01*
X112881400Y-71950000D01*
X112881400Y-69849999D01*
X136869750Y-69849999D01*
X136869750Y-69850000D01*
X136888670Y-69993708D01*
X136888671Y-69993712D01*
X136944137Y-70127622D01*
X136944138Y-70127624D01*
X136944139Y-70127625D01*
X137032379Y-70242621D01*
X137147375Y-70330861D01*
X137281291Y-70386330D01*
X137408280Y-70403048D01*
X137424999Y-70405250D01*
X137425000Y-70405250D01*
X137425001Y-70405250D01*
X137439977Y-70403278D01*
X137568709Y-70386330D01*
X137702625Y-70330861D01*
X137742845Y-70299999D01*
X155844750Y-70299999D01*
X155844750Y-70300000D01*
X155863670Y-70443708D01*
X155863671Y-70443712D01*
X155919137Y-70577622D01*
X155919138Y-70577624D01*
X155919139Y-70577625D01*
X156007379Y-70692621D01*
X156122375Y-70780861D01*
X156256291Y-70836330D01*
X156383280Y-70853048D01*
X156399999Y-70855250D01*
X156400000Y-70855250D01*
X156400001Y-70855250D01*
X156414977Y-70853278D01*
X156543709Y-70836330D01*
X156677625Y-70780861D01*
X156792621Y-70692621D01*
X156880861Y-70577625D01*
X156936330Y-70443709D01*
X156955250Y-70300000D01*
X156936330Y-70156291D01*
X156926649Y-70132919D01*
X170261831Y-70132919D01*
X170279729Y-70268869D01*
X170280751Y-70276627D01*
X170280752Y-70276631D01*
X170336218Y-70410541D01*
X170336219Y-70410543D01*
X170336220Y-70410544D01*
X170424460Y-70525540D01*
X170539456Y-70613780D01*
X170673372Y-70669249D01*
X170800361Y-70685967D01*
X170817080Y-70688169D01*
X170817081Y-70688169D01*
X170817082Y-70688169D01*
X170832058Y-70686197D01*
X170960790Y-70669249D01*
X171094706Y-70613780D01*
X171209702Y-70525540D01*
X171297942Y-70410544D01*
X171353411Y-70276628D01*
X171372331Y-70132919D01*
X171367997Y-70100000D01*
X179144355Y-70100000D01*
X179164859Y-70268869D01*
X179164860Y-70268874D01*
X179225182Y-70427931D01*
X179287475Y-70518177D01*
X179321817Y-70567929D01*
X179427505Y-70661560D01*
X179449150Y-70680736D01*
X179599773Y-70759789D01*
X179599775Y-70759790D01*
X179764944Y-70800500D01*
X179935056Y-70800500D01*
X180100225Y-70759790D01*
X180214144Y-70700000D01*
X184819750Y-70700000D01*
X184837698Y-70836329D01*
X184838670Y-70843708D01*
X184838671Y-70843712D01*
X184894137Y-70977622D01*
X184894138Y-70977624D01*
X184894139Y-70977625D01*
X184982379Y-71092621D01*
X185097375Y-71180861D01*
X185231291Y-71236330D01*
X185358280Y-71253048D01*
X185374999Y-71255250D01*
X185375000Y-71255250D01*
X185375001Y-71255250D01*
X185389977Y-71253278D01*
X185518709Y-71236330D01*
X185652625Y-71180861D01*
X185767621Y-71092621D01*
X185855861Y-70977625D01*
X185911330Y-70843709D01*
X185930250Y-70700000D01*
X185911330Y-70556291D01*
X185855861Y-70422375D01*
X185767621Y-70307379D01*
X185652625Y-70219139D01*
X185652624Y-70219138D01*
X185652622Y-70219137D01*
X185518712Y-70163671D01*
X185518710Y-70163670D01*
X185518709Y-70163670D01*
X185446854Y-70154210D01*
X185375001Y-70144750D01*
X185374999Y-70144750D01*
X185231291Y-70163670D01*
X185231287Y-70163671D01*
X185097377Y-70219137D01*
X184982379Y-70307379D01*
X184894137Y-70422377D01*
X184838671Y-70556287D01*
X184838670Y-70556291D01*
X184820722Y-70692620D01*
X184819750Y-70700000D01*
X180214144Y-70700000D01*
X180214146Y-70699999D01*
X180250849Y-70680736D01*
X180250850Y-70680734D01*
X180250852Y-70680734D01*
X180378183Y-70567929D01*
X180474818Y-70427930D01*
X180535140Y-70268872D01*
X180555645Y-70100000D01*
X180535140Y-69931128D01*
X180474818Y-69772070D01*
X180378183Y-69632071D01*
X180283316Y-69548026D01*
X180250849Y-69519263D01*
X180100226Y-69440210D01*
X179935056Y-69399500D01*
X179764944Y-69399500D01*
X179599773Y-69440210D01*
X179449150Y-69519263D01*
X179321816Y-69632072D01*
X179225182Y-69772068D01*
X179164860Y-69931125D01*
X179164859Y-69931130D01*
X179144355Y-70100000D01*
X171367997Y-70100000D01*
X171353411Y-69989210D01*
X171297942Y-69855294D01*
X171209702Y-69740298D01*
X171094706Y-69652058D01*
X171094705Y-69652057D01*
X171094703Y-69652056D01*
X170960793Y-69596590D01*
X170960791Y-69596589D01*
X170960790Y-69596589D01*
X170888935Y-69587129D01*
X170817082Y-69577669D01*
X170817080Y-69577669D01*
X170673372Y-69596589D01*
X170673368Y-69596590D01*
X170539458Y-69652056D01*
X170424460Y-69740298D01*
X170336218Y-69855296D01*
X170280752Y-69989206D01*
X170280751Y-69989210D01*
X170261831Y-70132919D01*
X156926649Y-70132919D01*
X156880861Y-70022375D01*
X156792621Y-69907379D01*
X156677625Y-69819139D01*
X156677624Y-69819138D01*
X156677622Y-69819137D01*
X156543712Y-69763671D01*
X156543710Y-69763670D01*
X156543709Y-69763670D01*
X156471854Y-69754210D01*
X156400001Y-69744750D01*
X156399999Y-69744750D01*
X156256291Y-69763670D01*
X156256287Y-69763671D01*
X156122377Y-69819137D01*
X156007379Y-69907379D01*
X155919137Y-70022377D01*
X155863671Y-70156287D01*
X155863670Y-70156291D01*
X155844750Y-70299999D01*
X137742845Y-70299999D01*
X137817621Y-70242621D01*
X137905861Y-70127625D01*
X137961330Y-69993709D01*
X137980250Y-69850000D01*
X137961330Y-69706291D01*
X137948369Y-69675000D01*
X151019750Y-69675000D01*
X151032529Y-69772068D01*
X151038670Y-69818708D01*
X151038671Y-69818712D01*
X151094137Y-69952622D01*
X151094138Y-69952624D01*
X151094139Y-69952625D01*
X151182379Y-70067621D01*
X151297375Y-70155861D01*
X151431291Y-70211330D01*
X151558280Y-70228048D01*
X151574999Y-70230250D01*
X151575000Y-70230250D01*
X151575001Y-70230250D01*
X151589977Y-70228278D01*
X151718709Y-70211330D01*
X151852625Y-70155861D01*
X151967621Y-70067621D01*
X152055861Y-69952625D01*
X152111330Y-69818709D01*
X152130250Y-69675000D01*
X152111330Y-69531291D01*
X152055861Y-69397375D01*
X151967621Y-69282379D01*
X151852625Y-69194139D01*
X151852624Y-69194138D01*
X151852622Y-69194137D01*
X151718712Y-69138671D01*
X151718710Y-69138670D01*
X151718709Y-69138670D01*
X151646854Y-69129210D01*
X151575001Y-69119750D01*
X151574999Y-69119750D01*
X151431291Y-69138670D01*
X151431287Y-69138671D01*
X151297377Y-69194137D01*
X151182379Y-69282379D01*
X151094137Y-69397377D01*
X151038671Y-69531287D01*
X151038670Y-69531291D01*
X151019750Y-69675000D01*
X137948369Y-69675000D01*
X137905861Y-69572375D01*
X137817621Y-69457379D01*
X137702625Y-69369139D01*
X137702624Y-69369138D01*
X137702622Y-69369137D01*
X137568712Y-69313671D01*
X137568710Y-69313670D01*
X137568709Y-69313670D01*
X137496854Y-69304210D01*
X137425001Y-69294750D01*
X137424999Y-69294750D01*
X137281291Y-69313670D01*
X137281287Y-69313671D01*
X137147377Y-69369137D01*
X137032379Y-69457379D01*
X136944137Y-69572377D01*
X136888671Y-69706287D01*
X136888670Y-69706291D01*
X136869750Y-69849999D01*
X112881400Y-69849999D01*
X112881400Y-67800000D01*
X150094750Y-67800000D01*
X150108696Y-67905932D01*
X150113670Y-67943708D01*
X150113671Y-67943712D01*
X150169137Y-68077622D01*
X150169138Y-68077624D01*
X150169139Y-68077625D01*
X150257379Y-68192621D01*
X150372375Y-68280861D01*
X150506291Y-68336330D01*
X150633280Y-68353048D01*
X150649999Y-68355250D01*
X150650000Y-68355250D01*
X150650001Y-68355250D01*
X150664977Y-68353278D01*
X150793709Y-68336330D01*
X150927625Y-68280861D01*
X151042621Y-68192621D01*
X151130861Y-68077625D01*
X151186330Y-67943709D01*
X151205250Y-67800000D01*
X151186330Y-67656291D01*
X151130861Y-67522375D01*
X151042621Y-67407379D01*
X150927625Y-67319139D01*
X150927624Y-67319138D01*
X150927622Y-67319137D01*
X150793712Y-67263671D01*
X150793710Y-67263670D01*
X150793709Y-67263670D01*
X150721854Y-67254210D01*
X150650001Y-67244750D01*
X150649999Y-67244750D01*
X150506291Y-67263670D01*
X150506287Y-67263671D01*
X150372377Y-67319137D01*
X150257379Y-67407379D01*
X150169137Y-67522377D01*
X150113671Y-67656287D01*
X150113670Y-67656291D01*
X150094750Y-67800000D01*
X112881400Y-67800000D01*
X112881400Y-66087206D01*
X112881518Y-66081797D01*
X112887189Y-65951902D01*
X116219500Y-65951902D01*
X116219500Y-66188097D01*
X116256446Y-66421368D01*
X116329433Y-66645996D01*
X116423317Y-66830252D01*
X116436657Y-66856433D01*
X116575483Y-67047510D01*
X116742490Y-67214517D01*
X116933567Y-67353343D01*
X117032991Y-67404002D01*
X117144003Y-67460566D01*
X117144005Y-67460566D01*
X117144008Y-67460568D01*
X117247104Y-67494066D01*
X117368631Y-67533553D01*
X117601903Y-67570500D01*
X117601908Y-67570500D01*
X117838097Y-67570500D01*
X118071368Y-67533553D01*
X118105770Y-67522375D01*
X118295992Y-67460568D01*
X118506433Y-67353343D01*
X118697510Y-67214517D01*
X118864517Y-67047510D01*
X119003343Y-66856433D01*
X119016685Y-66830247D01*
X152739500Y-66830247D01*
X152739500Y-68569752D01*
X152751131Y-68628229D01*
X152751132Y-68628230D01*
X152795447Y-68694552D01*
X152861769Y-68738867D01*
X152861770Y-68738868D01*
X152920247Y-68750499D01*
X152920250Y-68750500D01*
X152920252Y-68750500D01*
X154659750Y-68750500D01*
X154659751Y-68750499D01*
X154674568Y-68747552D01*
X154718229Y-68738868D01*
X154718229Y-68738867D01*
X154718231Y-68738867D01*
X154784552Y-68694552D01*
X154828867Y-68628231D01*
X154828867Y-68628229D01*
X154828868Y-68628229D01*
X154840499Y-68569752D01*
X154840500Y-68569750D01*
X154840500Y-67700000D01*
X155274417Y-67700000D01*
X155294699Y-67905932D01*
X155320996Y-67992620D01*
X155354768Y-68103954D01*
X155452315Y-68286450D01*
X155452317Y-68286452D01*
X155583589Y-68446410D01*
X155680209Y-68525702D01*
X155743550Y-68577685D01*
X155926046Y-68675232D01*
X156124066Y-68735300D01*
X156124065Y-68735300D01*
X156142529Y-68737118D01*
X156330000Y-68755583D01*
X156535934Y-68735300D01*
X156733954Y-68675232D01*
X156916450Y-68577685D01*
X157076410Y-68446410D01*
X157207685Y-68286450D01*
X157305232Y-68103954D01*
X157365300Y-67905934D01*
X157385583Y-67700000D01*
X157814417Y-67700000D01*
X157834699Y-67905932D01*
X157860996Y-67992620D01*
X157894768Y-68103954D01*
X157992315Y-68286450D01*
X157992317Y-68286452D01*
X158123589Y-68446410D01*
X158220209Y-68525702D01*
X158283550Y-68577685D01*
X158466046Y-68675232D01*
X158664066Y-68735300D01*
X158664065Y-68735300D01*
X158682529Y-68737118D01*
X158870000Y-68755583D01*
X159075934Y-68735300D01*
X159273954Y-68675232D01*
X159456450Y-68577685D01*
X159616410Y-68446410D01*
X159747685Y-68286450D01*
X159845232Y-68103954D01*
X159905300Y-67905934D01*
X159925583Y-67700000D01*
X160354417Y-67700000D01*
X160374699Y-67905932D01*
X160400996Y-67992620D01*
X160434768Y-68103954D01*
X160532315Y-68286450D01*
X160532317Y-68286452D01*
X160663589Y-68446410D01*
X160760209Y-68525702D01*
X160823550Y-68577685D01*
X161006046Y-68675232D01*
X161204066Y-68735300D01*
X161204065Y-68735300D01*
X161222529Y-68737118D01*
X161410000Y-68755583D01*
X161615934Y-68735300D01*
X161813954Y-68675232D01*
X161996450Y-68577685D01*
X162156410Y-68446410D01*
X162287685Y-68286450D01*
X162385232Y-68103954D01*
X162445300Y-67905934D01*
X162465583Y-67700000D01*
X162894417Y-67700000D01*
X162914699Y-67905932D01*
X162940996Y-67992620D01*
X162974768Y-68103954D01*
X163072315Y-68286450D01*
X163072317Y-68286452D01*
X163203589Y-68446410D01*
X163300209Y-68525702D01*
X163363550Y-68577685D01*
X163546046Y-68675232D01*
X163744066Y-68735300D01*
X163744065Y-68735300D01*
X163762529Y-68737118D01*
X163950000Y-68755583D01*
X164155934Y-68735300D01*
X164353954Y-68675232D01*
X164536450Y-68577685D01*
X164696410Y-68446410D01*
X164827685Y-68286450D01*
X164925232Y-68103954D01*
X164985300Y-67905934D01*
X165005583Y-67700000D01*
X165434417Y-67700000D01*
X165454699Y-67905932D01*
X165480996Y-67992620D01*
X165514768Y-68103954D01*
X165612315Y-68286450D01*
X165612317Y-68286452D01*
X165743589Y-68446410D01*
X165840209Y-68525702D01*
X165903550Y-68577685D01*
X166086046Y-68675232D01*
X166284066Y-68735300D01*
X166284065Y-68735300D01*
X166302529Y-68737118D01*
X166490000Y-68755583D01*
X166695934Y-68735300D01*
X166893954Y-68675232D01*
X167076450Y-68577685D01*
X167236410Y-68446410D01*
X167367685Y-68286450D01*
X167465232Y-68103954D01*
X167525300Y-67905934D01*
X167545583Y-67700000D01*
X167974417Y-67700000D01*
X167994699Y-67905932D01*
X168020996Y-67992620D01*
X168054768Y-68103954D01*
X168152315Y-68286450D01*
X168152317Y-68286452D01*
X168283589Y-68446410D01*
X168380209Y-68525702D01*
X168443550Y-68577685D01*
X168626046Y-68675232D01*
X168824066Y-68735300D01*
X168824065Y-68735300D01*
X168842529Y-68737118D01*
X169030000Y-68755583D01*
X169235934Y-68735300D01*
X169433954Y-68675232D01*
X169616450Y-68577685D01*
X169776410Y-68446410D01*
X169907685Y-68286450D01*
X170005232Y-68103954D01*
X170065300Y-67905934D01*
X170085583Y-67700000D01*
X170075734Y-67600000D01*
X170969750Y-67600000D01*
X170982915Y-67700000D01*
X170988670Y-67743708D01*
X170988671Y-67743712D01*
X171044137Y-67877622D01*
X171044138Y-67877624D01*
X171044139Y-67877625D01*
X171132379Y-67992621D01*
X171247375Y-68080861D01*
X171381291Y-68136330D01*
X171508280Y-68153048D01*
X171524999Y-68155250D01*
X171525000Y-68155250D01*
X171525001Y-68155250D01*
X171539977Y-68153278D01*
X171668709Y-68136330D01*
X171802625Y-68080861D01*
X171917621Y-67992621D01*
X172005861Y-67877625D01*
X172061330Y-67743709D01*
X172080250Y-67600000D01*
X172061330Y-67456291D01*
X172005861Y-67322375D01*
X171917621Y-67207379D01*
X171802625Y-67119139D01*
X171802624Y-67119138D01*
X171802622Y-67119137D01*
X171668712Y-67063671D01*
X171668710Y-67063670D01*
X171668709Y-67063670D01*
X171596854Y-67054210D01*
X171525001Y-67044750D01*
X171524999Y-67044750D01*
X171381291Y-67063670D01*
X171381287Y-67063671D01*
X171247377Y-67119137D01*
X171132379Y-67207379D01*
X171044137Y-67322377D01*
X170988671Y-67456287D01*
X170988670Y-67456291D01*
X170969750Y-67600000D01*
X170075734Y-67600000D01*
X170065300Y-67494066D01*
X170005232Y-67296046D01*
X169907685Y-67113550D01*
X169851223Y-67044750D01*
X169776410Y-66953589D01*
X169626121Y-66830252D01*
X169616450Y-66822315D01*
X169433954Y-66724768D01*
X169269889Y-66675000D01*
X185625553Y-66675000D01*
X185646034Y-66817456D01*
X185651878Y-66830252D01*
X185705823Y-66948373D01*
X185800072Y-67057143D01*
X185921147Y-67134953D01*
X185921150Y-67134954D01*
X185921149Y-67134954D01*
X186059236Y-67175499D01*
X186059238Y-67175500D01*
X186059239Y-67175500D01*
X186203162Y-67175500D01*
X186203162Y-67175499D01*
X186341253Y-67134953D01*
X186462328Y-67057143D01*
X186556577Y-66948373D01*
X186616365Y-66817457D01*
X186636847Y-66675000D01*
X186616365Y-66532543D01*
X186556577Y-66401627D01*
X186462328Y-66292857D01*
X186341253Y-66215047D01*
X186341251Y-66215046D01*
X186341249Y-66215045D01*
X186341250Y-66215045D01*
X186203163Y-66174500D01*
X186203161Y-66174500D01*
X186059239Y-66174500D01*
X186059236Y-66174500D01*
X185921149Y-66215045D01*
X185800073Y-66292856D01*
X185705823Y-66401626D01*
X185705822Y-66401628D01*
X185646034Y-66532543D01*
X185625553Y-66675000D01*
X169269889Y-66675000D01*
X169235934Y-66664700D01*
X169235932Y-66664699D01*
X169235934Y-66664699D01*
X169030000Y-66644417D01*
X168824067Y-66664699D01*
X168626043Y-66724769D01*
X168538114Y-66771769D01*
X168443550Y-66822315D01*
X168443548Y-66822316D01*
X168443547Y-66822317D01*
X168283589Y-66953589D01*
X168193249Y-67063671D01*
X168152315Y-67113550D01*
X168119202Y-67175499D01*
X168054769Y-67296043D01*
X167994699Y-67494067D01*
X167974417Y-67700000D01*
X167545583Y-67700000D01*
X167525300Y-67494066D01*
X167465232Y-67296046D01*
X167367685Y-67113550D01*
X167311223Y-67044750D01*
X167236410Y-66953589D01*
X167086121Y-66830252D01*
X167076450Y-66822315D01*
X166893954Y-66724768D01*
X166695934Y-66664700D01*
X166695932Y-66664699D01*
X166695934Y-66664699D01*
X166490000Y-66644417D01*
X166284067Y-66664699D01*
X166086043Y-66724769D01*
X165998114Y-66771769D01*
X165903550Y-66822315D01*
X165903548Y-66822316D01*
X165903547Y-66822317D01*
X165743589Y-66953589D01*
X165653249Y-67063671D01*
X165612315Y-67113550D01*
X165579202Y-67175499D01*
X165514769Y-67296043D01*
X165454699Y-67494067D01*
X165434417Y-67700000D01*
X165005583Y-67700000D01*
X164985300Y-67494066D01*
X164925232Y-67296046D01*
X164827685Y-67113550D01*
X164771223Y-67044750D01*
X164696410Y-66953589D01*
X164546121Y-66830252D01*
X164536450Y-66822315D01*
X164353954Y-66724768D01*
X164155934Y-66664700D01*
X164155932Y-66664699D01*
X164155934Y-66664699D01*
X163950000Y-66644417D01*
X163744067Y-66664699D01*
X163546043Y-66724769D01*
X163458114Y-66771769D01*
X163363550Y-66822315D01*
X163363548Y-66822316D01*
X163363547Y-66822317D01*
X163203589Y-66953589D01*
X163113249Y-67063671D01*
X163072315Y-67113550D01*
X163039202Y-67175499D01*
X162974769Y-67296043D01*
X162914699Y-67494067D01*
X162894417Y-67700000D01*
X162465583Y-67700000D01*
X162445300Y-67494066D01*
X162385232Y-67296046D01*
X162287685Y-67113550D01*
X162231223Y-67044750D01*
X162156410Y-66953589D01*
X162006121Y-66830252D01*
X161996450Y-66822315D01*
X161813954Y-66724768D01*
X161615934Y-66664700D01*
X161615932Y-66664699D01*
X161615934Y-66664699D01*
X161410000Y-66644417D01*
X161204067Y-66664699D01*
X161006043Y-66724769D01*
X160918114Y-66771769D01*
X160823550Y-66822315D01*
X160823548Y-66822316D01*
X160823547Y-66822317D01*
X160663589Y-66953589D01*
X160573249Y-67063671D01*
X160532315Y-67113550D01*
X160499202Y-67175499D01*
X160434769Y-67296043D01*
X160374699Y-67494067D01*
X160354417Y-67700000D01*
X159925583Y-67700000D01*
X159905300Y-67494066D01*
X159845232Y-67296046D01*
X159747685Y-67113550D01*
X159691223Y-67044750D01*
X159616410Y-66953589D01*
X159466121Y-66830252D01*
X159456450Y-66822315D01*
X159273954Y-66724768D01*
X159075934Y-66664700D01*
X159075932Y-66664699D01*
X159075934Y-66664699D01*
X158870000Y-66644417D01*
X158664067Y-66664699D01*
X158466043Y-66724769D01*
X158378114Y-66771769D01*
X158283550Y-66822315D01*
X158283548Y-66822316D01*
X158283547Y-66822317D01*
X158123589Y-66953589D01*
X158033249Y-67063671D01*
X157992315Y-67113550D01*
X157959202Y-67175499D01*
X157894769Y-67296043D01*
X157834699Y-67494067D01*
X157814417Y-67700000D01*
X157385583Y-67700000D01*
X157365300Y-67494066D01*
X157305232Y-67296046D01*
X157207685Y-67113550D01*
X157151223Y-67044750D01*
X157076410Y-66953589D01*
X156926121Y-66830252D01*
X156916450Y-66822315D01*
X156733954Y-66724768D01*
X156535934Y-66664700D01*
X156535932Y-66664699D01*
X156535934Y-66664699D01*
X156330000Y-66644417D01*
X156124067Y-66664699D01*
X155926043Y-66724769D01*
X155838114Y-66771769D01*
X155743550Y-66822315D01*
X155743548Y-66822316D01*
X155743547Y-66822317D01*
X155583589Y-66953589D01*
X155493249Y-67063671D01*
X155452315Y-67113550D01*
X155419202Y-67175499D01*
X155354769Y-67296043D01*
X155294699Y-67494067D01*
X155274417Y-67700000D01*
X154840500Y-67700000D01*
X154840500Y-66830249D01*
X154840499Y-66830247D01*
X154828868Y-66771770D01*
X154828867Y-66771769D01*
X154784552Y-66705447D01*
X154718230Y-66661132D01*
X154718229Y-66661131D01*
X154659752Y-66649500D01*
X154659748Y-66649500D01*
X152920252Y-66649500D01*
X152920247Y-66649500D01*
X152861770Y-66661131D01*
X152861769Y-66661132D01*
X152795447Y-66705447D01*
X152751132Y-66771769D01*
X152751131Y-66771770D01*
X152739500Y-66830247D01*
X119016685Y-66830247D01*
X119110568Y-66645992D01*
X119183553Y-66421368D01*
X119186522Y-66402620D01*
X119220500Y-66188097D01*
X119220500Y-66010000D01*
X135544750Y-66010000D01*
X135560723Y-66131328D01*
X135563670Y-66153708D01*
X135563671Y-66153712D01*
X135619137Y-66287622D01*
X135619138Y-66287624D01*
X135619139Y-66287625D01*
X135707379Y-66402621D01*
X135822375Y-66490861D01*
X135956291Y-66546330D01*
X136083280Y-66563048D01*
X136099999Y-66565250D01*
X136100000Y-66565250D01*
X136100001Y-66565250D01*
X136114977Y-66563278D01*
X136243709Y-66546330D01*
X136377625Y-66490861D01*
X136492621Y-66402621D01*
X136580861Y-66287625D01*
X136636330Y-66153709D01*
X136655250Y-66010000D01*
X136636330Y-65866291D01*
X136580861Y-65732375D01*
X136492621Y-65617379D01*
X136463455Y-65594999D01*
X184744750Y-65594999D01*
X184744750Y-65595000D01*
X184763670Y-65738708D01*
X184763671Y-65738712D01*
X184819137Y-65872622D01*
X184819138Y-65872624D01*
X184819139Y-65872625D01*
X184907379Y-65987621D01*
X185022375Y-66075861D01*
X185022376Y-66075861D01*
X185022377Y-66075862D01*
X185067013Y-66094350D01*
X185156291Y-66131330D01*
X185283280Y-66148048D01*
X185299999Y-66150250D01*
X185300000Y-66150250D01*
X185300001Y-66150250D01*
X185314977Y-66148278D01*
X185443709Y-66131330D01*
X185577625Y-66075861D01*
X185692621Y-65987621D01*
X185720029Y-65951902D01*
X188219500Y-65951902D01*
X188219500Y-66188097D01*
X188256446Y-66421368D01*
X188329433Y-66645996D01*
X188423317Y-66830252D01*
X188436657Y-66856433D01*
X188575483Y-67047510D01*
X188742490Y-67214517D01*
X188933567Y-67353343D01*
X189032991Y-67404002D01*
X189144003Y-67460566D01*
X189144005Y-67460566D01*
X189144008Y-67460568D01*
X189247104Y-67494066D01*
X189368631Y-67533553D01*
X189601903Y-67570500D01*
X189601908Y-67570500D01*
X189838097Y-67570500D01*
X190071368Y-67533553D01*
X190105770Y-67522375D01*
X190295992Y-67460568D01*
X190506433Y-67353343D01*
X190697510Y-67214517D01*
X190864517Y-67047510D01*
X191003343Y-66856433D01*
X191110568Y-66645992D01*
X191183553Y-66421368D01*
X191186522Y-66402620D01*
X191220500Y-66188097D01*
X191220500Y-65951902D01*
X191183553Y-65718631D01*
X191110566Y-65494003D01*
X191020569Y-65317375D01*
X191003343Y-65283567D01*
X190864517Y-65092490D01*
X190697510Y-64925483D01*
X190506433Y-64786657D01*
X190498510Y-64782620D01*
X190295996Y-64679433D01*
X190071368Y-64606446D01*
X189838097Y-64569500D01*
X189838092Y-64569500D01*
X189601908Y-64569500D01*
X189601903Y-64569500D01*
X189368631Y-64606446D01*
X189144003Y-64679433D01*
X188933566Y-64786657D01*
X188824550Y-64865862D01*
X188742490Y-64925483D01*
X188742488Y-64925485D01*
X188742487Y-64925485D01*
X188575485Y-65092487D01*
X188575485Y-65092488D01*
X188575483Y-65092490D01*
X188559754Y-65114139D01*
X188436657Y-65283566D01*
X188329433Y-65494003D01*
X188256446Y-65718631D01*
X188219500Y-65951902D01*
X185720029Y-65951902D01*
X185780861Y-65872625D01*
X185836330Y-65738709D01*
X185855250Y-65595000D01*
X185836330Y-65451291D01*
X185780861Y-65317375D01*
X185692621Y-65202379D01*
X185577625Y-65114139D01*
X185577624Y-65114138D01*
X185577622Y-65114137D01*
X185443712Y-65058671D01*
X185443710Y-65058670D01*
X185443709Y-65058670D01*
X185371854Y-65049210D01*
X185300001Y-65039750D01*
X185299999Y-65039750D01*
X185156291Y-65058670D01*
X185156287Y-65058671D01*
X185022377Y-65114137D01*
X184907379Y-65202379D01*
X184819137Y-65317377D01*
X184763671Y-65451287D01*
X184763670Y-65451291D01*
X184744750Y-65594999D01*
X136463455Y-65594999D01*
X136377625Y-65529139D01*
X136377624Y-65529138D01*
X136377622Y-65529137D01*
X136243712Y-65473671D01*
X136243710Y-65473670D01*
X136243709Y-65473670D01*
X136171854Y-65464210D01*
X136100001Y-65454750D01*
X136099999Y-65454750D01*
X135956291Y-65473670D01*
X135956287Y-65473671D01*
X135822377Y-65529137D01*
X135707379Y-65617379D01*
X135619137Y-65732377D01*
X135563671Y-65866287D01*
X135563670Y-65866291D01*
X135544750Y-66010000D01*
X119220500Y-66010000D01*
X119220500Y-65951902D01*
X119183553Y-65718631D01*
X119110566Y-65494003D01*
X119020569Y-65317375D01*
X119003343Y-65283567D01*
X118864517Y-65092490D01*
X118697510Y-64925483D01*
X118506433Y-64786657D01*
X118498510Y-64782620D01*
X118414864Y-64740000D01*
X136194750Y-64740000D01*
X136211978Y-64870861D01*
X136213670Y-64883708D01*
X136213671Y-64883712D01*
X136269137Y-65017622D01*
X136269138Y-65017624D01*
X136269139Y-65017625D01*
X136357379Y-65132621D01*
X136472375Y-65220861D01*
X136606291Y-65276330D01*
X136733280Y-65293048D01*
X136749999Y-65295250D01*
X136750000Y-65295250D01*
X136750001Y-65295250D01*
X136764977Y-65293278D01*
X136893709Y-65276330D01*
X137027625Y-65220861D01*
X137142621Y-65132621D01*
X137230861Y-65017625D01*
X137286330Y-64883709D01*
X137305250Y-64740000D01*
X137286330Y-64596291D01*
X137230861Y-64462375D01*
X137142621Y-64347379D01*
X137027625Y-64259139D01*
X137027624Y-64259138D01*
X137027622Y-64259137D01*
X136893712Y-64203671D01*
X136893710Y-64203670D01*
X136893709Y-64203670D01*
X136808570Y-64192461D01*
X136750001Y-64184750D01*
X136749999Y-64184750D01*
X136606291Y-64203670D01*
X136606287Y-64203671D01*
X136472377Y-64259137D01*
X136357379Y-64347379D01*
X136269137Y-64462377D01*
X136213671Y-64596287D01*
X136213670Y-64596291D01*
X136204279Y-64667625D01*
X136194750Y-64740000D01*
X118414864Y-64740000D01*
X118295996Y-64679433D01*
X118071368Y-64606446D01*
X117838097Y-64569500D01*
X117838092Y-64569500D01*
X117601908Y-64569500D01*
X117601903Y-64569500D01*
X117368631Y-64606446D01*
X117144003Y-64679433D01*
X116933566Y-64786657D01*
X116824550Y-64865862D01*
X116742490Y-64925483D01*
X116742488Y-64925485D01*
X116742487Y-64925485D01*
X116575485Y-65092487D01*
X116575485Y-65092488D01*
X116575483Y-65092490D01*
X116559754Y-65114139D01*
X116436657Y-65283566D01*
X116329433Y-65494003D01*
X116256446Y-65718631D01*
X116219500Y-65951902D01*
X112887189Y-65951902D01*
X112899428Y-65671580D01*
X112900368Y-65660847D01*
X112953609Y-65256438D01*
X112955482Y-65245808D01*
X113043770Y-64847568D01*
X113046568Y-64837130D01*
X113077193Y-64740000D01*
X113169219Y-64448129D01*
X113172916Y-64437973D01*
X113329011Y-64061127D01*
X113333569Y-64051353D01*
X113521925Y-63689524D01*
X113527307Y-63680203D01*
X113661222Y-63469999D01*
X136864750Y-63469999D01*
X136864750Y-63470000D01*
X136883670Y-63613708D01*
X136883671Y-63613712D01*
X136939137Y-63747622D01*
X136939138Y-63747624D01*
X136939139Y-63747625D01*
X137027379Y-63862621D01*
X137142375Y-63950861D01*
X137276291Y-64006330D01*
X137403280Y-64023048D01*
X137419999Y-64025250D01*
X137420000Y-64025250D01*
X137420001Y-64025250D01*
X137434977Y-64023278D01*
X137563709Y-64006330D01*
X137697625Y-63950861D01*
X137812621Y-63862621D01*
X137900861Y-63747625D01*
X137956330Y-63613709D01*
X137975250Y-63470000D01*
X137956330Y-63326291D01*
X137900861Y-63192375D01*
X137812621Y-63077379D01*
X137697625Y-62989139D01*
X137697624Y-62989138D01*
X137697622Y-62989137D01*
X137563712Y-62933671D01*
X137563710Y-62933670D01*
X137563709Y-62933670D01*
X137491854Y-62924210D01*
X137420001Y-62914750D01*
X137419999Y-62914750D01*
X137276291Y-62933670D01*
X137276287Y-62933671D01*
X137142377Y-62989137D01*
X137027379Y-63077379D01*
X136939137Y-63192377D01*
X136883671Y-63326287D01*
X136883670Y-63326291D01*
X136864750Y-63469999D01*
X113661222Y-63469999D01*
X113746474Y-63336180D01*
X113752665Y-63327337D01*
X114000983Y-63003724D01*
X114007921Y-62995455D01*
X114250939Y-62730247D01*
X152739500Y-62730247D01*
X152739500Y-64469752D01*
X152751131Y-64528229D01*
X152751132Y-64528230D01*
X152795447Y-64594552D01*
X152861769Y-64638867D01*
X152861770Y-64638868D01*
X152920247Y-64650499D01*
X152920250Y-64650500D01*
X152920252Y-64650500D01*
X154659750Y-64650500D01*
X154659751Y-64650499D01*
X154674568Y-64647552D01*
X154718229Y-64638868D01*
X154718229Y-64638867D01*
X154718231Y-64638867D01*
X154784552Y-64594552D01*
X154828867Y-64528231D01*
X154828867Y-64528229D01*
X154828868Y-64528229D01*
X154840499Y-64469752D01*
X154840500Y-64469750D01*
X154840500Y-63600000D01*
X155274417Y-63600000D01*
X155294699Y-63805932D01*
X155324734Y-63904944D01*
X155354768Y-64003954D01*
X155452315Y-64186450D01*
X155452317Y-64186452D01*
X155583589Y-64346410D01*
X155680209Y-64425702D01*
X155743550Y-64477685D01*
X155926046Y-64575232D01*
X156124066Y-64635300D01*
X156124065Y-64635300D01*
X156142529Y-64637118D01*
X156330000Y-64655583D01*
X156535934Y-64635300D01*
X156733954Y-64575232D01*
X156916450Y-64477685D01*
X157076410Y-64346410D01*
X157207685Y-64186450D01*
X157305232Y-64003954D01*
X157365300Y-63805934D01*
X157385583Y-63600000D01*
X157814417Y-63600000D01*
X157834699Y-63805932D01*
X157864734Y-63904944D01*
X157894768Y-64003954D01*
X157992315Y-64186450D01*
X157992317Y-64186452D01*
X158123589Y-64346410D01*
X158220209Y-64425702D01*
X158283550Y-64477685D01*
X158466046Y-64575232D01*
X158664066Y-64635300D01*
X158664065Y-64635300D01*
X158682529Y-64637118D01*
X158870000Y-64655583D01*
X159075934Y-64635300D01*
X159273954Y-64575232D01*
X159456450Y-64477685D01*
X159616410Y-64346410D01*
X159747685Y-64186450D01*
X159845232Y-64003954D01*
X159905300Y-63805934D01*
X159925583Y-63600000D01*
X160354417Y-63600000D01*
X160374699Y-63805932D01*
X160404734Y-63904944D01*
X160434768Y-64003954D01*
X160532315Y-64186450D01*
X160532317Y-64186452D01*
X160663589Y-64346410D01*
X160760209Y-64425702D01*
X160823550Y-64477685D01*
X161006046Y-64575232D01*
X161204066Y-64635300D01*
X161204065Y-64635300D01*
X161222529Y-64637118D01*
X161410000Y-64655583D01*
X161615934Y-64635300D01*
X161813954Y-64575232D01*
X161996450Y-64477685D01*
X162156410Y-64346410D01*
X162287685Y-64186450D01*
X162385232Y-64003954D01*
X162445300Y-63805934D01*
X162465583Y-63600000D01*
X162894417Y-63600000D01*
X162914699Y-63805932D01*
X162944734Y-63904944D01*
X162974768Y-64003954D01*
X163072315Y-64186450D01*
X163072317Y-64186452D01*
X163203589Y-64346410D01*
X163300209Y-64425702D01*
X163363550Y-64477685D01*
X163546046Y-64575232D01*
X163744066Y-64635300D01*
X163744065Y-64635300D01*
X163762529Y-64637118D01*
X163950000Y-64655583D01*
X164155934Y-64635300D01*
X164353954Y-64575232D01*
X164536450Y-64477685D01*
X164696410Y-64346410D01*
X164827685Y-64186450D01*
X164925232Y-64003954D01*
X164985300Y-63805934D01*
X165005583Y-63600000D01*
X165434417Y-63600000D01*
X165454699Y-63805932D01*
X165484734Y-63904944D01*
X165514768Y-64003954D01*
X165612315Y-64186450D01*
X165612317Y-64186452D01*
X165743589Y-64346410D01*
X165840209Y-64425702D01*
X165903550Y-64477685D01*
X166086046Y-64575232D01*
X166284066Y-64635300D01*
X166284065Y-64635300D01*
X166302529Y-64637118D01*
X166490000Y-64655583D01*
X166695934Y-64635300D01*
X166893954Y-64575232D01*
X167076450Y-64477685D01*
X167236410Y-64346410D01*
X167367685Y-64186450D01*
X167465232Y-64003954D01*
X167525300Y-63805934D01*
X167545583Y-63600000D01*
X167974417Y-63600000D01*
X167994699Y-63805932D01*
X168024734Y-63904944D01*
X168054768Y-64003954D01*
X168152315Y-64186450D01*
X168152317Y-64186452D01*
X168283589Y-64346410D01*
X168380209Y-64425702D01*
X168443550Y-64477685D01*
X168626046Y-64575232D01*
X168824066Y-64635300D01*
X168824065Y-64635300D01*
X168842529Y-64637118D01*
X169030000Y-64655583D01*
X169235934Y-64635300D01*
X169433954Y-64575232D01*
X169616450Y-64477685D01*
X169723295Y-64390000D01*
X172139750Y-64390000D01*
X172150249Y-64469750D01*
X172158670Y-64533708D01*
X172158671Y-64533712D01*
X172214137Y-64667622D01*
X172214138Y-64667624D01*
X172214139Y-64667625D01*
X172302379Y-64782621D01*
X172417375Y-64870861D01*
X172417376Y-64870861D01*
X172417377Y-64870862D01*
X172462013Y-64889350D01*
X172551291Y-64926330D01*
X172678280Y-64943048D01*
X172694999Y-64945250D01*
X172695000Y-64945250D01*
X172695001Y-64945250D01*
X172709977Y-64943278D01*
X172838709Y-64926330D01*
X172972625Y-64870861D01*
X173087621Y-64782621D01*
X173175861Y-64667625D01*
X173231330Y-64533709D01*
X173250250Y-64390000D01*
X173231330Y-64246291D01*
X173175861Y-64112375D01*
X173087621Y-63997379D01*
X172972625Y-63909139D01*
X172972624Y-63909138D01*
X172972622Y-63909137D01*
X172838712Y-63853671D01*
X172838710Y-63853670D01*
X172838709Y-63853670D01*
X172766854Y-63844210D01*
X172695001Y-63834750D01*
X172694999Y-63834750D01*
X172551291Y-63853670D01*
X172551287Y-63853671D01*
X172417377Y-63909137D01*
X172302379Y-63997379D01*
X172214137Y-64112377D01*
X172158671Y-64246287D01*
X172158670Y-64246291D01*
X172139750Y-64390000D01*
X169723295Y-64390000D01*
X169776410Y-64346410D01*
X169907685Y-64186450D01*
X170005232Y-64003954D01*
X170065300Y-63805934D01*
X170085583Y-63600000D01*
X170065300Y-63394066D01*
X170005232Y-63196046D01*
X169907685Y-63013550D01*
X169855702Y-62950209D01*
X169776410Y-62853589D01*
X169626121Y-62730252D01*
X169616450Y-62722315D01*
X169433954Y-62624768D01*
X169235934Y-62564700D01*
X169235932Y-62564699D01*
X169235934Y-62564699D01*
X169030000Y-62544417D01*
X168824067Y-62564699D01*
X168626043Y-62624769D01*
X168538114Y-62671769D01*
X168443550Y-62722315D01*
X168443548Y-62722316D01*
X168443547Y-62722317D01*
X168283589Y-62853589D01*
X168152317Y-63013547D01*
X168054769Y-63196043D01*
X167994699Y-63394067D01*
X167974417Y-63600000D01*
X167545583Y-63600000D01*
X167525300Y-63394066D01*
X167465232Y-63196046D01*
X167367685Y-63013550D01*
X167315702Y-62950209D01*
X167236410Y-62853589D01*
X167086121Y-62730252D01*
X167076450Y-62722315D01*
X166893954Y-62624768D01*
X166695934Y-62564700D01*
X166695932Y-62564699D01*
X166695934Y-62564699D01*
X166490000Y-62544417D01*
X166284067Y-62564699D01*
X166086043Y-62624769D01*
X165998114Y-62671769D01*
X165903550Y-62722315D01*
X165903548Y-62722316D01*
X165903547Y-62722317D01*
X165743589Y-62853589D01*
X165612317Y-63013547D01*
X165514769Y-63196043D01*
X165454699Y-63394067D01*
X165434417Y-63600000D01*
X165005583Y-63600000D01*
X164985300Y-63394066D01*
X164925232Y-63196046D01*
X164827685Y-63013550D01*
X164775702Y-62950209D01*
X164696410Y-62853589D01*
X164546121Y-62730252D01*
X164536450Y-62722315D01*
X164353954Y-62624768D01*
X164155934Y-62564700D01*
X164155932Y-62564699D01*
X164155934Y-62564699D01*
X163950000Y-62544417D01*
X163744067Y-62564699D01*
X163546043Y-62624769D01*
X163458114Y-62671769D01*
X163363550Y-62722315D01*
X163363548Y-62722316D01*
X163363547Y-62722317D01*
X163203589Y-62853589D01*
X163072317Y-63013547D01*
X162974769Y-63196043D01*
X162914699Y-63394067D01*
X162894417Y-63600000D01*
X162465583Y-63600000D01*
X162445300Y-63394066D01*
X162385232Y-63196046D01*
X162287685Y-63013550D01*
X162235702Y-62950209D01*
X162156410Y-62853589D01*
X162006121Y-62730252D01*
X161996450Y-62722315D01*
X161813954Y-62624768D01*
X161615934Y-62564700D01*
X161615932Y-62564699D01*
X161615934Y-62564699D01*
X161410000Y-62544417D01*
X161204067Y-62564699D01*
X161006043Y-62624769D01*
X160918114Y-62671769D01*
X160823550Y-62722315D01*
X160823548Y-62722316D01*
X160823547Y-62722317D01*
X160663589Y-62853589D01*
X160532317Y-63013547D01*
X160434769Y-63196043D01*
X160374699Y-63394067D01*
X160354417Y-63600000D01*
X159925583Y-63600000D01*
X159905300Y-63394066D01*
X159845232Y-63196046D01*
X159747685Y-63013550D01*
X159695702Y-62950209D01*
X159616410Y-62853589D01*
X159466121Y-62730252D01*
X159456450Y-62722315D01*
X159273954Y-62624768D01*
X159075934Y-62564700D01*
X159075932Y-62564699D01*
X159075934Y-62564699D01*
X158870000Y-62544417D01*
X158664067Y-62564699D01*
X158466043Y-62624769D01*
X158378114Y-62671769D01*
X158283550Y-62722315D01*
X158283548Y-62722316D01*
X158283547Y-62722317D01*
X158123589Y-62853589D01*
X157992317Y-63013547D01*
X157894769Y-63196043D01*
X157834699Y-63394067D01*
X157814417Y-63600000D01*
X157385583Y-63600000D01*
X157365300Y-63394066D01*
X157305232Y-63196046D01*
X157207685Y-63013550D01*
X157155702Y-62950209D01*
X157076410Y-62853589D01*
X156926121Y-62730252D01*
X156916450Y-62722315D01*
X156733954Y-62624768D01*
X156535934Y-62564700D01*
X156535932Y-62564699D01*
X156535934Y-62564699D01*
X156330000Y-62544417D01*
X156124067Y-62564699D01*
X155926043Y-62624769D01*
X155838114Y-62671769D01*
X155743550Y-62722315D01*
X155743548Y-62722316D01*
X155743547Y-62722317D01*
X155583589Y-62853589D01*
X155452317Y-63013547D01*
X155354769Y-63196043D01*
X155294699Y-63394067D01*
X155274417Y-63600000D01*
X154840500Y-63600000D01*
X154840500Y-62730249D01*
X154840499Y-62730247D01*
X154828868Y-62671770D01*
X154828867Y-62671769D01*
X154784552Y-62605447D01*
X154718230Y-62561132D01*
X154718229Y-62561131D01*
X154659752Y-62549500D01*
X154659748Y-62549500D01*
X152920252Y-62549500D01*
X152920247Y-62549500D01*
X152861770Y-62561131D01*
X152861769Y-62561132D01*
X152795447Y-62605447D01*
X152751132Y-62671769D01*
X152751131Y-62671770D01*
X152739500Y-62730247D01*
X114250939Y-62730247D01*
X114283494Y-62694720D01*
X114291120Y-62687094D01*
X114591855Y-62411521D01*
X114600124Y-62404583D01*
X114923737Y-62156265D01*
X114932580Y-62150074D01*
X115276603Y-61930907D01*
X115285924Y-61925525D01*
X115647753Y-61737169D01*
X115657527Y-61732611D01*
X116034382Y-61576512D01*
X116044529Y-61572819D01*
X116433539Y-61450165D01*
X116443968Y-61447370D01*
X116842208Y-61359082D01*
X116852838Y-61357209D01*
X117257247Y-61303968D01*
X117267980Y-61303028D01*
X117678197Y-61285117D01*
X117683606Y-61285000D01*
X117720782Y-61285000D01*
X189641018Y-61285000D01*
X189678194Y-61285000D01*
X189683602Y-61285117D01*
G37*
%TD.AperFunction*%
%TD*%
M02*
