%TF.GenerationSoftware,KiCad,Pcbnew,8.0.5*%
%TF.CreationDate,2024-11-04T18:47:35-08:00*%
%TF.ProjectId,digitalclock,64696769-7461-46c6-936c-6f636b2e6b69,rev?*%
%TF.SameCoordinates,Original*%
%TF.FileFunction,Drillmap*%
%TF.FilePolarity,Positive*%
%FSLAX45Y45*%
G04 Gerber Fmt 4.5, Leading zero omitted, Abs format (unit mm)*
G04 Created by KiCad (PCBNEW 8.0.5) date 2024-11-04 18:47:35*
%MOMM*%
%LPD*%
G01*
G04 APERTURE LIST*
%ADD10C,0.050000*%
%ADD11C,0.200000*%
%ADD12C,0.100000*%
%ADD13C,0.101600*%
%ADD14C,0.250000*%
G04 APERTURE END LIST*
D10*
X11268090Y-12108450D02*
X11268090Y-6608450D01*
X11768090Y-6108450D02*
X18968090Y-6108450D01*
X18968090Y-12608450D02*
X11768090Y-12608450D01*
X19468090Y-6608450D02*
X19468090Y-12108450D01*
X11268090Y-6608450D02*
G75*
G02*
X11768090Y-6108450I500000J0D01*
G01*
X11768090Y-12608450D02*
G75*
G02*
X11268090Y-12108450I0J500000D01*
G01*
X18968090Y-6108450D02*
G75*
G02*
X19468090Y-6608450I0J-500000D01*
G01*
X19468090Y-12108450D02*
G75*
G02*
X18968090Y-12608450I-500000J0D01*
G01*
D11*
D12*
X18598120Y-6652500D02*
X18628120Y-6682500D01*
X18628120Y-6652500D02*
X18598120Y-6682500D01*
X12111500Y-8933000D02*
G75*
G02*
X12076500Y-8933000I-17500J0D01*
G01*
X12076500Y-8933000D02*
G75*
G02*
X12111500Y-8933000I17500J0D01*
G01*
X12240500Y-8889000D02*
G75*
G02*
X12205500Y-8889000I-17500J0D01*
G01*
X12205500Y-8889000D02*
G75*
G02*
X12240500Y-8889000I17500J0D01*
G01*
X12587500Y-7840000D02*
G75*
G02*
X12552500Y-7840000I-17500J0D01*
G01*
X12552500Y-7840000D02*
G75*
G02*
X12587500Y-7840000I17500J0D01*
G01*
X12587500Y-8554000D02*
G75*
G02*
X12552500Y-8554000I-17500J0D01*
G01*
X12552500Y-8554000D02*
G75*
G02*
X12587500Y-8554000I17500J0D01*
G01*
X12642500Y-7566000D02*
G75*
G02*
X12607500Y-7566000I-17500J0D01*
G01*
X12607500Y-7566000D02*
G75*
G02*
X12642500Y-7566000I17500J0D01*
G01*
X12932500Y-8190000D02*
G75*
G02*
X12897500Y-8190000I-17500J0D01*
G01*
X12897500Y-8190000D02*
G75*
G02*
X12932500Y-8190000I17500J0D01*
G01*
X12937500Y-7375000D02*
G75*
G02*
X12902500Y-7375000I-17500J0D01*
G01*
X12902500Y-7375000D02*
G75*
G02*
X12937500Y-7375000I17500J0D01*
G01*
X13233500Y-7751000D02*
G75*
G02*
X13198500Y-7751000I-17500J0D01*
G01*
X13198500Y-7751000D02*
G75*
G02*
X13233500Y-7751000I17500J0D01*
G01*
X13477500Y-8095000D02*
G75*
G02*
X13442500Y-8095000I-17500J0D01*
G01*
X13442500Y-8095000D02*
G75*
G02*
X13477500Y-8095000I17500J0D01*
G01*
X13602500Y-7535000D02*
G75*
G02*
X13567500Y-7535000I-17500J0D01*
G01*
X13567500Y-7535000D02*
G75*
G02*
X13602500Y-7535000I17500J0D01*
G01*
X13627500Y-6601000D02*
G75*
G02*
X13592500Y-6601000I-17500J0D01*
G01*
X13592500Y-6601000D02*
G75*
G02*
X13627500Y-6601000I17500J0D01*
G01*
X13672500Y-11155000D02*
G75*
G02*
X13637500Y-11155000I-17500J0D01*
G01*
X13637500Y-11155000D02*
G75*
G02*
X13672500Y-11155000I17500J0D01*
G01*
X13682500Y-8440000D02*
G75*
G02*
X13647500Y-8440000I-17500J0D01*
G01*
X13647500Y-8440000D02*
G75*
G02*
X13682500Y-8440000I17500J0D01*
G01*
X13692500Y-6474000D02*
G75*
G02*
X13657500Y-6474000I-17500J0D01*
G01*
X13657500Y-6474000D02*
G75*
G02*
X13692500Y-6474000I17500J0D01*
G01*
X13722500Y-6750000D02*
G75*
G02*
X13687500Y-6750000I-17500J0D01*
G01*
X13687500Y-6750000D02*
G75*
G02*
X13722500Y-6750000I17500J0D01*
G01*
X13744500Y-7363000D02*
G75*
G02*
X13709500Y-7363000I-17500J0D01*
G01*
X13709500Y-7363000D02*
G75*
G02*
X13744500Y-7363000I17500J0D01*
G01*
X13759500Y-6347000D02*
G75*
G02*
X13724500Y-6347000I-17500J0D01*
G01*
X13724500Y-6347000D02*
G75*
G02*
X13759500Y-6347000I17500J0D01*
G01*
X13760000Y-6985000D02*
G75*
G02*
X13725000Y-6985000I-17500J0D01*
G01*
X13725000Y-6985000D02*
G75*
G02*
X13760000Y-6985000I17500J0D01*
G01*
X13762500Y-7617500D02*
G75*
G02*
X13727500Y-7617500I-17500J0D01*
G01*
X13727500Y-7617500D02*
G75*
G02*
X13762500Y-7617500I17500J0D01*
G01*
X13810500Y-8175000D02*
G75*
G02*
X13775500Y-8175000I-17500J0D01*
G01*
X13775500Y-8175000D02*
G75*
G02*
X13810500Y-8175000I17500J0D01*
G01*
X13873500Y-8903000D02*
G75*
G02*
X13838500Y-8903000I-17500J0D01*
G01*
X13838500Y-8903000D02*
G75*
G02*
X13873500Y-8903000I17500J0D01*
G01*
X13892500Y-11150000D02*
G75*
G02*
X13857500Y-11150000I-17500J0D01*
G01*
X13857500Y-11150000D02*
G75*
G02*
X13892500Y-11150000I17500J0D01*
G01*
X14232500Y-8970000D02*
G75*
G02*
X14197500Y-8970000I-17500J0D01*
G01*
X14197500Y-8970000D02*
G75*
G02*
X14232500Y-8970000I17500J0D01*
G01*
X14367500Y-9075000D02*
G75*
G02*
X14332500Y-9075000I-17500J0D01*
G01*
X14332500Y-9075000D02*
G75*
G02*
X14367500Y-9075000I17500J0D01*
G01*
X14462500Y-9390000D02*
G75*
G02*
X14427500Y-9390000I-17500J0D01*
G01*
X14427500Y-9390000D02*
G75*
G02*
X14462500Y-9390000I17500J0D01*
G01*
X14517500Y-8500000D02*
G75*
G02*
X14482500Y-8500000I-17500J0D01*
G01*
X14482500Y-8500000D02*
G75*
G02*
X14517500Y-8500000I17500J0D01*
G01*
X14552500Y-8715000D02*
G75*
G02*
X14517500Y-8715000I-17500J0D01*
G01*
X14517500Y-8715000D02*
G75*
G02*
X14552500Y-8715000I17500J0D01*
G01*
X14603700Y-9263400D02*
G75*
G02*
X14568700Y-9263400I-17500J0D01*
G01*
X14568700Y-9263400D02*
G75*
G02*
X14603700Y-9263400I17500J0D01*
G01*
X14962500Y-9910000D02*
G75*
G02*
X14927500Y-9910000I-17500J0D01*
G01*
X14927500Y-9910000D02*
G75*
G02*
X14962500Y-9910000I17500J0D01*
G01*
X14967500Y-9675000D02*
G75*
G02*
X14932500Y-9675000I-17500J0D01*
G01*
X14932500Y-9675000D02*
G75*
G02*
X14967500Y-9675000I17500J0D01*
G01*
X14972500Y-9552500D02*
G75*
G02*
X14937500Y-9552500I-17500J0D01*
G01*
X14937500Y-9552500D02*
G75*
G02*
X14972500Y-9552500I17500J0D01*
G01*
X15082500Y-6780000D02*
G75*
G02*
X15047500Y-6780000I-17500J0D01*
G01*
X15047500Y-6780000D02*
G75*
G02*
X15082500Y-6780000I17500J0D01*
G01*
X15167000Y-8299500D02*
G75*
G02*
X15132000Y-8299500I-17500J0D01*
G01*
X15132000Y-8299500D02*
G75*
G02*
X15167000Y-8299500I17500J0D01*
G01*
X15167500Y-8450000D02*
G75*
G02*
X15132500Y-8450000I-17500J0D01*
G01*
X15132500Y-8450000D02*
G75*
G02*
X15167500Y-8450000I17500J0D01*
G01*
X15175000Y-6967500D02*
G75*
G02*
X15140000Y-6967500I-17500J0D01*
G01*
X15140000Y-6967500D02*
G75*
G02*
X15175000Y-6967500I17500J0D01*
G01*
X15187500Y-10545000D02*
G75*
G02*
X15152500Y-10545000I-17500J0D01*
G01*
X15152500Y-10545000D02*
G75*
G02*
X15187500Y-10545000I17500J0D01*
G01*
X15397500Y-8935000D02*
G75*
G02*
X15362500Y-8935000I-17500J0D01*
G01*
X15362500Y-8935000D02*
G75*
G02*
X15397500Y-8935000I17500J0D01*
G01*
X15428914Y-10494887D02*
G75*
G02*
X15393914Y-10494887I-17500J0D01*
G01*
X15393914Y-10494887D02*
G75*
G02*
X15428914Y-10494887I17500J0D01*
G01*
X15532500Y-8565000D02*
G75*
G02*
X15497500Y-8565000I-17500J0D01*
G01*
X15497500Y-8565000D02*
G75*
G02*
X15532500Y-8565000I17500J0D01*
G01*
X15542500Y-10447500D02*
G75*
G02*
X15507500Y-10447500I-17500J0D01*
G01*
X15507500Y-10447500D02*
G75*
G02*
X15542500Y-10447500I17500J0D01*
G01*
X15542500Y-11367500D02*
G75*
G02*
X15507500Y-11367500I-17500J0D01*
G01*
X15507500Y-11367500D02*
G75*
G02*
X15542500Y-11367500I17500J0D01*
G01*
X15563000Y-10880000D02*
G75*
G02*
X15528000Y-10880000I-17500J0D01*
G01*
X15528000Y-10880000D02*
G75*
G02*
X15563000Y-10880000I17500J0D01*
G01*
X15657500Y-7030000D02*
G75*
G02*
X15622500Y-7030000I-17500J0D01*
G01*
X15622500Y-7030000D02*
G75*
G02*
X15657500Y-7030000I17500J0D01*
G01*
X15667500Y-8930000D02*
G75*
G02*
X15632500Y-8930000I-17500J0D01*
G01*
X15632500Y-8930000D02*
G75*
G02*
X15667500Y-8930000I17500J0D01*
G01*
X15731500Y-11539000D02*
G75*
G02*
X15696500Y-11539000I-17500J0D01*
G01*
X15696500Y-11539000D02*
G75*
G02*
X15731500Y-11539000I17500J0D01*
G01*
X15767500Y-8750000D02*
G75*
G02*
X15732500Y-8750000I-17500J0D01*
G01*
X15732500Y-8750000D02*
G75*
G02*
X15767500Y-8750000I17500J0D01*
G01*
X15810500Y-10710000D02*
G75*
G02*
X15775500Y-10710000I-17500J0D01*
G01*
X15775500Y-10710000D02*
G75*
G02*
X15810500Y-10710000I17500J0D01*
G01*
X15915500Y-11530000D02*
G75*
G02*
X15880500Y-11530000I-17500J0D01*
G01*
X15880500Y-11530000D02*
G75*
G02*
X15915500Y-11530000I17500J0D01*
G01*
X15945500Y-8858000D02*
G75*
G02*
X15910500Y-8858000I-17500J0D01*
G01*
X15910500Y-8858000D02*
G75*
G02*
X15945500Y-8858000I17500J0D01*
G01*
X15950500Y-11025000D02*
G75*
G02*
X15915500Y-11025000I-17500J0D01*
G01*
X15915500Y-11025000D02*
G75*
G02*
X15950500Y-11025000I17500J0D01*
G01*
X15958000Y-10837500D02*
G75*
G02*
X15923000Y-10837500I-17500J0D01*
G01*
X15923000Y-10837500D02*
G75*
G02*
X15958000Y-10837500I17500J0D01*
G01*
X15977500Y-10385000D02*
G75*
G02*
X15942500Y-10385000I-17500J0D01*
G01*
X15942500Y-10385000D02*
G75*
G02*
X15977500Y-10385000I17500J0D01*
G01*
X15999180Y-10530840D02*
G75*
G02*
X15964180Y-10530840I-17500J0D01*
G01*
X15964180Y-10530840D02*
G75*
G02*
X15999180Y-10530840I17500J0D01*
G01*
X16167500Y-9031875D02*
G75*
G02*
X16132500Y-9031875I-17500J0D01*
G01*
X16132500Y-9031875D02*
G75*
G02*
X16167500Y-9031875I17500J0D01*
G01*
X16194194Y-8886694D02*
G75*
G02*
X16159194Y-8886694I-17500J0D01*
G01*
X16159194Y-8886694D02*
G75*
G02*
X16194194Y-8886694I17500J0D01*
G01*
X16267500Y-10100000D02*
G75*
G02*
X16232500Y-10100000I-17500J0D01*
G01*
X16232500Y-10100000D02*
G75*
G02*
X16267500Y-10100000I17500J0D01*
G01*
X16392500Y-9212500D02*
G75*
G02*
X16357500Y-9212500I-17500J0D01*
G01*
X16357500Y-9212500D02*
G75*
G02*
X16392500Y-9212500I17500J0D01*
G01*
X16392500Y-10025000D02*
G75*
G02*
X16357500Y-10025000I-17500J0D01*
G01*
X16357500Y-10025000D02*
G75*
G02*
X16392500Y-10025000I17500J0D01*
G01*
X16400500Y-11100000D02*
G75*
G02*
X16365500Y-11100000I-17500J0D01*
G01*
X16365500Y-11100000D02*
G75*
G02*
X16400500Y-11100000I17500J0D01*
G01*
X16412500Y-8070000D02*
G75*
G02*
X16377500Y-8070000I-17500J0D01*
G01*
X16377500Y-8070000D02*
G75*
G02*
X16412500Y-8070000I17500J0D01*
G01*
X16432432Y-9409932D02*
G75*
G02*
X16397432Y-9409932I-17500J0D01*
G01*
X16397432Y-9409932D02*
G75*
G02*
X16432432Y-9409932I17500J0D01*
G01*
X16451500Y-9552500D02*
G75*
G02*
X16416500Y-9552500I-17500J0D01*
G01*
X16416500Y-9552500D02*
G75*
G02*
X16451500Y-9552500I17500J0D01*
G01*
X16478750Y-8920000D02*
G75*
G02*
X16443750Y-8920000I-17500J0D01*
G01*
X16443750Y-8920000D02*
G75*
G02*
X16478750Y-8920000I17500J0D01*
G01*
X16516660Y-9276483D02*
G75*
G02*
X16481660Y-9276483I-17500J0D01*
G01*
X16481660Y-9276483D02*
G75*
G02*
X16516660Y-9276483I17500J0D01*
G01*
X16535500Y-10722000D02*
G75*
G02*
X16500500Y-10722000I-17500J0D01*
G01*
X16500500Y-10722000D02*
G75*
G02*
X16535500Y-10722000I17500J0D01*
G01*
X16596500Y-8971000D02*
G75*
G02*
X16561500Y-8971000I-17500J0D01*
G01*
X16561500Y-8971000D02*
G75*
G02*
X16596500Y-8971000I17500J0D01*
G01*
X16666500Y-9320000D02*
G75*
G02*
X16631500Y-9320000I-17500J0D01*
G01*
X16631500Y-9320000D02*
G75*
G02*
X16666500Y-9320000I17500J0D01*
G01*
X16910000Y-9475000D02*
G75*
G02*
X16875000Y-9475000I-17500J0D01*
G01*
X16875000Y-9475000D02*
G75*
G02*
X16910000Y-9475000I17500J0D01*
G01*
X17042500Y-10225000D02*
G75*
G02*
X17007500Y-10225000I-17500J0D01*
G01*
X17007500Y-10225000D02*
G75*
G02*
X17042500Y-10225000I17500J0D01*
G01*
X17098500Y-9504000D02*
G75*
G02*
X17063500Y-9504000I-17500J0D01*
G01*
X17063500Y-9504000D02*
G75*
G02*
X17098500Y-9504000I17500J0D01*
G01*
X17099208Y-7013292D02*
G75*
G02*
X17064208Y-7013292I-17500J0D01*
G01*
X17064208Y-7013292D02*
G75*
G02*
X17099208Y-7013292I17500J0D01*
G01*
X17167500Y-8425000D02*
G75*
G02*
X17132500Y-8425000I-17500J0D01*
G01*
X17132500Y-8425000D02*
G75*
G02*
X17167500Y-8425000I17500J0D01*
G01*
X17170000Y-6760000D02*
G75*
G02*
X17135000Y-6760000I-17500J0D01*
G01*
X17135000Y-6760000D02*
G75*
G02*
X17170000Y-6760000I17500J0D01*
G01*
X17237500Y-7575500D02*
G75*
G02*
X17202500Y-7575500I-17500J0D01*
G01*
X17202500Y-7575500D02*
G75*
G02*
X17237500Y-7575500I17500J0D01*
G01*
X17287000Y-6439000D02*
G75*
G02*
X17252000Y-6439000I-17500J0D01*
G01*
X17252000Y-6439000D02*
G75*
G02*
X17287000Y-6439000I17500J0D01*
G01*
X17292500Y-7255000D02*
G75*
G02*
X17257500Y-7255000I-17500J0D01*
G01*
X17257500Y-7255000D02*
G75*
G02*
X17292500Y-7255000I17500J0D01*
G01*
X17293750Y-7443750D02*
G75*
G02*
X17258750Y-7443750I-17500J0D01*
G01*
X17258750Y-7443750D02*
G75*
G02*
X17293750Y-7443750I17500J0D01*
G01*
X17337500Y-9520000D02*
G75*
G02*
X17302500Y-9520000I-17500J0D01*
G01*
X17302500Y-9520000D02*
G75*
G02*
X17337500Y-9520000I17500J0D01*
G01*
X17552500Y-10115000D02*
G75*
G02*
X17517500Y-10115000I-17500J0D01*
G01*
X17517500Y-10115000D02*
G75*
G02*
X17552500Y-10115000I17500J0D01*
G01*
X17577500Y-10260000D02*
G75*
G02*
X17542500Y-10260000I-17500J0D01*
G01*
X17542500Y-10260000D02*
G75*
G02*
X17577500Y-10260000I17500J0D01*
G01*
X17717500Y-9450000D02*
G75*
G02*
X17682500Y-9450000I-17500J0D01*
G01*
X17682500Y-9450000D02*
G75*
G02*
X17717500Y-9450000I17500J0D01*
G01*
X18232500Y-7860000D02*
G75*
G02*
X18197500Y-7860000I-17500J0D01*
G01*
X18197500Y-7860000D02*
G75*
G02*
X18232500Y-7860000I17500J0D01*
G01*
X18345500Y-9495000D02*
G75*
G02*
X18310500Y-9495000I-17500J0D01*
G01*
X18310500Y-9495000D02*
G75*
G02*
X18345500Y-9495000I17500J0D01*
G01*
X18547500Y-6559500D02*
G75*
G02*
X18512500Y-6559500I-17500J0D01*
G01*
X18512500Y-6559500D02*
G75*
G02*
X18547500Y-6559500I17500J0D01*
G01*
X18550000Y-7577500D02*
G75*
G02*
X18515000Y-7577500I-17500J0D01*
G01*
X18515000Y-7577500D02*
G75*
G02*
X18550000Y-7577500I17500J0D01*
G01*
X18555000Y-7070000D02*
G75*
G02*
X18520000Y-7070000I-17500J0D01*
G01*
X18520000Y-7070000D02*
G75*
G02*
X18555000Y-7070000I17500J0D01*
G01*
X18571000Y-7321500D02*
G75*
G02*
X18536000Y-7321500I-17500J0D01*
G01*
X18536000Y-7321500D02*
G75*
G02*
X18571000Y-7321500I17500J0D01*
G01*
X18617500Y-7195000D02*
G75*
G02*
X18582500Y-7195000I-17500J0D01*
G01*
X18582500Y-7195000D02*
G75*
G02*
X18617500Y-7195000I17500J0D01*
G01*
X18617500Y-7450000D02*
G75*
G02*
X18582500Y-7450000I-17500J0D01*
G01*
X18582500Y-7450000D02*
G75*
G02*
X18617500Y-7450000I17500J0D01*
G01*
X18634160Y-6798272D02*
G75*
G02*
X18599160Y-6798272I-17500J0D01*
G01*
X18599160Y-6798272D02*
G75*
G02*
X18634160Y-6798272I17500J0D01*
G01*
X18849500Y-9232000D02*
G75*
G02*
X18814500Y-9232000I-17500J0D01*
G01*
X18814500Y-9232000D02*
G75*
G02*
X18849500Y-9232000I17500J0D01*
G01*
X12130000Y-7949000D02*
X12130000Y-7999000D01*
X12105000Y-7974000D02*
X12155000Y-7974000D01*
X12131000Y-7446000D02*
X12131000Y-7496000D01*
X12106000Y-7471000D02*
X12156000Y-7471000D01*
X12830000Y-8810000D02*
X12830000Y-8860000D01*
X12805000Y-8835000D02*
X12855000Y-8835000D01*
X12930000Y-7580000D02*
X12930000Y-7630000D01*
X12905000Y-7605000D02*
X12955000Y-7605000D01*
X13001500Y-12325000D02*
X13001500Y-12375000D01*
X12976500Y-12350000D02*
X13026500Y-12350000D01*
X13003000Y-12455000D02*
X13003000Y-12505000D01*
X12978000Y-12480000D02*
X13028000Y-12480000D01*
X13015000Y-8790000D02*
X13015000Y-8840000D01*
X12990000Y-8815000D02*
X13040000Y-8815000D01*
X13080000Y-8574000D02*
X13080000Y-8624000D01*
X13055000Y-8599000D02*
X13105000Y-8599000D01*
X13187500Y-11112500D02*
X13187500Y-11162500D01*
X13162500Y-11137500D02*
X13212500Y-11137500D01*
X13347700Y-10846200D02*
X13347700Y-10896200D01*
X13322700Y-10871200D02*
X13372700Y-10871200D01*
X13470000Y-8515000D02*
X13470000Y-8565000D01*
X13445000Y-8540000D02*
X13495000Y-8540000D01*
X13650000Y-10840000D02*
X13650000Y-10890000D01*
X13625000Y-10865000D02*
X13675000Y-10865000D01*
X13705000Y-8850000D02*
X13705000Y-8900000D01*
X13680000Y-8875000D02*
X13730000Y-8875000D01*
X13875000Y-10840000D02*
X13875000Y-10890000D01*
X13850000Y-10865000D02*
X13900000Y-10865000D01*
X14061440Y-10206120D02*
X14061440Y-10256120D01*
X14036440Y-10231120D02*
X14086440Y-10231120D01*
X14071600Y-9992760D02*
X14071600Y-10042760D01*
X14046600Y-10017760D02*
X14096600Y-10017760D01*
X14165000Y-8710000D02*
X14165000Y-8760000D01*
X14140000Y-8735000D02*
X14190000Y-8735000D01*
X14335000Y-10910000D02*
X14335000Y-10960000D01*
X14310000Y-10935000D02*
X14360000Y-10935000D01*
X14655000Y-9740000D02*
X14655000Y-9790000D01*
X14630000Y-9765000D02*
X14680000Y-9765000D01*
X14800000Y-11125000D02*
X14800000Y-11175000D01*
X14775000Y-11150000D02*
X14825000Y-11150000D01*
X14984000Y-12460000D02*
X14984000Y-12510000D01*
X14959000Y-12485000D02*
X15009000Y-12485000D01*
X14985000Y-12325000D02*
X14985000Y-12375000D01*
X14960000Y-12350000D02*
X15010000Y-12350000D01*
X16769080Y-11383960D02*
X16769080Y-11433960D01*
X16744080Y-11408960D02*
X16794080Y-11408960D01*
X17267900Y-11075000D02*
X17267900Y-11125000D01*
X17242900Y-11100000D02*
X17292900Y-11100000D01*
X17985000Y-6985000D02*
X17985000Y-7035000D01*
X17960000Y-7010000D02*
X18010000Y-7010000D01*
X18473420Y-8034420D02*
X18473420Y-8084420D01*
X18448420Y-8059420D02*
X18498420Y-8059420D01*
X11471678Y-8348678D02*
X11471678Y-8313322D01*
X11436322Y-8313322D01*
X11436322Y-8348678D01*
X11471678Y-8348678D01*
X11486500Y-8306000D02*
X11421500Y-8306000D01*
X11421500Y-8356000D02*
G75*
G02*
X11421500Y-8306000I0J25000D01*
G01*
X11421500Y-8356000D02*
X11486500Y-8356000D01*
X11486500Y-8356000D02*
G75*
G03*
X11486500Y-8306000I0J25000D01*
G01*
X11471678Y-9048678D02*
X11471678Y-9013322D01*
X11436322Y-9013322D01*
X11436322Y-9048678D01*
X11471678Y-9048678D01*
X11486500Y-9006000D02*
X11421500Y-9006000D01*
X11421500Y-9056000D02*
G75*
G02*
X11421500Y-9006000I0J25000D01*
G01*
X11421500Y-9056000D02*
X11486500Y-9056000D01*
X11486500Y-9056000D02*
G75*
G03*
X11486500Y-9006000I0J25000D01*
G01*
X17421758Y-10888878D02*
X17421758Y-10853522D01*
X17386402Y-10853522D01*
X17386402Y-10888878D01*
X17421758Y-10888878D01*
X11724000Y-8458500D02*
X11751500Y-8431000D01*
X11724000Y-8403500D01*
X11696500Y-8431000D01*
X11724000Y-8458500D01*
X11696500Y-8416000D02*
X11696500Y-8446000D01*
X11751500Y-8446000D02*
G75*
G02*
X11696500Y-8446000I-27500J0D01*
G01*
X11751500Y-8446000D02*
X11751500Y-8416000D01*
X11751500Y-8416000D02*
G75*
G03*
X11696500Y-8416000I-27500J0D01*
G01*
X11724000Y-8958500D02*
X11751500Y-8931000D01*
X11724000Y-8903500D01*
X11696500Y-8931000D01*
X11724000Y-8958500D01*
X11696500Y-8916000D02*
X11696500Y-8946000D01*
X11751500Y-8946000D02*
G75*
G02*
X11696500Y-8946000I-27500J0D01*
G01*
X11751500Y-8946000D02*
X11751500Y-8916000D01*
X11751500Y-8916000D02*
G75*
G03*
X11696500Y-8916000I-27500J0D01*
G01*
X15329000Y-6310000D02*
X15429000Y-6410000D01*
X15429000Y-6310000D02*
X15329000Y-6410000D01*
X15429000Y-6360000D02*
G75*
G02*
X15329000Y-6360000I-50000J0D01*
G01*
X15329000Y-6360000D02*
G75*
G02*
X15429000Y-6360000I50000J0D01*
G01*
X15329000Y-6720000D02*
X15429000Y-6820000D01*
X15429000Y-6720000D02*
X15329000Y-6820000D01*
X15429000Y-6770000D02*
G75*
G02*
X15329000Y-6770000I-50000J0D01*
G01*
X15329000Y-6770000D02*
G75*
G02*
X15429000Y-6770000I50000J0D01*
G01*
X15329000Y-7265000D02*
X15429000Y-7365000D01*
X15429000Y-7265000D02*
X15329000Y-7365000D01*
X15429000Y-7315000D02*
G75*
G02*
X15329000Y-7315000I-50000J0D01*
G01*
X15329000Y-7315000D02*
G75*
G02*
X15429000Y-7315000I50000J0D01*
G01*
X15329000Y-7665000D02*
X15429000Y-7765000D01*
X15429000Y-7665000D02*
X15329000Y-7765000D01*
X15429000Y-7715000D02*
G75*
G02*
X15329000Y-7715000I-50000J0D01*
G01*
X15329000Y-7715000D02*
G75*
G02*
X15429000Y-7715000I50000J0D01*
G01*
X15583000Y-6310000D02*
X15683000Y-6410000D01*
X15683000Y-6310000D02*
X15583000Y-6410000D01*
X15683000Y-6360000D02*
G75*
G02*
X15583000Y-6360000I-50000J0D01*
G01*
X15583000Y-6360000D02*
G75*
G02*
X15683000Y-6360000I50000J0D01*
G01*
X15583000Y-6720000D02*
X15683000Y-6820000D01*
X15683000Y-6720000D02*
X15583000Y-6820000D01*
X15683000Y-6770000D02*
G75*
G02*
X15583000Y-6770000I-50000J0D01*
G01*
X15583000Y-6770000D02*
G75*
G02*
X15683000Y-6770000I50000J0D01*
G01*
X15583000Y-7265000D02*
X15683000Y-7365000D01*
X15683000Y-7265000D02*
X15583000Y-7365000D01*
X15683000Y-7315000D02*
G75*
G02*
X15583000Y-7315000I-50000J0D01*
G01*
X15583000Y-7315000D02*
G75*
G02*
X15683000Y-7315000I50000J0D01*
G01*
X15583000Y-7665000D02*
X15683000Y-7765000D01*
X15683000Y-7665000D02*
X15583000Y-7765000D01*
X15683000Y-7715000D02*
G75*
G02*
X15583000Y-7715000I-50000J0D01*
G01*
X15583000Y-7715000D02*
G75*
G02*
X15683000Y-7715000I50000J0D01*
G01*
X15837000Y-6310000D02*
X15937000Y-6410000D01*
X15937000Y-6310000D02*
X15837000Y-6410000D01*
X15937000Y-6360000D02*
G75*
G02*
X15837000Y-6360000I-50000J0D01*
G01*
X15837000Y-6360000D02*
G75*
G02*
X15937000Y-6360000I50000J0D01*
G01*
X15837000Y-6720000D02*
X15937000Y-6820000D01*
X15937000Y-6720000D02*
X15837000Y-6820000D01*
X15937000Y-6770000D02*
G75*
G02*
X15837000Y-6770000I-50000J0D01*
G01*
X15837000Y-6770000D02*
G75*
G02*
X15937000Y-6770000I50000J0D01*
G01*
X15837000Y-7265000D02*
X15937000Y-7365000D01*
X15937000Y-7265000D02*
X15837000Y-7365000D01*
X15937000Y-7315000D02*
G75*
G02*
X15837000Y-7315000I-50000J0D01*
G01*
X15837000Y-7315000D02*
G75*
G02*
X15937000Y-7315000I50000J0D01*
G01*
X15837000Y-7665000D02*
X15937000Y-7765000D01*
X15937000Y-7665000D02*
X15837000Y-7765000D01*
X15937000Y-7715000D02*
G75*
G02*
X15837000Y-7715000I-50000J0D01*
G01*
X15837000Y-7715000D02*
G75*
G02*
X15937000Y-7715000I50000J0D01*
G01*
X16091000Y-6310000D02*
X16191000Y-6410000D01*
X16191000Y-6310000D02*
X16091000Y-6410000D01*
X16191000Y-6360000D02*
G75*
G02*
X16091000Y-6360000I-50000J0D01*
G01*
X16091000Y-6360000D02*
G75*
G02*
X16191000Y-6360000I50000J0D01*
G01*
X16091000Y-6720000D02*
X16191000Y-6820000D01*
X16191000Y-6720000D02*
X16091000Y-6820000D01*
X16191000Y-6770000D02*
G75*
G02*
X16091000Y-6770000I-50000J0D01*
G01*
X16091000Y-6770000D02*
G75*
G02*
X16191000Y-6770000I50000J0D01*
G01*
X16091000Y-7265000D02*
X16191000Y-7365000D01*
X16191000Y-7265000D02*
X16091000Y-7365000D01*
X16191000Y-7315000D02*
G75*
G02*
X16091000Y-7315000I-50000J0D01*
G01*
X16091000Y-7315000D02*
G75*
G02*
X16191000Y-7315000I50000J0D01*
G01*
X16091000Y-7665000D02*
X16191000Y-7765000D01*
X16191000Y-7665000D02*
X16091000Y-7765000D01*
X16191000Y-7715000D02*
G75*
G02*
X16091000Y-7715000I-50000J0D01*
G01*
X16091000Y-7715000D02*
G75*
G02*
X16191000Y-7715000I50000J0D01*
G01*
X16345000Y-6310000D02*
X16445000Y-6410000D01*
X16445000Y-6310000D02*
X16345000Y-6410000D01*
X16445000Y-6360000D02*
G75*
G02*
X16345000Y-6360000I-50000J0D01*
G01*
X16345000Y-6360000D02*
G75*
G02*
X16445000Y-6360000I50000J0D01*
G01*
X16345000Y-6720000D02*
X16445000Y-6820000D01*
X16445000Y-6720000D02*
X16345000Y-6820000D01*
X16445000Y-6770000D02*
G75*
G02*
X16345000Y-6770000I-50000J0D01*
G01*
X16345000Y-6770000D02*
G75*
G02*
X16445000Y-6770000I50000J0D01*
G01*
X16345000Y-7265000D02*
X16445000Y-7365000D01*
X16445000Y-7265000D02*
X16345000Y-7365000D01*
X16445000Y-7315000D02*
G75*
G02*
X16345000Y-7315000I-50000J0D01*
G01*
X16345000Y-7315000D02*
G75*
G02*
X16445000Y-7315000I50000J0D01*
G01*
X16345000Y-7665000D02*
X16445000Y-7765000D01*
X16445000Y-7665000D02*
X16345000Y-7765000D01*
X16445000Y-7715000D02*
G75*
G02*
X16345000Y-7715000I-50000J0D01*
G01*
X16345000Y-7715000D02*
G75*
G02*
X16445000Y-7715000I50000J0D01*
G01*
X16599000Y-6310000D02*
X16699000Y-6410000D01*
X16699000Y-6310000D02*
X16599000Y-6410000D01*
X16699000Y-6360000D02*
G75*
G02*
X16599000Y-6360000I-50000J0D01*
G01*
X16599000Y-6360000D02*
G75*
G02*
X16699000Y-6360000I50000J0D01*
G01*
X16599000Y-6720000D02*
X16699000Y-6820000D01*
X16699000Y-6720000D02*
X16599000Y-6820000D01*
X16699000Y-6770000D02*
G75*
G02*
X16599000Y-6770000I-50000J0D01*
G01*
X16599000Y-6770000D02*
G75*
G02*
X16699000Y-6770000I50000J0D01*
G01*
X16599000Y-7265000D02*
X16699000Y-7365000D01*
X16699000Y-7265000D02*
X16599000Y-7365000D01*
X16699000Y-7315000D02*
G75*
G02*
X16599000Y-7315000I-50000J0D01*
G01*
X16599000Y-7315000D02*
G75*
G02*
X16699000Y-7315000I50000J0D01*
G01*
X16599000Y-7665000D02*
X16699000Y-7765000D01*
X16699000Y-7665000D02*
X16599000Y-7765000D01*
X16699000Y-7715000D02*
G75*
G02*
X16599000Y-7715000I-50000J0D01*
G01*
X16599000Y-7715000D02*
G75*
G02*
X16699000Y-7715000I50000J0D01*
G01*
X16853000Y-6310000D02*
X16953000Y-6410000D01*
X16953000Y-6310000D02*
X16853000Y-6410000D01*
X16953000Y-6360000D02*
G75*
G02*
X16853000Y-6360000I-50000J0D01*
G01*
X16853000Y-6360000D02*
G75*
G02*
X16953000Y-6360000I50000J0D01*
G01*
X16853000Y-6720000D02*
X16953000Y-6820000D01*
X16953000Y-6720000D02*
X16853000Y-6820000D01*
X16953000Y-6770000D02*
G75*
G02*
X16853000Y-6770000I-50000J0D01*
G01*
X16853000Y-6770000D02*
G75*
G02*
X16953000Y-6770000I50000J0D01*
G01*
X16853000Y-7265000D02*
X16953000Y-7365000D01*
X16953000Y-7265000D02*
X16853000Y-7365000D01*
X16953000Y-7315000D02*
G75*
G02*
X16853000Y-7315000I-50000J0D01*
G01*
X16853000Y-7315000D02*
G75*
G02*
X16953000Y-7315000I50000J0D01*
G01*
X16853000Y-7665000D02*
X16953000Y-7765000D01*
X16953000Y-7665000D02*
X16853000Y-7765000D01*
X16953000Y-7715000D02*
G75*
G02*
X16853000Y-7715000I-50000J0D01*
G01*
X16853000Y-7715000D02*
G75*
G02*
X16953000Y-7715000I50000J0D01*
G01*
X18015000Y-8167000D02*
X18115000Y-8267000D01*
X18115000Y-8167000D02*
X18015000Y-8267000D01*
X18115000Y-8217000D02*
G75*
G02*
X18015000Y-8217000I-50000J0D01*
G01*
X18015000Y-8217000D02*
G75*
G02*
X18115000Y-8217000I50000J0D01*
G01*
X18015000Y-8421000D02*
X18115000Y-8521000D01*
X18115000Y-8421000D02*
X18015000Y-8521000D01*
X18115000Y-8471000D02*
G75*
G02*
X18015000Y-8471000I-50000J0D01*
G01*
X18015000Y-8471000D02*
G75*
G02*
X18115000Y-8471000I50000J0D01*
G01*
X18015000Y-8675000D02*
X18115000Y-8775000D01*
X18115000Y-8675000D02*
X18015000Y-8775000D01*
X18115000Y-8725000D02*
G75*
G02*
X18015000Y-8725000I-50000J0D01*
G01*
X18015000Y-8725000D02*
G75*
G02*
X18115000Y-8725000I50000J0D01*
G01*
X18015000Y-8929000D02*
X18115000Y-9029000D01*
X18115000Y-8929000D02*
X18015000Y-9029000D01*
X18115000Y-8979000D02*
G75*
G02*
X18015000Y-8979000I-50000J0D01*
G01*
X18015000Y-8979000D02*
G75*
G02*
X18115000Y-8979000I50000J0D01*
G01*
X18015000Y-9183000D02*
X18115000Y-9283000D01*
X18115000Y-9183000D02*
X18015000Y-9283000D01*
X18115000Y-9233000D02*
G75*
G02*
X18015000Y-9233000I-50000J0D01*
G01*
X18015000Y-9233000D02*
G75*
G02*
X18115000Y-9233000I50000J0D01*
G01*
X18015000Y-9437000D02*
X18115000Y-9537000D01*
X18115000Y-9437000D02*
X18015000Y-9537000D01*
X18115000Y-9487000D02*
G75*
G02*
X18015000Y-9487000I-50000J0D01*
G01*
X18015000Y-9487000D02*
G75*
G02*
X18115000Y-9487000I50000J0D01*
G01*
X18015000Y-9691000D02*
X18115000Y-9791000D01*
X18115000Y-9691000D02*
X18015000Y-9791000D01*
X18115000Y-9741000D02*
G75*
G02*
X18015000Y-9741000I-50000J0D01*
G01*
X18015000Y-9741000D02*
G75*
G02*
X18115000Y-9741000I50000J0D01*
G01*
X18015000Y-9945000D02*
X18115000Y-10045000D01*
X18115000Y-9945000D02*
X18015000Y-10045000D01*
X18115000Y-9995000D02*
G75*
G02*
X18015000Y-9995000I-50000J0D01*
G01*
X18015000Y-9995000D02*
G75*
G02*
X18115000Y-9995000I50000J0D01*
G01*
X18015000Y-10199000D02*
X18115000Y-10299000D01*
X18115000Y-10199000D02*
X18015000Y-10299000D01*
X18115000Y-10249000D02*
G75*
G02*
X18015000Y-10249000I-50000J0D01*
G01*
X18015000Y-10249000D02*
G75*
G02*
X18115000Y-10249000I50000J0D01*
G01*
X18015000Y-10453000D02*
X18115000Y-10553000D01*
X18115000Y-10453000D02*
X18015000Y-10553000D01*
X18115000Y-10503000D02*
G75*
G02*
X18015000Y-10503000I-50000J0D01*
G01*
X18015000Y-10503000D02*
G75*
G02*
X18115000Y-10503000I50000J0D01*
G01*
X18015000Y-10707000D02*
X18115000Y-10807000D01*
X18115000Y-10707000D02*
X18015000Y-10807000D01*
X18115000Y-10757000D02*
G75*
G02*
X18015000Y-10757000I-50000J0D01*
G01*
X18015000Y-10757000D02*
G75*
G02*
X18115000Y-10757000I50000J0D01*
G01*
X18015000Y-10961000D02*
X18115000Y-11061000D01*
X18115000Y-10961000D02*
X18015000Y-11061000D01*
X18115000Y-11011000D02*
G75*
G02*
X18015000Y-11011000I-50000J0D01*
G01*
X18015000Y-11011000D02*
G75*
G02*
X18115000Y-11011000I50000J0D01*
G01*
D13*
X12793200Y-9961200D02*
X12894800Y-10062800D01*
X12894800Y-9961200D02*
X12793200Y-10062800D01*
X12844000Y-9961200D02*
X12844000Y-10062800D01*
X12793200Y-10012000D02*
X12894800Y-10012000D01*
X12793200Y-10215200D02*
X12894800Y-10316800D01*
X12894800Y-10215200D02*
X12793200Y-10316800D01*
X12844000Y-10215200D02*
X12844000Y-10316800D01*
X12793200Y-10266000D02*
X12894800Y-10266000D01*
X12793200Y-10469200D02*
X12894800Y-10570800D01*
X12894800Y-10469200D02*
X12793200Y-10570800D01*
X12844000Y-10469200D02*
X12844000Y-10570800D01*
X12793200Y-10520000D02*
X12894800Y-10520000D01*
X12793200Y-10723200D02*
X12894800Y-10824800D01*
X12894800Y-10723200D02*
X12793200Y-10824800D01*
X12844000Y-10723200D02*
X12844000Y-10824800D01*
X12793200Y-10774000D02*
X12894800Y-10774000D01*
X12793200Y-10977200D02*
X12894800Y-11078800D01*
X12894800Y-10977200D02*
X12793200Y-11078800D01*
X12844000Y-10977200D02*
X12844000Y-11078800D01*
X12793200Y-11028000D02*
X12894800Y-11028000D01*
D14*
X11647000Y-11982000D02*
X11897000Y-12232000D01*
X11897000Y-11982000D02*
X11647000Y-12232000D01*
X11860389Y-12195389D02*
X11860389Y-12018611D01*
X11683611Y-12018611D01*
X11683611Y-12195389D01*
X11860389Y-12195389D01*
X18847000Y-11982000D02*
X19097000Y-12232000D01*
X19097000Y-11982000D02*
X18847000Y-12232000D01*
X19060389Y-12195389D02*
X19060389Y-12018611D01*
X18883611Y-12018611D01*
X18883611Y-12195389D01*
X19060389Y-12195389D01*
D11*
X11526367Y-12922434D02*
X11526367Y-12722434D01*
X11526367Y-12722434D02*
X11573986Y-12722434D01*
X11573986Y-12722434D02*
X11602557Y-12731958D01*
X11602557Y-12731958D02*
X11621605Y-12751005D01*
X11621605Y-12751005D02*
X11631129Y-12770053D01*
X11631129Y-12770053D02*
X11640652Y-12808148D01*
X11640652Y-12808148D02*
X11640652Y-12836719D01*
X11640652Y-12836719D02*
X11631129Y-12874815D01*
X11631129Y-12874815D02*
X11621605Y-12893862D01*
X11621605Y-12893862D02*
X11602557Y-12912910D01*
X11602557Y-12912910D02*
X11573986Y-12922434D01*
X11573986Y-12922434D02*
X11526367Y-12922434D01*
X11726367Y-12922434D02*
X11726367Y-12789100D01*
X11726367Y-12827196D02*
X11735891Y-12808148D01*
X11735891Y-12808148D02*
X11745414Y-12798624D01*
X11745414Y-12798624D02*
X11764462Y-12789100D01*
X11764462Y-12789100D02*
X11783510Y-12789100D01*
X11850176Y-12922434D02*
X11850176Y-12789100D01*
X11850176Y-12722434D02*
X11840652Y-12731958D01*
X11840652Y-12731958D02*
X11850176Y-12741481D01*
X11850176Y-12741481D02*
X11859700Y-12731958D01*
X11859700Y-12731958D02*
X11850176Y-12722434D01*
X11850176Y-12722434D02*
X11850176Y-12741481D01*
X11973986Y-12922434D02*
X11954938Y-12912910D01*
X11954938Y-12912910D02*
X11945414Y-12893862D01*
X11945414Y-12893862D02*
X11945414Y-12722434D01*
X12078748Y-12922434D02*
X12059700Y-12912910D01*
X12059700Y-12912910D02*
X12050176Y-12893862D01*
X12050176Y-12893862D02*
X12050176Y-12722434D01*
X12307319Y-12922434D02*
X12307319Y-12722434D01*
X12307319Y-12722434D02*
X12373986Y-12865291D01*
X12373986Y-12865291D02*
X12440652Y-12722434D01*
X12440652Y-12722434D02*
X12440652Y-12922434D01*
X12621605Y-12922434D02*
X12621605Y-12817672D01*
X12621605Y-12817672D02*
X12612081Y-12798624D01*
X12612081Y-12798624D02*
X12593033Y-12789100D01*
X12593033Y-12789100D02*
X12554938Y-12789100D01*
X12554938Y-12789100D02*
X12535891Y-12798624D01*
X12621605Y-12912910D02*
X12602557Y-12922434D01*
X12602557Y-12922434D02*
X12554938Y-12922434D01*
X12554938Y-12922434D02*
X12535891Y-12912910D01*
X12535891Y-12912910D02*
X12526367Y-12893862D01*
X12526367Y-12893862D02*
X12526367Y-12874815D01*
X12526367Y-12874815D02*
X12535891Y-12855767D01*
X12535891Y-12855767D02*
X12554938Y-12846243D01*
X12554938Y-12846243D02*
X12602557Y-12846243D01*
X12602557Y-12846243D02*
X12621605Y-12836719D01*
X12716843Y-12789100D02*
X12716843Y-12989100D01*
X12716843Y-12798624D02*
X12735891Y-12789100D01*
X12735891Y-12789100D02*
X12773986Y-12789100D01*
X12773986Y-12789100D02*
X12793033Y-12798624D01*
X12793033Y-12798624D02*
X12802557Y-12808148D01*
X12802557Y-12808148D02*
X12812081Y-12827196D01*
X12812081Y-12827196D02*
X12812081Y-12884338D01*
X12812081Y-12884338D02*
X12802557Y-12903386D01*
X12802557Y-12903386D02*
X12793033Y-12912910D01*
X12793033Y-12912910D02*
X12773986Y-12922434D01*
X12773986Y-12922434D02*
X12735891Y-12922434D01*
X12735891Y-12922434D02*
X12716843Y-12912910D01*
X12897795Y-12903386D02*
X12907319Y-12912910D01*
X12907319Y-12912910D02*
X12897795Y-12922434D01*
X12897795Y-12922434D02*
X12888272Y-12912910D01*
X12888272Y-12912910D02*
X12897795Y-12903386D01*
X12897795Y-12903386D02*
X12897795Y-12922434D01*
X12897795Y-12798624D02*
X12907319Y-12808148D01*
X12907319Y-12808148D02*
X12897795Y-12817672D01*
X12897795Y-12817672D02*
X12888272Y-12808148D01*
X12888272Y-12808148D02*
X12897795Y-12798624D01*
X12897795Y-12798624D02*
X12897795Y-12817672D01*
D12*
X11235590Y-13235950D02*
X11265590Y-13265950D01*
X11265590Y-13235950D02*
X11235590Y-13265950D01*
D11*
X11564462Y-13142434D02*
X11583510Y-13142434D01*
X11583510Y-13142434D02*
X11602557Y-13151958D01*
X11602557Y-13151958D02*
X11612081Y-13161481D01*
X11612081Y-13161481D02*
X11621605Y-13180529D01*
X11621605Y-13180529D02*
X11631129Y-13218624D01*
X11631129Y-13218624D02*
X11631129Y-13266243D01*
X11631129Y-13266243D02*
X11621605Y-13304338D01*
X11621605Y-13304338D02*
X11612081Y-13323386D01*
X11612081Y-13323386D02*
X11602557Y-13332910D01*
X11602557Y-13332910D02*
X11583510Y-13342434D01*
X11583510Y-13342434D02*
X11564462Y-13342434D01*
X11564462Y-13342434D02*
X11545414Y-13332910D01*
X11545414Y-13332910D02*
X11535891Y-13323386D01*
X11535891Y-13323386D02*
X11526367Y-13304338D01*
X11526367Y-13304338D02*
X11516843Y-13266243D01*
X11516843Y-13266243D02*
X11516843Y-13218624D01*
X11516843Y-13218624D02*
X11526367Y-13180529D01*
X11526367Y-13180529D02*
X11535891Y-13161481D01*
X11535891Y-13161481D02*
X11545414Y-13151958D01*
X11545414Y-13151958D02*
X11564462Y-13142434D01*
X11716843Y-13323386D02*
X11726367Y-13332910D01*
X11726367Y-13332910D02*
X11716843Y-13342434D01*
X11716843Y-13342434D02*
X11707319Y-13332910D01*
X11707319Y-13332910D02*
X11716843Y-13323386D01*
X11716843Y-13323386D02*
X11716843Y-13342434D01*
X11793033Y-13142434D02*
X11916843Y-13142434D01*
X11916843Y-13142434D02*
X11850176Y-13218624D01*
X11850176Y-13218624D02*
X11878748Y-13218624D01*
X11878748Y-13218624D02*
X11897795Y-13228148D01*
X11897795Y-13228148D02*
X11907319Y-13237672D01*
X11907319Y-13237672D02*
X11916843Y-13256719D01*
X11916843Y-13256719D02*
X11916843Y-13304338D01*
X11916843Y-13304338D02*
X11907319Y-13323386D01*
X11907319Y-13323386D02*
X11897795Y-13332910D01*
X11897795Y-13332910D02*
X11878748Y-13342434D01*
X11878748Y-13342434D02*
X11821605Y-13342434D01*
X11821605Y-13342434D02*
X11802557Y-13332910D01*
X11802557Y-13332910D02*
X11793033Y-13323386D01*
X12040652Y-13142434D02*
X12059700Y-13142434D01*
X12059700Y-13142434D02*
X12078748Y-13151958D01*
X12078748Y-13151958D02*
X12088272Y-13161481D01*
X12088272Y-13161481D02*
X12097795Y-13180529D01*
X12097795Y-13180529D02*
X12107319Y-13218624D01*
X12107319Y-13218624D02*
X12107319Y-13266243D01*
X12107319Y-13266243D02*
X12097795Y-13304338D01*
X12097795Y-13304338D02*
X12088272Y-13323386D01*
X12088272Y-13323386D02*
X12078748Y-13332910D01*
X12078748Y-13332910D02*
X12059700Y-13342434D01*
X12059700Y-13342434D02*
X12040652Y-13342434D01*
X12040652Y-13342434D02*
X12021605Y-13332910D01*
X12021605Y-13332910D02*
X12012081Y-13323386D01*
X12012081Y-13323386D02*
X12002557Y-13304338D01*
X12002557Y-13304338D02*
X11993033Y-13266243D01*
X11993033Y-13266243D02*
X11993033Y-13218624D01*
X11993033Y-13218624D02*
X12002557Y-13180529D01*
X12002557Y-13180529D02*
X12012081Y-13161481D01*
X12012081Y-13161481D02*
X12021605Y-13151958D01*
X12021605Y-13151958D02*
X12040652Y-13142434D01*
X12231129Y-13142434D02*
X12250176Y-13142434D01*
X12250176Y-13142434D02*
X12269224Y-13151958D01*
X12269224Y-13151958D02*
X12278748Y-13161481D01*
X12278748Y-13161481D02*
X12288272Y-13180529D01*
X12288272Y-13180529D02*
X12297795Y-13218624D01*
X12297795Y-13218624D02*
X12297795Y-13266243D01*
X12297795Y-13266243D02*
X12288272Y-13304338D01*
X12288272Y-13304338D02*
X12278748Y-13323386D01*
X12278748Y-13323386D02*
X12269224Y-13332910D01*
X12269224Y-13332910D02*
X12250176Y-13342434D01*
X12250176Y-13342434D02*
X12231129Y-13342434D01*
X12231129Y-13342434D02*
X12212081Y-13332910D01*
X12212081Y-13332910D02*
X12202557Y-13323386D01*
X12202557Y-13323386D02*
X12193033Y-13304338D01*
X12193033Y-13304338D02*
X12183510Y-13266243D01*
X12183510Y-13266243D02*
X12183510Y-13218624D01*
X12183510Y-13218624D02*
X12193033Y-13180529D01*
X12193033Y-13180529D02*
X12202557Y-13161481D01*
X12202557Y-13161481D02*
X12212081Y-13151958D01*
X12212081Y-13151958D02*
X12231129Y-13142434D01*
X12383510Y-13342434D02*
X12383510Y-13209100D01*
X12383510Y-13228148D02*
X12393033Y-13218624D01*
X12393033Y-13218624D02*
X12412081Y-13209100D01*
X12412081Y-13209100D02*
X12440653Y-13209100D01*
X12440653Y-13209100D02*
X12459700Y-13218624D01*
X12459700Y-13218624D02*
X12469224Y-13237672D01*
X12469224Y-13237672D02*
X12469224Y-13342434D01*
X12469224Y-13237672D02*
X12478748Y-13218624D01*
X12478748Y-13218624D02*
X12497795Y-13209100D01*
X12497795Y-13209100D02*
X12526367Y-13209100D01*
X12526367Y-13209100D02*
X12545414Y-13218624D01*
X12545414Y-13218624D02*
X12554938Y-13237672D01*
X12554938Y-13237672D02*
X12554938Y-13342434D01*
X12650176Y-13342434D02*
X12650176Y-13209100D01*
X12650176Y-13228148D02*
X12659700Y-13218624D01*
X12659700Y-13218624D02*
X12678748Y-13209100D01*
X12678748Y-13209100D02*
X12707319Y-13209100D01*
X12707319Y-13209100D02*
X12726367Y-13218624D01*
X12726367Y-13218624D02*
X12735891Y-13237672D01*
X12735891Y-13237672D02*
X12735891Y-13342434D01*
X12735891Y-13237672D02*
X12745414Y-13218624D01*
X12745414Y-13218624D02*
X12764462Y-13209100D01*
X12764462Y-13209100D02*
X12793033Y-13209100D01*
X12793033Y-13209100D02*
X12812081Y-13218624D01*
X12812081Y-13218624D02*
X12821605Y-13237672D01*
X12821605Y-13237672D02*
X12821605Y-13342434D01*
X13212081Y-13132910D02*
X13040653Y-13390053D01*
X13469224Y-13142434D02*
X13488272Y-13142434D01*
X13488272Y-13142434D02*
X13507319Y-13151958D01*
X13507319Y-13151958D02*
X13516843Y-13161481D01*
X13516843Y-13161481D02*
X13526367Y-13180529D01*
X13526367Y-13180529D02*
X13535891Y-13218624D01*
X13535891Y-13218624D02*
X13535891Y-13266243D01*
X13535891Y-13266243D02*
X13526367Y-13304338D01*
X13526367Y-13304338D02*
X13516843Y-13323386D01*
X13516843Y-13323386D02*
X13507319Y-13332910D01*
X13507319Y-13332910D02*
X13488272Y-13342434D01*
X13488272Y-13342434D02*
X13469224Y-13342434D01*
X13469224Y-13342434D02*
X13450176Y-13332910D01*
X13450176Y-13332910D02*
X13440653Y-13323386D01*
X13440653Y-13323386D02*
X13431129Y-13304338D01*
X13431129Y-13304338D02*
X13421605Y-13266243D01*
X13421605Y-13266243D02*
X13421605Y-13218624D01*
X13421605Y-13218624D02*
X13431129Y-13180529D01*
X13431129Y-13180529D02*
X13440653Y-13161481D01*
X13440653Y-13161481D02*
X13450176Y-13151958D01*
X13450176Y-13151958D02*
X13469224Y-13142434D01*
X13621605Y-13323386D02*
X13631129Y-13332910D01*
X13631129Y-13332910D02*
X13621605Y-13342434D01*
X13621605Y-13342434D02*
X13612081Y-13332910D01*
X13612081Y-13332910D02*
X13621605Y-13323386D01*
X13621605Y-13323386D02*
X13621605Y-13342434D01*
X13754938Y-13142434D02*
X13773986Y-13142434D01*
X13773986Y-13142434D02*
X13793034Y-13151958D01*
X13793034Y-13151958D02*
X13802557Y-13161481D01*
X13802557Y-13161481D02*
X13812081Y-13180529D01*
X13812081Y-13180529D02*
X13821605Y-13218624D01*
X13821605Y-13218624D02*
X13821605Y-13266243D01*
X13821605Y-13266243D02*
X13812081Y-13304338D01*
X13812081Y-13304338D02*
X13802557Y-13323386D01*
X13802557Y-13323386D02*
X13793034Y-13332910D01*
X13793034Y-13332910D02*
X13773986Y-13342434D01*
X13773986Y-13342434D02*
X13754938Y-13342434D01*
X13754938Y-13342434D02*
X13735891Y-13332910D01*
X13735891Y-13332910D02*
X13726367Y-13323386D01*
X13726367Y-13323386D02*
X13716843Y-13304338D01*
X13716843Y-13304338D02*
X13707319Y-13266243D01*
X13707319Y-13266243D02*
X13707319Y-13218624D01*
X13707319Y-13218624D02*
X13716843Y-13180529D01*
X13716843Y-13180529D02*
X13726367Y-13161481D01*
X13726367Y-13161481D02*
X13735891Y-13151958D01*
X13735891Y-13151958D02*
X13754938Y-13142434D01*
X14012081Y-13342434D02*
X13897796Y-13342434D01*
X13954938Y-13342434D02*
X13954938Y-13142434D01*
X13954938Y-13142434D02*
X13935891Y-13171005D01*
X13935891Y-13171005D02*
X13916843Y-13190053D01*
X13916843Y-13190053D02*
X13897796Y-13199577D01*
X14202557Y-13342434D02*
X14088272Y-13342434D01*
X14145415Y-13342434D02*
X14145415Y-13142434D01*
X14145415Y-13142434D02*
X14126367Y-13171005D01*
X14126367Y-13171005D02*
X14107319Y-13190053D01*
X14107319Y-13190053D02*
X14088272Y-13199577D01*
X14316843Y-13228148D02*
X14297796Y-13218624D01*
X14297796Y-13218624D02*
X14288272Y-13209100D01*
X14288272Y-13209100D02*
X14278748Y-13190053D01*
X14278748Y-13190053D02*
X14278748Y-13180529D01*
X14278748Y-13180529D02*
X14288272Y-13161481D01*
X14288272Y-13161481D02*
X14297796Y-13151958D01*
X14297796Y-13151958D02*
X14316843Y-13142434D01*
X14316843Y-13142434D02*
X14354938Y-13142434D01*
X14354938Y-13142434D02*
X14373986Y-13151958D01*
X14373986Y-13151958D02*
X14383510Y-13161481D01*
X14383510Y-13161481D02*
X14393034Y-13180529D01*
X14393034Y-13180529D02*
X14393034Y-13190053D01*
X14393034Y-13190053D02*
X14383510Y-13209100D01*
X14383510Y-13209100D02*
X14373986Y-13218624D01*
X14373986Y-13218624D02*
X14354938Y-13228148D01*
X14354938Y-13228148D02*
X14316843Y-13228148D01*
X14316843Y-13228148D02*
X14297796Y-13237672D01*
X14297796Y-13237672D02*
X14288272Y-13247196D01*
X14288272Y-13247196D02*
X14278748Y-13266243D01*
X14278748Y-13266243D02*
X14278748Y-13304338D01*
X14278748Y-13304338D02*
X14288272Y-13323386D01*
X14288272Y-13323386D02*
X14297796Y-13332910D01*
X14297796Y-13332910D02*
X14316843Y-13342434D01*
X14316843Y-13342434D02*
X14354938Y-13342434D01*
X14354938Y-13342434D02*
X14373986Y-13332910D01*
X14373986Y-13332910D02*
X14383510Y-13323386D01*
X14383510Y-13323386D02*
X14393034Y-13304338D01*
X14393034Y-13304338D02*
X14393034Y-13266243D01*
X14393034Y-13266243D02*
X14383510Y-13247196D01*
X14383510Y-13247196D02*
X14373986Y-13237672D01*
X14373986Y-13237672D02*
X14354938Y-13228148D01*
X14469224Y-13142434D02*
X14469224Y-13180529D01*
X14545415Y-13142434D02*
X14545415Y-13180529D01*
X14840653Y-13418624D02*
X14831129Y-13409100D01*
X14831129Y-13409100D02*
X14812081Y-13380529D01*
X14812081Y-13380529D02*
X14802558Y-13361481D01*
X14802558Y-13361481D02*
X14793034Y-13332910D01*
X14793034Y-13332910D02*
X14783510Y-13285291D01*
X14783510Y-13285291D02*
X14783510Y-13247196D01*
X14783510Y-13247196D02*
X14793034Y-13199577D01*
X14793034Y-13199577D02*
X14802558Y-13171005D01*
X14802558Y-13171005D02*
X14812081Y-13151958D01*
X14812081Y-13151958D02*
X14831129Y-13123386D01*
X14831129Y-13123386D02*
X14840653Y-13113862D01*
X15021605Y-13342434D02*
X14907319Y-13342434D01*
X14964462Y-13342434D02*
X14964462Y-13142434D01*
X14964462Y-13142434D02*
X14945415Y-13171005D01*
X14945415Y-13171005D02*
X14926367Y-13190053D01*
X14926367Y-13190053D02*
X14907319Y-13199577D01*
X15259700Y-13342434D02*
X15259700Y-13142434D01*
X15345415Y-13342434D02*
X15345415Y-13237672D01*
X15345415Y-13237672D02*
X15335891Y-13218624D01*
X15335891Y-13218624D02*
X15316843Y-13209100D01*
X15316843Y-13209100D02*
X15288272Y-13209100D01*
X15288272Y-13209100D02*
X15269224Y-13218624D01*
X15269224Y-13218624D02*
X15259700Y-13228148D01*
X15469224Y-13342434D02*
X15450177Y-13332910D01*
X15450177Y-13332910D02*
X15440653Y-13323386D01*
X15440653Y-13323386D02*
X15431129Y-13304338D01*
X15431129Y-13304338D02*
X15431129Y-13247196D01*
X15431129Y-13247196D02*
X15440653Y-13228148D01*
X15440653Y-13228148D02*
X15450177Y-13218624D01*
X15450177Y-13218624D02*
X15469224Y-13209100D01*
X15469224Y-13209100D02*
X15497796Y-13209100D01*
X15497796Y-13209100D02*
X15516843Y-13218624D01*
X15516843Y-13218624D02*
X15526367Y-13228148D01*
X15526367Y-13228148D02*
X15535891Y-13247196D01*
X15535891Y-13247196D02*
X15535891Y-13304338D01*
X15535891Y-13304338D02*
X15526367Y-13323386D01*
X15526367Y-13323386D02*
X15516843Y-13332910D01*
X15516843Y-13332910D02*
X15497796Y-13342434D01*
X15497796Y-13342434D02*
X15469224Y-13342434D01*
X15650177Y-13342434D02*
X15631129Y-13332910D01*
X15631129Y-13332910D02*
X15621605Y-13313862D01*
X15621605Y-13313862D02*
X15621605Y-13142434D01*
X15802558Y-13332910D02*
X15783510Y-13342434D01*
X15783510Y-13342434D02*
X15745415Y-13342434D01*
X15745415Y-13342434D02*
X15726367Y-13332910D01*
X15726367Y-13332910D02*
X15716843Y-13313862D01*
X15716843Y-13313862D02*
X15716843Y-13237672D01*
X15716843Y-13237672D02*
X15726367Y-13218624D01*
X15726367Y-13218624D02*
X15745415Y-13209100D01*
X15745415Y-13209100D02*
X15783510Y-13209100D01*
X15783510Y-13209100D02*
X15802558Y-13218624D01*
X15802558Y-13218624D02*
X15812081Y-13237672D01*
X15812081Y-13237672D02*
X15812081Y-13256719D01*
X15812081Y-13256719D02*
X15716843Y-13275767D01*
X15878748Y-13418624D02*
X15888272Y-13409100D01*
X15888272Y-13409100D02*
X15907320Y-13380529D01*
X15907320Y-13380529D02*
X15916843Y-13361481D01*
X15916843Y-13361481D02*
X15926367Y-13332910D01*
X15926367Y-13332910D02*
X15935891Y-13285291D01*
X15935891Y-13285291D02*
X15935891Y-13247196D01*
X15935891Y-13247196D02*
X15926367Y-13199577D01*
X15926367Y-13199577D02*
X15916843Y-13171005D01*
X15916843Y-13171005D02*
X15907320Y-13151958D01*
X15907320Y-13151958D02*
X15888272Y-13123386D01*
X15888272Y-13123386D02*
X15878748Y-13113862D01*
D12*
X11265590Y-13514950D02*
G75*
G02*
X11230590Y-13514950I-17500J0D01*
G01*
X11230590Y-13514950D02*
G75*
G02*
X11265590Y-13514950I17500J0D01*
G01*
D11*
X11564462Y-13406434D02*
X11583510Y-13406434D01*
X11583510Y-13406434D02*
X11602557Y-13415958D01*
X11602557Y-13415958D02*
X11612081Y-13425481D01*
X11612081Y-13425481D02*
X11621605Y-13444529D01*
X11621605Y-13444529D02*
X11631129Y-13482624D01*
X11631129Y-13482624D02*
X11631129Y-13530243D01*
X11631129Y-13530243D02*
X11621605Y-13568338D01*
X11621605Y-13568338D02*
X11612081Y-13587386D01*
X11612081Y-13587386D02*
X11602557Y-13596910D01*
X11602557Y-13596910D02*
X11583510Y-13606434D01*
X11583510Y-13606434D02*
X11564462Y-13606434D01*
X11564462Y-13606434D02*
X11545414Y-13596910D01*
X11545414Y-13596910D02*
X11535891Y-13587386D01*
X11535891Y-13587386D02*
X11526367Y-13568338D01*
X11526367Y-13568338D02*
X11516843Y-13530243D01*
X11516843Y-13530243D02*
X11516843Y-13482624D01*
X11516843Y-13482624D02*
X11526367Y-13444529D01*
X11526367Y-13444529D02*
X11535891Y-13425481D01*
X11535891Y-13425481D02*
X11545414Y-13415958D01*
X11545414Y-13415958D02*
X11564462Y-13406434D01*
X11716843Y-13587386D02*
X11726367Y-13596910D01*
X11726367Y-13596910D02*
X11716843Y-13606434D01*
X11716843Y-13606434D02*
X11707319Y-13596910D01*
X11707319Y-13596910D02*
X11716843Y-13587386D01*
X11716843Y-13587386D02*
X11716843Y-13606434D01*
X11793033Y-13406434D02*
X11916843Y-13406434D01*
X11916843Y-13406434D02*
X11850176Y-13482624D01*
X11850176Y-13482624D02*
X11878748Y-13482624D01*
X11878748Y-13482624D02*
X11897795Y-13492148D01*
X11897795Y-13492148D02*
X11907319Y-13501672D01*
X11907319Y-13501672D02*
X11916843Y-13520719D01*
X11916843Y-13520719D02*
X11916843Y-13568338D01*
X11916843Y-13568338D02*
X11907319Y-13587386D01*
X11907319Y-13587386D02*
X11897795Y-13596910D01*
X11897795Y-13596910D02*
X11878748Y-13606434D01*
X11878748Y-13606434D02*
X11821605Y-13606434D01*
X11821605Y-13606434D02*
X11802557Y-13596910D01*
X11802557Y-13596910D02*
X11793033Y-13587386D01*
X12097795Y-13406434D02*
X12002557Y-13406434D01*
X12002557Y-13406434D02*
X11993033Y-13501672D01*
X11993033Y-13501672D02*
X12002557Y-13492148D01*
X12002557Y-13492148D02*
X12021605Y-13482624D01*
X12021605Y-13482624D02*
X12069224Y-13482624D01*
X12069224Y-13482624D02*
X12088272Y-13492148D01*
X12088272Y-13492148D02*
X12097795Y-13501672D01*
X12097795Y-13501672D02*
X12107319Y-13520719D01*
X12107319Y-13520719D02*
X12107319Y-13568338D01*
X12107319Y-13568338D02*
X12097795Y-13587386D01*
X12097795Y-13587386D02*
X12088272Y-13596910D01*
X12088272Y-13596910D02*
X12069224Y-13606434D01*
X12069224Y-13606434D02*
X12021605Y-13606434D01*
X12021605Y-13606434D02*
X12002557Y-13596910D01*
X12002557Y-13596910D02*
X11993033Y-13587386D01*
X12231129Y-13406434D02*
X12250176Y-13406434D01*
X12250176Y-13406434D02*
X12269224Y-13415958D01*
X12269224Y-13415958D02*
X12278748Y-13425481D01*
X12278748Y-13425481D02*
X12288272Y-13444529D01*
X12288272Y-13444529D02*
X12297795Y-13482624D01*
X12297795Y-13482624D02*
X12297795Y-13530243D01*
X12297795Y-13530243D02*
X12288272Y-13568338D01*
X12288272Y-13568338D02*
X12278748Y-13587386D01*
X12278748Y-13587386D02*
X12269224Y-13596910D01*
X12269224Y-13596910D02*
X12250176Y-13606434D01*
X12250176Y-13606434D02*
X12231129Y-13606434D01*
X12231129Y-13606434D02*
X12212081Y-13596910D01*
X12212081Y-13596910D02*
X12202557Y-13587386D01*
X12202557Y-13587386D02*
X12193033Y-13568338D01*
X12193033Y-13568338D02*
X12183510Y-13530243D01*
X12183510Y-13530243D02*
X12183510Y-13482624D01*
X12183510Y-13482624D02*
X12193033Y-13444529D01*
X12193033Y-13444529D02*
X12202557Y-13425481D01*
X12202557Y-13425481D02*
X12212081Y-13415958D01*
X12212081Y-13415958D02*
X12231129Y-13406434D01*
X12383510Y-13606434D02*
X12383510Y-13473100D01*
X12383510Y-13492148D02*
X12393033Y-13482624D01*
X12393033Y-13482624D02*
X12412081Y-13473100D01*
X12412081Y-13473100D02*
X12440653Y-13473100D01*
X12440653Y-13473100D02*
X12459700Y-13482624D01*
X12459700Y-13482624D02*
X12469224Y-13501672D01*
X12469224Y-13501672D02*
X12469224Y-13606434D01*
X12469224Y-13501672D02*
X12478748Y-13482624D01*
X12478748Y-13482624D02*
X12497795Y-13473100D01*
X12497795Y-13473100D02*
X12526367Y-13473100D01*
X12526367Y-13473100D02*
X12545414Y-13482624D01*
X12545414Y-13482624D02*
X12554938Y-13501672D01*
X12554938Y-13501672D02*
X12554938Y-13606434D01*
X12650176Y-13606434D02*
X12650176Y-13473100D01*
X12650176Y-13492148D02*
X12659700Y-13482624D01*
X12659700Y-13482624D02*
X12678748Y-13473100D01*
X12678748Y-13473100D02*
X12707319Y-13473100D01*
X12707319Y-13473100D02*
X12726367Y-13482624D01*
X12726367Y-13482624D02*
X12735891Y-13501672D01*
X12735891Y-13501672D02*
X12735891Y-13606434D01*
X12735891Y-13501672D02*
X12745414Y-13482624D01*
X12745414Y-13482624D02*
X12764462Y-13473100D01*
X12764462Y-13473100D02*
X12793033Y-13473100D01*
X12793033Y-13473100D02*
X12812081Y-13482624D01*
X12812081Y-13482624D02*
X12821605Y-13501672D01*
X12821605Y-13501672D02*
X12821605Y-13606434D01*
X13212081Y-13396910D02*
X13040653Y-13654053D01*
X13469224Y-13406434D02*
X13488272Y-13406434D01*
X13488272Y-13406434D02*
X13507319Y-13415958D01*
X13507319Y-13415958D02*
X13516843Y-13425481D01*
X13516843Y-13425481D02*
X13526367Y-13444529D01*
X13526367Y-13444529D02*
X13535891Y-13482624D01*
X13535891Y-13482624D02*
X13535891Y-13530243D01*
X13535891Y-13530243D02*
X13526367Y-13568338D01*
X13526367Y-13568338D02*
X13516843Y-13587386D01*
X13516843Y-13587386D02*
X13507319Y-13596910D01*
X13507319Y-13596910D02*
X13488272Y-13606434D01*
X13488272Y-13606434D02*
X13469224Y-13606434D01*
X13469224Y-13606434D02*
X13450176Y-13596910D01*
X13450176Y-13596910D02*
X13440653Y-13587386D01*
X13440653Y-13587386D02*
X13431129Y-13568338D01*
X13431129Y-13568338D02*
X13421605Y-13530243D01*
X13421605Y-13530243D02*
X13421605Y-13482624D01*
X13421605Y-13482624D02*
X13431129Y-13444529D01*
X13431129Y-13444529D02*
X13440653Y-13425481D01*
X13440653Y-13425481D02*
X13450176Y-13415958D01*
X13450176Y-13415958D02*
X13469224Y-13406434D01*
X13621605Y-13587386D02*
X13631129Y-13596910D01*
X13631129Y-13596910D02*
X13621605Y-13606434D01*
X13621605Y-13606434D02*
X13612081Y-13596910D01*
X13612081Y-13596910D02*
X13621605Y-13587386D01*
X13621605Y-13587386D02*
X13621605Y-13606434D01*
X13754938Y-13406434D02*
X13773986Y-13406434D01*
X13773986Y-13406434D02*
X13793034Y-13415958D01*
X13793034Y-13415958D02*
X13802557Y-13425481D01*
X13802557Y-13425481D02*
X13812081Y-13444529D01*
X13812081Y-13444529D02*
X13821605Y-13482624D01*
X13821605Y-13482624D02*
X13821605Y-13530243D01*
X13821605Y-13530243D02*
X13812081Y-13568338D01*
X13812081Y-13568338D02*
X13802557Y-13587386D01*
X13802557Y-13587386D02*
X13793034Y-13596910D01*
X13793034Y-13596910D02*
X13773986Y-13606434D01*
X13773986Y-13606434D02*
X13754938Y-13606434D01*
X13754938Y-13606434D02*
X13735891Y-13596910D01*
X13735891Y-13596910D02*
X13726367Y-13587386D01*
X13726367Y-13587386D02*
X13716843Y-13568338D01*
X13716843Y-13568338D02*
X13707319Y-13530243D01*
X13707319Y-13530243D02*
X13707319Y-13482624D01*
X13707319Y-13482624D02*
X13716843Y-13444529D01*
X13716843Y-13444529D02*
X13726367Y-13425481D01*
X13726367Y-13425481D02*
X13735891Y-13415958D01*
X13735891Y-13415958D02*
X13754938Y-13406434D01*
X14012081Y-13606434D02*
X13897796Y-13606434D01*
X13954938Y-13606434D02*
X13954938Y-13406434D01*
X13954938Y-13406434D02*
X13935891Y-13435005D01*
X13935891Y-13435005D02*
X13916843Y-13454053D01*
X13916843Y-13454053D02*
X13897796Y-13463577D01*
X14078748Y-13406434D02*
X14202557Y-13406434D01*
X14202557Y-13406434D02*
X14135891Y-13482624D01*
X14135891Y-13482624D02*
X14164462Y-13482624D01*
X14164462Y-13482624D02*
X14183510Y-13492148D01*
X14183510Y-13492148D02*
X14193034Y-13501672D01*
X14193034Y-13501672D02*
X14202557Y-13520719D01*
X14202557Y-13520719D02*
X14202557Y-13568338D01*
X14202557Y-13568338D02*
X14193034Y-13587386D01*
X14193034Y-13587386D02*
X14183510Y-13596910D01*
X14183510Y-13596910D02*
X14164462Y-13606434D01*
X14164462Y-13606434D02*
X14107319Y-13606434D01*
X14107319Y-13606434D02*
X14088272Y-13596910D01*
X14088272Y-13596910D02*
X14078748Y-13587386D01*
X14316843Y-13492148D02*
X14297796Y-13482624D01*
X14297796Y-13482624D02*
X14288272Y-13473100D01*
X14288272Y-13473100D02*
X14278748Y-13454053D01*
X14278748Y-13454053D02*
X14278748Y-13444529D01*
X14278748Y-13444529D02*
X14288272Y-13425481D01*
X14288272Y-13425481D02*
X14297796Y-13415958D01*
X14297796Y-13415958D02*
X14316843Y-13406434D01*
X14316843Y-13406434D02*
X14354938Y-13406434D01*
X14354938Y-13406434D02*
X14373986Y-13415958D01*
X14373986Y-13415958D02*
X14383510Y-13425481D01*
X14383510Y-13425481D02*
X14393034Y-13444529D01*
X14393034Y-13444529D02*
X14393034Y-13454053D01*
X14393034Y-13454053D02*
X14383510Y-13473100D01*
X14383510Y-13473100D02*
X14373986Y-13482624D01*
X14373986Y-13482624D02*
X14354938Y-13492148D01*
X14354938Y-13492148D02*
X14316843Y-13492148D01*
X14316843Y-13492148D02*
X14297796Y-13501672D01*
X14297796Y-13501672D02*
X14288272Y-13511196D01*
X14288272Y-13511196D02*
X14278748Y-13530243D01*
X14278748Y-13530243D02*
X14278748Y-13568338D01*
X14278748Y-13568338D02*
X14288272Y-13587386D01*
X14288272Y-13587386D02*
X14297796Y-13596910D01*
X14297796Y-13596910D02*
X14316843Y-13606434D01*
X14316843Y-13606434D02*
X14354938Y-13606434D01*
X14354938Y-13606434D02*
X14373986Y-13596910D01*
X14373986Y-13596910D02*
X14383510Y-13587386D01*
X14383510Y-13587386D02*
X14393034Y-13568338D01*
X14393034Y-13568338D02*
X14393034Y-13530243D01*
X14393034Y-13530243D02*
X14383510Y-13511196D01*
X14383510Y-13511196D02*
X14373986Y-13501672D01*
X14373986Y-13501672D02*
X14354938Y-13492148D01*
X14469224Y-13406434D02*
X14469224Y-13444529D01*
X14545415Y-13406434D02*
X14545415Y-13444529D01*
X14840653Y-13682624D02*
X14831129Y-13673100D01*
X14831129Y-13673100D02*
X14812081Y-13644529D01*
X14812081Y-13644529D02*
X14802558Y-13625481D01*
X14802558Y-13625481D02*
X14793034Y-13596910D01*
X14793034Y-13596910D02*
X14783510Y-13549291D01*
X14783510Y-13549291D02*
X14783510Y-13511196D01*
X14783510Y-13511196D02*
X14793034Y-13463577D01*
X14793034Y-13463577D02*
X14802558Y-13435005D01*
X14802558Y-13435005D02*
X14812081Y-13415958D01*
X14812081Y-13415958D02*
X14831129Y-13387386D01*
X14831129Y-13387386D02*
X14840653Y-13377862D01*
X14926367Y-13606434D02*
X14964462Y-13606434D01*
X14964462Y-13606434D02*
X14983510Y-13596910D01*
X14983510Y-13596910D02*
X14993034Y-13587386D01*
X14993034Y-13587386D02*
X15012081Y-13558815D01*
X15012081Y-13558815D02*
X15021605Y-13520719D01*
X15021605Y-13520719D02*
X15021605Y-13444529D01*
X15021605Y-13444529D02*
X15012081Y-13425481D01*
X15012081Y-13425481D02*
X15002558Y-13415958D01*
X15002558Y-13415958D02*
X14983510Y-13406434D01*
X14983510Y-13406434D02*
X14945415Y-13406434D01*
X14945415Y-13406434D02*
X14926367Y-13415958D01*
X14926367Y-13415958D02*
X14916843Y-13425481D01*
X14916843Y-13425481D02*
X14907319Y-13444529D01*
X14907319Y-13444529D02*
X14907319Y-13492148D01*
X14907319Y-13492148D02*
X14916843Y-13511196D01*
X14916843Y-13511196D02*
X14926367Y-13520719D01*
X14926367Y-13520719D02*
X14945415Y-13530243D01*
X14945415Y-13530243D02*
X14983510Y-13530243D01*
X14983510Y-13530243D02*
X15002558Y-13520719D01*
X15002558Y-13520719D02*
X15012081Y-13511196D01*
X15012081Y-13511196D02*
X15021605Y-13492148D01*
X15212081Y-13606434D02*
X15097796Y-13606434D01*
X15154938Y-13606434D02*
X15154938Y-13406434D01*
X15154938Y-13406434D02*
X15135891Y-13435005D01*
X15135891Y-13435005D02*
X15116843Y-13454053D01*
X15116843Y-13454053D02*
X15097796Y-13463577D01*
X15450177Y-13606434D02*
X15450177Y-13406434D01*
X15535891Y-13606434D02*
X15535891Y-13501672D01*
X15535891Y-13501672D02*
X15526367Y-13482624D01*
X15526367Y-13482624D02*
X15507320Y-13473100D01*
X15507320Y-13473100D02*
X15478748Y-13473100D01*
X15478748Y-13473100D02*
X15459700Y-13482624D01*
X15459700Y-13482624D02*
X15450177Y-13492148D01*
X15659700Y-13606434D02*
X15640653Y-13596910D01*
X15640653Y-13596910D02*
X15631129Y-13587386D01*
X15631129Y-13587386D02*
X15621605Y-13568338D01*
X15621605Y-13568338D02*
X15621605Y-13511196D01*
X15621605Y-13511196D02*
X15631129Y-13492148D01*
X15631129Y-13492148D02*
X15640653Y-13482624D01*
X15640653Y-13482624D02*
X15659700Y-13473100D01*
X15659700Y-13473100D02*
X15688272Y-13473100D01*
X15688272Y-13473100D02*
X15707320Y-13482624D01*
X15707320Y-13482624D02*
X15716843Y-13492148D01*
X15716843Y-13492148D02*
X15726367Y-13511196D01*
X15726367Y-13511196D02*
X15726367Y-13568338D01*
X15726367Y-13568338D02*
X15716843Y-13587386D01*
X15716843Y-13587386D02*
X15707320Y-13596910D01*
X15707320Y-13596910D02*
X15688272Y-13606434D01*
X15688272Y-13606434D02*
X15659700Y-13606434D01*
X15840653Y-13606434D02*
X15821605Y-13596910D01*
X15821605Y-13596910D02*
X15812081Y-13577862D01*
X15812081Y-13577862D02*
X15812081Y-13406434D01*
X15993034Y-13596910D02*
X15973986Y-13606434D01*
X15973986Y-13606434D02*
X15935891Y-13606434D01*
X15935891Y-13606434D02*
X15916843Y-13596910D01*
X15916843Y-13596910D02*
X15907320Y-13577862D01*
X15907320Y-13577862D02*
X15907320Y-13501672D01*
X15907320Y-13501672D02*
X15916843Y-13482624D01*
X15916843Y-13482624D02*
X15935891Y-13473100D01*
X15935891Y-13473100D02*
X15973986Y-13473100D01*
X15973986Y-13473100D02*
X15993034Y-13482624D01*
X15993034Y-13482624D02*
X16002558Y-13501672D01*
X16002558Y-13501672D02*
X16002558Y-13520719D01*
X16002558Y-13520719D02*
X15907320Y-13539767D01*
X16078748Y-13596910D02*
X16097796Y-13606434D01*
X16097796Y-13606434D02*
X16135891Y-13606434D01*
X16135891Y-13606434D02*
X16154939Y-13596910D01*
X16154939Y-13596910D02*
X16164462Y-13577862D01*
X16164462Y-13577862D02*
X16164462Y-13568338D01*
X16164462Y-13568338D02*
X16154939Y-13549291D01*
X16154939Y-13549291D02*
X16135891Y-13539767D01*
X16135891Y-13539767D02*
X16107320Y-13539767D01*
X16107320Y-13539767D02*
X16088272Y-13530243D01*
X16088272Y-13530243D02*
X16078748Y-13511196D01*
X16078748Y-13511196D02*
X16078748Y-13501672D01*
X16078748Y-13501672D02*
X16088272Y-13482624D01*
X16088272Y-13482624D02*
X16107320Y-13473100D01*
X16107320Y-13473100D02*
X16135891Y-13473100D01*
X16135891Y-13473100D02*
X16154939Y-13482624D01*
X16231129Y-13682624D02*
X16240653Y-13673100D01*
X16240653Y-13673100D02*
X16259701Y-13644529D01*
X16259701Y-13644529D02*
X16269224Y-13625481D01*
X16269224Y-13625481D02*
X16278748Y-13596910D01*
X16278748Y-13596910D02*
X16288272Y-13549291D01*
X16288272Y-13549291D02*
X16288272Y-13511196D01*
X16288272Y-13511196D02*
X16278748Y-13463577D01*
X16278748Y-13463577D02*
X16269224Y-13435005D01*
X16269224Y-13435005D02*
X16259701Y-13415958D01*
X16259701Y-13415958D02*
X16240653Y-13387386D01*
X16240653Y-13387386D02*
X16231129Y-13377862D01*
D12*
X11240590Y-13753950D02*
X11240590Y-13803950D01*
X11215590Y-13778950D02*
X11265590Y-13778950D01*
D11*
X11564462Y-13670434D02*
X11583510Y-13670434D01*
X11583510Y-13670434D02*
X11602557Y-13679958D01*
X11602557Y-13679958D02*
X11612081Y-13689481D01*
X11612081Y-13689481D02*
X11621605Y-13708529D01*
X11621605Y-13708529D02*
X11631129Y-13746624D01*
X11631129Y-13746624D02*
X11631129Y-13794243D01*
X11631129Y-13794243D02*
X11621605Y-13832338D01*
X11621605Y-13832338D02*
X11612081Y-13851386D01*
X11612081Y-13851386D02*
X11602557Y-13860910D01*
X11602557Y-13860910D02*
X11583510Y-13870434D01*
X11583510Y-13870434D02*
X11564462Y-13870434D01*
X11564462Y-13870434D02*
X11545414Y-13860910D01*
X11545414Y-13860910D02*
X11535891Y-13851386D01*
X11535891Y-13851386D02*
X11526367Y-13832338D01*
X11526367Y-13832338D02*
X11516843Y-13794243D01*
X11516843Y-13794243D02*
X11516843Y-13746624D01*
X11516843Y-13746624D02*
X11526367Y-13708529D01*
X11526367Y-13708529D02*
X11535891Y-13689481D01*
X11535891Y-13689481D02*
X11545414Y-13679958D01*
X11545414Y-13679958D02*
X11564462Y-13670434D01*
X11716843Y-13851386D02*
X11726367Y-13860910D01*
X11726367Y-13860910D02*
X11716843Y-13870434D01*
X11716843Y-13870434D02*
X11707319Y-13860910D01*
X11707319Y-13860910D02*
X11716843Y-13851386D01*
X11716843Y-13851386D02*
X11716843Y-13870434D01*
X11907319Y-13670434D02*
X11812081Y-13670434D01*
X11812081Y-13670434D02*
X11802557Y-13765672D01*
X11802557Y-13765672D02*
X11812081Y-13756148D01*
X11812081Y-13756148D02*
X11831129Y-13746624D01*
X11831129Y-13746624D02*
X11878748Y-13746624D01*
X11878748Y-13746624D02*
X11897795Y-13756148D01*
X11897795Y-13756148D02*
X11907319Y-13765672D01*
X11907319Y-13765672D02*
X11916843Y-13784719D01*
X11916843Y-13784719D02*
X11916843Y-13832338D01*
X11916843Y-13832338D02*
X11907319Y-13851386D01*
X11907319Y-13851386D02*
X11897795Y-13860910D01*
X11897795Y-13860910D02*
X11878748Y-13870434D01*
X11878748Y-13870434D02*
X11831129Y-13870434D01*
X11831129Y-13870434D02*
X11812081Y-13860910D01*
X11812081Y-13860910D02*
X11802557Y-13851386D01*
X12040652Y-13670434D02*
X12059700Y-13670434D01*
X12059700Y-13670434D02*
X12078748Y-13679958D01*
X12078748Y-13679958D02*
X12088272Y-13689481D01*
X12088272Y-13689481D02*
X12097795Y-13708529D01*
X12097795Y-13708529D02*
X12107319Y-13746624D01*
X12107319Y-13746624D02*
X12107319Y-13794243D01*
X12107319Y-13794243D02*
X12097795Y-13832338D01*
X12097795Y-13832338D02*
X12088272Y-13851386D01*
X12088272Y-13851386D02*
X12078748Y-13860910D01*
X12078748Y-13860910D02*
X12059700Y-13870434D01*
X12059700Y-13870434D02*
X12040652Y-13870434D01*
X12040652Y-13870434D02*
X12021605Y-13860910D01*
X12021605Y-13860910D02*
X12012081Y-13851386D01*
X12012081Y-13851386D02*
X12002557Y-13832338D01*
X12002557Y-13832338D02*
X11993033Y-13794243D01*
X11993033Y-13794243D02*
X11993033Y-13746624D01*
X11993033Y-13746624D02*
X12002557Y-13708529D01*
X12002557Y-13708529D02*
X12012081Y-13689481D01*
X12012081Y-13689481D02*
X12021605Y-13679958D01*
X12021605Y-13679958D02*
X12040652Y-13670434D01*
X12231129Y-13670434D02*
X12250176Y-13670434D01*
X12250176Y-13670434D02*
X12269224Y-13679958D01*
X12269224Y-13679958D02*
X12278748Y-13689481D01*
X12278748Y-13689481D02*
X12288272Y-13708529D01*
X12288272Y-13708529D02*
X12297795Y-13746624D01*
X12297795Y-13746624D02*
X12297795Y-13794243D01*
X12297795Y-13794243D02*
X12288272Y-13832338D01*
X12288272Y-13832338D02*
X12278748Y-13851386D01*
X12278748Y-13851386D02*
X12269224Y-13860910D01*
X12269224Y-13860910D02*
X12250176Y-13870434D01*
X12250176Y-13870434D02*
X12231129Y-13870434D01*
X12231129Y-13870434D02*
X12212081Y-13860910D01*
X12212081Y-13860910D02*
X12202557Y-13851386D01*
X12202557Y-13851386D02*
X12193033Y-13832338D01*
X12193033Y-13832338D02*
X12183510Y-13794243D01*
X12183510Y-13794243D02*
X12183510Y-13746624D01*
X12183510Y-13746624D02*
X12193033Y-13708529D01*
X12193033Y-13708529D02*
X12202557Y-13689481D01*
X12202557Y-13689481D02*
X12212081Y-13679958D01*
X12212081Y-13679958D02*
X12231129Y-13670434D01*
X12383510Y-13870434D02*
X12383510Y-13737100D01*
X12383510Y-13756148D02*
X12393033Y-13746624D01*
X12393033Y-13746624D02*
X12412081Y-13737100D01*
X12412081Y-13737100D02*
X12440653Y-13737100D01*
X12440653Y-13737100D02*
X12459700Y-13746624D01*
X12459700Y-13746624D02*
X12469224Y-13765672D01*
X12469224Y-13765672D02*
X12469224Y-13870434D01*
X12469224Y-13765672D02*
X12478748Y-13746624D01*
X12478748Y-13746624D02*
X12497795Y-13737100D01*
X12497795Y-13737100D02*
X12526367Y-13737100D01*
X12526367Y-13737100D02*
X12545414Y-13746624D01*
X12545414Y-13746624D02*
X12554938Y-13765672D01*
X12554938Y-13765672D02*
X12554938Y-13870434D01*
X12650176Y-13870434D02*
X12650176Y-13737100D01*
X12650176Y-13756148D02*
X12659700Y-13746624D01*
X12659700Y-13746624D02*
X12678748Y-13737100D01*
X12678748Y-13737100D02*
X12707319Y-13737100D01*
X12707319Y-13737100D02*
X12726367Y-13746624D01*
X12726367Y-13746624D02*
X12735891Y-13765672D01*
X12735891Y-13765672D02*
X12735891Y-13870434D01*
X12735891Y-13765672D02*
X12745414Y-13746624D01*
X12745414Y-13746624D02*
X12764462Y-13737100D01*
X12764462Y-13737100D02*
X12793033Y-13737100D01*
X12793033Y-13737100D02*
X12812081Y-13746624D01*
X12812081Y-13746624D02*
X12821605Y-13765672D01*
X12821605Y-13765672D02*
X12821605Y-13870434D01*
X13212081Y-13660910D02*
X13040653Y-13918053D01*
X13469224Y-13670434D02*
X13488272Y-13670434D01*
X13488272Y-13670434D02*
X13507319Y-13679958D01*
X13507319Y-13679958D02*
X13516843Y-13689481D01*
X13516843Y-13689481D02*
X13526367Y-13708529D01*
X13526367Y-13708529D02*
X13535891Y-13746624D01*
X13535891Y-13746624D02*
X13535891Y-13794243D01*
X13535891Y-13794243D02*
X13526367Y-13832338D01*
X13526367Y-13832338D02*
X13516843Y-13851386D01*
X13516843Y-13851386D02*
X13507319Y-13860910D01*
X13507319Y-13860910D02*
X13488272Y-13870434D01*
X13488272Y-13870434D02*
X13469224Y-13870434D01*
X13469224Y-13870434D02*
X13450176Y-13860910D01*
X13450176Y-13860910D02*
X13440653Y-13851386D01*
X13440653Y-13851386D02*
X13431129Y-13832338D01*
X13431129Y-13832338D02*
X13421605Y-13794243D01*
X13421605Y-13794243D02*
X13421605Y-13746624D01*
X13421605Y-13746624D02*
X13431129Y-13708529D01*
X13431129Y-13708529D02*
X13440653Y-13689481D01*
X13440653Y-13689481D02*
X13450176Y-13679958D01*
X13450176Y-13679958D02*
X13469224Y-13670434D01*
X13621605Y-13851386D02*
X13631129Y-13860910D01*
X13631129Y-13860910D02*
X13621605Y-13870434D01*
X13621605Y-13870434D02*
X13612081Y-13860910D01*
X13612081Y-13860910D02*
X13621605Y-13851386D01*
X13621605Y-13851386D02*
X13621605Y-13870434D01*
X13754938Y-13670434D02*
X13773986Y-13670434D01*
X13773986Y-13670434D02*
X13793034Y-13679958D01*
X13793034Y-13679958D02*
X13802557Y-13689481D01*
X13802557Y-13689481D02*
X13812081Y-13708529D01*
X13812081Y-13708529D02*
X13821605Y-13746624D01*
X13821605Y-13746624D02*
X13821605Y-13794243D01*
X13821605Y-13794243D02*
X13812081Y-13832338D01*
X13812081Y-13832338D02*
X13802557Y-13851386D01*
X13802557Y-13851386D02*
X13793034Y-13860910D01*
X13793034Y-13860910D02*
X13773986Y-13870434D01*
X13773986Y-13870434D02*
X13754938Y-13870434D01*
X13754938Y-13870434D02*
X13735891Y-13860910D01*
X13735891Y-13860910D02*
X13726367Y-13851386D01*
X13726367Y-13851386D02*
X13716843Y-13832338D01*
X13716843Y-13832338D02*
X13707319Y-13794243D01*
X13707319Y-13794243D02*
X13707319Y-13746624D01*
X13707319Y-13746624D02*
X13716843Y-13708529D01*
X13716843Y-13708529D02*
X13726367Y-13689481D01*
X13726367Y-13689481D02*
X13735891Y-13679958D01*
X13735891Y-13679958D02*
X13754938Y-13670434D01*
X14012081Y-13870434D02*
X13897796Y-13870434D01*
X13954938Y-13870434D02*
X13954938Y-13670434D01*
X13954938Y-13670434D02*
X13935891Y-13699005D01*
X13935891Y-13699005D02*
X13916843Y-13718053D01*
X13916843Y-13718053D02*
X13897796Y-13727577D01*
X14107319Y-13870434D02*
X14145415Y-13870434D01*
X14145415Y-13870434D02*
X14164462Y-13860910D01*
X14164462Y-13860910D02*
X14173986Y-13851386D01*
X14173986Y-13851386D02*
X14193034Y-13822815D01*
X14193034Y-13822815D02*
X14202557Y-13784719D01*
X14202557Y-13784719D02*
X14202557Y-13708529D01*
X14202557Y-13708529D02*
X14193034Y-13689481D01*
X14193034Y-13689481D02*
X14183510Y-13679958D01*
X14183510Y-13679958D02*
X14164462Y-13670434D01*
X14164462Y-13670434D02*
X14126367Y-13670434D01*
X14126367Y-13670434D02*
X14107319Y-13679958D01*
X14107319Y-13679958D02*
X14097796Y-13689481D01*
X14097796Y-13689481D02*
X14088272Y-13708529D01*
X14088272Y-13708529D02*
X14088272Y-13756148D01*
X14088272Y-13756148D02*
X14097796Y-13775196D01*
X14097796Y-13775196D02*
X14107319Y-13784719D01*
X14107319Y-13784719D02*
X14126367Y-13794243D01*
X14126367Y-13794243D02*
X14164462Y-13794243D01*
X14164462Y-13794243D02*
X14183510Y-13784719D01*
X14183510Y-13784719D02*
X14193034Y-13775196D01*
X14193034Y-13775196D02*
X14202557Y-13756148D01*
X14269224Y-13670434D02*
X14402557Y-13670434D01*
X14402557Y-13670434D02*
X14316843Y-13870434D01*
X14469224Y-13670434D02*
X14469224Y-13708529D01*
X14545415Y-13670434D02*
X14545415Y-13708529D01*
X14840653Y-13946624D02*
X14831129Y-13937100D01*
X14831129Y-13937100D02*
X14812081Y-13908529D01*
X14812081Y-13908529D02*
X14802558Y-13889481D01*
X14802558Y-13889481D02*
X14793034Y-13860910D01*
X14793034Y-13860910D02*
X14783510Y-13813291D01*
X14783510Y-13813291D02*
X14783510Y-13775196D01*
X14783510Y-13775196D02*
X14793034Y-13727577D01*
X14793034Y-13727577D02*
X14802558Y-13699005D01*
X14802558Y-13699005D02*
X14812081Y-13679958D01*
X14812081Y-13679958D02*
X14831129Y-13651386D01*
X14831129Y-13651386D02*
X14840653Y-13641862D01*
X14907319Y-13689481D02*
X14916843Y-13679958D01*
X14916843Y-13679958D02*
X14935891Y-13670434D01*
X14935891Y-13670434D02*
X14983510Y-13670434D01*
X14983510Y-13670434D02*
X15002558Y-13679958D01*
X15002558Y-13679958D02*
X15012081Y-13689481D01*
X15012081Y-13689481D02*
X15021605Y-13708529D01*
X15021605Y-13708529D02*
X15021605Y-13727577D01*
X15021605Y-13727577D02*
X15012081Y-13756148D01*
X15012081Y-13756148D02*
X14897796Y-13870434D01*
X14897796Y-13870434D02*
X15021605Y-13870434D01*
X15193034Y-13670434D02*
X15154938Y-13670434D01*
X15154938Y-13670434D02*
X15135891Y-13679958D01*
X15135891Y-13679958D02*
X15126367Y-13689481D01*
X15126367Y-13689481D02*
X15107319Y-13718053D01*
X15107319Y-13718053D02*
X15097796Y-13756148D01*
X15097796Y-13756148D02*
X15097796Y-13832338D01*
X15097796Y-13832338D02*
X15107319Y-13851386D01*
X15107319Y-13851386D02*
X15116843Y-13860910D01*
X15116843Y-13860910D02*
X15135891Y-13870434D01*
X15135891Y-13870434D02*
X15173986Y-13870434D01*
X15173986Y-13870434D02*
X15193034Y-13860910D01*
X15193034Y-13860910D02*
X15202558Y-13851386D01*
X15202558Y-13851386D02*
X15212081Y-13832338D01*
X15212081Y-13832338D02*
X15212081Y-13784719D01*
X15212081Y-13784719D02*
X15202558Y-13765672D01*
X15202558Y-13765672D02*
X15193034Y-13756148D01*
X15193034Y-13756148D02*
X15173986Y-13746624D01*
X15173986Y-13746624D02*
X15135891Y-13746624D01*
X15135891Y-13746624D02*
X15116843Y-13756148D01*
X15116843Y-13756148D02*
X15107319Y-13765672D01*
X15107319Y-13765672D02*
X15097796Y-13784719D01*
X15450177Y-13870434D02*
X15450177Y-13670434D01*
X15535891Y-13870434D02*
X15535891Y-13765672D01*
X15535891Y-13765672D02*
X15526367Y-13746624D01*
X15526367Y-13746624D02*
X15507320Y-13737100D01*
X15507320Y-13737100D02*
X15478748Y-13737100D01*
X15478748Y-13737100D02*
X15459700Y-13746624D01*
X15459700Y-13746624D02*
X15450177Y-13756148D01*
X15659700Y-13870434D02*
X15640653Y-13860910D01*
X15640653Y-13860910D02*
X15631129Y-13851386D01*
X15631129Y-13851386D02*
X15621605Y-13832338D01*
X15621605Y-13832338D02*
X15621605Y-13775196D01*
X15621605Y-13775196D02*
X15631129Y-13756148D01*
X15631129Y-13756148D02*
X15640653Y-13746624D01*
X15640653Y-13746624D02*
X15659700Y-13737100D01*
X15659700Y-13737100D02*
X15688272Y-13737100D01*
X15688272Y-13737100D02*
X15707320Y-13746624D01*
X15707320Y-13746624D02*
X15716843Y-13756148D01*
X15716843Y-13756148D02*
X15726367Y-13775196D01*
X15726367Y-13775196D02*
X15726367Y-13832338D01*
X15726367Y-13832338D02*
X15716843Y-13851386D01*
X15716843Y-13851386D02*
X15707320Y-13860910D01*
X15707320Y-13860910D02*
X15688272Y-13870434D01*
X15688272Y-13870434D02*
X15659700Y-13870434D01*
X15840653Y-13870434D02*
X15821605Y-13860910D01*
X15821605Y-13860910D02*
X15812081Y-13841862D01*
X15812081Y-13841862D02*
X15812081Y-13670434D01*
X15993034Y-13860910D02*
X15973986Y-13870434D01*
X15973986Y-13870434D02*
X15935891Y-13870434D01*
X15935891Y-13870434D02*
X15916843Y-13860910D01*
X15916843Y-13860910D02*
X15907320Y-13841862D01*
X15907320Y-13841862D02*
X15907320Y-13765672D01*
X15907320Y-13765672D02*
X15916843Y-13746624D01*
X15916843Y-13746624D02*
X15935891Y-13737100D01*
X15935891Y-13737100D02*
X15973986Y-13737100D01*
X15973986Y-13737100D02*
X15993034Y-13746624D01*
X15993034Y-13746624D02*
X16002558Y-13765672D01*
X16002558Y-13765672D02*
X16002558Y-13784719D01*
X16002558Y-13784719D02*
X15907320Y-13803767D01*
X16078748Y-13860910D02*
X16097796Y-13870434D01*
X16097796Y-13870434D02*
X16135891Y-13870434D01*
X16135891Y-13870434D02*
X16154939Y-13860910D01*
X16154939Y-13860910D02*
X16164462Y-13841862D01*
X16164462Y-13841862D02*
X16164462Y-13832338D01*
X16164462Y-13832338D02*
X16154939Y-13813291D01*
X16154939Y-13813291D02*
X16135891Y-13803767D01*
X16135891Y-13803767D02*
X16107320Y-13803767D01*
X16107320Y-13803767D02*
X16088272Y-13794243D01*
X16088272Y-13794243D02*
X16078748Y-13775196D01*
X16078748Y-13775196D02*
X16078748Y-13765672D01*
X16078748Y-13765672D02*
X16088272Y-13746624D01*
X16088272Y-13746624D02*
X16107320Y-13737100D01*
X16107320Y-13737100D02*
X16135891Y-13737100D01*
X16135891Y-13737100D02*
X16154939Y-13746624D01*
X16231129Y-13946624D02*
X16240653Y-13937100D01*
X16240653Y-13937100D02*
X16259701Y-13908529D01*
X16259701Y-13908529D02*
X16269224Y-13889481D01*
X16269224Y-13889481D02*
X16278748Y-13860910D01*
X16278748Y-13860910D02*
X16288272Y-13813291D01*
X16288272Y-13813291D02*
X16288272Y-13775196D01*
X16288272Y-13775196D02*
X16278748Y-13727577D01*
X16278748Y-13727577D02*
X16269224Y-13699005D01*
X16269224Y-13699005D02*
X16259701Y-13679958D01*
X16259701Y-13679958D02*
X16240653Y-13651386D01*
X16240653Y-13651386D02*
X16231129Y-13641862D01*
D12*
X11258268Y-14060628D02*
X11258268Y-14025272D01*
X11222912Y-14025272D01*
X11222912Y-14060628D01*
X11258268Y-14060628D01*
D11*
X11564462Y-13934434D02*
X11583510Y-13934434D01*
X11583510Y-13934434D02*
X11602557Y-13943958D01*
X11602557Y-13943958D02*
X11612081Y-13953481D01*
X11612081Y-13953481D02*
X11621605Y-13972529D01*
X11621605Y-13972529D02*
X11631129Y-14010624D01*
X11631129Y-14010624D02*
X11631129Y-14058243D01*
X11631129Y-14058243D02*
X11621605Y-14096338D01*
X11621605Y-14096338D02*
X11612081Y-14115386D01*
X11612081Y-14115386D02*
X11602557Y-14124910D01*
X11602557Y-14124910D02*
X11583510Y-14134434D01*
X11583510Y-14134434D02*
X11564462Y-14134434D01*
X11564462Y-14134434D02*
X11545414Y-14124910D01*
X11545414Y-14124910D02*
X11535891Y-14115386D01*
X11535891Y-14115386D02*
X11526367Y-14096338D01*
X11526367Y-14096338D02*
X11516843Y-14058243D01*
X11516843Y-14058243D02*
X11516843Y-14010624D01*
X11516843Y-14010624D02*
X11526367Y-13972529D01*
X11526367Y-13972529D02*
X11535891Y-13953481D01*
X11535891Y-13953481D02*
X11545414Y-13943958D01*
X11545414Y-13943958D02*
X11564462Y-13934434D01*
X11716843Y-14115386D02*
X11726367Y-14124910D01*
X11726367Y-14124910D02*
X11716843Y-14134434D01*
X11716843Y-14134434D02*
X11707319Y-14124910D01*
X11707319Y-14124910D02*
X11716843Y-14115386D01*
X11716843Y-14115386D02*
X11716843Y-14134434D01*
X11907319Y-13934434D02*
X11812081Y-13934434D01*
X11812081Y-13934434D02*
X11802557Y-14029672D01*
X11802557Y-14029672D02*
X11812081Y-14020148D01*
X11812081Y-14020148D02*
X11831129Y-14010624D01*
X11831129Y-14010624D02*
X11878748Y-14010624D01*
X11878748Y-14010624D02*
X11897795Y-14020148D01*
X11897795Y-14020148D02*
X11907319Y-14029672D01*
X11907319Y-14029672D02*
X11916843Y-14048719D01*
X11916843Y-14048719D02*
X11916843Y-14096338D01*
X11916843Y-14096338D02*
X11907319Y-14115386D01*
X11907319Y-14115386D02*
X11897795Y-14124910D01*
X11897795Y-14124910D02*
X11878748Y-14134434D01*
X11878748Y-14134434D02*
X11831129Y-14134434D01*
X11831129Y-14134434D02*
X11812081Y-14124910D01*
X11812081Y-14124910D02*
X11802557Y-14115386D01*
X12040652Y-13934434D02*
X12059700Y-13934434D01*
X12059700Y-13934434D02*
X12078748Y-13943958D01*
X12078748Y-13943958D02*
X12088272Y-13953481D01*
X12088272Y-13953481D02*
X12097795Y-13972529D01*
X12097795Y-13972529D02*
X12107319Y-14010624D01*
X12107319Y-14010624D02*
X12107319Y-14058243D01*
X12107319Y-14058243D02*
X12097795Y-14096338D01*
X12097795Y-14096338D02*
X12088272Y-14115386D01*
X12088272Y-14115386D02*
X12078748Y-14124910D01*
X12078748Y-14124910D02*
X12059700Y-14134434D01*
X12059700Y-14134434D02*
X12040652Y-14134434D01*
X12040652Y-14134434D02*
X12021605Y-14124910D01*
X12021605Y-14124910D02*
X12012081Y-14115386D01*
X12012081Y-14115386D02*
X12002557Y-14096338D01*
X12002557Y-14096338D02*
X11993033Y-14058243D01*
X11993033Y-14058243D02*
X11993033Y-14010624D01*
X11993033Y-14010624D02*
X12002557Y-13972529D01*
X12002557Y-13972529D02*
X12012081Y-13953481D01*
X12012081Y-13953481D02*
X12021605Y-13943958D01*
X12021605Y-13943958D02*
X12040652Y-13934434D01*
X12231129Y-13934434D02*
X12250176Y-13934434D01*
X12250176Y-13934434D02*
X12269224Y-13943958D01*
X12269224Y-13943958D02*
X12278748Y-13953481D01*
X12278748Y-13953481D02*
X12288272Y-13972529D01*
X12288272Y-13972529D02*
X12297795Y-14010624D01*
X12297795Y-14010624D02*
X12297795Y-14058243D01*
X12297795Y-14058243D02*
X12288272Y-14096338D01*
X12288272Y-14096338D02*
X12278748Y-14115386D01*
X12278748Y-14115386D02*
X12269224Y-14124910D01*
X12269224Y-14124910D02*
X12250176Y-14134434D01*
X12250176Y-14134434D02*
X12231129Y-14134434D01*
X12231129Y-14134434D02*
X12212081Y-14124910D01*
X12212081Y-14124910D02*
X12202557Y-14115386D01*
X12202557Y-14115386D02*
X12193033Y-14096338D01*
X12193033Y-14096338D02*
X12183510Y-14058243D01*
X12183510Y-14058243D02*
X12183510Y-14010624D01*
X12183510Y-14010624D02*
X12193033Y-13972529D01*
X12193033Y-13972529D02*
X12202557Y-13953481D01*
X12202557Y-13953481D02*
X12212081Y-13943958D01*
X12212081Y-13943958D02*
X12231129Y-13934434D01*
X12383510Y-14134434D02*
X12383510Y-14001100D01*
X12383510Y-14020148D02*
X12393033Y-14010624D01*
X12393033Y-14010624D02*
X12412081Y-14001100D01*
X12412081Y-14001100D02*
X12440653Y-14001100D01*
X12440653Y-14001100D02*
X12459700Y-14010624D01*
X12459700Y-14010624D02*
X12469224Y-14029672D01*
X12469224Y-14029672D02*
X12469224Y-14134434D01*
X12469224Y-14029672D02*
X12478748Y-14010624D01*
X12478748Y-14010624D02*
X12497795Y-14001100D01*
X12497795Y-14001100D02*
X12526367Y-14001100D01*
X12526367Y-14001100D02*
X12545414Y-14010624D01*
X12545414Y-14010624D02*
X12554938Y-14029672D01*
X12554938Y-14029672D02*
X12554938Y-14134434D01*
X12650176Y-14134434D02*
X12650176Y-14001100D01*
X12650176Y-14020148D02*
X12659700Y-14010624D01*
X12659700Y-14010624D02*
X12678748Y-14001100D01*
X12678748Y-14001100D02*
X12707319Y-14001100D01*
X12707319Y-14001100D02*
X12726367Y-14010624D01*
X12726367Y-14010624D02*
X12735891Y-14029672D01*
X12735891Y-14029672D02*
X12735891Y-14134434D01*
X12735891Y-14029672D02*
X12745414Y-14010624D01*
X12745414Y-14010624D02*
X12764462Y-14001100D01*
X12764462Y-14001100D02*
X12793033Y-14001100D01*
X12793033Y-14001100D02*
X12812081Y-14010624D01*
X12812081Y-14010624D02*
X12821605Y-14029672D01*
X12821605Y-14029672D02*
X12821605Y-14134434D01*
X13212081Y-13924910D02*
X13040653Y-14182053D01*
X13469224Y-13934434D02*
X13488272Y-13934434D01*
X13488272Y-13934434D02*
X13507319Y-13943958D01*
X13507319Y-13943958D02*
X13516843Y-13953481D01*
X13516843Y-13953481D02*
X13526367Y-13972529D01*
X13526367Y-13972529D02*
X13535891Y-14010624D01*
X13535891Y-14010624D02*
X13535891Y-14058243D01*
X13535891Y-14058243D02*
X13526367Y-14096338D01*
X13526367Y-14096338D02*
X13516843Y-14115386D01*
X13516843Y-14115386D02*
X13507319Y-14124910D01*
X13507319Y-14124910D02*
X13488272Y-14134434D01*
X13488272Y-14134434D02*
X13469224Y-14134434D01*
X13469224Y-14134434D02*
X13450176Y-14124910D01*
X13450176Y-14124910D02*
X13440653Y-14115386D01*
X13440653Y-14115386D02*
X13431129Y-14096338D01*
X13431129Y-14096338D02*
X13421605Y-14058243D01*
X13421605Y-14058243D02*
X13421605Y-14010624D01*
X13421605Y-14010624D02*
X13431129Y-13972529D01*
X13431129Y-13972529D02*
X13440653Y-13953481D01*
X13440653Y-13953481D02*
X13450176Y-13943958D01*
X13450176Y-13943958D02*
X13469224Y-13934434D01*
X13621605Y-14115386D02*
X13631129Y-14124910D01*
X13631129Y-14124910D02*
X13621605Y-14134434D01*
X13621605Y-14134434D02*
X13612081Y-14124910D01*
X13612081Y-14124910D02*
X13621605Y-14115386D01*
X13621605Y-14115386D02*
X13621605Y-14134434D01*
X13754938Y-13934434D02*
X13773986Y-13934434D01*
X13773986Y-13934434D02*
X13793034Y-13943958D01*
X13793034Y-13943958D02*
X13802557Y-13953481D01*
X13802557Y-13953481D02*
X13812081Y-13972529D01*
X13812081Y-13972529D02*
X13821605Y-14010624D01*
X13821605Y-14010624D02*
X13821605Y-14058243D01*
X13821605Y-14058243D02*
X13812081Y-14096338D01*
X13812081Y-14096338D02*
X13802557Y-14115386D01*
X13802557Y-14115386D02*
X13793034Y-14124910D01*
X13793034Y-14124910D02*
X13773986Y-14134434D01*
X13773986Y-14134434D02*
X13754938Y-14134434D01*
X13754938Y-14134434D02*
X13735891Y-14124910D01*
X13735891Y-14124910D02*
X13726367Y-14115386D01*
X13726367Y-14115386D02*
X13716843Y-14096338D01*
X13716843Y-14096338D02*
X13707319Y-14058243D01*
X13707319Y-14058243D02*
X13707319Y-14010624D01*
X13707319Y-14010624D02*
X13716843Y-13972529D01*
X13716843Y-13972529D02*
X13726367Y-13953481D01*
X13726367Y-13953481D02*
X13735891Y-13943958D01*
X13735891Y-13943958D02*
X13754938Y-13934434D01*
X14012081Y-14134434D02*
X13897796Y-14134434D01*
X13954938Y-14134434D02*
X13954938Y-13934434D01*
X13954938Y-13934434D02*
X13935891Y-13963005D01*
X13935891Y-13963005D02*
X13916843Y-13982053D01*
X13916843Y-13982053D02*
X13897796Y-13991577D01*
X14107319Y-14134434D02*
X14145415Y-14134434D01*
X14145415Y-14134434D02*
X14164462Y-14124910D01*
X14164462Y-14124910D02*
X14173986Y-14115386D01*
X14173986Y-14115386D02*
X14193034Y-14086815D01*
X14193034Y-14086815D02*
X14202557Y-14048719D01*
X14202557Y-14048719D02*
X14202557Y-13972529D01*
X14202557Y-13972529D02*
X14193034Y-13953481D01*
X14193034Y-13953481D02*
X14183510Y-13943958D01*
X14183510Y-13943958D02*
X14164462Y-13934434D01*
X14164462Y-13934434D02*
X14126367Y-13934434D01*
X14126367Y-13934434D02*
X14107319Y-13943958D01*
X14107319Y-13943958D02*
X14097796Y-13953481D01*
X14097796Y-13953481D02*
X14088272Y-13972529D01*
X14088272Y-13972529D02*
X14088272Y-14020148D01*
X14088272Y-14020148D02*
X14097796Y-14039196D01*
X14097796Y-14039196D02*
X14107319Y-14048719D01*
X14107319Y-14048719D02*
X14126367Y-14058243D01*
X14126367Y-14058243D02*
X14164462Y-14058243D01*
X14164462Y-14058243D02*
X14183510Y-14048719D01*
X14183510Y-14048719D02*
X14193034Y-14039196D01*
X14193034Y-14039196D02*
X14202557Y-14020148D01*
X14269224Y-13934434D02*
X14402557Y-13934434D01*
X14402557Y-13934434D02*
X14316843Y-14134434D01*
X14469224Y-13934434D02*
X14469224Y-13972529D01*
X14545415Y-13934434D02*
X14545415Y-13972529D01*
X14840653Y-14210624D02*
X14831129Y-14201100D01*
X14831129Y-14201100D02*
X14812081Y-14172529D01*
X14812081Y-14172529D02*
X14802558Y-14153481D01*
X14802558Y-14153481D02*
X14793034Y-14124910D01*
X14793034Y-14124910D02*
X14783510Y-14077291D01*
X14783510Y-14077291D02*
X14783510Y-14039196D01*
X14783510Y-14039196D02*
X14793034Y-13991577D01*
X14793034Y-13991577D02*
X14802558Y-13963005D01*
X14802558Y-13963005D02*
X14812081Y-13943958D01*
X14812081Y-13943958D02*
X14831129Y-13915386D01*
X14831129Y-13915386D02*
X14840653Y-13905862D01*
X15021605Y-14134434D02*
X14907319Y-14134434D01*
X14964462Y-14134434D02*
X14964462Y-13934434D01*
X14964462Y-13934434D02*
X14945415Y-13963005D01*
X14945415Y-13963005D02*
X14926367Y-13982053D01*
X14926367Y-13982053D02*
X14907319Y-13991577D01*
X15259700Y-14134434D02*
X15259700Y-13934434D01*
X15345415Y-14134434D02*
X15345415Y-14029672D01*
X15345415Y-14029672D02*
X15335891Y-14010624D01*
X15335891Y-14010624D02*
X15316843Y-14001100D01*
X15316843Y-14001100D02*
X15288272Y-14001100D01*
X15288272Y-14001100D02*
X15269224Y-14010624D01*
X15269224Y-14010624D02*
X15259700Y-14020148D01*
X15469224Y-14134434D02*
X15450177Y-14124910D01*
X15450177Y-14124910D02*
X15440653Y-14115386D01*
X15440653Y-14115386D02*
X15431129Y-14096338D01*
X15431129Y-14096338D02*
X15431129Y-14039196D01*
X15431129Y-14039196D02*
X15440653Y-14020148D01*
X15440653Y-14020148D02*
X15450177Y-14010624D01*
X15450177Y-14010624D02*
X15469224Y-14001100D01*
X15469224Y-14001100D02*
X15497796Y-14001100D01*
X15497796Y-14001100D02*
X15516843Y-14010624D01*
X15516843Y-14010624D02*
X15526367Y-14020148D01*
X15526367Y-14020148D02*
X15535891Y-14039196D01*
X15535891Y-14039196D02*
X15535891Y-14096338D01*
X15535891Y-14096338D02*
X15526367Y-14115386D01*
X15526367Y-14115386D02*
X15516843Y-14124910D01*
X15516843Y-14124910D02*
X15497796Y-14134434D01*
X15497796Y-14134434D02*
X15469224Y-14134434D01*
X15650177Y-14134434D02*
X15631129Y-14124910D01*
X15631129Y-14124910D02*
X15621605Y-14105862D01*
X15621605Y-14105862D02*
X15621605Y-13934434D01*
X15802558Y-14124910D02*
X15783510Y-14134434D01*
X15783510Y-14134434D02*
X15745415Y-14134434D01*
X15745415Y-14134434D02*
X15726367Y-14124910D01*
X15726367Y-14124910D02*
X15716843Y-14105862D01*
X15716843Y-14105862D02*
X15716843Y-14029672D01*
X15716843Y-14029672D02*
X15726367Y-14010624D01*
X15726367Y-14010624D02*
X15745415Y-14001100D01*
X15745415Y-14001100D02*
X15783510Y-14001100D01*
X15783510Y-14001100D02*
X15802558Y-14010624D01*
X15802558Y-14010624D02*
X15812081Y-14029672D01*
X15812081Y-14029672D02*
X15812081Y-14048719D01*
X15812081Y-14048719D02*
X15716843Y-14067767D01*
X15888272Y-14124910D02*
X15907320Y-14134434D01*
X15907320Y-14134434D02*
X15945415Y-14134434D01*
X15945415Y-14134434D02*
X15964462Y-14124910D01*
X15964462Y-14124910D02*
X15973986Y-14105862D01*
X15973986Y-14105862D02*
X15973986Y-14096338D01*
X15973986Y-14096338D02*
X15964462Y-14077291D01*
X15964462Y-14077291D02*
X15945415Y-14067767D01*
X15945415Y-14067767D02*
X15916843Y-14067767D01*
X15916843Y-14067767D02*
X15897796Y-14058243D01*
X15897796Y-14058243D02*
X15888272Y-14039196D01*
X15888272Y-14039196D02*
X15888272Y-14029672D01*
X15888272Y-14029672D02*
X15897796Y-14010624D01*
X15897796Y-14010624D02*
X15916843Y-14001100D01*
X15916843Y-14001100D02*
X15945415Y-14001100D01*
X15945415Y-14001100D02*
X15964462Y-14010624D01*
X16212082Y-14058243D02*
X16364463Y-14058243D01*
X16288272Y-14134434D02*
X16288272Y-13982053D01*
X16602558Y-13953481D02*
X16612082Y-13943958D01*
X16612082Y-13943958D02*
X16631129Y-13934434D01*
X16631129Y-13934434D02*
X16678748Y-13934434D01*
X16678748Y-13934434D02*
X16697796Y-13943958D01*
X16697796Y-13943958D02*
X16707320Y-13953481D01*
X16707320Y-13953481D02*
X16716843Y-13972529D01*
X16716843Y-13972529D02*
X16716843Y-13991577D01*
X16716843Y-13991577D02*
X16707320Y-14020148D01*
X16707320Y-14020148D02*
X16593034Y-14134434D01*
X16593034Y-14134434D02*
X16716843Y-14134434D01*
X16945415Y-14124910D02*
X16964463Y-14134434D01*
X16964463Y-14134434D02*
X17002558Y-14134434D01*
X17002558Y-14134434D02*
X17021606Y-14124910D01*
X17021606Y-14124910D02*
X17031129Y-14105862D01*
X17031129Y-14105862D02*
X17031129Y-14096338D01*
X17031129Y-14096338D02*
X17021606Y-14077291D01*
X17021606Y-14077291D02*
X17002558Y-14067767D01*
X17002558Y-14067767D02*
X16973986Y-14067767D01*
X16973986Y-14067767D02*
X16954939Y-14058243D01*
X16954939Y-14058243D02*
X16945415Y-14039196D01*
X16945415Y-14039196D02*
X16945415Y-14029672D01*
X16945415Y-14029672D02*
X16954939Y-14010624D01*
X16954939Y-14010624D02*
X16973986Y-14001100D01*
X16973986Y-14001100D02*
X17002558Y-14001100D01*
X17002558Y-14001100D02*
X17021606Y-14010624D01*
X17145415Y-14134434D02*
X17126367Y-14124910D01*
X17126367Y-14124910D02*
X17116844Y-14105862D01*
X17116844Y-14105862D02*
X17116844Y-13934434D01*
X17250177Y-14134434D02*
X17231129Y-14124910D01*
X17231129Y-14124910D02*
X17221606Y-14115386D01*
X17221606Y-14115386D02*
X17212082Y-14096338D01*
X17212082Y-14096338D02*
X17212082Y-14039196D01*
X17212082Y-14039196D02*
X17221606Y-14020148D01*
X17221606Y-14020148D02*
X17231129Y-14010624D01*
X17231129Y-14010624D02*
X17250177Y-14001100D01*
X17250177Y-14001100D02*
X17278748Y-14001100D01*
X17278748Y-14001100D02*
X17297796Y-14010624D01*
X17297796Y-14010624D02*
X17307320Y-14020148D01*
X17307320Y-14020148D02*
X17316844Y-14039196D01*
X17316844Y-14039196D02*
X17316844Y-14096338D01*
X17316844Y-14096338D02*
X17307320Y-14115386D01*
X17307320Y-14115386D02*
X17297796Y-14124910D01*
X17297796Y-14124910D02*
X17278748Y-14134434D01*
X17278748Y-14134434D02*
X17250177Y-14134434D01*
X17373987Y-14001100D02*
X17450177Y-14001100D01*
X17402558Y-13934434D02*
X17402558Y-14105862D01*
X17402558Y-14105862D02*
X17412082Y-14124910D01*
X17412082Y-14124910D02*
X17431129Y-14134434D01*
X17431129Y-14134434D02*
X17450177Y-14134434D01*
X17507320Y-14124910D02*
X17526367Y-14134434D01*
X17526367Y-14134434D02*
X17564463Y-14134434D01*
X17564463Y-14134434D02*
X17583510Y-14124910D01*
X17583510Y-14124910D02*
X17593034Y-14105862D01*
X17593034Y-14105862D02*
X17593034Y-14096338D01*
X17593034Y-14096338D02*
X17583510Y-14077291D01*
X17583510Y-14077291D02*
X17564463Y-14067767D01*
X17564463Y-14067767D02*
X17535891Y-14067767D01*
X17535891Y-14067767D02*
X17516844Y-14058243D01*
X17516844Y-14058243D02*
X17507320Y-14039196D01*
X17507320Y-14039196D02*
X17507320Y-14029672D01*
X17507320Y-14029672D02*
X17516844Y-14010624D01*
X17516844Y-14010624D02*
X17535891Y-14001100D01*
X17535891Y-14001100D02*
X17564463Y-14001100D01*
X17564463Y-14001100D02*
X17583510Y-14010624D01*
X17659701Y-14210624D02*
X17669225Y-14201100D01*
X17669225Y-14201100D02*
X17688272Y-14172529D01*
X17688272Y-14172529D02*
X17697796Y-14153481D01*
X17697796Y-14153481D02*
X17707320Y-14124910D01*
X17707320Y-14124910D02*
X17716844Y-14077291D01*
X17716844Y-14077291D02*
X17716844Y-14039196D01*
X17716844Y-14039196D02*
X17707320Y-13991577D01*
X17707320Y-13991577D02*
X17697796Y-13963005D01*
X17697796Y-13963005D02*
X17688272Y-13943958D01*
X17688272Y-13943958D02*
X17669225Y-13915386D01*
X17669225Y-13915386D02*
X17659701Y-13905862D01*
D12*
X11238090Y-14334450D02*
X11265590Y-14306950D01*
X11238090Y-14279450D01*
X11210590Y-14306950D01*
X11238090Y-14334450D01*
D11*
X11564462Y-14198434D02*
X11583510Y-14198434D01*
X11583510Y-14198434D02*
X11602557Y-14207958D01*
X11602557Y-14207958D02*
X11612081Y-14217481D01*
X11612081Y-14217481D02*
X11621605Y-14236529D01*
X11621605Y-14236529D02*
X11631129Y-14274624D01*
X11631129Y-14274624D02*
X11631129Y-14322243D01*
X11631129Y-14322243D02*
X11621605Y-14360338D01*
X11621605Y-14360338D02*
X11612081Y-14379386D01*
X11612081Y-14379386D02*
X11602557Y-14388910D01*
X11602557Y-14388910D02*
X11583510Y-14398434D01*
X11583510Y-14398434D02*
X11564462Y-14398434D01*
X11564462Y-14398434D02*
X11545414Y-14388910D01*
X11545414Y-14388910D02*
X11535891Y-14379386D01*
X11535891Y-14379386D02*
X11526367Y-14360338D01*
X11526367Y-14360338D02*
X11516843Y-14322243D01*
X11516843Y-14322243D02*
X11516843Y-14274624D01*
X11516843Y-14274624D02*
X11526367Y-14236529D01*
X11526367Y-14236529D02*
X11535891Y-14217481D01*
X11535891Y-14217481D02*
X11545414Y-14207958D01*
X11545414Y-14207958D02*
X11564462Y-14198434D01*
X11716843Y-14379386D02*
X11726367Y-14388910D01*
X11726367Y-14388910D02*
X11716843Y-14398434D01*
X11716843Y-14398434D02*
X11707319Y-14388910D01*
X11707319Y-14388910D02*
X11716843Y-14379386D01*
X11716843Y-14379386D02*
X11716843Y-14398434D01*
X11907319Y-14198434D02*
X11812081Y-14198434D01*
X11812081Y-14198434D02*
X11802557Y-14293672D01*
X11802557Y-14293672D02*
X11812081Y-14284148D01*
X11812081Y-14284148D02*
X11831129Y-14274624D01*
X11831129Y-14274624D02*
X11878748Y-14274624D01*
X11878748Y-14274624D02*
X11897795Y-14284148D01*
X11897795Y-14284148D02*
X11907319Y-14293672D01*
X11907319Y-14293672D02*
X11916843Y-14312719D01*
X11916843Y-14312719D02*
X11916843Y-14360338D01*
X11916843Y-14360338D02*
X11907319Y-14379386D01*
X11907319Y-14379386D02*
X11897795Y-14388910D01*
X11897795Y-14388910D02*
X11878748Y-14398434D01*
X11878748Y-14398434D02*
X11831129Y-14398434D01*
X11831129Y-14398434D02*
X11812081Y-14388910D01*
X11812081Y-14388910D02*
X11802557Y-14379386D01*
X12097795Y-14198434D02*
X12002557Y-14198434D01*
X12002557Y-14198434D02*
X11993033Y-14293672D01*
X11993033Y-14293672D02*
X12002557Y-14284148D01*
X12002557Y-14284148D02*
X12021605Y-14274624D01*
X12021605Y-14274624D02*
X12069224Y-14274624D01*
X12069224Y-14274624D02*
X12088272Y-14284148D01*
X12088272Y-14284148D02*
X12097795Y-14293672D01*
X12097795Y-14293672D02*
X12107319Y-14312719D01*
X12107319Y-14312719D02*
X12107319Y-14360338D01*
X12107319Y-14360338D02*
X12097795Y-14379386D01*
X12097795Y-14379386D02*
X12088272Y-14388910D01*
X12088272Y-14388910D02*
X12069224Y-14398434D01*
X12069224Y-14398434D02*
X12021605Y-14398434D01*
X12021605Y-14398434D02*
X12002557Y-14388910D01*
X12002557Y-14388910D02*
X11993033Y-14379386D01*
X12231129Y-14198434D02*
X12250176Y-14198434D01*
X12250176Y-14198434D02*
X12269224Y-14207958D01*
X12269224Y-14207958D02*
X12278748Y-14217481D01*
X12278748Y-14217481D02*
X12288272Y-14236529D01*
X12288272Y-14236529D02*
X12297795Y-14274624D01*
X12297795Y-14274624D02*
X12297795Y-14322243D01*
X12297795Y-14322243D02*
X12288272Y-14360338D01*
X12288272Y-14360338D02*
X12278748Y-14379386D01*
X12278748Y-14379386D02*
X12269224Y-14388910D01*
X12269224Y-14388910D02*
X12250176Y-14398434D01*
X12250176Y-14398434D02*
X12231129Y-14398434D01*
X12231129Y-14398434D02*
X12212081Y-14388910D01*
X12212081Y-14388910D02*
X12202557Y-14379386D01*
X12202557Y-14379386D02*
X12193033Y-14360338D01*
X12193033Y-14360338D02*
X12183510Y-14322243D01*
X12183510Y-14322243D02*
X12183510Y-14274624D01*
X12183510Y-14274624D02*
X12193033Y-14236529D01*
X12193033Y-14236529D02*
X12202557Y-14217481D01*
X12202557Y-14217481D02*
X12212081Y-14207958D01*
X12212081Y-14207958D02*
X12231129Y-14198434D01*
X12383510Y-14398434D02*
X12383510Y-14265100D01*
X12383510Y-14284148D02*
X12393033Y-14274624D01*
X12393033Y-14274624D02*
X12412081Y-14265100D01*
X12412081Y-14265100D02*
X12440653Y-14265100D01*
X12440653Y-14265100D02*
X12459700Y-14274624D01*
X12459700Y-14274624D02*
X12469224Y-14293672D01*
X12469224Y-14293672D02*
X12469224Y-14398434D01*
X12469224Y-14293672D02*
X12478748Y-14274624D01*
X12478748Y-14274624D02*
X12497795Y-14265100D01*
X12497795Y-14265100D02*
X12526367Y-14265100D01*
X12526367Y-14265100D02*
X12545414Y-14274624D01*
X12545414Y-14274624D02*
X12554938Y-14293672D01*
X12554938Y-14293672D02*
X12554938Y-14398434D01*
X12650176Y-14398434D02*
X12650176Y-14265100D01*
X12650176Y-14284148D02*
X12659700Y-14274624D01*
X12659700Y-14274624D02*
X12678748Y-14265100D01*
X12678748Y-14265100D02*
X12707319Y-14265100D01*
X12707319Y-14265100D02*
X12726367Y-14274624D01*
X12726367Y-14274624D02*
X12735891Y-14293672D01*
X12735891Y-14293672D02*
X12735891Y-14398434D01*
X12735891Y-14293672D02*
X12745414Y-14274624D01*
X12745414Y-14274624D02*
X12764462Y-14265100D01*
X12764462Y-14265100D02*
X12793033Y-14265100D01*
X12793033Y-14265100D02*
X12812081Y-14274624D01*
X12812081Y-14274624D02*
X12821605Y-14293672D01*
X12821605Y-14293672D02*
X12821605Y-14398434D01*
X13212081Y-14188910D02*
X13040653Y-14446053D01*
X13469224Y-14198434D02*
X13488272Y-14198434D01*
X13488272Y-14198434D02*
X13507319Y-14207958D01*
X13507319Y-14207958D02*
X13516843Y-14217481D01*
X13516843Y-14217481D02*
X13526367Y-14236529D01*
X13526367Y-14236529D02*
X13535891Y-14274624D01*
X13535891Y-14274624D02*
X13535891Y-14322243D01*
X13535891Y-14322243D02*
X13526367Y-14360338D01*
X13526367Y-14360338D02*
X13516843Y-14379386D01*
X13516843Y-14379386D02*
X13507319Y-14388910D01*
X13507319Y-14388910D02*
X13488272Y-14398434D01*
X13488272Y-14398434D02*
X13469224Y-14398434D01*
X13469224Y-14398434D02*
X13450176Y-14388910D01*
X13450176Y-14388910D02*
X13440653Y-14379386D01*
X13440653Y-14379386D02*
X13431129Y-14360338D01*
X13431129Y-14360338D02*
X13421605Y-14322243D01*
X13421605Y-14322243D02*
X13421605Y-14274624D01*
X13421605Y-14274624D02*
X13431129Y-14236529D01*
X13431129Y-14236529D02*
X13440653Y-14217481D01*
X13440653Y-14217481D02*
X13450176Y-14207958D01*
X13450176Y-14207958D02*
X13469224Y-14198434D01*
X13621605Y-14379386D02*
X13631129Y-14388910D01*
X13631129Y-14388910D02*
X13621605Y-14398434D01*
X13621605Y-14398434D02*
X13612081Y-14388910D01*
X13612081Y-14388910D02*
X13621605Y-14379386D01*
X13621605Y-14379386D02*
X13621605Y-14398434D01*
X13754938Y-14198434D02*
X13773986Y-14198434D01*
X13773986Y-14198434D02*
X13793034Y-14207958D01*
X13793034Y-14207958D02*
X13802557Y-14217481D01*
X13802557Y-14217481D02*
X13812081Y-14236529D01*
X13812081Y-14236529D02*
X13821605Y-14274624D01*
X13821605Y-14274624D02*
X13821605Y-14322243D01*
X13821605Y-14322243D02*
X13812081Y-14360338D01*
X13812081Y-14360338D02*
X13802557Y-14379386D01*
X13802557Y-14379386D02*
X13793034Y-14388910D01*
X13793034Y-14388910D02*
X13773986Y-14398434D01*
X13773986Y-14398434D02*
X13754938Y-14398434D01*
X13754938Y-14398434D02*
X13735891Y-14388910D01*
X13735891Y-14388910D02*
X13726367Y-14379386D01*
X13726367Y-14379386D02*
X13716843Y-14360338D01*
X13716843Y-14360338D02*
X13707319Y-14322243D01*
X13707319Y-14322243D02*
X13707319Y-14274624D01*
X13707319Y-14274624D02*
X13716843Y-14236529D01*
X13716843Y-14236529D02*
X13726367Y-14217481D01*
X13726367Y-14217481D02*
X13735891Y-14207958D01*
X13735891Y-14207958D02*
X13754938Y-14198434D01*
X13897796Y-14217481D02*
X13907319Y-14207958D01*
X13907319Y-14207958D02*
X13926367Y-14198434D01*
X13926367Y-14198434D02*
X13973986Y-14198434D01*
X13973986Y-14198434D02*
X13993034Y-14207958D01*
X13993034Y-14207958D02*
X14002557Y-14217481D01*
X14002557Y-14217481D02*
X14012081Y-14236529D01*
X14012081Y-14236529D02*
X14012081Y-14255577D01*
X14012081Y-14255577D02*
X14002557Y-14284148D01*
X14002557Y-14284148D02*
X13888272Y-14398434D01*
X13888272Y-14398434D02*
X14012081Y-14398434D01*
X14202557Y-14398434D02*
X14088272Y-14398434D01*
X14145415Y-14398434D02*
X14145415Y-14198434D01*
X14145415Y-14198434D02*
X14126367Y-14227005D01*
X14126367Y-14227005D02*
X14107319Y-14246053D01*
X14107319Y-14246053D02*
X14088272Y-14255577D01*
X14269224Y-14198434D02*
X14402557Y-14198434D01*
X14402557Y-14198434D02*
X14316843Y-14398434D01*
X14469224Y-14198434D02*
X14469224Y-14236529D01*
X14545415Y-14198434D02*
X14545415Y-14236529D01*
X14840653Y-14474624D02*
X14831129Y-14465100D01*
X14831129Y-14465100D02*
X14812081Y-14436529D01*
X14812081Y-14436529D02*
X14802558Y-14417481D01*
X14802558Y-14417481D02*
X14793034Y-14388910D01*
X14793034Y-14388910D02*
X14783510Y-14341291D01*
X14783510Y-14341291D02*
X14783510Y-14303196D01*
X14783510Y-14303196D02*
X14793034Y-14255577D01*
X14793034Y-14255577D02*
X14802558Y-14227005D01*
X14802558Y-14227005D02*
X14812081Y-14207958D01*
X14812081Y-14207958D02*
X14831129Y-14179386D01*
X14831129Y-14179386D02*
X14840653Y-14169862D01*
X14954938Y-14198434D02*
X14973986Y-14198434D01*
X14973986Y-14198434D02*
X14993034Y-14207958D01*
X14993034Y-14207958D02*
X15002558Y-14217481D01*
X15002558Y-14217481D02*
X15012081Y-14236529D01*
X15012081Y-14236529D02*
X15021605Y-14274624D01*
X15021605Y-14274624D02*
X15021605Y-14322243D01*
X15021605Y-14322243D02*
X15012081Y-14360338D01*
X15012081Y-14360338D02*
X15002558Y-14379386D01*
X15002558Y-14379386D02*
X14993034Y-14388910D01*
X14993034Y-14388910D02*
X14973986Y-14398434D01*
X14973986Y-14398434D02*
X14954938Y-14398434D01*
X14954938Y-14398434D02*
X14935891Y-14388910D01*
X14935891Y-14388910D02*
X14926367Y-14379386D01*
X14926367Y-14379386D02*
X14916843Y-14360338D01*
X14916843Y-14360338D02*
X14907319Y-14322243D01*
X14907319Y-14322243D02*
X14907319Y-14274624D01*
X14907319Y-14274624D02*
X14916843Y-14236529D01*
X14916843Y-14236529D02*
X14926367Y-14217481D01*
X14926367Y-14217481D02*
X14935891Y-14207958D01*
X14935891Y-14207958D02*
X14954938Y-14198434D01*
X15259700Y-14398434D02*
X15259700Y-14198434D01*
X15345415Y-14398434D02*
X15345415Y-14293672D01*
X15345415Y-14293672D02*
X15335891Y-14274624D01*
X15335891Y-14274624D02*
X15316843Y-14265100D01*
X15316843Y-14265100D02*
X15288272Y-14265100D01*
X15288272Y-14265100D02*
X15269224Y-14274624D01*
X15269224Y-14274624D02*
X15259700Y-14284148D01*
X15469224Y-14398434D02*
X15450177Y-14388910D01*
X15450177Y-14388910D02*
X15440653Y-14379386D01*
X15440653Y-14379386D02*
X15431129Y-14360338D01*
X15431129Y-14360338D02*
X15431129Y-14303196D01*
X15431129Y-14303196D02*
X15440653Y-14284148D01*
X15440653Y-14284148D02*
X15450177Y-14274624D01*
X15450177Y-14274624D02*
X15469224Y-14265100D01*
X15469224Y-14265100D02*
X15497796Y-14265100D01*
X15497796Y-14265100D02*
X15516843Y-14274624D01*
X15516843Y-14274624D02*
X15526367Y-14284148D01*
X15526367Y-14284148D02*
X15535891Y-14303196D01*
X15535891Y-14303196D02*
X15535891Y-14360338D01*
X15535891Y-14360338D02*
X15526367Y-14379386D01*
X15526367Y-14379386D02*
X15516843Y-14388910D01*
X15516843Y-14388910D02*
X15497796Y-14398434D01*
X15497796Y-14398434D02*
X15469224Y-14398434D01*
X15650177Y-14398434D02*
X15631129Y-14388910D01*
X15631129Y-14388910D02*
X15621605Y-14369862D01*
X15621605Y-14369862D02*
X15621605Y-14198434D01*
X15802558Y-14388910D02*
X15783510Y-14398434D01*
X15783510Y-14398434D02*
X15745415Y-14398434D01*
X15745415Y-14398434D02*
X15726367Y-14388910D01*
X15726367Y-14388910D02*
X15716843Y-14369862D01*
X15716843Y-14369862D02*
X15716843Y-14293672D01*
X15716843Y-14293672D02*
X15726367Y-14274624D01*
X15726367Y-14274624D02*
X15745415Y-14265100D01*
X15745415Y-14265100D02*
X15783510Y-14265100D01*
X15783510Y-14265100D02*
X15802558Y-14274624D01*
X15802558Y-14274624D02*
X15812081Y-14293672D01*
X15812081Y-14293672D02*
X15812081Y-14312719D01*
X15812081Y-14312719D02*
X15716843Y-14331767D01*
X15888272Y-14388910D02*
X15907320Y-14398434D01*
X15907320Y-14398434D02*
X15945415Y-14398434D01*
X15945415Y-14398434D02*
X15964462Y-14388910D01*
X15964462Y-14388910D02*
X15973986Y-14369862D01*
X15973986Y-14369862D02*
X15973986Y-14360338D01*
X15973986Y-14360338D02*
X15964462Y-14341291D01*
X15964462Y-14341291D02*
X15945415Y-14331767D01*
X15945415Y-14331767D02*
X15916843Y-14331767D01*
X15916843Y-14331767D02*
X15897796Y-14322243D01*
X15897796Y-14322243D02*
X15888272Y-14303196D01*
X15888272Y-14303196D02*
X15888272Y-14293672D01*
X15888272Y-14293672D02*
X15897796Y-14274624D01*
X15897796Y-14274624D02*
X15916843Y-14265100D01*
X15916843Y-14265100D02*
X15945415Y-14265100D01*
X15945415Y-14265100D02*
X15964462Y-14274624D01*
X16212082Y-14322243D02*
X16364463Y-14322243D01*
X16288272Y-14398434D02*
X16288272Y-14246053D01*
X16602558Y-14217481D02*
X16612082Y-14207958D01*
X16612082Y-14207958D02*
X16631129Y-14198434D01*
X16631129Y-14198434D02*
X16678748Y-14198434D01*
X16678748Y-14198434D02*
X16697796Y-14207958D01*
X16697796Y-14207958D02*
X16707320Y-14217481D01*
X16707320Y-14217481D02*
X16716843Y-14236529D01*
X16716843Y-14236529D02*
X16716843Y-14255577D01*
X16716843Y-14255577D02*
X16707320Y-14284148D01*
X16707320Y-14284148D02*
X16593034Y-14398434D01*
X16593034Y-14398434D02*
X16716843Y-14398434D01*
X16945415Y-14388910D02*
X16964463Y-14398434D01*
X16964463Y-14398434D02*
X17002558Y-14398434D01*
X17002558Y-14398434D02*
X17021606Y-14388910D01*
X17021606Y-14388910D02*
X17031129Y-14369862D01*
X17031129Y-14369862D02*
X17031129Y-14360338D01*
X17031129Y-14360338D02*
X17021606Y-14341291D01*
X17021606Y-14341291D02*
X17002558Y-14331767D01*
X17002558Y-14331767D02*
X16973986Y-14331767D01*
X16973986Y-14331767D02*
X16954939Y-14322243D01*
X16954939Y-14322243D02*
X16945415Y-14303196D01*
X16945415Y-14303196D02*
X16945415Y-14293672D01*
X16945415Y-14293672D02*
X16954939Y-14274624D01*
X16954939Y-14274624D02*
X16973986Y-14265100D01*
X16973986Y-14265100D02*
X17002558Y-14265100D01*
X17002558Y-14265100D02*
X17021606Y-14274624D01*
X17145415Y-14398434D02*
X17126367Y-14388910D01*
X17126367Y-14388910D02*
X17116844Y-14369862D01*
X17116844Y-14369862D02*
X17116844Y-14198434D01*
X17250177Y-14398434D02*
X17231129Y-14388910D01*
X17231129Y-14388910D02*
X17221606Y-14379386D01*
X17221606Y-14379386D02*
X17212082Y-14360338D01*
X17212082Y-14360338D02*
X17212082Y-14303196D01*
X17212082Y-14303196D02*
X17221606Y-14284148D01*
X17221606Y-14284148D02*
X17231129Y-14274624D01*
X17231129Y-14274624D02*
X17250177Y-14265100D01*
X17250177Y-14265100D02*
X17278748Y-14265100D01*
X17278748Y-14265100D02*
X17297796Y-14274624D01*
X17297796Y-14274624D02*
X17307320Y-14284148D01*
X17307320Y-14284148D02*
X17316844Y-14303196D01*
X17316844Y-14303196D02*
X17316844Y-14360338D01*
X17316844Y-14360338D02*
X17307320Y-14379386D01*
X17307320Y-14379386D02*
X17297796Y-14388910D01*
X17297796Y-14388910D02*
X17278748Y-14398434D01*
X17278748Y-14398434D02*
X17250177Y-14398434D01*
X17373987Y-14265100D02*
X17450177Y-14265100D01*
X17402558Y-14198434D02*
X17402558Y-14369862D01*
X17402558Y-14369862D02*
X17412082Y-14388910D01*
X17412082Y-14388910D02*
X17431129Y-14398434D01*
X17431129Y-14398434D02*
X17450177Y-14398434D01*
X17507320Y-14388910D02*
X17526367Y-14398434D01*
X17526367Y-14398434D02*
X17564463Y-14398434D01*
X17564463Y-14398434D02*
X17583510Y-14388910D01*
X17583510Y-14388910D02*
X17593034Y-14369862D01*
X17593034Y-14369862D02*
X17593034Y-14360338D01*
X17593034Y-14360338D02*
X17583510Y-14341291D01*
X17583510Y-14341291D02*
X17564463Y-14331767D01*
X17564463Y-14331767D02*
X17535891Y-14331767D01*
X17535891Y-14331767D02*
X17516844Y-14322243D01*
X17516844Y-14322243D02*
X17507320Y-14303196D01*
X17507320Y-14303196D02*
X17507320Y-14293672D01*
X17507320Y-14293672D02*
X17516844Y-14274624D01*
X17516844Y-14274624D02*
X17535891Y-14265100D01*
X17535891Y-14265100D02*
X17564463Y-14265100D01*
X17564463Y-14265100D02*
X17583510Y-14274624D01*
X17659701Y-14474624D02*
X17669225Y-14465100D01*
X17669225Y-14465100D02*
X17688272Y-14436529D01*
X17688272Y-14436529D02*
X17697796Y-14417481D01*
X17697796Y-14417481D02*
X17707320Y-14388910D01*
X17707320Y-14388910D02*
X17716844Y-14341291D01*
X17716844Y-14341291D02*
X17716844Y-14303196D01*
X17716844Y-14303196D02*
X17707320Y-14255577D01*
X17707320Y-14255577D02*
X17697796Y-14227005D01*
X17697796Y-14227005D02*
X17688272Y-14207958D01*
X17688272Y-14207958D02*
X17669225Y-14179386D01*
X17669225Y-14179386D02*
X17659701Y-14169862D01*
D12*
X11165590Y-14520950D02*
X11265590Y-14620950D01*
X11265590Y-14520950D02*
X11165590Y-14620950D01*
X11265590Y-14570950D02*
G75*
G02*
X11165590Y-14570950I-50000J0D01*
G01*
X11165590Y-14570950D02*
G75*
G02*
X11265590Y-14570950I50000J0D01*
G01*
D11*
X11631129Y-14662434D02*
X11516843Y-14662434D01*
X11573986Y-14662434D02*
X11573986Y-14462434D01*
X11573986Y-14462434D02*
X11554938Y-14491005D01*
X11554938Y-14491005D02*
X11535891Y-14510053D01*
X11535891Y-14510053D02*
X11516843Y-14519577D01*
X11716843Y-14643386D02*
X11726367Y-14652910D01*
X11726367Y-14652910D02*
X11716843Y-14662434D01*
X11716843Y-14662434D02*
X11707319Y-14652910D01*
X11707319Y-14652910D02*
X11716843Y-14643386D01*
X11716843Y-14643386D02*
X11716843Y-14662434D01*
X11850176Y-14462434D02*
X11869224Y-14462434D01*
X11869224Y-14462434D02*
X11888272Y-14471958D01*
X11888272Y-14471958D02*
X11897795Y-14481481D01*
X11897795Y-14481481D02*
X11907319Y-14500529D01*
X11907319Y-14500529D02*
X11916843Y-14538624D01*
X11916843Y-14538624D02*
X11916843Y-14586243D01*
X11916843Y-14586243D02*
X11907319Y-14624338D01*
X11907319Y-14624338D02*
X11897795Y-14643386D01*
X11897795Y-14643386D02*
X11888272Y-14652910D01*
X11888272Y-14652910D02*
X11869224Y-14662434D01*
X11869224Y-14662434D02*
X11850176Y-14662434D01*
X11850176Y-14662434D02*
X11831129Y-14652910D01*
X11831129Y-14652910D02*
X11821605Y-14643386D01*
X11821605Y-14643386D02*
X11812081Y-14624338D01*
X11812081Y-14624338D02*
X11802557Y-14586243D01*
X11802557Y-14586243D02*
X11802557Y-14538624D01*
X11802557Y-14538624D02*
X11812081Y-14500529D01*
X11812081Y-14500529D02*
X11821605Y-14481481D01*
X11821605Y-14481481D02*
X11831129Y-14471958D01*
X11831129Y-14471958D02*
X11850176Y-14462434D01*
X12040652Y-14462434D02*
X12059700Y-14462434D01*
X12059700Y-14462434D02*
X12078748Y-14471958D01*
X12078748Y-14471958D02*
X12088272Y-14481481D01*
X12088272Y-14481481D02*
X12097795Y-14500529D01*
X12097795Y-14500529D02*
X12107319Y-14538624D01*
X12107319Y-14538624D02*
X12107319Y-14586243D01*
X12107319Y-14586243D02*
X12097795Y-14624338D01*
X12097795Y-14624338D02*
X12088272Y-14643386D01*
X12088272Y-14643386D02*
X12078748Y-14652910D01*
X12078748Y-14652910D02*
X12059700Y-14662434D01*
X12059700Y-14662434D02*
X12040652Y-14662434D01*
X12040652Y-14662434D02*
X12021605Y-14652910D01*
X12021605Y-14652910D02*
X12012081Y-14643386D01*
X12012081Y-14643386D02*
X12002557Y-14624338D01*
X12002557Y-14624338D02*
X11993033Y-14586243D01*
X11993033Y-14586243D02*
X11993033Y-14538624D01*
X11993033Y-14538624D02*
X12002557Y-14500529D01*
X12002557Y-14500529D02*
X12012081Y-14481481D01*
X12012081Y-14481481D02*
X12021605Y-14471958D01*
X12021605Y-14471958D02*
X12040652Y-14462434D01*
X12231129Y-14462434D02*
X12250176Y-14462434D01*
X12250176Y-14462434D02*
X12269224Y-14471958D01*
X12269224Y-14471958D02*
X12278748Y-14481481D01*
X12278748Y-14481481D02*
X12288272Y-14500529D01*
X12288272Y-14500529D02*
X12297795Y-14538624D01*
X12297795Y-14538624D02*
X12297795Y-14586243D01*
X12297795Y-14586243D02*
X12288272Y-14624338D01*
X12288272Y-14624338D02*
X12278748Y-14643386D01*
X12278748Y-14643386D02*
X12269224Y-14652910D01*
X12269224Y-14652910D02*
X12250176Y-14662434D01*
X12250176Y-14662434D02*
X12231129Y-14662434D01*
X12231129Y-14662434D02*
X12212081Y-14652910D01*
X12212081Y-14652910D02*
X12202557Y-14643386D01*
X12202557Y-14643386D02*
X12193033Y-14624338D01*
X12193033Y-14624338D02*
X12183510Y-14586243D01*
X12183510Y-14586243D02*
X12183510Y-14538624D01*
X12183510Y-14538624D02*
X12193033Y-14500529D01*
X12193033Y-14500529D02*
X12202557Y-14481481D01*
X12202557Y-14481481D02*
X12212081Y-14471958D01*
X12212081Y-14471958D02*
X12231129Y-14462434D01*
X12383510Y-14662434D02*
X12383510Y-14529100D01*
X12383510Y-14548148D02*
X12393033Y-14538624D01*
X12393033Y-14538624D02*
X12412081Y-14529100D01*
X12412081Y-14529100D02*
X12440653Y-14529100D01*
X12440653Y-14529100D02*
X12459700Y-14538624D01*
X12459700Y-14538624D02*
X12469224Y-14557672D01*
X12469224Y-14557672D02*
X12469224Y-14662434D01*
X12469224Y-14557672D02*
X12478748Y-14538624D01*
X12478748Y-14538624D02*
X12497795Y-14529100D01*
X12497795Y-14529100D02*
X12526367Y-14529100D01*
X12526367Y-14529100D02*
X12545414Y-14538624D01*
X12545414Y-14538624D02*
X12554938Y-14557672D01*
X12554938Y-14557672D02*
X12554938Y-14662434D01*
X12650176Y-14662434D02*
X12650176Y-14529100D01*
X12650176Y-14548148D02*
X12659700Y-14538624D01*
X12659700Y-14538624D02*
X12678748Y-14529100D01*
X12678748Y-14529100D02*
X12707319Y-14529100D01*
X12707319Y-14529100D02*
X12726367Y-14538624D01*
X12726367Y-14538624D02*
X12735891Y-14557672D01*
X12735891Y-14557672D02*
X12735891Y-14662434D01*
X12735891Y-14557672D02*
X12745414Y-14538624D01*
X12745414Y-14538624D02*
X12764462Y-14529100D01*
X12764462Y-14529100D02*
X12793033Y-14529100D01*
X12793033Y-14529100D02*
X12812081Y-14538624D01*
X12812081Y-14538624D02*
X12821605Y-14557672D01*
X12821605Y-14557672D02*
X12821605Y-14662434D01*
X13212081Y-14452910D02*
X13040653Y-14710053D01*
X13469224Y-14462434D02*
X13488272Y-14462434D01*
X13488272Y-14462434D02*
X13507319Y-14471958D01*
X13507319Y-14471958D02*
X13516843Y-14481481D01*
X13516843Y-14481481D02*
X13526367Y-14500529D01*
X13526367Y-14500529D02*
X13535891Y-14538624D01*
X13535891Y-14538624D02*
X13535891Y-14586243D01*
X13535891Y-14586243D02*
X13526367Y-14624338D01*
X13526367Y-14624338D02*
X13516843Y-14643386D01*
X13516843Y-14643386D02*
X13507319Y-14652910D01*
X13507319Y-14652910D02*
X13488272Y-14662434D01*
X13488272Y-14662434D02*
X13469224Y-14662434D01*
X13469224Y-14662434D02*
X13450176Y-14652910D01*
X13450176Y-14652910D02*
X13440653Y-14643386D01*
X13440653Y-14643386D02*
X13431129Y-14624338D01*
X13431129Y-14624338D02*
X13421605Y-14586243D01*
X13421605Y-14586243D02*
X13421605Y-14538624D01*
X13421605Y-14538624D02*
X13431129Y-14500529D01*
X13431129Y-14500529D02*
X13440653Y-14481481D01*
X13440653Y-14481481D02*
X13450176Y-14471958D01*
X13450176Y-14471958D02*
X13469224Y-14462434D01*
X13621605Y-14643386D02*
X13631129Y-14652910D01*
X13631129Y-14652910D02*
X13621605Y-14662434D01*
X13621605Y-14662434D02*
X13612081Y-14652910D01*
X13612081Y-14652910D02*
X13621605Y-14643386D01*
X13621605Y-14643386D02*
X13621605Y-14662434D01*
X13754938Y-14462434D02*
X13773986Y-14462434D01*
X13773986Y-14462434D02*
X13793034Y-14471958D01*
X13793034Y-14471958D02*
X13802557Y-14481481D01*
X13802557Y-14481481D02*
X13812081Y-14500529D01*
X13812081Y-14500529D02*
X13821605Y-14538624D01*
X13821605Y-14538624D02*
X13821605Y-14586243D01*
X13821605Y-14586243D02*
X13812081Y-14624338D01*
X13812081Y-14624338D02*
X13802557Y-14643386D01*
X13802557Y-14643386D02*
X13793034Y-14652910D01*
X13793034Y-14652910D02*
X13773986Y-14662434D01*
X13773986Y-14662434D02*
X13754938Y-14662434D01*
X13754938Y-14662434D02*
X13735891Y-14652910D01*
X13735891Y-14652910D02*
X13726367Y-14643386D01*
X13726367Y-14643386D02*
X13716843Y-14624338D01*
X13716843Y-14624338D02*
X13707319Y-14586243D01*
X13707319Y-14586243D02*
X13707319Y-14538624D01*
X13707319Y-14538624D02*
X13716843Y-14500529D01*
X13716843Y-14500529D02*
X13726367Y-14481481D01*
X13726367Y-14481481D02*
X13735891Y-14471958D01*
X13735891Y-14471958D02*
X13754938Y-14462434D01*
X13888272Y-14462434D02*
X14012081Y-14462434D01*
X14012081Y-14462434D02*
X13945415Y-14538624D01*
X13945415Y-14538624D02*
X13973986Y-14538624D01*
X13973986Y-14538624D02*
X13993034Y-14548148D01*
X13993034Y-14548148D02*
X14002557Y-14557672D01*
X14002557Y-14557672D02*
X14012081Y-14576719D01*
X14012081Y-14576719D02*
X14012081Y-14624338D01*
X14012081Y-14624338D02*
X14002557Y-14643386D01*
X14002557Y-14643386D02*
X13993034Y-14652910D01*
X13993034Y-14652910D02*
X13973986Y-14662434D01*
X13973986Y-14662434D02*
X13916843Y-14662434D01*
X13916843Y-14662434D02*
X13897796Y-14652910D01*
X13897796Y-14652910D02*
X13888272Y-14643386D01*
X14107319Y-14662434D02*
X14145415Y-14662434D01*
X14145415Y-14662434D02*
X14164462Y-14652910D01*
X14164462Y-14652910D02*
X14173986Y-14643386D01*
X14173986Y-14643386D02*
X14193034Y-14614815D01*
X14193034Y-14614815D02*
X14202557Y-14576719D01*
X14202557Y-14576719D02*
X14202557Y-14500529D01*
X14202557Y-14500529D02*
X14193034Y-14481481D01*
X14193034Y-14481481D02*
X14183510Y-14471958D01*
X14183510Y-14471958D02*
X14164462Y-14462434D01*
X14164462Y-14462434D02*
X14126367Y-14462434D01*
X14126367Y-14462434D02*
X14107319Y-14471958D01*
X14107319Y-14471958D02*
X14097796Y-14481481D01*
X14097796Y-14481481D02*
X14088272Y-14500529D01*
X14088272Y-14500529D02*
X14088272Y-14548148D01*
X14088272Y-14548148D02*
X14097796Y-14567196D01*
X14097796Y-14567196D02*
X14107319Y-14576719D01*
X14107319Y-14576719D02*
X14126367Y-14586243D01*
X14126367Y-14586243D02*
X14164462Y-14586243D01*
X14164462Y-14586243D02*
X14183510Y-14576719D01*
X14183510Y-14576719D02*
X14193034Y-14567196D01*
X14193034Y-14567196D02*
X14202557Y-14548148D01*
X14373986Y-14529100D02*
X14373986Y-14662434D01*
X14326367Y-14452910D02*
X14278748Y-14595767D01*
X14278748Y-14595767D02*
X14402557Y-14595767D01*
X14469224Y-14462434D02*
X14469224Y-14500529D01*
X14545415Y-14462434D02*
X14545415Y-14500529D01*
X14840653Y-14738624D02*
X14831129Y-14729100D01*
X14831129Y-14729100D02*
X14812081Y-14700529D01*
X14812081Y-14700529D02*
X14802558Y-14681481D01*
X14802558Y-14681481D02*
X14793034Y-14652910D01*
X14793034Y-14652910D02*
X14783510Y-14605291D01*
X14783510Y-14605291D02*
X14783510Y-14567196D01*
X14783510Y-14567196D02*
X14793034Y-14519577D01*
X14793034Y-14519577D02*
X14802558Y-14491005D01*
X14802558Y-14491005D02*
X14812081Y-14471958D01*
X14812081Y-14471958D02*
X14831129Y-14443386D01*
X14831129Y-14443386D02*
X14840653Y-14433862D01*
X15002558Y-14529100D02*
X15002558Y-14662434D01*
X14954938Y-14452910D02*
X14907319Y-14595767D01*
X14907319Y-14595767D02*
X15031129Y-14595767D01*
X15145415Y-14462434D02*
X15164462Y-14462434D01*
X15164462Y-14462434D02*
X15183510Y-14471958D01*
X15183510Y-14471958D02*
X15193034Y-14481481D01*
X15193034Y-14481481D02*
X15202558Y-14500529D01*
X15202558Y-14500529D02*
X15212081Y-14538624D01*
X15212081Y-14538624D02*
X15212081Y-14586243D01*
X15212081Y-14586243D02*
X15202558Y-14624338D01*
X15202558Y-14624338D02*
X15193034Y-14643386D01*
X15193034Y-14643386D02*
X15183510Y-14652910D01*
X15183510Y-14652910D02*
X15164462Y-14662434D01*
X15164462Y-14662434D02*
X15145415Y-14662434D01*
X15145415Y-14662434D02*
X15126367Y-14652910D01*
X15126367Y-14652910D02*
X15116843Y-14643386D01*
X15116843Y-14643386D02*
X15107319Y-14624338D01*
X15107319Y-14624338D02*
X15097796Y-14586243D01*
X15097796Y-14586243D02*
X15097796Y-14538624D01*
X15097796Y-14538624D02*
X15107319Y-14500529D01*
X15107319Y-14500529D02*
X15116843Y-14481481D01*
X15116843Y-14481481D02*
X15126367Y-14471958D01*
X15126367Y-14471958D02*
X15145415Y-14462434D01*
X15450177Y-14662434D02*
X15450177Y-14462434D01*
X15535891Y-14662434D02*
X15535891Y-14557672D01*
X15535891Y-14557672D02*
X15526367Y-14538624D01*
X15526367Y-14538624D02*
X15507320Y-14529100D01*
X15507320Y-14529100D02*
X15478748Y-14529100D01*
X15478748Y-14529100D02*
X15459700Y-14538624D01*
X15459700Y-14538624D02*
X15450177Y-14548148D01*
X15659700Y-14662434D02*
X15640653Y-14652910D01*
X15640653Y-14652910D02*
X15631129Y-14643386D01*
X15631129Y-14643386D02*
X15621605Y-14624338D01*
X15621605Y-14624338D02*
X15621605Y-14567196D01*
X15621605Y-14567196D02*
X15631129Y-14548148D01*
X15631129Y-14548148D02*
X15640653Y-14538624D01*
X15640653Y-14538624D02*
X15659700Y-14529100D01*
X15659700Y-14529100D02*
X15688272Y-14529100D01*
X15688272Y-14529100D02*
X15707320Y-14538624D01*
X15707320Y-14538624D02*
X15716843Y-14548148D01*
X15716843Y-14548148D02*
X15726367Y-14567196D01*
X15726367Y-14567196D02*
X15726367Y-14624338D01*
X15726367Y-14624338D02*
X15716843Y-14643386D01*
X15716843Y-14643386D02*
X15707320Y-14652910D01*
X15707320Y-14652910D02*
X15688272Y-14662434D01*
X15688272Y-14662434D02*
X15659700Y-14662434D01*
X15840653Y-14662434D02*
X15821605Y-14652910D01*
X15821605Y-14652910D02*
X15812081Y-14633862D01*
X15812081Y-14633862D02*
X15812081Y-14462434D01*
X15993034Y-14652910D02*
X15973986Y-14662434D01*
X15973986Y-14662434D02*
X15935891Y-14662434D01*
X15935891Y-14662434D02*
X15916843Y-14652910D01*
X15916843Y-14652910D02*
X15907320Y-14633862D01*
X15907320Y-14633862D02*
X15907320Y-14557672D01*
X15907320Y-14557672D02*
X15916843Y-14538624D01*
X15916843Y-14538624D02*
X15935891Y-14529100D01*
X15935891Y-14529100D02*
X15973986Y-14529100D01*
X15973986Y-14529100D02*
X15993034Y-14538624D01*
X15993034Y-14538624D02*
X16002558Y-14557672D01*
X16002558Y-14557672D02*
X16002558Y-14576719D01*
X16002558Y-14576719D02*
X15907320Y-14595767D01*
X16078748Y-14652910D02*
X16097796Y-14662434D01*
X16097796Y-14662434D02*
X16135891Y-14662434D01*
X16135891Y-14662434D02*
X16154939Y-14652910D01*
X16154939Y-14652910D02*
X16164462Y-14633862D01*
X16164462Y-14633862D02*
X16164462Y-14624338D01*
X16164462Y-14624338D02*
X16154939Y-14605291D01*
X16154939Y-14605291D02*
X16135891Y-14595767D01*
X16135891Y-14595767D02*
X16107320Y-14595767D01*
X16107320Y-14595767D02*
X16088272Y-14586243D01*
X16088272Y-14586243D02*
X16078748Y-14567196D01*
X16078748Y-14567196D02*
X16078748Y-14557672D01*
X16078748Y-14557672D02*
X16088272Y-14538624D01*
X16088272Y-14538624D02*
X16107320Y-14529100D01*
X16107320Y-14529100D02*
X16135891Y-14529100D01*
X16135891Y-14529100D02*
X16154939Y-14538624D01*
X16231129Y-14738624D02*
X16240653Y-14729100D01*
X16240653Y-14729100D02*
X16259701Y-14700529D01*
X16259701Y-14700529D02*
X16269224Y-14681481D01*
X16269224Y-14681481D02*
X16278748Y-14652910D01*
X16278748Y-14652910D02*
X16288272Y-14605291D01*
X16288272Y-14605291D02*
X16288272Y-14567196D01*
X16288272Y-14567196D02*
X16278748Y-14519577D01*
X16278748Y-14519577D02*
X16269224Y-14491005D01*
X16269224Y-14491005D02*
X16259701Y-14471958D01*
X16259701Y-14471958D02*
X16240653Y-14443386D01*
X16240653Y-14443386D02*
X16231129Y-14433862D01*
D13*
X11163990Y-14784150D02*
X11265590Y-14885750D01*
X11265590Y-14784150D02*
X11163990Y-14885750D01*
X11214790Y-14784150D02*
X11214790Y-14885750D01*
X11163990Y-14834950D02*
X11265590Y-14834950D01*
D11*
X11631129Y-14926434D02*
X11516843Y-14926434D01*
X11573986Y-14926434D02*
X11573986Y-14726434D01*
X11573986Y-14726434D02*
X11554938Y-14755005D01*
X11554938Y-14755005D02*
X11535891Y-14774053D01*
X11535891Y-14774053D02*
X11516843Y-14783577D01*
X11716843Y-14907386D02*
X11726367Y-14916910D01*
X11726367Y-14916910D02*
X11716843Y-14926434D01*
X11716843Y-14926434D02*
X11707319Y-14916910D01*
X11707319Y-14916910D02*
X11716843Y-14907386D01*
X11716843Y-14907386D02*
X11716843Y-14926434D01*
X11850176Y-14726434D02*
X11869224Y-14726434D01*
X11869224Y-14726434D02*
X11888272Y-14735958D01*
X11888272Y-14735958D02*
X11897795Y-14745481D01*
X11897795Y-14745481D02*
X11907319Y-14764529D01*
X11907319Y-14764529D02*
X11916843Y-14802624D01*
X11916843Y-14802624D02*
X11916843Y-14850243D01*
X11916843Y-14850243D02*
X11907319Y-14888338D01*
X11907319Y-14888338D02*
X11897795Y-14907386D01*
X11897795Y-14907386D02*
X11888272Y-14916910D01*
X11888272Y-14916910D02*
X11869224Y-14926434D01*
X11869224Y-14926434D02*
X11850176Y-14926434D01*
X11850176Y-14926434D02*
X11831129Y-14916910D01*
X11831129Y-14916910D02*
X11821605Y-14907386D01*
X11821605Y-14907386D02*
X11812081Y-14888338D01*
X11812081Y-14888338D02*
X11802557Y-14850243D01*
X11802557Y-14850243D02*
X11802557Y-14802624D01*
X11802557Y-14802624D02*
X11812081Y-14764529D01*
X11812081Y-14764529D02*
X11821605Y-14745481D01*
X11821605Y-14745481D02*
X11831129Y-14735958D01*
X11831129Y-14735958D02*
X11850176Y-14726434D01*
X12107319Y-14926434D02*
X11993033Y-14926434D01*
X12050176Y-14926434D02*
X12050176Y-14726434D01*
X12050176Y-14726434D02*
X12031129Y-14755005D01*
X12031129Y-14755005D02*
X12012081Y-14774053D01*
X12012081Y-14774053D02*
X11993033Y-14783577D01*
X12278748Y-14726434D02*
X12240652Y-14726434D01*
X12240652Y-14726434D02*
X12221605Y-14735958D01*
X12221605Y-14735958D02*
X12212081Y-14745481D01*
X12212081Y-14745481D02*
X12193033Y-14774053D01*
X12193033Y-14774053D02*
X12183510Y-14812148D01*
X12183510Y-14812148D02*
X12183510Y-14888338D01*
X12183510Y-14888338D02*
X12193033Y-14907386D01*
X12193033Y-14907386D02*
X12202557Y-14916910D01*
X12202557Y-14916910D02*
X12221605Y-14926434D01*
X12221605Y-14926434D02*
X12259700Y-14926434D01*
X12259700Y-14926434D02*
X12278748Y-14916910D01*
X12278748Y-14916910D02*
X12288272Y-14907386D01*
X12288272Y-14907386D02*
X12297795Y-14888338D01*
X12297795Y-14888338D02*
X12297795Y-14840719D01*
X12297795Y-14840719D02*
X12288272Y-14821672D01*
X12288272Y-14821672D02*
X12278748Y-14812148D01*
X12278748Y-14812148D02*
X12259700Y-14802624D01*
X12259700Y-14802624D02*
X12221605Y-14802624D01*
X12221605Y-14802624D02*
X12202557Y-14812148D01*
X12202557Y-14812148D02*
X12193033Y-14821672D01*
X12193033Y-14821672D02*
X12183510Y-14840719D01*
X12383510Y-14926434D02*
X12383510Y-14793100D01*
X12383510Y-14812148D02*
X12393033Y-14802624D01*
X12393033Y-14802624D02*
X12412081Y-14793100D01*
X12412081Y-14793100D02*
X12440653Y-14793100D01*
X12440653Y-14793100D02*
X12459700Y-14802624D01*
X12459700Y-14802624D02*
X12469224Y-14821672D01*
X12469224Y-14821672D02*
X12469224Y-14926434D01*
X12469224Y-14821672D02*
X12478748Y-14802624D01*
X12478748Y-14802624D02*
X12497795Y-14793100D01*
X12497795Y-14793100D02*
X12526367Y-14793100D01*
X12526367Y-14793100D02*
X12545414Y-14802624D01*
X12545414Y-14802624D02*
X12554938Y-14821672D01*
X12554938Y-14821672D02*
X12554938Y-14926434D01*
X12650176Y-14926434D02*
X12650176Y-14793100D01*
X12650176Y-14812148D02*
X12659700Y-14802624D01*
X12659700Y-14802624D02*
X12678748Y-14793100D01*
X12678748Y-14793100D02*
X12707319Y-14793100D01*
X12707319Y-14793100D02*
X12726367Y-14802624D01*
X12726367Y-14802624D02*
X12735891Y-14821672D01*
X12735891Y-14821672D02*
X12735891Y-14926434D01*
X12735891Y-14821672D02*
X12745414Y-14802624D01*
X12745414Y-14802624D02*
X12764462Y-14793100D01*
X12764462Y-14793100D02*
X12793033Y-14793100D01*
X12793033Y-14793100D02*
X12812081Y-14802624D01*
X12812081Y-14802624D02*
X12821605Y-14821672D01*
X12821605Y-14821672D02*
X12821605Y-14926434D01*
X13212081Y-14716910D02*
X13040653Y-14974053D01*
X13469224Y-14726434D02*
X13488272Y-14726434D01*
X13488272Y-14726434D02*
X13507319Y-14735958D01*
X13507319Y-14735958D02*
X13516843Y-14745481D01*
X13516843Y-14745481D02*
X13526367Y-14764529D01*
X13526367Y-14764529D02*
X13535891Y-14802624D01*
X13535891Y-14802624D02*
X13535891Y-14850243D01*
X13535891Y-14850243D02*
X13526367Y-14888338D01*
X13526367Y-14888338D02*
X13516843Y-14907386D01*
X13516843Y-14907386D02*
X13507319Y-14916910D01*
X13507319Y-14916910D02*
X13488272Y-14926434D01*
X13488272Y-14926434D02*
X13469224Y-14926434D01*
X13469224Y-14926434D02*
X13450176Y-14916910D01*
X13450176Y-14916910D02*
X13440653Y-14907386D01*
X13440653Y-14907386D02*
X13431129Y-14888338D01*
X13431129Y-14888338D02*
X13421605Y-14850243D01*
X13421605Y-14850243D02*
X13421605Y-14802624D01*
X13421605Y-14802624D02*
X13431129Y-14764529D01*
X13431129Y-14764529D02*
X13440653Y-14745481D01*
X13440653Y-14745481D02*
X13450176Y-14735958D01*
X13450176Y-14735958D02*
X13469224Y-14726434D01*
X13621605Y-14907386D02*
X13631129Y-14916910D01*
X13631129Y-14916910D02*
X13621605Y-14926434D01*
X13621605Y-14926434D02*
X13612081Y-14916910D01*
X13612081Y-14916910D02*
X13621605Y-14907386D01*
X13621605Y-14907386D02*
X13621605Y-14926434D01*
X13754938Y-14726434D02*
X13773986Y-14726434D01*
X13773986Y-14726434D02*
X13793034Y-14735958D01*
X13793034Y-14735958D02*
X13802557Y-14745481D01*
X13802557Y-14745481D02*
X13812081Y-14764529D01*
X13812081Y-14764529D02*
X13821605Y-14802624D01*
X13821605Y-14802624D02*
X13821605Y-14850243D01*
X13821605Y-14850243D02*
X13812081Y-14888338D01*
X13812081Y-14888338D02*
X13802557Y-14907386D01*
X13802557Y-14907386D02*
X13793034Y-14916910D01*
X13793034Y-14916910D02*
X13773986Y-14926434D01*
X13773986Y-14926434D02*
X13754938Y-14926434D01*
X13754938Y-14926434D02*
X13735891Y-14916910D01*
X13735891Y-14916910D02*
X13726367Y-14907386D01*
X13726367Y-14907386D02*
X13716843Y-14888338D01*
X13716843Y-14888338D02*
X13707319Y-14850243D01*
X13707319Y-14850243D02*
X13707319Y-14802624D01*
X13707319Y-14802624D02*
X13716843Y-14764529D01*
X13716843Y-14764529D02*
X13726367Y-14745481D01*
X13726367Y-14745481D02*
X13735891Y-14735958D01*
X13735891Y-14735958D02*
X13754938Y-14726434D01*
X13993034Y-14793100D02*
X13993034Y-14926434D01*
X13945415Y-14716910D02*
X13897796Y-14859767D01*
X13897796Y-14859767D02*
X14021605Y-14859767D01*
X14135891Y-14726434D02*
X14154938Y-14726434D01*
X14154938Y-14726434D02*
X14173986Y-14735958D01*
X14173986Y-14735958D02*
X14183510Y-14745481D01*
X14183510Y-14745481D02*
X14193034Y-14764529D01*
X14193034Y-14764529D02*
X14202557Y-14802624D01*
X14202557Y-14802624D02*
X14202557Y-14850243D01*
X14202557Y-14850243D02*
X14193034Y-14888338D01*
X14193034Y-14888338D02*
X14183510Y-14907386D01*
X14183510Y-14907386D02*
X14173986Y-14916910D01*
X14173986Y-14916910D02*
X14154938Y-14926434D01*
X14154938Y-14926434D02*
X14135891Y-14926434D01*
X14135891Y-14926434D02*
X14116843Y-14916910D01*
X14116843Y-14916910D02*
X14107319Y-14907386D01*
X14107319Y-14907386D02*
X14097796Y-14888338D01*
X14097796Y-14888338D02*
X14088272Y-14850243D01*
X14088272Y-14850243D02*
X14088272Y-14802624D01*
X14088272Y-14802624D02*
X14097796Y-14764529D01*
X14097796Y-14764529D02*
X14107319Y-14745481D01*
X14107319Y-14745481D02*
X14116843Y-14735958D01*
X14116843Y-14735958D02*
X14135891Y-14726434D01*
X14326367Y-14726434D02*
X14345415Y-14726434D01*
X14345415Y-14726434D02*
X14364462Y-14735958D01*
X14364462Y-14735958D02*
X14373986Y-14745481D01*
X14373986Y-14745481D02*
X14383510Y-14764529D01*
X14383510Y-14764529D02*
X14393034Y-14802624D01*
X14393034Y-14802624D02*
X14393034Y-14850243D01*
X14393034Y-14850243D02*
X14383510Y-14888338D01*
X14383510Y-14888338D02*
X14373986Y-14907386D01*
X14373986Y-14907386D02*
X14364462Y-14916910D01*
X14364462Y-14916910D02*
X14345415Y-14926434D01*
X14345415Y-14926434D02*
X14326367Y-14926434D01*
X14326367Y-14926434D02*
X14307319Y-14916910D01*
X14307319Y-14916910D02*
X14297796Y-14907386D01*
X14297796Y-14907386D02*
X14288272Y-14888338D01*
X14288272Y-14888338D02*
X14278748Y-14850243D01*
X14278748Y-14850243D02*
X14278748Y-14802624D01*
X14278748Y-14802624D02*
X14288272Y-14764529D01*
X14288272Y-14764529D02*
X14297796Y-14745481D01*
X14297796Y-14745481D02*
X14307319Y-14735958D01*
X14307319Y-14735958D02*
X14326367Y-14726434D01*
X14469224Y-14726434D02*
X14469224Y-14764529D01*
X14545415Y-14726434D02*
X14545415Y-14764529D01*
X14840653Y-15002624D02*
X14831129Y-14993100D01*
X14831129Y-14993100D02*
X14812081Y-14964529D01*
X14812081Y-14964529D02*
X14802558Y-14945481D01*
X14802558Y-14945481D02*
X14793034Y-14916910D01*
X14793034Y-14916910D02*
X14783510Y-14869291D01*
X14783510Y-14869291D02*
X14783510Y-14831196D01*
X14783510Y-14831196D02*
X14793034Y-14783577D01*
X14793034Y-14783577D02*
X14802558Y-14755005D01*
X14802558Y-14755005D02*
X14812081Y-14735958D01*
X14812081Y-14735958D02*
X14831129Y-14707386D01*
X14831129Y-14707386D02*
X14840653Y-14697862D01*
X15012081Y-14726434D02*
X14916843Y-14726434D01*
X14916843Y-14726434D02*
X14907319Y-14821672D01*
X14907319Y-14821672D02*
X14916843Y-14812148D01*
X14916843Y-14812148D02*
X14935891Y-14802624D01*
X14935891Y-14802624D02*
X14983510Y-14802624D01*
X14983510Y-14802624D02*
X15002558Y-14812148D01*
X15002558Y-14812148D02*
X15012081Y-14821672D01*
X15012081Y-14821672D02*
X15021605Y-14840719D01*
X15021605Y-14840719D02*
X15021605Y-14888338D01*
X15021605Y-14888338D02*
X15012081Y-14907386D01*
X15012081Y-14907386D02*
X15002558Y-14916910D01*
X15002558Y-14916910D02*
X14983510Y-14926434D01*
X14983510Y-14926434D02*
X14935891Y-14926434D01*
X14935891Y-14926434D02*
X14916843Y-14916910D01*
X14916843Y-14916910D02*
X14907319Y-14907386D01*
X15259700Y-14926434D02*
X15259700Y-14726434D01*
X15345415Y-14926434D02*
X15345415Y-14821672D01*
X15345415Y-14821672D02*
X15335891Y-14802624D01*
X15335891Y-14802624D02*
X15316843Y-14793100D01*
X15316843Y-14793100D02*
X15288272Y-14793100D01*
X15288272Y-14793100D02*
X15269224Y-14802624D01*
X15269224Y-14802624D02*
X15259700Y-14812148D01*
X15469224Y-14926434D02*
X15450177Y-14916910D01*
X15450177Y-14916910D02*
X15440653Y-14907386D01*
X15440653Y-14907386D02*
X15431129Y-14888338D01*
X15431129Y-14888338D02*
X15431129Y-14831196D01*
X15431129Y-14831196D02*
X15440653Y-14812148D01*
X15440653Y-14812148D02*
X15450177Y-14802624D01*
X15450177Y-14802624D02*
X15469224Y-14793100D01*
X15469224Y-14793100D02*
X15497796Y-14793100D01*
X15497796Y-14793100D02*
X15516843Y-14802624D01*
X15516843Y-14802624D02*
X15526367Y-14812148D01*
X15526367Y-14812148D02*
X15535891Y-14831196D01*
X15535891Y-14831196D02*
X15535891Y-14888338D01*
X15535891Y-14888338D02*
X15526367Y-14907386D01*
X15526367Y-14907386D02*
X15516843Y-14916910D01*
X15516843Y-14916910D02*
X15497796Y-14926434D01*
X15497796Y-14926434D02*
X15469224Y-14926434D01*
X15650177Y-14926434D02*
X15631129Y-14916910D01*
X15631129Y-14916910D02*
X15621605Y-14897862D01*
X15621605Y-14897862D02*
X15621605Y-14726434D01*
X15802558Y-14916910D02*
X15783510Y-14926434D01*
X15783510Y-14926434D02*
X15745415Y-14926434D01*
X15745415Y-14926434D02*
X15726367Y-14916910D01*
X15726367Y-14916910D02*
X15716843Y-14897862D01*
X15716843Y-14897862D02*
X15716843Y-14821672D01*
X15716843Y-14821672D02*
X15726367Y-14802624D01*
X15726367Y-14802624D02*
X15745415Y-14793100D01*
X15745415Y-14793100D02*
X15783510Y-14793100D01*
X15783510Y-14793100D02*
X15802558Y-14802624D01*
X15802558Y-14802624D02*
X15812081Y-14821672D01*
X15812081Y-14821672D02*
X15812081Y-14840719D01*
X15812081Y-14840719D02*
X15716843Y-14859767D01*
X15888272Y-14916910D02*
X15907320Y-14926434D01*
X15907320Y-14926434D02*
X15945415Y-14926434D01*
X15945415Y-14926434D02*
X15964462Y-14916910D01*
X15964462Y-14916910D02*
X15973986Y-14897862D01*
X15973986Y-14897862D02*
X15973986Y-14888338D01*
X15973986Y-14888338D02*
X15964462Y-14869291D01*
X15964462Y-14869291D02*
X15945415Y-14859767D01*
X15945415Y-14859767D02*
X15916843Y-14859767D01*
X15916843Y-14859767D02*
X15897796Y-14850243D01*
X15897796Y-14850243D02*
X15888272Y-14831196D01*
X15888272Y-14831196D02*
X15888272Y-14821672D01*
X15888272Y-14821672D02*
X15897796Y-14802624D01*
X15897796Y-14802624D02*
X15916843Y-14793100D01*
X15916843Y-14793100D02*
X15945415Y-14793100D01*
X15945415Y-14793100D02*
X15964462Y-14802624D01*
X16040653Y-15002624D02*
X16050177Y-14993100D01*
X16050177Y-14993100D02*
X16069224Y-14964529D01*
X16069224Y-14964529D02*
X16078748Y-14945481D01*
X16078748Y-14945481D02*
X16088272Y-14916910D01*
X16088272Y-14916910D02*
X16097796Y-14869291D01*
X16097796Y-14869291D02*
X16097796Y-14831196D01*
X16097796Y-14831196D02*
X16088272Y-14783577D01*
X16088272Y-14783577D02*
X16078748Y-14755005D01*
X16078748Y-14755005D02*
X16069224Y-14735958D01*
X16069224Y-14735958D02*
X16050177Y-14707386D01*
X16050177Y-14707386D02*
X16040653Y-14697862D01*
X11065590Y-14998950D02*
X11265590Y-15198950D01*
X11265590Y-14998950D02*
X11065590Y-15198950D01*
X11236301Y-15169661D02*
X11236301Y-15028239D01*
X11094879Y-15028239D01*
X11094879Y-15169661D01*
X11236301Y-15169661D01*
X11516843Y-15009481D02*
X11526367Y-14999958D01*
X11526367Y-14999958D02*
X11545414Y-14990434D01*
X11545414Y-14990434D02*
X11593033Y-14990434D01*
X11593033Y-14990434D02*
X11612081Y-14999958D01*
X11612081Y-14999958D02*
X11621605Y-15009481D01*
X11621605Y-15009481D02*
X11631129Y-15028529D01*
X11631129Y-15028529D02*
X11631129Y-15047577D01*
X11631129Y-15047577D02*
X11621605Y-15076148D01*
X11621605Y-15076148D02*
X11507319Y-15190434D01*
X11507319Y-15190434D02*
X11631129Y-15190434D01*
X11716843Y-15171386D02*
X11726367Y-15180910D01*
X11726367Y-15180910D02*
X11716843Y-15190434D01*
X11716843Y-15190434D02*
X11707319Y-15180910D01*
X11707319Y-15180910D02*
X11716843Y-15171386D01*
X11716843Y-15171386D02*
X11716843Y-15190434D01*
X11907319Y-14990434D02*
X11812081Y-14990434D01*
X11812081Y-14990434D02*
X11802557Y-15085672D01*
X11802557Y-15085672D02*
X11812081Y-15076148D01*
X11812081Y-15076148D02*
X11831129Y-15066624D01*
X11831129Y-15066624D02*
X11878748Y-15066624D01*
X11878748Y-15066624D02*
X11897795Y-15076148D01*
X11897795Y-15076148D02*
X11907319Y-15085672D01*
X11907319Y-15085672D02*
X11916843Y-15104719D01*
X11916843Y-15104719D02*
X11916843Y-15152338D01*
X11916843Y-15152338D02*
X11907319Y-15171386D01*
X11907319Y-15171386D02*
X11897795Y-15180910D01*
X11897795Y-15180910D02*
X11878748Y-15190434D01*
X11878748Y-15190434D02*
X11831129Y-15190434D01*
X11831129Y-15190434D02*
X11812081Y-15180910D01*
X11812081Y-15180910D02*
X11802557Y-15171386D01*
X12040652Y-14990434D02*
X12059700Y-14990434D01*
X12059700Y-14990434D02*
X12078748Y-14999958D01*
X12078748Y-14999958D02*
X12088272Y-15009481D01*
X12088272Y-15009481D02*
X12097795Y-15028529D01*
X12097795Y-15028529D02*
X12107319Y-15066624D01*
X12107319Y-15066624D02*
X12107319Y-15114243D01*
X12107319Y-15114243D02*
X12097795Y-15152338D01*
X12097795Y-15152338D02*
X12088272Y-15171386D01*
X12088272Y-15171386D02*
X12078748Y-15180910D01*
X12078748Y-15180910D02*
X12059700Y-15190434D01*
X12059700Y-15190434D02*
X12040652Y-15190434D01*
X12040652Y-15190434D02*
X12021605Y-15180910D01*
X12021605Y-15180910D02*
X12012081Y-15171386D01*
X12012081Y-15171386D02*
X12002557Y-15152338D01*
X12002557Y-15152338D02*
X11993033Y-15114243D01*
X11993033Y-15114243D02*
X11993033Y-15066624D01*
X11993033Y-15066624D02*
X12002557Y-15028529D01*
X12002557Y-15028529D02*
X12012081Y-15009481D01*
X12012081Y-15009481D02*
X12021605Y-14999958D01*
X12021605Y-14999958D02*
X12040652Y-14990434D01*
X12231129Y-14990434D02*
X12250176Y-14990434D01*
X12250176Y-14990434D02*
X12269224Y-14999958D01*
X12269224Y-14999958D02*
X12278748Y-15009481D01*
X12278748Y-15009481D02*
X12288272Y-15028529D01*
X12288272Y-15028529D02*
X12297795Y-15066624D01*
X12297795Y-15066624D02*
X12297795Y-15114243D01*
X12297795Y-15114243D02*
X12288272Y-15152338D01*
X12288272Y-15152338D02*
X12278748Y-15171386D01*
X12278748Y-15171386D02*
X12269224Y-15180910D01*
X12269224Y-15180910D02*
X12250176Y-15190434D01*
X12250176Y-15190434D02*
X12231129Y-15190434D01*
X12231129Y-15190434D02*
X12212081Y-15180910D01*
X12212081Y-15180910D02*
X12202557Y-15171386D01*
X12202557Y-15171386D02*
X12193033Y-15152338D01*
X12193033Y-15152338D02*
X12183510Y-15114243D01*
X12183510Y-15114243D02*
X12183510Y-15066624D01*
X12183510Y-15066624D02*
X12193033Y-15028529D01*
X12193033Y-15028529D02*
X12202557Y-15009481D01*
X12202557Y-15009481D02*
X12212081Y-14999958D01*
X12212081Y-14999958D02*
X12231129Y-14990434D01*
X12383510Y-15190434D02*
X12383510Y-15057100D01*
X12383510Y-15076148D02*
X12393033Y-15066624D01*
X12393033Y-15066624D02*
X12412081Y-15057100D01*
X12412081Y-15057100D02*
X12440653Y-15057100D01*
X12440653Y-15057100D02*
X12459700Y-15066624D01*
X12459700Y-15066624D02*
X12469224Y-15085672D01*
X12469224Y-15085672D02*
X12469224Y-15190434D01*
X12469224Y-15085672D02*
X12478748Y-15066624D01*
X12478748Y-15066624D02*
X12497795Y-15057100D01*
X12497795Y-15057100D02*
X12526367Y-15057100D01*
X12526367Y-15057100D02*
X12545414Y-15066624D01*
X12545414Y-15066624D02*
X12554938Y-15085672D01*
X12554938Y-15085672D02*
X12554938Y-15190434D01*
X12650176Y-15190434D02*
X12650176Y-15057100D01*
X12650176Y-15076148D02*
X12659700Y-15066624D01*
X12659700Y-15066624D02*
X12678748Y-15057100D01*
X12678748Y-15057100D02*
X12707319Y-15057100D01*
X12707319Y-15057100D02*
X12726367Y-15066624D01*
X12726367Y-15066624D02*
X12735891Y-15085672D01*
X12735891Y-15085672D02*
X12735891Y-15190434D01*
X12735891Y-15085672D02*
X12745414Y-15066624D01*
X12745414Y-15066624D02*
X12764462Y-15057100D01*
X12764462Y-15057100D02*
X12793033Y-15057100D01*
X12793033Y-15057100D02*
X12812081Y-15066624D01*
X12812081Y-15066624D02*
X12821605Y-15085672D01*
X12821605Y-15085672D02*
X12821605Y-15190434D01*
X13212081Y-14980910D02*
X13040653Y-15238053D01*
X13469224Y-14990434D02*
X13488272Y-14990434D01*
X13488272Y-14990434D02*
X13507319Y-14999958D01*
X13507319Y-14999958D02*
X13516843Y-15009481D01*
X13516843Y-15009481D02*
X13526367Y-15028529D01*
X13526367Y-15028529D02*
X13535891Y-15066624D01*
X13535891Y-15066624D02*
X13535891Y-15114243D01*
X13535891Y-15114243D02*
X13526367Y-15152338D01*
X13526367Y-15152338D02*
X13516843Y-15171386D01*
X13516843Y-15171386D02*
X13507319Y-15180910D01*
X13507319Y-15180910D02*
X13488272Y-15190434D01*
X13488272Y-15190434D02*
X13469224Y-15190434D01*
X13469224Y-15190434D02*
X13450176Y-15180910D01*
X13450176Y-15180910D02*
X13440653Y-15171386D01*
X13440653Y-15171386D02*
X13431129Y-15152338D01*
X13431129Y-15152338D02*
X13421605Y-15114243D01*
X13421605Y-15114243D02*
X13421605Y-15066624D01*
X13421605Y-15066624D02*
X13431129Y-15028529D01*
X13431129Y-15028529D02*
X13440653Y-15009481D01*
X13440653Y-15009481D02*
X13450176Y-14999958D01*
X13450176Y-14999958D02*
X13469224Y-14990434D01*
X13621605Y-15171386D02*
X13631129Y-15180910D01*
X13631129Y-15180910D02*
X13621605Y-15190434D01*
X13621605Y-15190434D02*
X13612081Y-15180910D01*
X13612081Y-15180910D02*
X13621605Y-15171386D01*
X13621605Y-15171386D02*
X13621605Y-15190434D01*
X13754938Y-14990434D02*
X13773986Y-14990434D01*
X13773986Y-14990434D02*
X13793034Y-14999958D01*
X13793034Y-14999958D02*
X13802557Y-15009481D01*
X13802557Y-15009481D02*
X13812081Y-15028529D01*
X13812081Y-15028529D02*
X13821605Y-15066624D01*
X13821605Y-15066624D02*
X13821605Y-15114243D01*
X13821605Y-15114243D02*
X13812081Y-15152338D01*
X13812081Y-15152338D02*
X13802557Y-15171386D01*
X13802557Y-15171386D02*
X13793034Y-15180910D01*
X13793034Y-15180910D02*
X13773986Y-15190434D01*
X13773986Y-15190434D02*
X13754938Y-15190434D01*
X13754938Y-15190434D02*
X13735891Y-15180910D01*
X13735891Y-15180910D02*
X13726367Y-15171386D01*
X13726367Y-15171386D02*
X13716843Y-15152338D01*
X13716843Y-15152338D02*
X13707319Y-15114243D01*
X13707319Y-15114243D02*
X13707319Y-15066624D01*
X13707319Y-15066624D02*
X13716843Y-15028529D01*
X13716843Y-15028529D02*
X13726367Y-15009481D01*
X13726367Y-15009481D02*
X13735891Y-14999958D01*
X13735891Y-14999958D02*
X13754938Y-14990434D01*
X13916843Y-15190434D02*
X13954938Y-15190434D01*
X13954938Y-15190434D02*
X13973986Y-15180910D01*
X13973986Y-15180910D02*
X13983510Y-15171386D01*
X13983510Y-15171386D02*
X14002557Y-15142815D01*
X14002557Y-15142815D02*
X14012081Y-15104719D01*
X14012081Y-15104719D02*
X14012081Y-15028529D01*
X14012081Y-15028529D02*
X14002557Y-15009481D01*
X14002557Y-15009481D02*
X13993034Y-14999958D01*
X13993034Y-14999958D02*
X13973986Y-14990434D01*
X13973986Y-14990434D02*
X13935891Y-14990434D01*
X13935891Y-14990434D02*
X13916843Y-14999958D01*
X13916843Y-14999958D02*
X13907319Y-15009481D01*
X13907319Y-15009481D02*
X13897796Y-15028529D01*
X13897796Y-15028529D02*
X13897796Y-15076148D01*
X13897796Y-15076148D02*
X13907319Y-15095196D01*
X13907319Y-15095196D02*
X13916843Y-15104719D01*
X13916843Y-15104719D02*
X13935891Y-15114243D01*
X13935891Y-15114243D02*
X13973986Y-15114243D01*
X13973986Y-15114243D02*
X13993034Y-15104719D01*
X13993034Y-15104719D02*
X14002557Y-15095196D01*
X14002557Y-15095196D02*
X14012081Y-15076148D01*
X14126367Y-15076148D02*
X14107319Y-15066624D01*
X14107319Y-15066624D02*
X14097796Y-15057100D01*
X14097796Y-15057100D02*
X14088272Y-15038053D01*
X14088272Y-15038053D02*
X14088272Y-15028529D01*
X14088272Y-15028529D02*
X14097796Y-15009481D01*
X14097796Y-15009481D02*
X14107319Y-14999958D01*
X14107319Y-14999958D02*
X14126367Y-14990434D01*
X14126367Y-14990434D02*
X14164462Y-14990434D01*
X14164462Y-14990434D02*
X14183510Y-14999958D01*
X14183510Y-14999958D02*
X14193034Y-15009481D01*
X14193034Y-15009481D02*
X14202557Y-15028529D01*
X14202557Y-15028529D02*
X14202557Y-15038053D01*
X14202557Y-15038053D02*
X14193034Y-15057100D01*
X14193034Y-15057100D02*
X14183510Y-15066624D01*
X14183510Y-15066624D02*
X14164462Y-15076148D01*
X14164462Y-15076148D02*
X14126367Y-15076148D01*
X14126367Y-15076148D02*
X14107319Y-15085672D01*
X14107319Y-15085672D02*
X14097796Y-15095196D01*
X14097796Y-15095196D02*
X14088272Y-15114243D01*
X14088272Y-15114243D02*
X14088272Y-15152338D01*
X14088272Y-15152338D02*
X14097796Y-15171386D01*
X14097796Y-15171386D02*
X14107319Y-15180910D01*
X14107319Y-15180910D02*
X14126367Y-15190434D01*
X14126367Y-15190434D02*
X14164462Y-15190434D01*
X14164462Y-15190434D02*
X14183510Y-15180910D01*
X14183510Y-15180910D02*
X14193034Y-15171386D01*
X14193034Y-15171386D02*
X14202557Y-15152338D01*
X14202557Y-15152338D02*
X14202557Y-15114243D01*
X14202557Y-15114243D02*
X14193034Y-15095196D01*
X14193034Y-15095196D02*
X14183510Y-15085672D01*
X14183510Y-15085672D02*
X14164462Y-15076148D01*
X14373986Y-15057100D02*
X14373986Y-15190434D01*
X14326367Y-14980910D02*
X14278748Y-15123767D01*
X14278748Y-15123767D02*
X14402557Y-15123767D01*
X14469224Y-14990434D02*
X14469224Y-15028529D01*
X14545415Y-14990434D02*
X14545415Y-15028529D01*
X14840653Y-15266624D02*
X14831129Y-15257100D01*
X14831129Y-15257100D02*
X14812081Y-15228529D01*
X14812081Y-15228529D02*
X14802558Y-15209481D01*
X14802558Y-15209481D02*
X14793034Y-15180910D01*
X14793034Y-15180910D02*
X14783510Y-15133291D01*
X14783510Y-15133291D02*
X14783510Y-15095196D01*
X14783510Y-15095196D02*
X14793034Y-15047577D01*
X14793034Y-15047577D02*
X14802558Y-15019005D01*
X14802558Y-15019005D02*
X14812081Y-14999958D01*
X14812081Y-14999958D02*
X14831129Y-14971386D01*
X14831129Y-14971386D02*
X14840653Y-14961862D01*
X14907319Y-15009481D02*
X14916843Y-14999958D01*
X14916843Y-14999958D02*
X14935891Y-14990434D01*
X14935891Y-14990434D02*
X14983510Y-14990434D01*
X14983510Y-14990434D02*
X15002558Y-14999958D01*
X15002558Y-14999958D02*
X15012081Y-15009481D01*
X15012081Y-15009481D02*
X15021605Y-15028529D01*
X15021605Y-15028529D02*
X15021605Y-15047577D01*
X15021605Y-15047577D02*
X15012081Y-15076148D01*
X15012081Y-15076148D02*
X14897796Y-15190434D01*
X14897796Y-15190434D02*
X15021605Y-15190434D01*
X15259700Y-15190434D02*
X15259700Y-14990434D01*
X15345415Y-15190434D02*
X15345415Y-15085672D01*
X15345415Y-15085672D02*
X15335891Y-15066624D01*
X15335891Y-15066624D02*
X15316843Y-15057100D01*
X15316843Y-15057100D02*
X15288272Y-15057100D01*
X15288272Y-15057100D02*
X15269224Y-15066624D01*
X15269224Y-15066624D02*
X15259700Y-15076148D01*
X15469224Y-15190434D02*
X15450177Y-15180910D01*
X15450177Y-15180910D02*
X15440653Y-15171386D01*
X15440653Y-15171386D02*
X15431129Y-15152338D01*
X15431129Y-15152338D02*
X15431129Y-15095196D01*
X15431129Y-15095196D02*
X15440653Y-15076148D01*
X15440653Y-15076148D02*
X15450177Y-15066624D01*
X15450177Y-15066624D02*
X15469224Y-15057100D01*
X15469224Y-15057100D02*
X15497796Y-15057100D01*
X15497796Y-15057100D02*
X15516843Y-15066624D01*
X15516843Y-15066624D02*
X15526367Y-15076148D01*
X15526367Y-15076148D02*
X15535891Y-15095196D01*
X15535891Y-15095196D02*
X15535891Y-15152338D01*
X15535891Y-15152338D02*
X15526367Y-15171386D01*
X15526367Y-15171386D02*
X15516843Y-15180910D01*
X15516843Y-15180910D02*
X15497796Y-15190434D01*
X15497796Y-15190434D02*
X15469224Y-15190434D01*
X15650177Y-15190434D02*
X15631129Y-15180910D01*
X15631129Y-15180910D02*
X15621605Y-15161862D01*
X15621605Y-15161862D02*
X15621605Y-14990434D01*
X15802558Y-15180910D02*
X15783510Y-15190434D01*
X15783510Y-15190434D02*
X15745415Y-15190434D01*
X15745415Y-15190434D02*
X15726367Y-15180910D01*
X15726367Y-15180910D02*
X15716843Y-15161862D01*
X15716843Y-15161862D02*
X15716843Y-15085672D01*
X15716843Y-15085672D02*
X15726367Y-15066624D01*
X15726367Y-15066624D02*
X15745415Y-15057100D01*
X15745415Y-15057100D02*
X15783510Y-15057100D01*
X15783510Y-15057100D02*
X15802558Y-15066624D01*
X15802558Y-15066624D02*
X15812081Y-15085672D01*
X15812081Y-15085672D02*
X15812081Y-15104719D01*
X15812081Y-15104719D02*
X15716843Y-15123767D01*
X15888272Y-15180910D02*
X15907320Y-15190434D01*
X15907320Y-15190434D02*
X15945415Y-15190434D01*
X15945415Y-15190434D02*
X15964462Y-15180910D01*
X15964462Y-15180910D02*
X15973986Y-15161862D01*
X15973986Y-15161862D02*
X15973986Y-15152338D01*
X15973986Y-15152338D02*
X15964462Y-15133291D01*
X15964462Y-15133291D02*
X15945415Y-15123767D01*
X15945415Y-15123767D02*
X15916843Y-15123767D01*
X15916843Y-15123767D02*
X15897796Y-15114243D01*
X15897796Y-15114243D02*
X15888272Y-15095196D01*
X15888272Y-15095196D02*
X15888272Y-15085672D01*
X15888272Y-15085672D02*
X15897796Y-15066624D01*
X15897796Y-15066624D02*
X15916843Y-15057100D01*
X15916843Y-15057100D02*
X15945415Y-15057100D01*
X15945415Y-15057100D02*
X15964462Y-15066624D01*
X16040653Y-15266624D02*
X16050177Y-15257100D01*
X16050177Y-15257100D02*
X16069224Y-15228529D01*
X16069224Y-15228529D02*
X16078748Y-15209481D01*
X16078748Y-15209481D02*
X16088272Y-15180910D01*
X16088272Y-15180910D02*
X16097796Y-15133291D01*
X16097796Y-15133291D02*
X16097796Y-15095196D01*
X16097796Y-15095196D02*
X16088272Y-15047577D01*
X16088272Y-15047577D02*
X16078748Y-15019005D01*
X16078748Y-15019005D02*
X16069224Y-14999958D01*
X16069224Y-14999958D02*
X16050177Y-14971386D01*
X16050177Y-14971386D02*
X16040653Y-14961862D01*
M02*
