%TF.GenerationSoftware,KiCad,Pcbnew,8.0.5*%
%TF.CreationDate,2024-11-04T18:47:41-08:00*%
%TF.ProjectId,digitalclock,64696769-7461-46c6-936c-6f636b2e6b69,rev?*%
%TF.SameCoordinates,Original*%
%TF.FileFunction,Copper,L4,Bot*%
%TF.FilePolarity,Positive*%
%FSLAX46Y46*%
G04 Gerber Fmt 4.6, Leading zero omitted, Abs format (unit mm)*
G04 Created by KiCad (PCBNEW 8.0.5) date 2024-11-04 18:47:41*
%MOMM*%
%LPD*%
G01*
G04 APERTURE LIST*
G04 Aperture macros list*
%AMRoundRect*
0 Rectangle with rounded corners*
0 $1 Rounding radius*
0 $2 $3 $4 $5 $6 $7 $8 $9 X,Y pos of 4 corners*
0 Add a 4 corners polygon primitive as box body*
4,1,4,$2,$3,$4,$5,$6,$7,$8,$9,$2,$3,0*
0 Add four circle primitives for the rounded corners*
1,1,$1+$1,$2,$3*
1,1,$1+$1,$4,$5*
1,1,$1+$1,$6,$7*
1,1,$1+$1,$8,$9*
0 Add four rect primitives between the rounded corners*
20,1,$1+$1,$2,$3,$4,$5,0*
20,1,$1+$1,$4,$5,$6,$7,0*
20,1,$1+$1,$6,$7,$8,$9,0*
20,1,$1+$1,$8,$9,$2,$3,0*%
G04 Aperture macros list end*
%TA.AperFunction,ComponentPad*%
%ADD10C,1.524000*%
%TD*%
%TA.AperFunction,ComponentPad*%
%ADD11R,1.000000X1.000000*%
%TD*%
%TA.AperFunction,ComponentPad*%
%ADD12C,3.200000*%
%TD*%
%TA.AperFunction,ComponentPad*%
%ADD13R,1.700000X1.700000*%
%TD*%
%TA.AperFunction,ComponentPad*%
%ADD14O,1.700000X1.700000*%
%TD*%
%TA.AperFunction,ComponentPad*%
%ADD15O,1.550000X0.890000*%
%TD*%
%TA.AperFunction,ComponentPad*%
%ADD16O,0.950000X1.250000*%
%TD*%
%TA.AperFunction,SMDPad,CuDef*%
%ADD17RoundRect,0.635000X0.000010X0.000010X-0.000010X0.000010X-0.000010X-0.000010X0.000010X-0.000010X0*%
%TD*%
%TA.AperFunction,SMDPad,CuDef*%
%ADD18RoundRect,0.750000X-0.000010X-0.000010X0.000010X-0.000010X0.000010X0.000010X-0.000010X0.000010X0*%
%TD*%
%TA.AperFunction,ViaPad*%
%ADD19C,0.700000*%
%TD*%
%TA.AperFunction,ViaPad*%
%ADD20C,1.000000*%
%TD*%
%TA.AperFunction,ViaPad*%
%ADD21C,0.600000*%
%TD*%
%TA.AperFunction,Conductor*%
%ADD22C,0.500000*%
%TD*%
%TA.AperFunction,Conductor*%
%ADD23C,1.000000*%
%TD*%
%TA.AperFunction,Conductor*%
%ADD24C,0.300000*%
%TD*%
%TA.AperFunction,Conductor*%
%ADD25C,0.150000*%
%TD*%
G04 APERTURE END LIST*
D10*
%TO.P,J4,1,Pin_1*%
%TO.N,+3V3*%
X128440000Y-110280000D03*
%TO.P,J4,2,Pin_2*%
%TO.N,/Light Sensor/3Vo*%
X128440000Y-107740000D03*
%TO.P,J4,3,Pin_3*%
%TO.N,GND*%
X128440000Y-105200000D03*
%TO.P,J4,4,Pin_4*%
%TO.N,/SCL*%
X128440000Y-102660000D03*
%TO.P,J4,5,Pin_5*%
%TO.N,/SDA*%
X128440000Y-100120000D03*
%TD*%
D11*
%TO.P,TP1,1,1*%
%TO.N,Net-(R9-Pad2)*%
X174040800Y-108712000D03*
%TD*%
D12*
%TO.P,P$1,P$1*%
%TO.N,N/C*%
X117720000Y-121070000D03*
%TD*%
D13*
%TO.P,J6,1,Pin_1*%
%TO.N,/Display/RED_1*%
X169030000Y-73150000D03*
D14*
%TO.P,J6,2,Pin_2*%
%TO.N,/Display/A*%
X166490000Y-73150000D03*
%TO.P,J6,3,Pin_3*%
%TO.N,/Display/B*%
X163950000Y-73150000D03*
%TO.P,J6,4,Pin_4*%
%TO.N,/Display/GREEN_1*%
X161410000Y-73150000D03*
%TO.P,J6,5,Pin_5*%
%TO.N,/Display/BLUE_1*%
X158870000Y-73150000D03*
%TO.P,J6,6,Pin_6*%
%TO.N,/Display/C*%
X156330000Y-73150000D03*
%TO.P,J6,7,Pin_7*%
%TO.N,/Display/BLUE_2*%
X153790000Y-73150000D03*
%TD*%
D13*
%TO.P,J7,1,Pin_1*%
%TO.N,/Display/E*%
X153790000Y-67700000D03*
D14*
%TO.P,J7,2,Pin_2*%
%TO.N,/Display/D*%
X156330000Y-67700000D03*
%TO.P,J7,3,Pin_3*%
%TO.N,/Display/DP*%
X158870000Y-67700000D03*
%TO.P,J7,4,Pin_4*%
%TO.N,/Display/RED_4*%
X161410000Y-67700000D03*
%TO.P,J7,5,Pin_5*%
%TO.N,/Display/F*%
X163950000Y-67700000D03*
%TO.P,J7,6,Pin_6*%
%TO.N,/Display/G*%
X166490000Y-67700000D03*
%TO.P,J7,7,Pin_7*%
%TO.N,/Display/GREEN_4*%
X169030000Y-67700000D03*
%TD*%
D13*
%TO.P,J3,1,Pin_1*%
%TO.N,VBAT*%
X180650000Y-82170000D03*
D14*
%TO.P,J3,2,Pin_2*%
%TO.N,/Wi-Fi/3Vo*%
X180650000Y-84710000D03*
%TO.P,J3,3,Pin_3*%
%TO.N,GND*%
X180650000Y-87250000D03*
%TO.P,J3,4,Pin_4*%
%TO.N,/SCLK*%
X180650000Y-89790000D03*
%TO.P,J3,5,Pin_5*%
%TO.N,/MISO*%
X180650000Y-92330000D03*
%TO.P,J3,6,Pin_6*%
%TO.N,/MOSI*%
X180650000Y-94870000D03*
%TO.P,J3,7,Pin_7*%
%TO.N,/CS1*%
X180650000Y-97410000D03*
%TO.P,J3,8,Pin_8*%
%TO.N,/BUSY*%
X180650000Y-99950000D03*
%TO.P,J3,9,Pin_9*%
%TO.N,/~{WIFIRST}*%
X180650000Y-102490000D03*
%TO.P,J3,10,Pin_10*%
%TO.N,/Wi-Fi/GP0*%
X180650000Y-105030000D03*
%TO.P,J3,11,Pin_11*%
%TO.N,/Wi-Fi/RXI*%
X180650000Y-107570000D03*
%TO.P,J3,12,Pin_12*%
%TO.N,/Wi-Fi/TXO*%
X180650000Y-110110000D03*
%TD*%
D12*
%TO.P,P$2,P$1*%
%TO.N,N/C*%
X189720000Y-121070000D03*
%TD*%
D13*
%TO.P,J8,1,Pin_1*%
%TO.N,/Display/RED_3*%
X169030000Y-77150000D03*
D14*
%TO.P,J8,2,Pin_2*%
%TO.N,/Display/A*%
X166490000Y-77150000D03*
%TO.P,J8,3,Pin_3*%
%TO.N,/Display/B*%
X163950000Y-77150000D03*
%TO.P,J8,4,Pin_4*%
%TO.N,/Display/GREEN_3*%
X161410000Y-77150000D03*
%TO.P,J8,5,Pin_5*%
%TO.N,/Display/BLUE_3*%
X158870000Y-77150000D03*
%TO.P,J8,6,Pin_6*%
%TO.N,/Display/C*%
X156330000Y-77150000D03*
%TO.P,J8,7,Pin_7*%
%TO.N,/Display/BLUE_4*%
X153790000Y-77150000D03*
%TD*%
D15*
%TO.P,X2,6,Shield*%
%TO.N,GND*%
X114540000Y-83310000D03*
D16*
X117240000Y-84310000D03*
X117240000Y-89310000D03*
D15*
X114540000Y-90310000D03*
%TD*%
D13*
%TO.P,J5,1,Pin_1*%
%TO.N,/Display/E*%
X153790000Y-63600000D03*
D14*
%TO.P,J5,2,Pin_2*%
%TO.N,/Display/D*%
X156330000Y-63600000D03*
%TO.P,J5,3,Pin_3*%
%TO.N,/Display/DP*%
X158870000Y-63600000D03*
%TO.P,J5,4,Pin_4*%
%TO.N,/Display/RED_2*%
X161410000Y-63600000D03*
%TO.P,J5,5,Pin_5*%
%TO.N,/Display/F*%
X163950000Y-63600000D03*
%TO.P,J5,6,Pin_6*%
%TO.N,/Display/G*%
X166490000Y-63600000D03*
%TO.P,J5,7,Pin_7*%
%TO.N,/Display/GREEN_2*%
X169030000Y-63600000D03*
%TD*%
D17*
%TO.P,TP3,TP,TP*%
%TO.N,/D-*%
X125145800Y-91236800D03*
%TD*%
%TO.P,TP2,TP,TP*%
%TO.N,/D+*%
X121800000Y-91960000D03*
%TD*%
D18*
%TO.P,TP5,P$1,P$1*%
%TO.N,/SWDIO*%
X170350000Y-97800000D03*
%TD*%
%TO.P,TP4,P$1,P$1*%
%TO.N,/SWCLK*%
X166850000Y-97950000D03*
%TD*%
D19*
%TO.N,GND*%
X132160000Y-77510000D03*
X144450000Y-93900000D03*
X155250000Y-104475000D03*
X157140000Y-115390000D03*
X151500000Y-84500000D03*
D20*
X130030000Y-124800000D03*
X149850000Y-123500000D03*
D19*
X137050000Y-67500000D03*
X126250000Y-75660000D03*
X145000000Y-85000000D03*
X143500000Y-90750000D03*
X125700000Y-78400000D03*
D20*
X149840000Y-124850000D03*
D19*
X145350000Y-87150000D03*
X165180000Y-107220000D03*
X168925000Y-94750000D03*
X157500000Y-87500000D03*
D20*
X172679000Y-111000000D03*
D19*
X125700000Y-85540000D03*
X136550000Y-111550000D03*
X151700000Y-105450000D03*
X129200000Y-73750000D03*
D20*
X137050000Y-88750000D03*
X141650000Y-87350000D03*
D19*
X171500000Y-84250000D03*
X155150000Y-85650000D03*
X129150000Y-81900000D03*
D20*
X131875000Y-111375000D03*
D19*
X137270000Y-73630000D03*
X170250000Y-102250000D03*
D20*
X148000000Y-111500000D03*
D19*
X164991600Y-92764825D03*
X163830000Y-111000000D03*
X162500000Y-101000000D03*
D20*
X134700000Y-85400000D03*
D19*
X185535000Y-73215000D03*
D20*
X130015000Y-123500000D03*
D19*
X164612500Y-89200000D03*
X186166600Y-67982717D03*
D20*
X130150000Y-88150000D03*
D19*
X149550000Y-95525000D03*
D20*
X146550000Y-97650000D03*
D19*
X175350000Y-101150000D03*
D20*
%TO.N,VBAT*%
X179850000Y-70100000D03*
X129300000Y-76050000D03*
D19*
X151575000Y-69675000D03*
X135850000Y-75350000D03*
D20*
X128300000Y-88350000D03*
D19*
X170817081Y-70132919D03*
%TO.N,/~{RST}*%
X161766942Y-88866942D03*
X159280000Y-88580000D03*
X138560000Y-89030000D03*
%TO.N,+3V3*%
X149500000Y-96750000D03*
X159405000Y-108375000D03*
X154114142Y-104948869D03*
X163750000Y-92125000D03*
X177000000Y-94500000D03*
X145862000Y-92634000D03*
D20*
X138750000Y-108650000D03*
X136500000Y-108650000D03*
D19*
X138750000Y-111500000D03*
X155250000Y-113675000D03*
X163750000Y-100250000D03*
X161500000Y-90318750D03*
X159330000Y-110250000D03*
D20*
X130800000Y-85990000D03*
X143350000Y-109350000D03*
D19*
X134600000Y-80950000D03*
D20*
X167690800Y-114089600D03*
D19*
X149450000Y-99100000D03*
X156500000Y-89300000D03*
X175600000Y-102600000D03*
X158980000Y-115300000D03*
X151495000Y-82995000D03*
X165790000Y-89710000D03*
D20*
X133477000Y-108712000D03*
%TO.N,VBUS*%
X121310000Y-74710000D03*
X121300000Y-79740000D03*
D19*
%TO.N,/SWDIO*%
X170810000Y-95040000D03*
%TO.N,/SWCLK*%
X173200000Y-95200000D03*
%TO.N,/MOSI*%
X183280000Y-94950000D03*
X137420000Y-63470000D03*
X137930000Y-81750000D03*
%TO.N,/MISO*%
X188320000Y-92320000D03*
%TO.N,/SDA*%
X159816800Y-105308400D03*
D20*
X140716000Y-100177600D03*
D19*
%TO.N,/SCL*%
X159600000Y-103850000D03*
D20*
X140614400Y-102311200D03*
D19*
%TO.N,/Display/E*%
X172750000Y-72550000D03*
%TO.N,/Display/D*%
X172200000Y-75755000D03*
%TO.N,/Display/DP*%
X172762500Y-74437500D03*
%TO.N,/Display/RED_1*%
X137425000Y-69850000D03*
%TO.N,/Display/C*%
X150650000Y-67800000D03*
X156400000Y-70300000D03*
%TO.N,/Display/BLUE_2*%
X136100000Y-66010000D03*
%TO.N,/Display/BLUE_1*%
X136750000Y-64740000D03*
%TO.N,/Display/GREEN_1*%
X137450000Y-76175000D03*
%TO.N,/Display/A*%
X172695000Y-64390000D03*
%TO.N,/Display/GREEN_4*%
X185300000Y-65595000D03*
%TO.N,/Display/RED_4*%
X186000000Y-71950000D03*
X171525000Y-67600000D03*
%TO.N,/Display/GREEN_3*%
X182150000Y-78600000D03*
%TO.N,/Display/BLUE_3*%
X185325000Y-75775000D03*
%TO.N,/Display/RED_3*%
X185375000Y-70700000D03*
%TO.N,/Display/BLUE_4*%
X163950000Y-80700000D03*
X186000000Y-74500000D03*
%TO.N,/CS*%
X157930000Y-107100000D03*
X155455000Y-108800000D03*
%TO.N,/MCU_OSC/V_DIV*%
X153800000Y-89350000D03*
X142150000Y-89700000D03*
%TO.N,/D+*%
X166490000Y-93200000D03*
X120940000Y-89330000D03*
%TO.N,/D-*%
X122230000Y-88890000D03*
X164149316Y-94099316D03*
D20*
%TO.N,/CS3*%
X184734200Y-80594200D03*
D19*
X164340000Y-95525000D03*
X136650000Y-84400000D03*
D21*
X186131200Y-66675000D03*
%TD*%
D22*
%TO.N,VBAT*%
X151575000Y-69675000D02*
X150500000Y-68600000D01*
D23*
X127650000Y-87700000D02*
X127650000Y-83350000D01*
D22*
X135850000Y-69650000D02*
X135850000Y-75350000D01*
X170817081Y-70132919D02*
X179817081Y-70132919D01*
D23*
X137814925Y-83350000D02*
X127650000Y-83350000D01*
D22*
X150500000Y-68600000D02*
X150318629Y-68600000D01*
X179817081Y-70132919D02*
X179850000Y-70100000D01*
D23*
X127650000Y-83350000D02*
X127650000Y-77700000D01*
X157516016Y-82170000D02*
X156921015Y-81574999D01*
X156921015Y-81574999D02*
X139589926Y-81574999D01*
D22*
X137100000Y-68400000D02*
X135850000Y-69650000D01*
D23*
X180650000Y-82170000D02*
X157516016Y-82170000D01*
X128300000Y-88350000D02*
X127650000Y-87700000D01*
X139589926Y-81574999D02*
X137814925Y-83350000D01*
D22*
X150118629Y-68400000D02*
X137100000Y-68400000D01*
D23*
X127650000Y-77700000D02*
X129300000Y-76050000D01*
D22*
X150318629Y-68600000D02*
X150118629Y-68400000D01*
D24*
%TO.N,/~{RST}*%
X159566942Y-88866942D02*
X159280000Y-88580000D01*
X161766942Y-88866942D02*
X159566942Y-88866942D01*
X159280000Y-88580000D02*
X159260000Y-88600000D01*
X138990000Y-88600000D02*
X138560000Y-89030000D01*
X159260000Y-88600000D02*
X138990000Y-88600000D01*
D22*
%TO.N,VBUS*%
X121310000Y-79730000D02*
X121300000Y-79740000D01*
D23*
X121310000Y-74710000D02*
X121310000Y-79730000D01*
D25*
%TO.N,/SWDIO*%
X170350000Y-95500000D02*
X170350000Y-97800000D01*
X170810000Y-95040000D02*
X170350000Y-95500000D01*
%TO.N,/SWCLK*%
X171750000Y-99300000D02*
X168300000Y-99300000D01*
X173200000Y-97850000D02*
X171750000Y-99300000D01*
X168200000Y-99200000D02*
X168100000Y-99200000D01*
X168100000Y-99200000D02*
X166850000Y-97950000D01*
X173200000Y-95200000D02*
X173200000Y-97850000D01*
X168300000Y-99300000D02*
X168200000Y-99200000D01*
%TO.N,/MOSI*%
X136910000Y-81750000D02*
X137930000Y-81750000D01*
X137420000Y-63470000D02*
X134980000Y-63470000D01*
X183280000Y-94950000D02*
X183185000Y-94855000D01*
X134980000Y-63470000D02*
X133870000Y-64580000D01*
X133870000Y-78670000D02*
X136910000Y-81710000D01*
X133870000Y-64580000D02*
X133870000Y-78670000D01*
X183185000Y-94855000D02*
X180655000Y-94855000D01*
X136910000Y-81710000D02*
X136910000Y-81750000D01*
%TO.N,/MISO*%
X188315000Y-92315000D02*
X180655000Y-92315000D01*
X188320000Y-92320000D02*
X188315000Y-92315000D01*
%TO.N,/SDA*%
X160225000Y-102075000D02*
X158327600Y-100177600D01*
X159816800Y-105308400D02*
X160225000Y-104900200D01*
X160225000Y-104900200D02*
X160225000Y-102075000D01*
X158327600Y-100177600D02*
X140716000Y-100177600D01*
%TO.N,/SCL*%
X156611200Y-102311200D02*
X140614400Y-102311200D01*
X159600000Y-103850000D02*
X158150000Y-103850000D01*
X158150000Y-103850000D02*
X156611200Y-102311200D01*
D24*
%TO.N,/Display/E*%
X153790000Y-63600000D02*
X153790000Y-67700000D01*
X166087057Y-61500000D02*
X155890000Y-61500000D01*
X168594212Y-68900000D02*
X168532943Y-68900000D01*
X167800000Y-63212943D02*
X166087057Y-61500000D01*
X172244212Y-72550000D02*
X168594212Y-68900000D01*
X168532943Y-68900000D02*
X167800000Y-68167057D01*
X167800000Y-68167057D02*
X167800000Y-63212943D01*
X155890000Y-61500000D02*
X153790000Y-63600000D01*
X172750000Y-72550000D02*
X172244212Y-72550000D01*
%TO.N,/Display/D*%
X159155000Y-70525000D02*
X156330000Y-67700000D01*
X168805000Y-70525000D02*
X159155000Y-70525000D01*
X156330000Y-63600000D02*
X156330000Y-67700000D01*
X171980000Y-75755000D02*
X171375000Y-75150000D01*
X171375000Y-73095000D02*
X168805000Y-70525000D01*
X171375000Y-75150000D02*
X171375000Y-73095000D01*
X172200000Y-75755000D02*
X171980000Y-75755000D01*
%TO.N,/Display/F*%
X163950000Y-63600000D02*
X163950000Y-67700000D01*
%TO.N,/Display/G*%
X166490000Y-63600000D02*
X166490000Y-67700000D01*
%TO.N,/Display/DP*%
X158870000Y-67700000D02*
X161195000Y-70025000D01*
X169012106Y-70025000D02*
X171900000Y-72912894D01*
X161195000Y-70025000D02*
X169012106Y-70025000D01*
X171900000Y-72912894D02*
X171900000Y-73575000D01*
X171900000Y-73575000D02*
X172762500Y-74437500D01*
X158870000Y-63600000D02*
X158870000Y-67700000D01*
%TO.N,/Display/RED_1*%
X142000000Y-71450000D02*
X140400000Y-69850000D01*
X167330000Y-71450000D02*
X142000000Y-71450000D01*
X169030000Y-73150000D02*
X167330000Y-71450000D01*
X140400000Y-69850000D02*
X137425000Y-69850000D01*
%TO.N,/Display/C*%
X155125000Y-69625000D02*
X153125000Y-69625000D01*
X151300000Y-67800000D02*
X150650000Y-67800000D01*
X156400000Y-70300000D02*
X155800000Y-70300000D01*
X155800000Y-70300000D02*
X155125000Y-69625000D01*
X156330000Y-73150000D02*
X156330000Y-77150000D01*
X153125000Y-69625000D02*
X151300000Y-67800000D01*
%TO.N,/Display/BLUE_2*%
X135000000Y-77575000D02*
X137425000Y-80000000D01*
X136100000Y-66010000D02*
X135790000Y-66010000D01*
X150200000Y-76740000D02*
X153790000Y-73150000D01*
X135000000Y-66800000D02*
X135000000Y-77575000D01*
X137425000Y-80000000D02*
X149050000Y-80000000D01*
X149050000Y-80000000D02*
X150200000Y-78850000D01*
X150200000Y-78850000D02*
X150200000Y-76740000D01*
X135790000Y-66010000D02*
X135000000Y-66800000D01*
%TO.N,/Display/BLUE_1*%
X154677057Y-80500000D02*
X157530000Y-77647057D01*
X157530000Y-77647057D02*
X157530000Y-74490000D01*
X157530000Y-74490000D02*
X158870000Y-73150000D01*
X136750000Y-64740000D02*
X135810000Y-64740000D01*
X137217894Y-80500000D02*
X154677057Y-80500000D01*
X134350000Y-66200000D02*
X134350000Y-77632106D01*
X135810000Y-64740000D02*
X134350000Y-66200000D01*
X134350000Y-77632106D02*
X137217894Y-80500000D01*
%TO.N,/Display/GREEN_1*%
X160210000Y-71950000D02*
X145925000Y-71950000D01*
X145925000Y-71950000D02*
X141700000Y-76175000D01*
X161410000Y-73150000D02*
X160210000Y-71950000D01*
X141700000Y-76175000D02*
X137450000Y-76175000D01*
%TO.N,/Display/A*%
X166490000Y-77150000D02*
X168415000Y-75225000D01*
X166490000Y-73150000D02*
X166490000Y-77150000D01*
X168415000Y-75225000D02*
X170450000Y-75225000D01*
X181050000Y-72300000D02*
X181050000Y-69395000D01*
X170450000Y-75225000D02*
X172975000Y-77750000D01*
X175600000Y-77750000D02*
X181050000Y-72300000D01*
X181050000Y-69395000D02*
X176045000Y-64390000D01*
X172975000Y-77750000D02*
X175600000Y-77750000D01*
X176045000Y-64390000D02*
X172695000Y-64390000D01*
%TO.N,/Display/B*%
X163950000Y-73150000D02*
X163950000Y-77150000D01*
%TO.N,/Display/GREEN_4*%
X171275000Y-65455000D02*
X169030000Y-67700000D01*
X186055000Y-61675000D02*
X172295000Y-61675000D01*
X186900000Y-63995000D02*
X186900000Y-62520000D01*
X186900000Y-62520000D02*
X186055000Y-61675000D01*
X171275000Y-62695000D02*
X171275000Y-65455000D01*
X185300000Y-65595000D02*
X186900000Y-63995000D01*
X172295000Y-61675000D02*
X171275000Y-62695000D01*
%TO.N,/Display/RED_4*%
X186225000Y-69975000D02*
X179825000Y-63575000D01*
X171800000Y-64200000D02*
X171800000Y-67325000D01*
X171800000Y-67325000D02*
X171525000Y-67600000D01*
X186000000Y-71950000D02*
X186225000Y-71725000D01*
X172425000Y-63575000D02*
X171800000Y-64200000D01*
X186225000Y-71725000D02*
X186225000Y-69975000D01*
X179825000Y-63575000D02*
X172425000Y-63575000D01*
%TO.N,/Display/GREEN_3*%
X181950000Y-78800000D02*
X163060000Y-78800000D01*
X163060000Y-78800000D02*
X161410000Y-77150000D01*
X182150000Y-78600000D02*
X181950000Y-78800000D01*
%TO.N,/Display/BLUE_3*%
X183895000Y-79405000D02*
X186100000Y-77200000D01*
X161125000Y-79405000D02*
X183895000Y-79405000D01*
X186100000Y-77200000D02*
X186100000Y-76550000D01*
X186100000Y-76550000D02*
X185325000Y-75775000D01*
X158870000Y-77150000D02*
X161125000Y-79405000D01*
%TO.N,/Display/RED_3*%
X181575000Y-71175000D02*
X182100000Y-70650000D01*
X170180000Y-78300000D02*
X175757106Y-78300000D01*
X169030000Y-77150000D02*
X170180000Y-78300000D01*
X182100000Y-70650000D02*
X185325000Y-70650000D01*
X185325000Y-70650000D02*
X185375000Y-70700000D01*
X181575000Y-72482106D02*
X181575000Y-71175000D01*
X175757106Y-78300000D02*
X181575000Y-72482106D01*
%TO.N,/Display/BLUE_4*%
X184102107Y-79905000D02*
X164745000Y-79905000D01*
X186000000Y-75100000D02*
X186600000Y-75700000D01*
X164745000Y-79905000D02*
X163950000Y-80700000D01*
X186600000Y-75700000D02*
X186600000Y-77407107D01*
X186600000Y-77407107D02*
X184102107Y-79905000D01*
X186000000Y-74500000D02*
X186000000Y-75100000D01*
D25*
%TO.N,/CS*%
X157930000Y-107100000D02*
X156100000Y-107100000D01*
X156100000Y-107100000D02*
X155455000Y-107745000D01*
X155455000Y-107745000D02*
X155455000Y-108800000D01*
D24*
%TO.N,/MCU_OSC/V_DIV*%
X151950000Y-89350000D02*
X153800000Y-89350000D01*
X151600000Y-89700000D02*
X151950000Y-89350000D01*
X142150000Y-89700000D02*
X151600000Y-89700000D01*
%TO.N,/D+*%
X148885850Y-95199200D02*
X126809200Y-95199200D01*
X122470000Y-90860000D02*
X122470000Y-90930000D01*
X166490000Y-93200000D02*
X166500000Y-93210000D01*
X166155000Y-96225000D02*
X161125000Y-96225000D01*
X122655000Y-91105000D02*
X121800000Y-91960000D01*
X166500000Y-93210000D02*
X166500000Y-95880000D01*
X126809200Y-95199200D02*
X122655000Y-91045000D01*
X161125000Y-96225000D02*
X159725000Y-94825000D01*
X149260050Y-94825000D02*
X148885850Y-95199200D01*
X166500000Y-95880000D02*
X166155000Y-96225000D01*
X122655000Y-91045000D02*
X122655000Y-91105000D01*
X120940000Y-89330000D02*
X122470000Y-90860000D01*
X159725000Y-94825000D02*
X149260050Y-94825000D01*
X122470000Y-90860000D02*
X122655000Y-91045000D01*
%TO.N,/D-*%
X159932107Y-94325000D02*
X161332107Y-95725000D01*
X161332107Y-95725000D02*
X162523632Y-95725000D01*
X127016306Y-94699200D02*
X148678744Y-94699200D01*
X124426053Y-91956547D02*
X124426053Y-92108947D01*
X125145800Y-91236800D02*
X124426053Y-91956547D01*
X148678744Y-94699200D02*
X149052944Y-94325000D01*
X122230000Y-89912894D02*
X124426053Y-92108947D01*
X149052944Y-94325000D02*
X159932107Y-94325000D01*
X124426053Y-92108947D02*
X127016306Y-94699200D01*
X122230000Y-88890000D02*
X122230000Y-89912894D01*
X162523632Y-95725000D02*
X164149316Y-94099316D01*
D25*
%TO.N,/CS3*%
X184734200Y-80543400D02*
X187870000Y-77407600D01*
X165750000Y-94115000D02*
X165750000Y-91500000D01*
X184734200Y-80594200D02*
X184759600Y-80619600D01*
X164340000Y-95525000D02*
X165750000Y-94115000D01*
X140500000Y-82350000D02*
X156600000Y-82350000D01*
X184790000Y-80650000D02*
X184734200Y-80594200D01*
X138450000Y-84400000D02*
X140500000Y-82350000D01*
X184734200Y-80594200D02*
X184734200Y-80543400D01*
X165333884Y-91050000D02*
X165300000Y-91050000D01*
X156600000Y-82350000D02*
X165300000Y-91050000D01*
X185050000Y-80650000D02*
X184790000Y-80650000D01*
X136650000Y-84400000D02*
X138450000Y-84400000D01*
X187870000Y-68413800D02*
X186131200Y-66675000D01*
X165750000Y-91500000D02*
X165300000Y-91050000D01*
X184759600Y-82840400D02*
X181475000Y-86125000D01*
X170258884Y-86125000D02*
X165333884Y-91050000D01*
X184759600Y-80619600D02*
X184759600Y-82840400D01*
X187870000Y-77407600D02*
X187870000Y-68413800D01*
X181475000Y-86125000D02*
X170258884Y-86125000D01*
%TD*%
M02*
