M48
; DRILL file {KiCad 8.0.5} date 2024-11-04T18:47:36-0800
; FORMAT={-:-/ absolute / metric / decimal}
; #@! TF.CreationDate,2024-11-04T18:47:36-08:00
; #@! TF.GenerationSoftware,Kicad,Pcbnew,8.0.5
; #@! TF.FileFunction,Plated,1,4,PTH
FMAT,2
METRIC
; #@! TA.AperFunction,Plated,PTH,ViaDrill
T1C0.300
; #@! TA.AperFunction,Plated,PTH,ViaDrill
T2C0.350
; #@! TA.AperFunction,Plated,PTH,ViaDrill
T3C0.500
; #@! TA.AperFunction,Plated,PTH,ComponentDrill
T4C0.500
; #@! TA.AperFunction,Plated,PTH,ComponentDrill
T5C0.550
; #@! TA.AperFunction,Plated,PTH,ComponentDrill
T6C1.000
; #@! TA.AperFunction,Plated,PTH,ComponentDrill
T7C1.016
; #@! TA.AperFunction,Plated,PTH,ComponentDrill
T8C2.500
%
G90
G05
T1
X186.131Y-66.675
T2
X120.94Y-89.33
X122.23Y-88.89
X125.7Y-78.4
X125.7Y-85.54
X126.25Y-75.66
X129.15Y-81.9
X129.2Y-73.75
X132.16Y-77.51
X134.6Y-80.95
X135.85Y-75.35
X136.1Y-66.01
X136.55Y-111.55
X136.65Y-84.4
X136.75Y-64.74
X137.05Y-67.5
X137.27Y-73.63
X137.42Y-63.47
X137.425Y-69.85
X137.45Y-76.175
X137.93Y-81.75
X138.56Y-89.03
X138.75Y-111.5
X142.15Y-89.7
X143.5Y-90.75
X144.45Y-93.9
X145.0Y-85.0
X145.35Y-87.15
X145.862Y-92.634
X149.45Y-99.1
X149.5Y-96.75
X149.55Y-95.525
X150.65Y-67.8
X151.495Y-82.995
X151.5Y-84.5
X151.575Y-69.675
X151.7Y-105.45
X153.8Y-89.35
X154.114Y-104.949
X155.15Y-85.65
X155.25Y-104.475
X155.25Y-113.675
X155.455Y-108.8
X156.4Y-70.3
X156.5Y-89.3
X157.14Y-115.39
X157.5Y-87.5
X157.93Y-107.1
X158.98Y-115.3
X159.28Y-88.58
X159.33Y-110.25
X159.405Y-108.375
X159.6Y-103.85
X159.817Y-105.308
X161.5Y-90.319
X161.767Y-88.867
X162.5Y-101.0
X163.75Y-92.125
X163.75Y-100.25
X163.83Y-111.0
X163.95Y-80.7
X164.149Y-94.099
X164.34Y-95.525
X164.612Y-89.2
X164.992Y-92.765
X165.18Y-107.22
X165.79Y-89.71
X166.49Y-93.2
X168.925Y-94.75
X170.25Y-102.25
X170.81Y-95.04
X170.817Y-70.133
X171.5Y-84.25
X171.525Y-67.6
X172.2Y-75.755
X172.695Y-64.39
X172.75Y-72.55
X172.762Y-74.438
X173.2Y-95.2
X175.35Y-101.15
X175.6Y-102.6
X177.0Y-94.5
X182.15Y-78.6
X183.28Y-94.95
X185.3Y-65.595
X185.325Y-75.775
X185.375Y-70.7
X185.535Y-73.215
X186.0Y-71.95
X186.0Y-74.5
X186.167Y-67.983
X188.32Y-92.32
T3
X121.3Y-79.74
X121.31Y-74.71
X128.3Y-88.35
X129.3Y-76.05
X130.015Y-123.5
X130.03Y-124.8
X130.15Y-88.15
X130.8Y-85.99
X131.875Y-111.375
X133.477Y-108.712
X134.7Y-85.4
X136.5Y-108.65
X137.05Y-88.75
X138.75Y-108.65
X140.614Y-102.311
X140.716Y-100.178
X141.65Y-87.35
X143.35Y-109.35
X146.55Y-97.65
X148.0Y-111.5
X149.84Y-124.85
X149.85Y-123.5
X167.691Y-114.09
X172.679Y-111.0
X179.85Y-70.1
X184.734Y-80.594
T4
X174.041Y-108.712
T6
X153.79Y-63.6
X153.79Y-67.7
X153.79Y-73.15
X153.79Y-77.15
X156.33Y-63.6
X156.33Y-67.7
X156.33Y-73.15
X156.33Y-77.15
X158.87Y-63.6
X158.87Y-67.7
X158.87Y-73.15
X158.87Y-77.15
X161.41Y-63.6
X161.41Y-67.7
X161.41Y-73.15
X161.41Y-77.15
X163.95Y-63.6
X163.95Y-67.7
X163.95Y-73.15
X163.95Y-77.15
X166.49Y-63.6
X166.49Y-67.7
X166.49Y-73.15
X166.49Y-77.15
X169.03Y-63.6
X169.03Y-67.7
X169.03Y-73.15
X169.03Y-77.15
X180.65Y-82.17
X180.65Y-84.71
X180.65Y-87.25
X180.65Y-89.79
X180.65Y-92.33
X180.65Y-94.87
X180.65Y-97.41
X180.65Y-99.95
X180.65Y-102.49
X180.65Y-105.03
X180.65Y-107.57
X180.65Y-110.11
T7
X128.44Y-100.12
X128.44Y-102.66
X128.44Y-105.2
X128.44Y-107.74
X128.44Y-110.28
T8
X117.72Y-121.07
X189.72Y-121.07
T4
G00X114.865Y-83.31
M15
G01X114.215Y-83.31
M16
G05
G00X114.865Y-90.31
M15
G01X114.215Y-90.31
M16
G05
T5
G00X117.24Y-84.16
M15
G01X117.24Y-84.46
M16
G05
G00X117.24Y-89.16
M15
G01X117.24Y-89.46
M16
G05
M30
