%TF.GenerationSoftware,KiCad,Pcbnew,8.0.5*%
%TF.CreationDate,2024-11-04T18:47:40-08:00*%
%TF.ProjectId,digitalclock,64696769-7461-46c6-936c-6f636b2e6b69,rev?*%
%TF.SameCoordinates,Original*%
%TF.FileFunction,Copper,L1,Top*%
%TF.FilePolarity,Positive*%
%FSLAX46Y46*%
G04 Gerber Fmt 4.6, Leading zero omitted, Abs format (unit mm)*
G04 Created by KiCad (PCBNEW 8.0.5) date 2024-11-04 18:47:40*
%MOMM*%
%LPD*%
G01*
G04 APERTURE LIST*
G04 Aperture macros list*
%AMRoundRect*
0 Rectangle with rounded corners*
0 $1 Rounding radius*
0 $2 $3 $4 $5 $6 $7 $8 $9 X,Y pos of 4 corners*
0 Add a 4 corners polygon primitive as box body*
4,1,4,$2,$3,$4,$5,$6,$7,$8,$9,$2,$3,0*
0 Add four circle primitives for the rounded corners*
1,1,$1+$1,$2,$3*
1,1,$1+$1,$4,$5*
1,1,$1+$1,$6,$7*
1,1,$1+$1,$8,$9*
0 Add four rect primitives between the rounded corners*
20,1,$1+$1,$2,$3,$4,$5,0*
20,1,$1+$1,$4,$5,$6,$7,0*
20,1,$1+$1,$6,$7,$8,$9,0*
20,1,$1+$1,$8,$9,$2,$3,0*%
G04 Aperture macros list end*
%TA.AperFunction,SMDPad,CuDef*%
%ADD10R,1.075000X1.000000*%
%TD*%
%TA.AperFunction,SMDPad,CuDef*%
%ADD11RoundRect,0.237500X-0.300000X-0.237500X0.300000X-0.237500X0.300000X0.237500X-0.300000X0.237500X0*%
%TD*%
%TA.AperFunction,ComponentPad*%
%ADD12C,1.524000*%
%TD*%
%TA.AperFunction,SMDPad,CuDef*%
%ADD13R,1.240000X1.500000*%
%TD*%
%TA.AperFunction,SMDPad,CuDef*%
%ADD14R,2.400000X0.760000*%
%TD*%
%TA.AperFunction,SMDPad,CuDef*%
%ADD15R,1.000000X1.075000*%
%TD*%
%TA.AperFunction,SMDPad,CuDef*%
%ADD16C,1.000000*%
%TD*%
%TA.AperFunction,SMDPad,CuDef*%
%ADD17R,0.620000X1.400000*%
%TD*%
%TA.AperFunction,SMDPad,CuDef*%
%ADD18R,1.100000X2.400000*%
%TD*%
%TA.AperFunction,SMDPad,CuDef*%
%ADD19RoundRect,0.237500X0.300000X0.237500X-0.300000X0.237500X-0.300000X-0.237500X0.300000X-0.237500X0*%
%TD*%
%TA.AperFunction,SMDPad,CuDef*%
%ADD20R,1.400000X0.450000*%
%TD*%
%TA.AperFunction,SMDPad,CuDef*%
%ADD21RoundRect,0.075000X-0.662500X-0.075000X0.662500X-0.075000X0.662500X0.075000X-0.662500X0.075000X0*%
%TD*%
%TA.AperFunction,SMDPad,CuDef*%
%ADD22RoundRect,0.075000X-0.075000X-0.662500X0.075000X-0.662500X0.075000X0.662500X-0.075000X0.662500X0*%
%TD*%
%TA.AperFunction,SMDPad,CuDef*%
%ADD23R,1.900000X1.100000*%
%TD*%
%TA.AperFunction,ComponentPad*%
%ADD24R,1.000000X1.000000*%
%TD*%
%TA.AperFunction,SMDPad,CuDef*%
%ADD25RoundRect,0.237500X0.237500X-0.300000X0.237500X0.300000X-0.237500X0.300000X-0.237500X-0.300000X0*%
%TD*%
%TA.AperFunction,SMDPad,CuDef*%
%ADD26R,1.400000X1.400000*%
%TD*%
%TA.AperFunction,SMDPad,CuDef*%
%ADD27R,1.200000X1.200000*%
%TD*%
%TA.AperFunction,SMDPad,CuDef*%
%ADD28R,1.016000X2.200000*%
%TD*%
%TA.AperFunction,SMDPad,CuDef*%
%ADD29RoundRect,0.073750X-0.611250X-0.221250X0.611250X-0.221250X0.611250X0.221250X-0.611250X0.221250X0*%
%TD*%
%TA.AperFunction,SMDPad,CuDef*%
%ADD30R,0.635000X1.016000*%
%TD*%
%TA.AperFunction,ComponentPad*%
%ADD31C,3.200000*%
%TD*%
%TA.AperFunction,SMDPad,CuDef*%
%ADD32R,0.900000X0.900000*%
%TD*%
%TA.AperFunction,SMDPad,CuDef*%
%ADD33RoundRect,0.150000X-0.512500X-0.150000X0.512500X-0.150000X0.512500X0.150000X-0.512500X0.150000X0*%
%TD*%
%TA.AperFunction,SMDPad,CuDef*%
%ADD34C,0.300000*%
%TD*%
%TA.AperFunction,ComponentPad*%
%ADD35R,1.700000X1.700000*%
%TD*%
%TA.AperFunction,ComponentPad*%
%ADD36O,1.700000X1.700000*%
%TD*%
%TA.AperFunction,SMDPad,CuDef*%
%ADD37R,1.200000X0.550000*%
%TD*%
%TA.AperFunction,SMDPad,CuDef*%
%ADD38R,1.168400X1.600200*%
%TD*%
%TA.AperFunction,SMDPad,CuDef*%
%ADD39R,0.635000X0.203200*%
%TD*%
%TA.AperFunction,SMDPad,CuDef*%
%ADD40RoundRect,0.250000X0.250000X1.500000X-0.250000X1.500000X-0.250000X-1.500000X0.250000X-1.500000X0*%
%TD*%
%TA.AperFunction,SMDPad,CuDef*%
%ADD41RoundRect,0.250001X0.499999X1.449999X-0.499999X1.449999X-0.499999X-1.449999X0.499999X-1.449999X0*%
%TD*%
%TA.AperFunction,SMDPad,CuDef*%
%ADD42RoundRect,0.237500X-0.237500X0.300000X-0.237500X-0.300000X0.237500X-0.300000X0.237500X0.300000X0*%
%TD*%
%TA.AperFunction,SMDPad,CuDef*%
%ADD43RoundRect,0.150000X-0.150000X0.825000X-0.150000X-0.825000X0.150000X-0.825000X0.150000X0.825000X0*%
%TD*%
%TA.AperFunction,SMDPad,CuDef*%
%ADD44RoundRect,0.100000X-0.575000X0.100000X-0.575000X-0.100000X0.575000X-0.100000X0.575000X0.100000X0*%
%TD*%
%TA.AperFunction,ComponentPad*%
%ADD45O,1.550000X0.890000*%
%TD*%
%TA.AperFunction,SMDPad,CuDef*%
%ADD46RoundRect,0.250000X-0.525000X0.475000X-0.525000X-0.475000X0.525000X-0.475000X0.525000X0.475000X0*%
%TD*%
%TA.AperFunction,ComponentPad*%
%ADD47O,0.950000X1.250000*%
%TD*%
%TA.AperFunction,SMDPad,CuDef*%
%ADD48RoundRect,0.250000X-0.525000X0.500000X-0.525000X-0.500000X0.525000X-0.500000X0.525000X0.500000X0*%
%TD*%
%TA.AperFunction,SMDPad,CuDef*%
%ADD49RoundRect,0.073750X-0.951250X-0.221250X0.951250X-0.221250X0.951250X0.221250X-0.951250X0.221250X0*%
%TD*%
%TA.AperFunction,SMDPad,CuDef*%
%ADD50RoundRect,0.150000X-0.587500X-0.150000X0.587500X-0.150000X0.587500X0.150000X-0.587500X0.150000X0*%
%TD*%
%TA.AperFunction,SMDPad,CuDef*%
%ADD51RoundRect,0.073750X0.951250X0.221250X-0.951250X0.221250X-0.951250X-0.221250X0.951250X-0.221250X0*%
%TD*%
%TA.AperFunction,SMDPad,CuDef*%
%ADD52R,1.000000X0.850000*%
%TD*%
%TA.AperFunction,ViaPad*%
%ADD53C,0.700000*%
%TD*%
%TA.AperFunction,ViaPad*%
%ADD54C,1.000000*%
%TD*%
%TA.AperFunction,ViaPad*%
%ADD55C,0.600000*%
%TD*%
%TA.AperFunction,Conductor*%
%ADD56C,1.000000*%
%TD*%
%TA.AperFunction,Conductor*%
%ADD57C,0.500000*%
%TD*%
%TA.AperFunction,Conductor*%
%ADD58C,0.300000*%
%TD*%
%TA.AperFunction,Conductor*%
%ADD59C,0.150000*%
%TD*%
%TA.AperFunction,Conductor*%
%ADD60C,0.200000*%
%TD*%
G04 APERTURE END LIST*
%TA.AperFunction,EtchedComponent*%
%TO.C,NT1*%
G36*
X149191600Y-94409400D02*
G01*
X148691600Y-94409400D01*
X148691600Y-94109400D01*
X149191600Y-94109400D01*
X149191600Y-94409400D01*
G37*
%TD.AperFunction*%
%TD*%
D10*
%TO.P,R13,1,1*%
%TO.N,/MCU_OSC/D13*%
X165740000Y-94400000D03*
%TO.P,R13,2,2*%
%TO.N,GND*%
X167440000Y-94400000D03*
%TD*%
D11*
%TO.P,C11,1,1*%
%TO.N,+3V3*%
X162887500Y-90318750D03*
%TO.P,C11,2,2*%
%TO.N,GND*%
X164612500Y-90318750D03*
%TD*%
D12*
%TO.P,J4,1,Pin_1*%
%TO.N,+3V3*%
X128440000Y-110280000D03*
%TO.P,J4,2,Pin_2*%
%TO.N,/Light Sensor/3Vo*%
X128440000Y-107740000D03*
%TO.P,J4,3,Pin_3*%
%TO.N,GND*%
X128440000Y-105200000D03*
%TO.P,J4,4,Pin_4*%
%TO.N,/SCL*%
X128440000Y-102660000D03*
%TO.P,J4,5,Pin_5*%
%TO.N,/SDA*%
X128440000Y-100120000D03*
%TD*%
D10*
%TO.P,R32,1*%
%TO.N,/SDA*%
X134874000Y-100158000D03*
%TO.P,R32,2*%
X133174000Y-100158000D03*
%TD*%
%TO.P,R11,1*%
%TO.N,VBAT*%
X137780000Y-95940000D03*
%TO.P,R11,2*%
%TO.N,/MCU_OSC/V_DIV*%
X139480000Y-95940000D03*
%TD*%
%TO.P,R4,1,1*%
%TO.N,+3V3*%
X166860000Y-89710000D03*
%TO.P,R4,2,2*%
%TO.N,/~{RST}*%
X168560000Y-89710000D03*
%TD*%
D13*
%TO.P,C1,1,1*%
%TO.N,VBAT*%
X127370000Y-72140000D03*
%TO.P,C1,2,2*%
%TO.N,GND*%
X129270000Y-72140000D03*
%TD*%
D14*
%TO.P,J1,1,Pin_1*%
%TO.N,+3V3*%
X174710000Y-93770000D03*
%TO.P,J1,2,Pin_2*%
%TO.N,/SWDIO*%
X170810000Y-93770000D03*
%TO.P,J1,3,Pin_3*%
%TO.N,GND*%
X174710000Y-92500000D03*
%TO.P,J1,4,Pin_4*%
%TO.N,/SWCLK*%
X170810000Y-92500000D03*
%TO.P,J1,5,Pin_5*%
%TO.N,GND*%
X174710000Y-91230000D03*
%TO.P,J1,6,Pin_6*%
%TO.N,/SWD/SWO*%
X170810000Y-91230000D03*
%TO.P,J1,7,Pin_7*%
%TO.N,/SWD/Key*%
X174710000Y-89960000D03*
%TO.P,J1,8,Pin_8*%
%TO.N,/SWD/n{slash}c*%
X170810000Y-89960000D03*
%TO.P,J1,9,Pin_9*%
%TO.N,GND*%
X174710000Y-88690000D03*
%TO.P,J1,10,Pin_10*%
%TO.N,/~{RST}*%
X170810000Y-88690000D03*
%TD*%
D15*
%TO.P,R24,1*%
%TO.N,/MISO*%
X192786000Y-98210000D03*
%TO.P,R24,2*%
X192786000Y-99910000D03*
%TD*%
D10*
%TO.P,R31,1*%
%TO.N,/SCL*%
X134874000Y-102666800D03*
%TO.P,R31,2*%
X133174000Y-102666800D03*
%TD*%
D16*
%TO.P,FID3,*%
%TO.N,*%
X117720000Y-116200000D03*
%TD*%
D15*
%TO.P,C13,1*%
%TO.N,Net-(D2-K)*%
X171259000Y-109300000D03*
%TO.P,C13,2*%
%TO.N,GND*%
X171259000Y-111000000D03*
%TD*%
D17*
%TO.P,J2,P1,DAT2*%
%TO.N,unconnected-(J2-DAT2-PadP1)*%
X142050000Y-113160000D03*
%TO.P,J2,P2,~{CS}*%
%TO.N,/CS2*%
X140950000Y-113160000D03*
%TO.P,J2,P3,MOSI*%
%TO.N,/MOSI*%
X139850000Y-113160000D03*
%TO.P,J2,P4,VDD*%
%TO.N,+3V3*%
X138750000Y-113160000D03*
%TO.P,J2,P5,CLK*%
%TO.N,/SCLK*%
X137650000Y-113160000D03*
%TO.P,J2,P6,VSS*%
%TO.N,GND*%
X136550000Y-113160000D03*
%TO.P,J2,P7,MISO*%
%TO.N,/MISO*%
X135450000Y-113160000D03*
%TO.P,J2,P8,DAT1*%
%TO.N,unconnected-(J2-DAT1-PadP8)*%
X134350000Y-113160000D03*
%TO.P,J2,P9,CD*%
%TO.N,unconnected-(J2-CD-PadP9)*%
X133250000Y-113160000D03*
D18*
%TO.P,J2,SH1,SHIELD*%
%TO.N,GND*%
X131870000Y-124160000D03*
%TO.P,J2,SH2,SHIELD__1*%
X131870000Y-115160000D03*
%TO.P,J2,SH3,SHIELD__2*%
X148020000Y-115160000D03*
%TO.P,J2,SH4,SHIELD__3*%
X148020000Y-124160000D03*
%TD*%
D11*
%TO.P,C2,1,1*%
%TO.N,/~{RST}*%
X138485000Y-87380000D03*
%TO.P,C2,2,2*%
%TO.N,GND*%
X140210000Y-87380000D03*
%TD*%
D19*
%TO.P,C3,1,1*%
%TO.N,Net-(L1-1)*%
X153487500Y-88020000D03*
%TO.P,C3,2,2*%
%TO.N,GND*%
X151762500Y-88020000D03*
%TD*%
D15*
%TO.P,R10,1,1*%
%TO.N,+3V3*%
X157930000Y-110250000D03*
%TO.P,R10,2,2*%
%TO.N,/CS*%
X157930000Y-108550000D03*
%TD*%
D20*
%TO.P,U5,1,SDA*%
%TO.N,/SDA*%
X163380000Y-114135000D03*
%TO.P,U5,2,SCL*%
%TO.N,/SCL*%
X163380000Y-113485000D03*
%TO.P,U5,3,ALERT*%
%TO.N,/Temperature Sensor/ALERT*%
X163380000Y-112835000D03*
%TO.P,U5,4,GND*%
%TO.N,GND*%
X163380000Y-112185000D03*
%TO.P,U5,5,A2*%
%TO.N,/Temperature Sensor/A2*%
X158980000Y-112185000D03*
%TO.P,U5,6,A1*%
%TO.N,/Temperature Sensor/A1*%
X158980000Y-112835000D03*
%TO.P,U5,7,A0*%
%TO.N,/Temperature Sensor/A0*%
X158980000Y-113485000D03*
%TO.P,U5,8,VDD*%
%TO.N,+3V3*%
X158980000Y-114135000D03*
%TD*%
D15*
%TO.P,R40,1*%
%TO.N,/CS3*%
X185851800Y-64197600D03*
%TO.P,R40,2*%
X185851800Y-62497600D03*
%TD*%
D21*
%TO.P,U$1,1,PA00/EINT0/SERCOM1.0*%
%TO.N,Net-(U$1A-PA00{slash}EINT0{slash}SERCOM1.0)*%
X150925000Y-92750000D03*
%TO.P,U$1,2,PA01/EINT1/SERCOM1.1*%
%TO.N,Net-(U$1A-PA01{slash}EINT1{slash}SERCOM1.1)*%
X150925000Y-93250000D03*
%TO.P,U$1,3,PA02/EINT2/AIN0/VOUT0*%
%TO.N,/MCU_OSC/A0*%
X150925000Y-93750000D03*
%TO.P,U$1,4,PA03/I3/VREFA/AIN1*%
%TO.N,/AREF*%
X150925000Y-94250000D03*
%TO.P,U$1,5,PB04/I4/AIN6*%
%TO.N,unconnected-(U$1B-PB04{slash}I4{slash}AIN6-Pad5)*%
X150925000Y-94750000D03*
%TO.P,U$1,6,PB05/I5/AIN7*%
%TO.N,unconnected-(U$1B-PB05{slash}I5{slash}AIN7-Pad6)*%
X150925000Y-95250000D03*
%TO.P,U$1,7,GND_0*%
%TO.N,GND*%
X150925000Y-95750000D03*
%TO.P,U$1,8,VDDANA*%
%TO.N,+3V3*%
X150925000Y-96250000D03*
%TO.P,U$1,9,PB06/I6/AIN8*%
%TO.N,unconnected-(U$1B-PB06{slash}I6{slash}AIN8-Pad9)*%
X150925000Y-96750000D03*
%TO.P,U$1,10,PB07/I7/AIN9*%
%TO.N,unconnected-(U$1B-PB07{slash}I7{slash}AIN9-Pad10)*%
X150925000Y-97250000D03*
%TO.P,U$1,11,PB08/I8/AIN2/SERCOM4.0*%
%TO.N,/MCU_OSC/A2*%
X150925000Y-97750000D03*
%TO.P,U$1,12,PB09/I9/AIN3/SERCOM4.1*%
%TO.N,/MCU_OSC/A3*%
X150925000Y-98250000D03*
%TO.P,U$1,13,PA04/I4/VREFB/AIN4/SERCOM0.0*%
%TO.N,/MCU_OSC/A4*%
X150925000Y-98750000D03*
%TO.P,U$1,14,PA05/I5/AIN5/VOUT1/SERCOM0.1*%
%TO.N,/MCU_OSC/A1*%
X150925000Y-99250000D03*
%TO.P,U$1,15,PA06/I6/VREFC/AIN6/SERCOM0.2*%
%TO.N,/MCU_OSC/A5*%
X150925000Y-99750000D03*
%TO.P,U$1,16,PA07/I7/AIN7/SERCOM0.3*%
%TO.N,+3V3*%
X150925000Y-100250000D03*
D22*
%TO.P,U$1,17,PA08/I2C/AIN8/SERCOM0.0+2.1/I2SMCK*%
%TO.N,/DATA0*%
X152837500Y-102162500D03*
%TO.P,U$1,18,PA09/I2C/I9/AIN9/SERCOM0.1+2.0/I2SFS0*%
%TO.N,/DATA1*%
X153337500Y-102162500D03*
%TO.P,U$1,19,PA10/I10/AIN10/SERCOM0+2.2/I2SCK*%
%TO.N,/DATA2*%
X153837500Y-102162500D03*
%TO.P,U$1,20,PA11/I11/AIN11/SERCOM0+2.3/I2SDO*%
%TO.N,/DATA3*%
X154337500Y-102162500D03*
%TO.P,U$1,21,VDDIO_0*%
%TO.N,+3V3*%
X154837500Y-102162500D03*
%TO.P,U$1,22,GND_1*%
%TO.N,GND*%
X155337500Y-102162500D03*
%TO.P,U$1,23,PB10/I10/SERCOM4.2/I2SDI*%
%TO.N,/SCK*%
X155837500Y-102162500D03*
%TO.P,U$1,24,PB11/I11/SERCOM4.3/I2SFS1*%
%TO.N,/CS*%
X156337500Y-102162500D03*
%TO.P,U$1,25,PB12/I12/SERCOM4.0/I2SCK1*%
%TO.N,unconnected-(U$1B-PB12{slash}I12{slash}SERCOM4.0{slash}I2SCK1-Pad25)*%
X156837500Y-102162500D03*
%TO.P,U$1,26,PB13/I13/SERCOM4.1/I2SMCK1*%
%TO.N,unconnected-(U$1B-PB13{slash}I13{slash}SERCOM4.1{slash}I2SMCK1-Pad26)*%
X157337500Y-102162500D03*
%TO.P,U$1,27,PB14/I14/SERCOM4.2/PCC8*%
%TO.N,unconnected-(U$1B-PB14{slash}I14{slash}SERCOM4.2{slash}PCC8-Pad27)*%
X157837500Y-102162500D03*
%TO.P,U$1,28,PB15/I15/SERCOM4.3/PCC9*%
%TO.N,unconnected-(U$1B-PB15{slash}I15{slash}SERCOM4.3{slash}PCC9-Pad28)*%
X158337500Y-102162500D03*
%TO.P,U$1,29,PA12/I12/I2C/SERCOM2.0+4.1*%
%TO.N,/SDA*%
X158837500Y-102162500D03*
%TO.P,U$1,30,PA13/I13/I2C/SERCOM2.1+4.0*%
%TO.N,/SCL*%
X159337500Y-102162500D03*
%TO.P,U$1,31,PA14/I14/SERCOM2+4.2*%
%TO.N,/CS2*%
X159837500Y-102162500D03*
%TO.P,U$1,32,PA15/I15/SERCOM2+4.3*%
%TO.N,unconnected-(U$1A-PA15{slash}I15{slash}SERCOM2+4.3-Pad32)*%
X160337500Y-102162500D03*
D21*
%TO.P,U$1,33,GND_2*%
%TO.N,GND*%
X162250000Y-100250000D03*
%TO.P,U$1,34,VDDIO_1*%
%TO.N,+3V3*%
X162250000Y-99750000D03*
%TO.P,U$1,35,PA16/I2C/I0/SERCOM1.0+3.1*%
%TO.N,/ON{slash}OFF*%
X162250000Y-99250000D03*
%TO.P,U$1,36,PA17/I2C/I1/SERCOM1.1+3.0*%
%TO.N,/SCLK*%
X162250000Y-98750000D03*
%TO.P,U$1,37,PA18/I2/SERCOM1+3.2*%
%TO.N,/BUSY*%
X162250000Y-98250000D03*
%TO.P,U$1,38,PA19/I3/SERCOM1+3.3*%
%TO.N,/~{WIFIRST}*%
X162250000Y-97750000D03*
%TO.P,U$1,39,PB16/I0/SERCOM5.0/I2SCK0*%
%TO.N,/MCU_OSC/TX_D1*%
X162250000Y-97250000D03*
%TO.P,U$1,40,PB17/SERCOM5.1/I2SMCK0*%
%TO.N,/MCU_OSC/RX_D0*%
X162250000Y-96750000D03*
%TO.P,U$1,41,PA20/I4/SERCOM3+5.2/I2SFS0*%
%TO.N,/CS1*%
X162250000Y-96250000D03*
%TO.P,U$1,42,PA21/I5/SERCOM3+5.3/I2SDO*%
%TO.N,/CS3*%
X162250000Y-95750000D03*
%TO.P,U$1,43,PA22/I2C/16/SERCOM3.0+5.1/I2SDI*%
%TO.N,/MCU_OSC/D12*%
X162250000Y-95250000D03*
%TO.P,U$1,44,PA23/I2C/I7/SERCOM3.1+5.0/SOF/I2SFS1*%
%TO.N,/MCU_OSC/D13*%
X162250000Y-94750000D03*
%TO.P,U$1,45,PA24/I8/SERCOM3+5.2/D-*%
%TO.N,/D-*%
X162250000Y-94250000D03*
%TO.P,U$1,46,PA25/19/SERCOM3+5.3/D+*%
%TO.N,/D+*%
X162250000Y-93750000D03*
%TO.P,U$1,47,GND_3*%
%TO.N,GND*%
X162250000Y-93250000D03*
%TO.P,U$1,48,VDDIO_2*%
%TO.N,+3V3*%
X162250000Y-92750000D03*
D22*
%TO.P,U$1,49,PB22/I6/SERCOM1+5.2*%
%TO.N,/MISO*%
X160337500Y-90837500D03*
%TO.P,U$1,50,PB23/I7/SERCOM1+5.3*%
%TO.N,/MOSI*%
X159837500Y-90837500D03*
%TO.P,U$1,51,PA27/I11*%
%TO.N,unconnected-(U$1A-PA27{slash}I11-Pad51)*%
X159337500Y-90837500D03*
%TO.P,U$1,52,~{RESET}*%
%TO.N,/~{RST}*%
X158837500Y-90837500D03*
%TO.P,U$1,53,VDDCORE*%
%TO.N,Net-(L1-1)*%
X158337500Y-90837500D03*
%TO.P,U$1,54,GND_4*%
%TO.N,GND*%
X157837500Y-90837500D03*
%TO.P,U$1,55,VSW*%
%TO.N,Net-(L1-2)*%
X157337500Y-90837500D03*
%TO.P,U$1,56,VDDIO_3*%
%TO.N,+3V3*%
X156837500Y-90837500D03*
%TO.P,U$1,57,PA30/I14/SERCOM1.2/SWCLK*%
%TO.N,/SWCLK*%
X156337500Y-90837500D03*
%TO.P,U$1,58,PA31/I15/SERCOM1.3/SWDIO*%
%TO.N,/SWDIO*%
X155837500Y-90837500D03*
%TO.P,U$1,59,PB30/I14/SERCOM5.1/SWO*%
%TO.N,unconnected-(U$1B-PB30{slash}I14{slash}SERCOM5.1{slash}SWO-Pad59)*%
X155337500Y-90837500D03*
%TO.P,U$1,60,PB31/I15/SERCOM5.0*%
%TO.N,unconnected-(U$1B-PB31{slash}I15{slash}SERCOM5.0-Pad60)*%
X154837500Y-90837500D03*
%TO.P,U$1,61,PB00/I0/AIN12/SERCOM5.2*%
%TO.N,unconnected-(U$1B-PB00{slash}I0{slash}AIN12{slash}SERCOM5.2-Pad61)*%
X154337500Y-90837500D03*
%TO.P,U$1,62,PB01/I1/AIN13/SERCOM5.3*%
%TO.N,/MCU_OSC/V_DIV*%
X153837500Y-90837500D03*
%TO.P,U$1,63,PB02/I2/AIN14/SERCOM5.0*%
%TO.N,unconnected-(U$1B-PB02{slash}I2{slash}AIN14{slash}SERCOM5.0-Pad63)*%
X153337500Y-90837500D03*
%TO.P,U$1,64,PB03/I3/AIN15/SERCOM5.1*%
%TO.N,/MCU_OSC/D8_NEOPIX*%
X152837500Y-90837500D03*
%TD*%
D23*
%TO.P,X3,P$1,P$1*%
%TO.N,Net-(U$1A-PA00{slash}EINT0{slash}SERCOM1.0)*%
X149100000Y-88600000D03*
%TO.P,X3,P$2,P$2*%
%TO.N,Net-(U$1A-PA01{slash}EINT1{slash}SERCOM1.1)*%
X149100000Y-91000000D03*
%TD*%
D24*
%TO.P,TP1,1,1*%
%TO.N,Net-(R9-Pad2)*%
X174040800Y-108712000D03*
%TD*%
D25*
%TO.P,C12,1,1*%
%TO.N,+3V3*%
X155200000Y-88762500D03*
%TO.P,C12,2,2*%
%TO.N,GND*%
X155200000Y-87037500D03*
%TD*%
D26*
%TO.P,D1,A,A*%
%TO.N,VBUS*%
X121300000Y-81330000D03*
%TO.P,D1,C,C*%
%TO.N,/Power/Vin*%
X125000000Y-81330000D03*
%TD*%
D15*
%TO.P,R36,1*%
%TO.N,VBAT*%
X183388000Y-82170800D03*
%TO.P,R36,2*%
%TO.N,/CS3*%
X183388000Y-83870800D03*
%TD*%
%TO.P,R8,1*%
%TO.N,+3V3*%
X167690800Y-112799600D03*
%TO.P,R8,2*%
%TO.N,Net-(D2-A)*%
X167690800Y-111099600D03*
%TD*%
%TO.P,R28,1*%
%TO.N,/SCL*%
X164084000Y-108419000D03*
%TO.P,R28,2*%
X164084000Y-106719000D03*
%TD*%
D10*
%TO.P,C15,1,1*%
%TO.N,Net-(U$1A-PA01{slash}EINT1{slash}SERCOM1.1)*%
X147010900Y-90958200D03*
%TO.P,C15,2,2*%
%TO.N,GND*%
X145310900Y-90958200D03*
%TD*%
D27*
%TO.P,CHG1,A,A*%
%TO.N,VBUS*%
X121040000Y-78320000D03*
%TO.P,CHG1,C,C*%
%TO.N,Net-(CHG1-PadC)*%
X118940000Y-78320000D03*
%TD*%
D10*
%TO.P,R7,1*%
%TO.N,/ON{slash}OFF*%
X169100000Y-101500000D03*
%TO.P,R7,2*%
%TO.N,Net-(Q2-B)*%
X167400000Y-101500000D03*
%TD*%
D13*
%TO.P,C9,1,1*%
%TO.N,+3V3*%
X163600000Y-102700000D03*
%TO.P,C9,2,2*%
%TO.N,GND*%
X161700000Y-102700000D03*
%TD*%
D28*
%TO.P,L1,P$1,1*%
%TO.N,Net-(L1-1)*%
X158877000Y-85140000D03*
%TO.P,L1,P$2,2*%
%TO.N,Net-(L1-2)*%
X156623000Y-85140000D03*
%TD*%
D19*
%TO.P,C8,1,1*%
%TO.N,/AREF*%
X148262500Y-96200000D03*
%TO.P,C8,2,2*%
%TO.N,GND*%
X146537500Y-96200000D03*
%TD*%
D10*
%TO.P,R27,1*%
%TO.N,/SDA*%
X159805000Y-106553000D03*
%TO.P,R27,2*%
X161505000Y-106553000D03*
%TD*%
%TO.P,R23,1*%
%TO.N,/SCLK*%
X183808000Y-89916000D03*
%TO.P,R23,2*%
X185508000Y-89916000D03*
%TD*%
D29*
%TO.P,U3,1,OUT*%
%TO.N,/ON{slash}OFF*%
X171630000Y-101150000D03*
%TO.P,U3,2,VSS*%
%TO.N,GND*%
X171630000Y-102100000D03*
%TO.P,U3,3,SNSK*%
%TO.N,Net-(U3-SNSK)*%
X171630000Y-103050000D03*
%TO.P,U3,4,SNS*%
%TO.N,Net-(U3-SNS)*%
X173970000Y-103050000D03*
%TO.P,U3,5,VDD*%
%TO.N,+3V3*%
X173970000Y-102100000D03*
%TO.P,U3,6,SYNC/MODE*%
%TO.N,GND*%
X173970000Y-101150000D03*
%TD*%
D10*
%TO.P,R14,1,1*%
%TO.N,+3V3*%
X166810000Y-91450000D03*
%TO.P,R14,2,2*%
%TO.N,/SWCLK*%
X168510000Y-91450000D03*
%TD*%
D15*
%TO.P,R20,1*%
%TO.N,+3V3*%
X135255000Y-108624000D03*
%TO.P,R20,2*%
%TO.N,/MISO*%
X135255000Y-110324000D03*
%TD*%
D10*
%TO.P,C16,1,1*%
%TO.N,Net-(U$1A-PA00{slash}EINT0{slash}SERCOM1.0)*%
X147050000Y-88570000D03*
%TO.P,C16,2,2*%
%TO.N,GND*%
X145350000Y-88570000D03*
%TD*%
%TO.P,R30,1*%
%TO.N,+3V3*%
X160980000Y-110000000D03*
%TO.P,R30,2*%
%TO.N,/SDA*%
X162680000Y-110000000D03*
%TD*%
D30*
%TO.P,Q1,1,G*%
%TO.N,VBUS*%
X126780000Y-78190000D03*
%TO.P,Q1,2,S*%
%TO.N,/Power/Vin*%
X128680000Y-78190000D03*
%TO.P,Q1,3,D*%
%TO.N,VBAT*%
X127730000Y-76190000D03*
%TD*%
D15*
%TO.P,R39,1*%
%TO.N,/MOSI*%
X186486800Y-80606000D03*
%TO.P,R39,2*%
X186486800Y-78906000D03*
%TD*%
%TO.P,R25,1*%
%TO.N,/MOSI*%
X185039000Y-99861000D03*
%TO.P,R25,2*%
X185039000Y-101561000D03*
%TD*%
D31*
%TO.P,P$1,P$1*%
%TO.N,N/C*%
X117720000Y-121070000D03*
%TD*%
D10*
%TO.P,R3,1*%
%TO.N,VBUS*%
X122590000Y-85520000D03*
%TO.P,R3,2*%
%TO.N,GND*%
X124290000Y-85520000D03*
%TD*%
D15*
%TO.P,R35,1*%
%TO.N,/CS3*%
X136601200Y-80047200D03*
%TO.P,R35,2*%
X136601200Y-78347200D03*
%TD*%
%TO.P,R19,1*%
%TO.N,+3V3*%
X137617200Y-108624000D03*
%TO.P,R19,2*%
%TO.N,/SCLK*%
X137617200Y-110324000D03*
%TD*%
D32*
%TO.P,SW1,A,P*%
%TO.N,/~{RST}*%
X135810000Y-87140000D03*
%TO.P,SW1,A',P1*%
X131710000Y-87140000D03*
%TO.P,SW1,B,S*%
%TO.N,GND*%
X135810000Y-88740000D03*
%TO.P,SW1,B',S1*%
X131710000Y-88740000D03*
%TD*%
D10*
%TO.P,R9,1*%
%TO.N,Net-(U3-SNSK)*%
X172950000Y-105500000D03*
%TO.P,R9,2*%
%TO.N,Net-(R9-Pad2)*%
X171250000Y-105500000D03*
%TD*%
%TO.P,C14,1*%
%TO.N,Net-(U3-SNSK)*%
X174750000Y-105500000D03*
%TO.P,C14,2*%
%TO.N,Net-(U3-SNS)*%
X176450000Y-105500000D03*
%TD*%
D33*
%TO.P,U2,1,VIN*%
%TO.N,/Power/Vin*%
X130435000Y-80960000D03*
%TO.P,U2,2,GND*%
%TO.N,GND*%
X130435000Y-81910000D03*
%TO.P,U2,3,EN*%
%TO.N,/Power/EN*%
X130435000Y-82860000D03*
%TO.P,U2,4,NC*%
%TO.N,unconnected-(U2-NC-Pad4)*%
X132710000Y-82860000D03*
%TO.P,U2,5,VOUT*%
%TO.N,+3V3*%
X132710000Y-80960000D03*
%TD*%
D13*
%TO.P,C4,1,1*%
%TO.N,/Power/Vin*%
X130260000Y-78980000D03*
%TO.P,C4,2,2*%
%TO.N,GND*%
X132160000Y-78980000D03*
%TD*%
D10*
%TO.P,R29,1*%
%TO.N,+3V3*%
X160970000Y-108380000D03*
%TO.P,R29,2*%
%TO.N,/SCL*%
X162670000Y-108380000D03*
%TD*%
D34*
%TO.P,NT1,1,1*%
%TO.N,/AREF*%
X149191600Y-94259400D03*
%TO.P,NT1,2,2*%
%TO.N,+3V3*%
X148691600Y-94259400D03*
%TD*%
D35*
%TO.P,J6,1,Pin_1*%
%TO.N,/Display/RED_1*%
X169030000Y-73150000D03*
D36*
%TO.P,J6,2,Pin_2*%
%TO.N,/Display/A*%
X166490000Y-73150000D03*
%TO.P,J6,3,Pin_3*%
%TO.N,/Display/B*%
X163950000Y-73150000D03*
%TO.P,J6,4,Pin_4*%
%TO.N,/Display/GREEN_1*%
X161410000Y-73150000D03*
%TO.P,J6,5,Pin_5*%
%TO.N,/Display/BLUE_1*%
X158870000Y-73150000D03*
%TO.P,J6,6,Pin_6*%
%TO.N,/Display/C*%
X156330000Y-73150000D03*
%TO.P,J6,7,Pin_7*%
%TO.N,/Display/BLUE_2*%
X153790000Y-73150000D03*
%TD*%
D35*
%TO.P,J7,1,Pin_1*%
%TO.N,/Display/E*%
X153790000Y-67700000D03*
D36*
%TO.P,J7,2,Pin_2*%
%TO.N,/Display/D*%
X156330000Y-67700000D03*
%TO.P,J7,3,Pin_3*%
%TO.N,/Display/DP*%
X158870000Y-67700000D03*
%TO.P,J7,4,Pin_4*%
%TO.N,/Display/RED_4*%
X161410000Y-67700000D03*
%TO.P,J7,5,Pin_5*%
%TO.N,/Display/F*%
X163950000Y-67700000D03*
%TO.P,J7,6,Pin_6*%
%TO.N,/Display/G*%
X166490000Y-67700000D03*
%TO.P,J7,7,Pin_7*%
%TO.N,/Display/GREEN_4*%
X169030000Y-67700000D03*
%TD*%
D37*
%TO.P,U1,1,STAT*%
%TO.N,Net-(U1-STAT)*%
X125150000Y-76610000D03*
%TO.P,U1,2,VSS*%
%TO.N,GND*%
X125150000Y-75660000D03*
%TO.P,U1,3,VBAT*%
%TO.N,VBAT*%
X125150000Y-74710000D03*
%TO.P,U1,4,VDD*%
%TO.N,VBUS*%
X122549800Y-74710000D03*
%TO.P,U1,5,PROG*%
%TO.N,Net-(U1-PROG)*%
X122549800Y-76610000D03*
%TD*%
D10*
%TO.P,R2,1,1*%
%TO.N,Net-(U1-PROG)*%
X122880000Y-78400000D03*
%TO.P,R2,2,2*%
%TO.N,GND*%
X124580000Y-78400000D03*
%TD*%
%TO.P,R15,1*%
%TO.N,/SCLK*%
X151190000Y-118900000D03*
%TO.P,R15,2*%
X152890000Y-118900000D03*
%TD*%
%TO.P,R26,1*%
%TO.N,/CS1*%
X165520000Y-96647000D03*
%TO.P,R26,2*%
X167220000Y-96647000D03*
%TD*%
D15*
%TO.P,R21,1*%
%TO.N,+3V3*%
X139954000Y-108624000D03*
%TO.P,R21,2*%
%TO.N,/MOSI*%
X139954000Y-110324000D03*
%TD*%
D38*
%TO.P,SJ1,1,1*%
%TO.N,+3V3*%
X147372000Y-94300000D03*
%TO.P,SJ1,2,2*%
X145848000Y-94300000D03*
D39*
%TO.P,SJ1,WIRE*%
%TO.N,N/C*%
X146610000Y-94300000D03*
%TD*%
D10*
%TO.P,R34,1*%
%TO.N,/MOSI*%
X139662800Y-81686400D03*
%TO.P,R34,2*%
X141362800Y-81686400D03*
%TD*%
D35*
%TO.P,J3,1,Pin_1*%
%TO.N,VBAT*%
X180650000Y-82170000D03*
D36*
%TO.P,J3,2,Pin_2*%
%TO.N,/Wi-Fi/3Vo*%
X180650000Y-84710000D03*
%TO.P,J3,3,Pin_3*%
%TO.N,GND*%
X180650000Y-87250000D03*
%TO.P,J3,4,Pin_4*%
%TO.N,/SCLK*%
X180650000Y-89790000D03*
%TO.P,J3,5,Pin_5*%
%TO.N,/MISO*%
X180650000Y-92330000D03*
%TO.P,J3,6,Pin_6*%
%TO.N,/MOSI*%
X180650000Y-94870000D03*
%TO.P,J3,7,Pin_7*%
%TO.N,/CS1*%
X180650000Y-97410000D03*
%TO.P,J3,8,Pin_8*%
%TO.N,/BUSY*%
X180650000Y-99950000D03*
%TO.P,J3,9,Pin_9*%
%TO.N,/~{WIFIRST}*%
X180650000Y-102490000D03*
%TO.P,J3,10,Pin_10*%
%TO.N,/Wi-Fi/GP0*%
X180650000Y-105030000D03*
%TO.P,J3,11,Pin_11*%
%TO.N,/Wi-Fi/RXI*%
X180650000Y-107570000D03*
%TO.P,J3,12,Pin_12*%
%TO.N,/Wi-Fi/TXO*%
X180650000Y-110110000D03*
%TD*%
D10*
%TO.P,R16,1*%
%TO.N,/MISO*%
X151170000Y-120780000D03*
%TO.P,R16,2*%
X152870000Y-120780000D03*
%TD*%
D40*
%TO.P,X1,1,1*%
%TO.N,GND*%
X129360000Y-68970000D03*
%TO.P,X1,2,2*%
%TO.N,VBAT*%
X127360000Y-68970000D03*
D41*
%TO.P,X1,MP*%
%TO.N,N/C*%
X131710000Y-63220000D03*
X125010000Y-63220000D03*
%TD*%
D31*
%TO.P,P$2,P$1*%
%TO.N,N/C*%
X189720000Y-121070000D03*
%TD*%
D15*
%TO.P,R38,1*%
%TO.N,/SCLK*%
X187706000Y-75170400D03*
%TO.P,R38,2*%
X187706000Y-73470400D03*
%TD*%
%TO.P,R18,1*%
%TO.N,/CS2*%
X140930000Y-106660000D03*
%TO.P,R18,2*%
X140930000Y-104960000D03*
%TD*%
D35*
%TO.P,J8,1,Pin_1*%
%TO.N,/Display/RED_3*%
X169030000Y-77150000D03*
D36*
%TO.P,J8,2,Pin_2*%
%TO.N,/Display/A*%
X166490000Y-77150000D03*
%TO.P,J8,3,Pin_3*%
%TO.N,/Display/B*%
X163950000Y-77150000D03*
%TO.P,J8,4,Pin_4*%
%TO.N,/Display/GREEN_3*%
X161410000Y-77150000D03*
%TO.P,J8,5,Pin_5*%
%TO.N,/Display/BLUE_3*%
X158870000Y-77150000D03*
%TO.P,J8,6,Pin_6*%
%TO.N,/Display/C*%
X156330000Y-77150000D03*
%TO.P,J8,7,Pin_7*%
%TO.N,/Display/BLUE_4*%
X153790000Y-77150000D03*
%TD*%
D15*
%TO.P,D2,1,K*%
%TO.N,Net-(D2-K)*%
X169469000Y-109260000D03*
%TO.P,D2,2,A*%
%TO.N,Net-(D2-A)*%
X169469000Y-110960000D03*
%TD*%
D10*
%TO.P,R12,1*%
%TO.N,/MCU_OSC/V_DIV*%
X141690000Y-94090000D03*
%TO.P,R12,2*%
%TO.N,GND*%
X143390000Y-94090000D03*
%TD*%
D15*
%TO.P,R5,1,1*%
%TO.N,/Power/Vin*%
X127210000Y-81230000D03*
%TO.P,R5,2,2*%
%TO.N,/Power/EN*%
X127210000Y-82930000D03*
%TD*%
D42*
%TO.P,C7,1,1*%
%TO.N,+3V3*%
X134630000Y-82187500D03*
%TO.P,C7,2,2*%
%TO.N,GND*%
X134630000Y-83912500D03*
%TD*%
D43*
%TO.P,U4,1,SSEL*%
%TO.N,/CS*%
X155505000Y-107025000D03*
%TO.P,U4,2,MISO*%
%TO.N,/DATA1*%
X154235000Y-107025000D03*
%TO.P,U4,3,WP#/IO2*%
%TO.N,/DATA2*%
X152965000Y-107025000D03*
%TO.P,U4,4,VSS*%
%TO.N,GND*%
X151695000Y-107025000D03*
%TO.P,U4,5,MOSI*%
%TO.N,/DATA0*%
X151695000Y-111975000D03*
%TO.P,U4,6,SCK*%
%TO.N,/SCK*%
X152965000Y-111975000D03*
%TO.P,U4,7,HOLD#/IO3*%
%TO.N,/DATA3*%
X154235000Y-111975000D03*
%TO.P,U4,8,VCC*%
%TO.N,+3V3*%
X155505000Y-111975000D03*
%TD*%
D13*
%TO.P,C6,1,1*%
%TO.N,+3V3*%
X130780000Y-84680000D03*
%TO.P,C6,2,2*%
%TO.N,GND*%
X132680000Y-84680000D03*
%TD*%
D15*
%TO.P,R41,1*%
%TO.N,VBAT*%
X172050000Y-70815000D03*
%TO.P,R41,2*%
%TO.N,Net-(U7-ISET)*%
X172050000Y-69115000D03*
%TD*%
D44*
%TO.P,X2,1,VBUS*%
%TO.N,VBUS*%
X117240000Y-85510000D03*
%TO.P,X2,2,D-*%
%TO.N,/D-*%
X117240000Y-86160000D03*
%TO.P,X2,3,D+*%
%TO.N,/D+*%
X117240000Y-86810000D03*
%TO.P,X2,4,ID*%
%TO.N,unconnected-(X2-ID-Pad4)*%
X117240000Y-87460000D03*
%TO.P,X2,5,GND*%
%TO.N,GND*%
X117240000Y-88110000D03*
D45*
%TO.P,X2,6,Shield*%
X114540000Y-83310000D03*
D46*
X114540000Y-83785000D03*
D47*
X117240000Y-84310000D03*
D48*
X114540000Y-85810000D03*
X114540000Y-87810000D03*
D47*
X117240000Y-89310000D03*
D46*
X114540000Y-89835000D03*
D45*
X114540000Y-90310000D03*
%TD*%
D10*
%TO.P,R17,1*%
%TO.N,/MOSI*%
X151190000Y-116770000D03*
%TO.P,R17,2*%
X152890000Y-116770000D03*
%TD*%
D16*
%TO.P,FID2,*%
%TO.N,*%
X189720000Y-71750000D03*
%TD*%
D10*
%TO.P,R33,1*%
%TO.N,/SCLK*%
X150039600Y-80060800D03*
%TO.P,R33,2*%
X151739600Y-80060800D03*
%TD*%
D15*
%TO.P,R22,1*%
%TO.N,+3V3*%
X141950000Y-109370000D03*
%TO.P,R22,2*%
%TO.N,/CS2*%
X141950000Y-111070000D03*
%TD*%
D10*
%TO.P,R1,1,1*%
%TO.N,Net-(CHG1-PadC)*%
X118950000Y-76320000D03*
%TO.P,R1,2,2*%
%TO.N,Net-(U1-STAT)*%
X120650000Y-76320000D03*
%TD*%
D49*
%TO.P,U6,1,DIN*%
%TO.N,/MOSI*%
X139090000Y-63470000D03*
%TO.P,U6,2,DIG_0*%
%TO.N,/Display/BLUE_1*%
X139090000Y-64740000D03*
%TO.P,U6,3,DIG_4*%
%TO.N,/Display/BLUE_2*%
X139090000Y-66010000D03*
%TO.P,U6,4,GND*%
%TO.N,GND*%
X139090000Y-67280000D03*
%TO.P,U6,5,DIG_6*%
%TO.N,/Display/RED_2*%
X139090000Y-68550000D03*
%TO.P,U6,6,DIG_2*%
%TO.N,/Display/RED_1*%
X139090000Y-69820000D03*
%TO.P,U6,7,DIG_3*%
%TO.N,unconnected-(U6-DIG_3-Pad7)*%
X139090000Y-71090000D03*
%TO.P,U6,8,DIG_7*%
%TO.N,unconnected-(U6-DIG_7-Pad8)*%
X139090000Y-72360000D03*
%TO.P,U6,9,GND__1*%
%TO.N,GND*%
X139090000Y-73630000D03*
%TO.P,U6,10,DIG_5*%
%TO.N,/Display/GREEN_2*%
X139090000Y-74900000D03*
%TO.P,U6,11,DIG_1*%
%TO.N,/Display/GREEN_1*%
X139090000Y-76170000D03*
%TO.P,U6,12,~{CS}*%
%TO.N,/CS3*%
X139090000Y-77440000D03*
%TO.P,U6,13,CLK*%
%TO.N,/SCLK*%
X148400000Y-77440000D03*
%TO.P,U6,14,SEG_A*%
%TO.N,/Display/A*%
X148400000Y-76170000D03*
%TO.P,U6,15,SEG_F*%
%TO.N,/Display/F*%
X148400000Y-74900000D03*
%TO.P,U6,16,SEG_B*%
%TO.N,/Display/B*%
X148400000Y-73630000D03*
%TO.P,U6,17,SEG_G*%
%TO.N,/Display/G*%
X148400000Y-72360000D03*
%TO.P,U6,18,ISET*%
%TO.N,Net-(U6-ISET)*%
X148400000Y-71090000D03*
%TO.P,U6,19,V+*%
%TO.N,VBAT*%
X148400000Y-69820000D03*
%TO.P,U6,20,SEG_C*%
%TO.N,/Display/C*%
X148400000Y-68550000D03*
%TO.P,U6,21,SEG_E*%
%TO.N,/Display/E*%
X148400000Y-67280000D03*
%TO.P,U6,22,SEG_DP*%
%TO.N,/Display/DP*%
X148400000Y-66010000D03*
%TO.P,U6,23,SEG_D*%
%TO.N,/Display/D*%
X148400000Y-64740000D03*
%TO.P,U6,24,DOUT*%
%TO.N,unconnected-(U6-DOUT-Pad24)*%
X148400000Y-63470000D03*
%TD*%
D25*
%TO.P,C10,1,1*%
%TO.N,+3V3*%
X148150000Y-99612500D03*
%TO.P,C10,2,2*%
%TO.N,GND*%
X148150000Y-97887500D03*
%TD*%
D16*
%TO.P,FID1,*%
%TO.N,*%
X117720000Y-71750000D03*
%TD*%
D42*
%TO.P,C17,1*%
%TO.N,+3V3*%
X157140000Y-112317500D03*
%TO.P,C17,2*%
%TO.N,GND*%
X157140000Y-114042500D03*
%TD*%
D50*
%TO.P,Q2,1,B*%
%TO.N,Net-(Q2-B)*%
X166862500Y-105287500D03*
%TO.P,Q2,2,E*%
%TO.N,GND*%
X166862500Y-107187500D03*
%TO.P,Q2,3,C*%
%TO.N,Net-(D2-K)*%
X168737500Y-106237500D03*
%TD*%
D51*
%TO.P,U7,1,DIN*%
%TO.N,/MOSI*%
X183700000Y-77025000D03*
%TO.P,U7,2,DIG_0*%
%TO.N,/Display/BLUE_3*%
X183700000Y-75755000D03*
%TO.P,U7,3,DIG_4*%
%TO.N,/Display/BLUE_4*%
X183700000Y-74485000D03*
%TO.P,U7,4,GND*%
%TO.N,GND*%
X183700000Y-73215000D03*
%TO.P,U7,5,DIG_6*%
%TO.N,/Display/RED_4*%
X183700000Y-71945000D03*
%TO.P,U7,6,DIG_2*%
%TO.N,/Display/RED_3*%
X183700000Y-70675000D03*
%TO.P,U7,7,DIG_3*%
%TO.N,unconnected-(U7-DIG_3-Pad7)*%
X183700000Y-69405000D03*
%TO.P,U7,8,DIG_7*%
%TO.N,unconnected-(U7-DIG_7-Pad8)*%
X183700000Y-68135000D03*
%TO.P,U7,9,GND__1*%
%TO.N,GND*%
X183700000Y-66865000D03*
%TO.P,U7,10,DIG_5*%
%TO.N,/Display/GREEN_4*%
X183700000Y-65595000D03*
%TO.P,U7,11,DIG_1*%
%TO.N,/Display/GREEN_3*%
X183700000Y-64325000D03*
%TO.P,U7,12,~{CS}*%
%TO.N,/CS3*%
X183700000Y-63055000D03*
%TO.P,U7,13,CLK*%
%TO.N,/SCLK*%
X174390000Y-63055000D03*
%TO.P,U7,14,SEG_A*%
%TO.N,/Display/A*%
X174390000Y-64325000D03*
%TO.P,U7,15,SEG_F*%
%TO.N,/Display/F*%
X174390000Y-65595000D03*
%TO.P,U7,16,SEG_B*%
%TO.N,/Display/B*%
X174390000Y-66865000D03*
%TO.P,U7,17,SEG_G*%
%TO.N,/Display/G*%
X174390000Y-68135000D03*
%TO.P,U7,18,ISET*%
%TO.N,Net-(U7-ISET)*%
X174390000Y-69405000D03*
%TO.P,U7,19,V+*%
%TO.N,VBAT*%
X174390000Y-70675000D03*
%TO.P,U7,20,SEG_C*%
%TO.N,/Display/C*%
X174390000Y-71945000D03*
%TO.P,U7,21,SEG_E*%
%TO.N,/Display/E*%
X174390000Y-73215000D03*
%TO.P,U7,22,SEG_DP*%
%TO.N,/Display/DP*%
X174390000Y-74485000D03*
%TO.P,U7,23,SEG_D*%
%TO.N,/Display/D*%
X174390000Y-75755000D03*
%TO.P,U7,24,DOUT*%
%TO.N,unconnected-(U7-DOUT-Pad24)*%
X174390000Y-77025000D03*
%TD*%
D35*
%TO.P,J5,1,Pin_1*%
%TO.N,/Display/E*%
X153790000Y-63600000D03*
D36*
%TO.P,J5,2,Pin_2*%
%TO.N,/Display/D*%
X156330000Y-63600000D03*
%TO.P,J5,3,Pin_3*%
%TO.N,/Display/DP*%
X158870000Y-63600000D03*
%TO.P,J5,4,Pin_4*%
%TO.N,/Display/RED_2*%
X161410000Y-63600000D03*
%TO.P,J5,5,Pin_5*%
%TO.N,/Display/F*%
X163950000Y-63600000D03*
%TO.P,J5,6,Pin_6*%
%TO.N,/Display/G*%
X166490000Y-63600000D03*
%TO.P,J5,7,Pin_7*%
%TO.N,/Display/GREEN_2*%
X169030000Y-63600000D03*
%TD*%
D15*
%TO.P,R37,1*%
%TO.N,VBAT*%
X150550000Y-69675000D03*
%TO.P,R37,2*%
%TO.N,Net-(U6-ISET)*%
X150550000Y-71375000D03*
%TD*%
D13*
%TO.P,C5,1,1*%
%TO.N,Net-(L1-1)*%
X153575000Y-86220000D03*
%TO.P,C5,2,2*%
%TO.N,GND*%
X151675000Y-86220000D03*
%TD*%
D52*
%TO.P,LED1,1,DI*%
%TO.N,/MCU_OSC/D8_NEOPIX*%
X149810000Y-84745000D03*
%TO.P,LED1,2,VDD*%
%TO.N,+3V3*%
X149810000Y-82995000D03*
%TO.P,LED1,3,DO*%
%TO.N,unconnected-(LED1-DO-Pad3)*%
X146310000Y-82995000D03*
%TO.P,LED1,4,GND*%
%TO.N,GND*%
X146310000Y-84745000D03*
%TD*%
D53*
%TO.N,GND*%
X132160000Y-77510000D03*
X144450000Y-93900000D03*
X155250000Y-104475000D03*
X157140000Y-115390000D03*
X151500000Y-84500000D03*
D54*
X130030000Y-124800000D03*
X149850000Y-123500000D03*
D53*
X137050000Y-67500000D03*
X126250000Y-75660000D03*
X145000000Y-85000000D03*
X143500000Y-90750000D03*
X125700000Y-78400000D03*
D54*
X149840000Y-124850000D03*
D53*
X145350000Y-87150000D03*
X165180000Y-107220000D03*
X168925000Y-94750000D03*
X157500000Y-87500000D03*
D54*
X172679000Y-111000000D03*
D53*
X125700000Y-85540000D03*
X136550000Y-111550000D03*
X151700000Y-105450000D03*
X129200000Y-73750000D03*
D54*
X137050000Y-88750000D03*
X141650000Y-87350000D03*
D53*
X171500000Y-84250000D03*
X155150000Y-85650000D03*
X129150000Y-81900000D03*
D54*
X131875000Y-111375000D03*
D53*
X137270000Y-73630000D03*
X170250000Y-102250000D03*
D54*
X148000000Y-111500000D03*
D53*
X164991600Y-92764825D03*
X163830000Y-111000000D03*
X162500000Y-101000000D03*
D54*
X134700000Y-85400000D03*
D53*
X185535000Y-73215000D03*
D54*
X130015000Y-123500000D03*
D53*
X164612500Y-89200000D03*
X186166600Y-67982717D03*
D54*
X130150000Y-88150000D03*
D53*
X149550000Y-95525000D03*
D54*
X146550000Y-97650000D03*
D53*
X175350000Y-101150000D03*
D54*
%TO.N,VBAT*%
X179850000Y-70100000D03*
X129300000Y-76050000D03*
D53*
X151575000Y-69675000D03*
X135850000Y-75350000D03*
D54*
X128300000Y-88350000D03*
D53*
X170817081Y-70132919D03*
%TO.N,/~{RST}*%
X161766942Y-88866942D03*
X159280000Y-88580000D03*
X138560000Y-89030000D03*
%TO.N,+3V3*%
X149500000Y-96750000D03*
X159405000Y-108375000D03*
X154114142Y-104948869D03*
X163750000Y-92125000D03*
X177000000Y-94500000D03*
X145862000Y-92634000D03*
D54*
X138750000Y-108650000D03*
X136500000Y-108650000D03*
D53*
X138750000Y-111500000D03*
X155250000Y-113675000D03*
X163750000Y-100250000D03*
X161500000Y-90318750D03*
X159330000Y-110250000D03*
D54*
X130800000Y-85990000D03*
X143350000Y-109350000D03*
D53*
X134600000Y-80950000D03*
D54*
X167690800Y-114089600D03*
D53*
X149450000Y-99100000D03*
X156500000Y-89300000D03*
X175600000Y-102600000D03*
X158980000Y-115300000D03*
X151495000Y-82995000D03*
X165790000Y-89710000D03*
D54*
X133477000Y-108712000D03*
%TO.N,VBUS*%
X121310000Y-74710000D03*
X121300000Y-79740000D03*
D53*
%TO.N,/SWDIO*%
X170810000Y-95040000D03*
%TO.N,/SWCLK*%
X173200000Y-95200000D03*
%TO.N,/MOSI*%
X183280000Y-94950000D03*
X137420000Y-63470000D03*
X137930000Y-81750000D03*
%TO.N,/MISO*%
X188320000Y-92320000D03*
%TO.N,/SDA*%
X159816800Y-105308400D03*
D54*
X140716000Y-100177600D03*
D53*
%TO.N,/SCL*%
X159600000Y-103850000D03*
D54*
X140614400Y-102311200D03*
D53*
%TO.N,/Display/E*%
X172750000Y-72550000D03*
%TO.N,/Display/D*%
X172200000Y-75755000D03*
%TO.N,/Display/DP*%
X172762500Y-74437500D03*
%TO.N,/Display/RED_1*%
X137425000Y-69850000D03*
%TO.N,/Display/C*%
X150650000Y-67800000D03*
X156400000Y-70300000D03*
%TO.N,/Display/BLUE_2*%
X136100000Y-66010000D03*
%TO.N,/Display/BLUE_1*%
X136750000Y-64740000D03*
%TO.N,/Display/GREEN_1*%
X137450000Y-76175000D03*
%TO.N,/Display/A*%
X172695000Y-64390000D03*
%TO.N,/Display/GREEN_4*%
X185300000Y-65595000D03*
%TO.N,/Display/RED_4*%
X186000000Y-71950000D03*
X171525000Y-67600000D03*
%TO.N,/Display/GREEN_3*%
X182150000Y-78600000D03*
%TO.N,/Display/BLUE_3*%
X185325000Y-75775000D03*
%TO.N,/Display/RED_3*%
X185375000Y-70700000D03*
%TO.N,/Display/BLUE_4*%
X163950000Y-80700000D03*
X186000000Y-74500000D03*
%TO.N,/CS*%
X157930000Y-107100000D03*
X155455000Y-108800000D03*
%TO.N,/MCU_OSC/V_DIV*%
X153800000Y-89350000D03*
X142150000Y-89700000D03*
%TO.N,/D+*%
X166490000Y-93200000D03*
X120940000Y-89330000D03*
%TO.N,/D-*%
X122230000Y-88890000D03*
X164149316Y-94099316D03*
D54*
%TO.N,/CS3*%
X184734200Y-80594200D03*
D53*
X164340000Y-95525000D03*
X136650000Y-84400000D03*
D55*
X186131200Y-66675000D03*
%TD*%
D56*
%TO.N,GND*%
X132680000Y-84680000D02*
X133862500Y-84680000D01*
D57*
X129160000Y-81910000D02*
X129150000Y-81900000D01*
D56*
X145350000Y-88570000D02*
X145350000Y-87150000D01*
D57*
X137050000Y-67500000D02*
X137270000Y-67280000D01*
D56*
X148020000Y-111520000D02*
X148000000Y-111500000D01*
D58*
X164991600Y-92764825D02*
X164781425Y-92975000D01*
D56*
X130150000Y-88150000D02*
X130740000Y-88740000D01*
X149850000Y-124150000D02*
X149850000Y-124840000D01*
D58*
X157500000Y-87500000D02*
X157837500Y-87837500D01*
D57*
X173310000Y-88690000D02*
X174710000Y-88690000D01*
X144080000Y-94270000D02*
X143140000Y-94270000D01*
D56*
X130030000Y-124800000D02*
X130030000Y-124050000D01*
X141620000Y-87380000D02*
X141650000Y-87350000D01*
D57*
X129200000Y-73750000D02*
X129200000Y-72210000D01*
D56*
X151675000Y-86220000D02*
X151675000Y-84675000D01*
D57*
X168575000Y-94400000D02*
X168925000Y-94750000D01*
D58*
X155337500Y-102162500D02*
X155337500Y-104387500D01*
D56*
X151762500Y-88020000D02*
X151762500Y-86307500D01*
D57*
X149840000Y-124160000D02*
X149850000Y-124150000D01*
X117240000Y-88110000D02*
X117240000Y-89310000D01*
X137270000Y-67280000D02*
X139090000Y-67280000D01*
D56*
X130740000Y-88740000D02*
X131710000Y-88740000D01*
X135810000Y-88740000D02*
X137040000Y-88740000D01*
X130015000Y-123500000D02*
X131885000Y-123500000D01*
X130030000Y-123515000D02*
X130015000Y-123500000D01*
D57*
X185048883Y-66865000D02*
X183700000Y-66865000D01*
X161730000Y-102920000D02*
X161730000Y-101770000D01*
D56*
X132160000Y-77510000D02*
X132160000Y-78980000D01*
X146537500Y-97637500D02*
X146550000Y-97650000D01*
D57*
X161730000Y-101770000D02*
X162500000Y-101000000D01*
X137270000Y-73630000D02*
X139090000Y-73630000D01*
X136550000Y-111550000D02*
X136550000Y-113160000D01*
D56*
X114540000Y-83785000D02*
X114540000Y-89835000D01*
D57*
X124580000Y-85540000D02*
X125700000Y-85540000D01*
D56*
X133862500Y-84680000D02*
X133980000Y-84680000D01*
D58*
X150925000Y-95750000D02*
X149898529Y-95750000D01*
D57*
X151695000Y-107025000D02*
X151695000Y-105455000D01*
X126250000Y-75660000D02*
X125150000Y-75660000D01*
X131870000Y-124160000D02*
X130140000Y-124160000D01*
X174710000Y-91230000D02*
X173500000Y-91230000D01*
D56*
X149850000Y-123500000D02*
X149850000Y-124150000D01*
X146787500Y-97887500D02*
X146550000Y-97650000D01*
X134630000Y-85330000D02*
X134700000Y-85400000D01*
D57*
X186166600Y-67982717D02*
X185048883Y-66865000D01*
D56*
X148150000Y-97887500D02*
X146787500Y-97887500D01*
X143708200Y-90958200D02*
X143500000Y-90750000D01*
D58*
X164781425Y-92975000D02*
X163647285Y-92975000D01*
D57*
X155200000Y-87037500D02*
X155200000Y-85700000D01*
D58*
X163380000Y-111450000D02*
X163830000Y-111000000D01*
D56*
X145255000Y-84745000D02*
X146310000Y-84745000D01*
X133862500Y-84680000D02*
X134630000Y-83912500D01*
D57*
X164612500Y-89200000D02*
X164612500Y-90318750D01*
X155200000Y-85700000D02*
X155150000Y-85650000D01*
X174710000Y-87460000D02*
X171500000Y-84250000D01*
D58*
X162500000Y-101000000D02*
X162500000Y-100500000D01*
D57*
X151695000Y-105455000D02*
X151700000Y-105450000D01*
D58*
X157837500Y-87837500D02*
X157837500Y-90837500D01*
D57*
X144450000Y-93900000D02*
X144080000Y-94270000D01*
D56*
X130030000Y-124050000D02*
X130030000Y-123515000D01*
D58*
X163372285Y-93250000D02*
X162250000Y-93250000D01*
D57*
X173060000Y-88940000D02*
X173310000Y-88690000D01*
X130435000Y-81910000D02*
X129160000Y-81910000D01*
X174710000Y-91230000D02*
X174710000Y-92500000D01*
X165180000Y-107220000D02*
X166875000Y-107220000D01*
X175350000Y-101150000D02*
X173970000Y-101150000D01*
D56*
X149810000Y-124850000D02*
X147990000Y-124850000D01*
X129350000Y-68980000D02*
X129360000Y-68970000D01*
D58*
X163380000Y-112185000D02*
X163380000Y-111450000D01*
D57*
X167440000Y-94400000D02*
X168575000Y-94400000D01*
D56*
X131875000Y-111375000D02*
X131870000Y-111380000D01*
D57*
X157140000Y-114042500D02*
X157140000Y-115390000D01*
D56*
X148020000Y-115160000D02*
X148020000Y-111520000D01*
D57*
X124580000Y-78400000D02*
X125700000Y-78400000D01*
D56*
X146537500Y-96200000D02*
X146537500Y-97637500D01*
D58*
X162500000Y-100500000D02*
X162250000Y-100250000D01*
D57*
X170400000Y-102100000D02*
X171630000Y-102100000D01*
D56*
X134630000Y-83912500D02*
X134630000Y-85330000D01*
X129350000Y-72060000D02*
X129350000Y-68980000D01*
D58*
X155337500Y-104387500D02*
X155250000Y-104475000D01*
D57*
X148020000Y-124160000D02*
X149840000Y-124160000D01*
D58*
X163647285Y-92975000D02*
X163372285Y-93250000D01*
D56*
X130030000Y-124800000D02*
X131900000Y-124800000D01*
D57*
X130140000Y-124160000D02*
X130030000Y-124050000D01*
D58*
X149898529Y-95750000D02*
X149673529Y-95525000D01*
X149673529Y-95525000D02*
X149550000Y-95525000D01*
D56*
X145000000Y-85000000D02*
X145255000Y-84745000D01*
D57*
X149850000Y-124840000D02*
X149840000Y-124850000D01*
D56*
X131870000Y-111380000D02*
X131870000Y-115160000D01*
X140210000Y-87380000D02*
X141620000Y-87380000D01*
X145310900Y-90958200D02*
X143708200Y-90958200D01*
X149820000Y-123500000D02*
X148000000Y-123500000D01*
D57*
X173060000Y-90790000D02*
X173060000Y-88940000D01*
X173500000Y-91230000D02*
X173060000Y-90790000D01*
D56*
X137040000Y-88740000D02*
X137050000Y-88750000D01*
D57*
X185535000Y-73215000D02*
X183700000Y-73215000D01*
D56*
X172679000Y-111000000D02*
X171259000Y-111000000D01*
D57*
X170250000Y-102250000D02*
X170400000Y-102100000D01*
D56*
X151675000Y-84675000D02*
X151500000Y-84500000D01*
X133980000Y-84680000D02*
X134700000Y-85400000D01*
D57*
X174710000Y-88690000D02*
X174710000Y-87460000D01*
D58*
%TO.N,VBAT*%
X148400000Y-69820000D02*
X150405000Y-69820000D01*
D57*
X129350000Y-76100000D02*
X129300000Y-76050000D01*
X135850000Y-75350000D02*
X135100000Y-76100000D01*
X151575000Y-69675000D02*
X150550000Y-69675000D01*
X171250000Y-70850000D02*
X172015000Y-70850000D01*
D56*
X179850000Y-70100000D02*
X180650000Y-70900000D01*
D57*
X137650000Y-95900000D02*
X135850000Y-95900000D01*
X125150000Y-74710000D02*
X125150000Y-73050000D01*
D56*
X183320000Y-82170000D02*
X183350000Y-82200000D01*
D57*
X127160000Y-74710000D02*
X127730000Y-75280000D01*
X135100000Y-76100000D02*
X129350000Y-76100000D01*
D56*
X128300000Y-88350000D02*
X135830000Y-95880000D01*
X127370000Y-68980000D02*
X127360000Y-68970000D01*
D57*
X174390000Y-70675000D02*
X172190000Y-70675000D01*
X170817081Y-70417081D02*
X170817081Y-70132919D01*
D56*
X129300000Y-76050000D02*
X127870000Y-76050000D01*
D57*
X127870000Y-76050000D02*
X127730000Y-76190000D01*
X126060000Y-72140000D02*
X127370000Y-72140000D01*
X125150000Y-73050000D02*
X126060000Y-72140000D01*
X135850000Y-95900000D02*
X135830000Y-95880000D01*
X127730000Y-75280000D02*
X127730000Y-76190000D01*
X125150000Y-74710000D02*
X127160000Y-74710000D01*
D56*
X127370000Y-72140000D02*
X127370000Y-68980000D01*
X180650000Y-82170000D02*
X183320000Y-82170000D01*
D57*
X171250000Y-70850000D02*
X170817081Y-70417081D01*
D56*
X180650000Y-70900000D02*
X180650000Y-82170000D01*
D58*
%TO.N,/~{RST}*%
X138485000Y-88955000D02*
X138560000Y-89030000D01*
X162133884Y-88500000D02*
X168360000Y-88500000D01*
X168360000Y-88500000D02*
X168550000Y-88690000D01*
X138485000Y-87380000D02*
X138485000Y-88955000D01*
X168560000Y-88700000D02*
X168550000Y-88690000D01*
X168560000Y-89710000D02*
X168560000Y-88700000D01*
X158837500Y-89996880D02*
X159280000Y-89554380D01*
X161766942Y-88866942D02*
X162133884Y-88500000D01*
X168550000Y-88690000D02*
X170810000Y-88690000D01*
X131710000Y-87140000D02*
X135810000Y-87140000D01*
X158837500Y-90837500D02*
X158837500Y-89996880D01*
X159280000Y-89554380D02*
X159280000Y-88580000D01*
X135810000Y-87140000D02*
X138245000Y-87140000D01*
%TO.N,Net-(L1-1)*%
X154080000Y-84850000D02*
X154080000Y-84030000D01*
X158430000Y-85587000D02*
X158877000Y-85140000D01*
X158337500Y-90837500D02*
X158337500Y-89541029D01*
X158337500Y-89541029D02*
X158430000Y-89448529D01*
X154080000Y-84030000D02*
X155030000Y-83080000D01*
X155030000Y-83080000D02*
X158580000Y-83080000D01*
X158580000Y-83080000D02*
X158877000Y-83377000D01*
X158877000Y-83377000D02*
X158877000Y-85140000D01*
X158430000Y-89448529D02*
X158430000Y-85587000D01*
X153575000Y-86220000D02*
X153575000Y-85355000D01*
X153487500Y-88020000D02*
X153487500Y-86307500D01*
X153575000Y-85355000D02*
X154080000Y-84850000D01*
D57*
%TO.N,/Power/Vin*%
X130435000Y-80960000D02*
X130435000Y-79155000D01*
X128680000Y-78780000D02*
X128880000Y-78980000D01*
X128880000Y-78980000D02*
X130260000Y-78980000D01*
X130435000Y-80960000D02*
X128600000Y-80960000D01*
X128680000Y-78190000D02*
X128680000Y-78780000D01*
X128600000Y-80960000D02*
X128330000Y-81230000D01*
X128330000Y-81230000D02*
X127210000Y-81230000D01*
X125000000Y-81330000D02*
X127110000Y-81330000D01*
D56*
%TO.N,+3V3*%
X138750000Y-108650000D02*
X139928000Y-108650000D01*
D57*
X134590000Y-80960000D02*
X134600000Y-80950000D01*
D56*
X159330000Y-110250000D02*
X157930000Y-110250000D01*
D58*
X163540000Y-92275000D02*
X163065000Y-92750000D01*
D57*
X165790000Y-89710000D02*
X166860000Y-89710000D01*
D58*
X149450000Y-99100000D02*
X149112500Y-99437500D01*
X150000000Y-96250000D02*
X149500000Y-96750000D01*
D57*
X155505000Y-113420000D02*
X155250000Y-113675000D01*
D58*
X156500000Y-89300000D02*
X156837500Y-89637500D01*
D57*
X132710000Y-80960000D02*
X134590000Y-80960000D01*
X155505000Y-111975000D02*
X155505000Y-113420000D01*
D58*
X145850000Y-94134000D02*
X145850000Y-92646000D01*
X149112500Y-99612500D02*
X148150000Y-99612500D01*
X154114142Y-104948869D02*
X154500000Y-104563011D01*
D56*
X130780000Y-84680000D02*
X130780000Y-85970000D01*
D58*
X163250000Y-99750000D02*
X162250000Y-99750000D01*
X154500000Y-104563011D02*
X154500000Y-104100000D01*
X150925000Y-96250000D02*
X150000000Y-96250000D01*
D56*
X166860000Y-91400000D02*
X166810000Y-91450000D01*
D58*
X149112500Y-99437500D02*
X149112500Y-99612500D01*
X150925000Y-100250000D02*
X149750000Y-100250000D01*
D57*
X162887500Y-90318750D02*
X161500000Y-90318750D01*
X175600000Y-102600000D02*
X175100000Y-102100000D01*
D58*
X148721500Y-94250000D02*
X147658500Y-94250000D01*
D57*
X155962500Y-88762500D02*
X156500000Y-89300000D01*
X175100000Y-102100000D02*
X173970000Y-102100000D01*
D56*
X157140000Y-111040000D02*
X157140000Y-112317500D01*
X160970000Y-108380000D02*
X159410000Y-108380000D01*
X135281000Y-108650000D02*
X135255000Y-108624000D01*
X136500000Y-108650000D02*
X135281000Y-108650000D01*
D58*
X154500000Y-104100000D02*
X154837500Y-103762500D01*
D56*
X142100000Y-109350000D02*
X143350000Y-109350000D01*
D58*
X149750000Y-100250000D02*
X149112500Y-99612500D01*
X163750000Y-100250000D02*
X163250000Y-99750000D01*
D57*
X176270000Y-93770000D02*
X177000000Y-94500000D01*
D58*
X154837500Y-103762500D02*
X154837500Y-102162500D01*
D56*
X133477000Y-108712000D02*
X133539000Y-108650000D01*
D57*
X174710000Y-93770000D02*
X176270000Y-93770000D01*
D56*
X139928000Y-108650000D02*
X139954000Y-108624000D01*
X149810000Y-82995000D02*
X151495000Y-82995000D01*
D58*
X163750000Y-92125000D02*
X163600000Y-92275000D01*
D56*
X157930000Y-110250000D02*
X157140000Y-111040000D01*
X133539000Y-108650000D02*
X135450000Y-108650000D01*
X159330000Y-110250000D02*
X159580000Y-110000000D01*
D57*
X138750000Y-113160000D02*
X138750000Y-111500000D01*
X163630000Y-102920000D02*
X163630000Y-100370000D01*
X163630000Y-100370000D02*
X163750000Y-100250000D01*
D56*
X166860000Y-89710000D02*
X166860000Y-91400000D01*
D57*
X155200000Y-88762500D02*
X155962500Y-88762500D01*
D58*
X163065000Y-92750000D02*
X162250000Y-92750000D01*
D56*
X130780000Y-85970000D02*
X130800000Y-85990000D01*
D58*
X158980000Y-114135000D02*
X158980000Y-115300000D01*
D57*
X134630000Y-80980000D02*
X134600000Y-80950000D01*
D58*
X156837500Y-89637500D02*
X156837500Y-90837500D01*
D56*
X167661800Y-114089600D02*
X167661800Y-112799600D01*
D57*
X134630000Y-82187500D02*
X134630000Y-80980000D01*
D56*
X159410000Y-108380000D02*
X159405000Y-108375000D01*
X159580000Y-110000000D02*
X160980000Y-110000000D01*
D58*
X163600000Y-92275000D02*
X163540000Y-92275000D01*
%TO.N,/AREF*%
X148850000Y-95235050D02*
X149260000Y-94825050D01*
X148262500Y-95827500D02*
X148850000Y-95240000D01*
X148850000Y-95240000D02*
X148850000Y-95235050D01*
X148262500Y-96200000D02*
X148262500Y-95827500D01*
X149260000Y-94825050D02*
X149260000Y-94250000D01*
X150925000Y-94250000D02*
X149260000Y-94250000D01*
%TO.N,Net-(D2-K)*%
X168901500Y-107462500D02*
X169469000Y-108030000D01*
X168737500Y-107462500D02*
X168901500Y-107462500D01*
X169469000Y-109260000D02*
X171219000Y-109260000D01*
X169469000Y-109260000D02*
X169469000Y-108030000D01*
X168737500Y-107462500D02*
X168737500Y-106237500D01*
%TO.N,Net-(U3-SNS)*%
X176040000Y-104210000D02*
X176450000Y-104620000D01*
X174400000Y-104210000D02*
X176040000Y-104210000D01*
X173970000Y-103050000D02*
X173970000Y-103780000D01*
X176450000Y-104620000D02*
X176450000Y-105500000D01*
X173970000Y-103780000D02*
X174400000Y-104210000D01*
%TO.N,Net-(U3-SNSK)*%
X172950000Y-105500000D02*
X174750000Y-105500000D01*
X172520000Y-104170000D02*
X172950000Y-104600000D01*
X171630000Y-103910000D02*
X171890000Y-104170000D01*
X171890000Y-104170000D02*
X172520000Y-104170000D01*
X171630000Y-103050000D02*
X171630000Y-103910000D01*
X172950000Y-104600000D02*
X172950000Y-105500000D01*
D57*
%TO.N,VBUS*%
X119300000Y-85520000D02*
X122590000Y-85520000D01*
D56*
X121300000Y-81330000D02*
X121300000Y-82285600D01*
X126780000Y-79698000D02*
X126728000Y-79750000D01*
D57*
X121040000Y-79480000D02*
X121300000Y-79740000D01*
X122549800Y-74710000D02*
X121310000Y-74710000D01*
D56*
X122590000Y-83575600D02*
X122590000Y-85520000D01*
D57*
X117240000Y-85510000D02*
X119290000Y-85510000D01*
X121040000Y-78320000D02*
X121040000Y-79480000D01*
D56*
X121300000Y-82285600D02*
X122590000Y-83575600D01*
X121300000Y-79740000D02*
X121300000Y-81330000D01*
X121310000Y-79750000D02*
X121300000Y-79740000D01*
D57*
X119290000Y-85510000D02*
X119300000Y-85520000D01*
D56*
X121310000Y-79750000D02*
X126728000Y-79750000D01*
X126780000Y-78190000D02*
X126780000Y-79698000D01*
D58*
%TO.N,Net-(CHG1-PadC)*%
X118950000Y-76320000D02*
X118950000Y-78310000D01*
%TO.N,Net-(D2-A)*%
X169469000Y-110960000D02*
X167830400Y-110960000D01*
D59*
%TO.N,/SWDIO*%
X163551341Y-91418750D02*
X162944859Y-91418750D01*
X163879909Y-91350000D02*
X163620091Y-91350000D01*
X170810000Y-93770000D02*
X170810000Y-95040000D01*
X155837500Y-91664975D02*
X155837500Y-90837500D01*
X163948659Y-91418750D02*
X163879909Y-91350000D01*
X163620091Y-91350000D02*
X163551341Y-91418750D01*
X165852526Y-92575000D02*
X164696276Y-91418750D01*
X162944859Y-91418750D02*
X162163609Y-92200000D01*
X169020000Y-93770000D02*
X167825000Y-92575000D01*
X170810000Y-93770000D02*
X169020000Y-93770000D01*
X167825000Y-92575000D02*
X165852526Y-92575000D01*
X164696276Y-91418750D02*
X163948659Y-91418750D01*
X156372525Y-92200000D02*
X155837500Y-91664975D01*
X162163609Y-92200000D02*
X156372525Y-92200000D01*
%TO.N,/SWCLK*%
X164841250Y-91068750D02*
X164093634Y-91068750D01*
X168245000Y-92225000D02*
X165997500Y-92225000D01*
X156337500Y-91670000D02*
X156337500Y-90837500D01*
X168510000Y-91450000D02*
X168510000Y-92490000D01*
X168510000Y-92490000D02*
X168245000Y-92225000D01*
X164093634Y-91068750D02*
X164024884Y-91000000D01*
X163475116Y-91000000D02*
X163406366Y-91068750D01*
X172450000Y-92500000D02*
X173200000Y-93250000D01*
X173200000Y-93250000D02*
X173200000Y-95200000D01*
X170810000Y-92500000D02*
X172450000Y-92500000D01*
X156517500Y-91850000D02*
X156337500Y-91670000D01*
X163406366Y-91068750D02*
X162799884Y-91068750D01*
X164024884Y-91000000D02*
X163475116Y-91000000D01*
X162018634Y-91850000D02*
X156517500Y-91850000D01*
X162799884Y-91068750D02*
X162018634Y-91850000D01*
X170800000Y-92490000D02*
X168510000Y-92490000D01*
X165997500Y-92225000D02*
X164841250Y-91068750D01*
%TO.N,/CS1*%
X167897000Y-96647000D02*
X167220000Y-96647000D01*
X168645000Y-97395000D02*
X167897000Y-96647000D01*
X180655000Y-97395000D02*
X168645000Y-97395000D01*
X163593116Y-96647000D02*
X165520000Y-96647000D01*
X163196116Y-96250000D02*
X163593116Y-96647000D01*
X162250000Y-96250000D02*
X163196116Y-96250000D01*
%TO.N,/BUSY*%
X179780000Y-99060000D02*
X165254974Y-99060000D01*
X180655000Y-99935000D02*
X179780000Y-99060000D01*
X165254974Y-99060000D02*
X164444974Y-98250000D01*
X164444974Y-98250000D02*
X162250000Y-98250000D01*
%TO.N,/MOSI*%
X180655000Y-94855000D02*
X177130000Y-91330000D01*
X186486800Y-84836000D02*
X186486800Y-80606000D01*
X185039000Y-96709000D02*
X185039000Y-99861000D01*
X142636400Y-81686400D02*
X143170000Y-82220000D01*
X137410000Y-63470000D02*
X137420000Y-63470000D01*
X159837500Y-88982500D02*
X160700000Y-88120000D01*
X177130000Y-85598000D02*
X177130000Y-83600000D01*
X139090000Y-63470000D02*
X137410000Y-63470000D01*
X185039000Y-101561000D02*
X185039000Y-108671000D01*
X160700000Y-88120000D02*
X160700000Y-82350000D01*
X176900000Y-116770000D02*
X152890000Y-116770000D01*
X175880000Y-82350000D02*
X160700000Y-82350000D01*
X177130000Y-85835000D02*
X185487800Y-85835000D01*
X185525000Y-77025000D02*
X186486800Y-77986800D01*
X137930000Y-81750000D02*
X137993600Y-81686400D01*
X160700000Y-82350000D02*
X160570000Y-82220000D01*
X145540000Y-116790000D02*
X145560000Y-116770000D01*
X177130000Y-83600000D02*
X175880000Y-82350000D01*
X185039000Y-108671000D02*
X176920000Y-116790000D01*
X177130000Y-85598000D02*
X177130000Y-85835000D01*
X143300000Y-114550000D02*
X140440000Y-114550000D01*
X145560000Y-116770000D02*
X151190000Y-116770000D01*
X186486800Y-77986800D02*
X186486800Y-78906000D01*
X145540000Y-116790000D02*
X143300000Y-114550000D01*
X176920000Y-116790000D02*
X176900000Y-116770000D01*
D57*
X139850000Y-113160000D02*
X139850000Y-110400000D01*
D59*
X159837500Y-90837500D02*
X159837500Y-88982500D01*
X137993600Y-81686400D02*
X139662800Y-81686400D01*
X160570000Y-82220000D02*
X143170000Y-82220000D01*
X183280000Y-94950000D02*
X185039000Y-96709000D01*
X177130000Y-91330000D02*
X177130000Y-85598000D01*
X185487800Y-85835000D02*
X186486800Y-84836000D01*
X183700000Y-77025000D02*
X185525000Y-77025000D01*
X141362800Y-81686400D02*
X142636400Y-81686400D01*
X139885000Y-113995000D02*
X139885000Y-113247500D01*
X140440000Y-114550000D02*
X139885000Y-113995000D01*
%TO.N,/SCLK*%
X164450000Y-98750000D02*
X162250000Y-98750000D01*
X186791600Y-68321600D02*
X187706000Y-69236000D01*
X156782800Y-81737200D02*
X177162800Y-81737200D01*
X142790000Y-115340000D02*
X146370000Y-118920000D01*
X186537600Y-61595000D02*
X186791600Y-61849000D01*
X139317500Y-115340000D02*
X142790000Y-115340000D01*
X137685000Y-113707500D02*
X139317500Y-115340000D01*
X178105000Y-118920000D02*
X178085000Y-118900000D01*
X187285000Y-109740000D02*
X187285000Y-89916000D01*
X187706000Y-75170400D02*
X187706000Y-89495000D01*
X181310991Y-103700000D02*
X179700000Y-103700000D01*
X174390000Y-63055000D02*
X174390000Y-62330000D01*
X148400000Y-79210400D02*
X149250400Y-80060800D01*
X177162800Y-81737200D02*
X178400000Y-80500000D01*
X187706000Y-89495000D02*
X187285000Y-89916000D01*
X153771600Y-80060800D02*
X155110800Y-81400000D01*
X175920000Y-99920000D02*
X165620000Y-99920000D01*
X156445600Y-81400000D02*
X156782800Y-81737200D01*
X149250400Y-80060800D02*
X150039600Y-80060800D01*
X146390000Y-118900000D02*
X151190000Y-118900000D01*
X182130000Y-102880991D02*
X181310991Y-103700000D01*
X148400000Y-77440000D02*
X148400000Y-79210400D01*
X178105000Y-118920000D02*
X187285000Y-109740000D01*
X175125000Y-61595000D02*
X186537600Y-61595000D01*
X183808000Y-89916000D02*
X180776000Y-89916000D01*
X155110800Y-81400000D02*
X156445600Y-81400000D01*
X178400000Y-80500000D02*
X178400000Y-63330000D01*
X178400000Y-63330000D02*
X178125000Y-63055000D01*
X178085000Y-118900000D02*
X152890000Y-118900000D01*
X151739600Y-80060800D02*
X153771600Y-80060800D01*
X180655000Y-89775000D02*
X182130000Y-91250000D01*
X187706000Y-69236000D02*
X187706000Y-73470400D01*
X178125000Y-63055000D02*
X174390000Y-63055000D01*
X179700000Y-103700000D02*
X175920000Y-99920000D01*
X165620000Y-99920000D02*
X164450000Y-98750000D01*
X182130000Y-91250000D02*
X182130000Y-102880991D01*
X186791600Y-61849000D02*
X186791600Y-68321600D01*
X174390000Y-62330000D02*
X175125000Y-61595000D01*
X185508000Y-89916000D02*
X187285000Y-89916000D01*
X146370000Y-118920000D02*
X146390000Y-118900000D01*
%TO.N,/MISO*%
X180940000Y-120780000D02*
X152870000Y-120780000D01*
X176640000Y-88094974D02*
X176640000Y-92890000D01*
X135485000Y-113247500D02*
X135485000Y-114815000D01*
X147020000Y-120780000D02*
X151170000Y-120780000D01*
X192151000Y-96266000D02*
X192786000Y-96901000D01*
D57*
X135450000Y-113160000D02*
X135450000Y-110350000D01*
D59*
X160337500Y-90837500D02*
X160337500Y-89412500D01*
X192786000Y-99910000D02*
X192786000Y-108934000D01*
X171795026Y-83250000D02*
X176640000Y-88094974D01*
X181350000Y-96100000D02*
X181780000Y-95670000D01*
X142530000Y-116290000D02*
X147020000Y-120780000D01*
X181780000Y-93440000D02*
X180655000Y-92315000D01*
X160337500Y-89412500D02*
X166500000Y-83250000D01*
X188320000Y-92320000D02*
X192151000Y-96151000D01*
X135485000Y-114815000D02*
X136960000Y-116290000D01*
X181780000Y-95670000D02*
X181780000Y-93440000D01*
X176640000Y-92890000D02*
X179850000Y-96100000D01*
X179850000Y-96100000D02*
X181350000Y-96100000D01*
X180940000Y-120780000D02*
X192786000Y-108934000D01*
X136960000Y-116290000D02*
X142530000Y-116290000D01*
X166500000Y-83250000D02*
X171795026Y-83250000D01*
X192151000Y-96151000D02*
X192151000Y-96266000D01*
X192786000Y-96901000D02*
X192786000Y-98210000D01*
%TO.N,/SDA*%
X133174000Y-100158000D02*
X128478000Y-100158000D01*
X140696400Y-100158000D02*
X140716000Y-100177600D01*
X162010000Y-111240000D02*
X161800000Y-111450000D01*
X159408400Y-105308400D02*
X158837500Y-104737500D01*
X158837500Y-104737500D02*
X158837500Y-102162500D01*
X161797500Y-106997500D02*
X161797500Y-109155000D01*
X134874000Y-100158000D02*
X140696400Y-100158000D01*
X162680000Y-110000000D02*
X162680000Y-111050000D01*
X161800000Y-113710000D02*
X162240000Y-114150000D01*
X162680000Y-111050000D02*
X162490000Y-111240000D01*
X161797500Y-109155000D02*
X162642500Y-110000000D01*
X159816800Y-105765600D02*
X159805000Y-105777400D01*
X159816800Y-105308400D02*
X159408400Y-105308400D01*
X161800000Y-111450000D02*
X161800000Y-113710000D01*
X159805000Y-105777400D02*
X159805000Y-106553000D01*
X159816800Y-105308400D02*
X159816800Y-105765600D01*
X162240000Y-114150000D02*
X163130000Y-114150000D01*
X162490000Y-111240000D02*
X162010000Y-111240000D01*
%TO.N,/SCL*%
X164580000Y-113270000D02*
X164580000Y-108915000D01*
X159615446Y-103175000D02*
X159615446Y-103834554D01*
X138379200Y-102666800D02*
X138734800Y-102311200D01*
X164350000Y-113500000D02*
X163130000Y-113500000D01*
X164084000Y-106719000D02*
X163163975Y-106719000D01*
X133174000Y-102666800D02*
X128446800Y-102666800D01*
X164580000Y-108915000D02*
X164084000Y-108419000D01*
X162670000Y-106225026D02*
X162651987Y-106207013D01*
X163163975Y-106719000D02*
X162651987Y-106207013D01*
X162651987Y-106207013D02*
X160294975Y-103850000D01*
X164580000Y-113270000D02*
X164350000Y-113500000D01*
X159337500Y-102162500D02*
X159337500Y-102897054D01*
X162670000Y-108380000D02*
X162670000Y-106225026D01*
X159615446Y-103834554D02*
X159600000Y-103850000D01*
X159337500Y-102897054D02*
X159615446Y-103175000D01*
X138734800Y-102311200D02*
X140614400Y-102311200D01*
X160294975Y-103850000D02*
X159600000Y-103850000D01*
X134874000Y-102666800D02*
X138379200Y-102666800D01*
D58*
%TO.N,/Display/E*%
X153090000Y-67000000D02*
X149950000Y-67000000D01*
X149950000Y-67000000D02*
X149670000Y-67280000D01*
X172750000Y-72550000D02*
X173415000Y-73215000D01*
X149670000Y-67280000D02*
X148400000Y-67280000D01*
X173415000Y-73215000D02*
X174390000Y-73215000D01*
%TO.N,/Display/D*%
X155055000Y-64875000D02*
X148535000Y-64875000D01*
X156330000Y-63600000D02*
X155055000Y-64875000D01*
X172200000Y-75755000D02*
X174390000Y-75755000D01*
%TO.N,/Display/F*%
X163950000Y-67700000D02*
X165150000Y-68900000D01*
X165945000Y-65595000D02*
X174390000Y-65595000D01*
X163900000Y-74900000D02*
X148400000Y-74900000D01*
X165150000Y-73650000D02*
X163900000Y-74900000D01*
X163950000Y-63600000D02*
X165945000Y-65595000D01*
X165150000Y-68900000D02*
X165150000Y-73650000D01*
%TO.N,/Display/G*%
X161462943Y-65950000D02*
X160100000Y-67312943D01*
X164740000Y-65950000D02*
X161462943Y-65950000D01*
X158800000Y-69600000D02*
X154062500Y-69600000D01*
X174390000Y-68135000D02*
X173110000Y-68135000D01*
X154062500Y-69600000D02*
X151302500Y-72360000D01*
X166490000Y-67700000D02*
X164740000Y-65950000D01*
X171475000Y-66500000D02*
X167690000Y-66500000D01*
X173110000Y-68135000D02*
X171475000Y-66500000D01*
X160100000Y-67312943D02*
X160100000Y-68300000D01*
X167690000Y-66500000D02*
X166490000Y-67700000D01*
X151302500Y-72360000D02*
X148400000Y-72360000D01*
X160100000Y-68300000D02*
X158800000Y-69600000D01*
%TO.N,/Display/RED_2*%
X136980000Y-62400000D02*
X135050000Y-64330000D01*
X135050000Y-64330000D02*
X135050000Y-67450000D01*
X136150000Y-68550000D02*
X139090000Y-68550000D01*
X161410000Y-63600000D02*
X160210000Y-62400000D01*
X135050000Y-67450000D02*
X136150000Y-68550000D01*
X160210000Y-62400000D02*
X136980000Y-62400000D01*
%TO.N,/Display/DP*%
X149865000Y-66010000D02*
X148400000Y-66010000D01*
X158870000Y-63600000D02*
X156995000Y-65475000D01*
X172810000Y-74485000D02*
X174390000Y-74485000D01*
X150400000Y-65475000D02*
X149865000Y-66010000D01*
X172762500Y-74437500D02*
X172810000Y-74485000D01*
X156995000Y-65475000D02*
X150400000Y-65475000D01*
%TO.N,/Display/GREEN_2*%
X136800000Y-74900000D02*
X139090000Y-74900000D01*
X136500000Y-61900000D02*
X134500000Y-63900000D01*
X169030000Y-63600000D02*
X167330000Y-61900000D01*
X134500000Y-63900000D02*
X134500000Y-72600000D01*
X167330000Y-61900000D02*
X136500000Y-61900000D01*
X134500000Y-72600000D02*
X136800000Y-74900000D01*
%TO.N,/Display/RED_1*%
X137425000Y-69850000D02*
X139060000Y-69850000D01*
%TO.N,/Display/C*%
X177050000Y-79591854D02*
X177050000Y-72295000D01*
X156330000Y-70370000D02*
X156330000Y-73150000D01*
X165290000Y-77647057D02*
X168117943Y-80475000D01*
X156330000Y-77150000D02*
X157530000Y-75950000D01*
X156400000Y-70300000D02*
X156330000Y-70370000D01*
X150650000Y-67800000D02*
X149900000Y-68550000D01*
X176700000Y-71945000D02*
X174390000Y-71945000D01*
X165290000Y-76792943D02*
X165290000Y-77647057D01*
X157530000Y-75950000D02*
X164447057Y-75950000D01*
X177050000Y-72295000D02*
X176700000Y-71945000D01*
X168117943Y-80475000D02*
X176166854Y-80475000D01*
X164447057Y-75950000D02*
X165290000Y-76792943D01*
X176166854Y-80475000D02*
X177050000Y-79591854D01*
X149900000Y-68550000D02*
X148400000Y-68550000D01*
%TO.N,/Display/BLUE_2*%
X139090000Y-66010000D02*
X136100000Y-66010000D01*
%TO.N,/Display/BLUE_1*%
X136750000Y-64740000D02*
X139090000Y-64740000D01*
%TO.N,/Display/GREEN_1*%
X137450000Y-76175000D02*
X139085000Y-76175000D01*
%TO.N,/Display/A*%
X166490000Y-73150000D02*
X164240000Y-75400000D01*
X172760000Y-64325000D02*
X174390000Y-64325000D01*
X172695000Y-64390000D02*
X172760000Y-64325000D01*
X150080000Y-76170000D02*
X148400000Y-76170000D01*
X150850000Y-75400000D02*
X150080000Y-76170000D01*
X164240000Y-75400000D02*
X150850000Y-75400000D01*
%TO.N,/Display/B*%
X163950000Y-73150000D02*
X162750000Y-74350000D01*
X176770000Y-66865000D02*
X174390000Y-66865000D01*
X167775000Y-80975000D02*
X176373960Y-80975000D01*
X177750000Y-79598960D02*
X177750000Y-67845000D01*
X177750000Y-67845000D02*
X176770000Y-66865000D01*
X149425000Y-73630000D02*
X148400000Y-73630000D01*
X162750000Y-74350000D02*
X150145000Y-74350000D01*
X176373960Y-80975000D02*
X177750000Y-79598960D01*
X150145000Y-74350000D02*
X149425000Y-73630000D01*
X163950000Y-77150000D02*
X167775000Y-80975000D01*
%TO.N,/Display/GREEN_4*%
X185300000Y-65595000D02*
X183700000Y-65595000D01*
%TO.N,/Display/RED_4*%
X185995000Y-71945000D02*
X183700000Y-71945000D01*
X170050000Y-69100000D02*
X171525000Y-67625000D01*
X186000000Y-71950000D02*
X185995000Y-71945000D01*
X162660000Y-66450000D02*
X164532894Y-66450000D01*
X166192943Y-69100000D02*
X170050000Y-69100000D01*
X165290000Y-67207106D02*
X165290000Y-68197057D01*
X161410000Y-67700000D02*
X162660000Y-66450000D01*
X165290000Y-68197057D02*
X166192943Y-69100000D01*
X171525000Y-67625000D02*
X171525000Y-67600000D01*
X164532894Y-66450000D02*
X165290000Y-67207106D01*
%TO.N,/Display/GREEN_3*%
X182150000Y-78600000D02*
X182150000Y-64850000D01*
X182675000Y-64325000D02*
X183700000Y-64325000D01*
X182150000Y-64850000D02*
X182675000Y-64325000D01*
%TO.N,/Display/BLUE_3*%
X183700000Y-75755000D02*
X185305000Y-75755000D01*
X185305000Y-75755000D02*
X185325000Y-75775000D01*
%TO.N,/Display/RED_3*%
X185375000Y-70700000D02*
X183725000Y-70700000D01*
%TO.N,/Display/BLUE_4*%
X163950000Y-80700000D02*
X157340000Y-80700000D01*
D60*
X186000000Y-74500000D02*
X185985000Y-74485000D01*
D58*
X157340000Y-80700000D02*
X153790000Y-77150000D01*
D60*
X185985000Y-74485000D02*
X183700000Y-74485000D01*
D58*
%TO.N,Net-(L1-2)*%
X157337500Y-90837500D02*
X157337500Y-88837500D01*
X156623000Y-88123000D02*
X156623000Y-85140000D01*
X157337500Y-88837500D02*
X156623000Y-88123000D01*
D59*
%TO.N,/MCU_OSC/D8_NEOPIX*%
X149810000Y-87336366D02*
X149810000Y-84745000D01*
X150995000Y-88521366D02*
X149810000Y-87336366D01*
X152057500Y-90837500D02*
X150995000Y-89775000D01*
X152837500Y-90837500D02*
X152057500Y-90837500D01*
X150995000Y-89775000D02*
X150995000Y-88521366D01*
D58*
%TO.N,Net-(Q2-B)*%
X167400000Y-101500000D02*
X167400000Y-102380000D01*
X166862500Y-104032500D02*
X166862500Y-105287500D01*
X166875000Y-104020000D02*
X166862500Y-104032500D01*
X166875000Y-102905000D02*
X166875000Y-104020000D01*
X167400000Y-102380000D02*
X166875000Y-102905000D01*
%TO.N,Net-(U1-STAT)*%
X120985000Y-75985000D02*
X123625000Y-75985000D01*
X123625000Y-75985000D02*
X124250000Y-76610000D01*
X124250000Y-76610000D02*
X125150000Y-76610000D01*
%TO.N,Net-(U1-PROG)*%
X122549800Y-76610000D02*
X122549800Y-78069800D01*
D57*
%TO.N,/Power/EN*%
X130435000Y-82860000D02*
X130365000Y-82930000D01*
X130365000Y-82930000D02*
X127210000Y-82930000D01*
D58*
%TO.N,/ON{slash}OFF*%
X171630000Y-101150000D02*
X169450000Y-101150000D01*
X167945000Y-100345000D02*
X165195000Y-100345000D01*
X164100000Y-99250000D02*
X162250000Y-99250000D01*
X165195000Y-100345000D02*
X164100000Y-99250000D01*
X169100000Y-101500000D02*
X167945000Y-100345000D01*
%TO.N,Net-(R9-Pad2)*%
X171250000Y-105500000D02*
X171250000Y-107242000D01*
X172720000Y-108661200D02*
X172770800Y-108712000D01*
X171250000Y-107242000D02*
X172669200Y-108661200D01*
X172669200Y-108661200D02*
X172720000Y-108661200D01*
X172770800Y-108712000D02*
X174040800Y-108712000D01*
D59*
%TO.N,/CS*%
X156330000Y-103760000D02*
X156337500Y-103752500D01*
X156900000Y-106680000D02*
X156900000Y-104760000D01*
D58*
X155505000Y-108750000D02*
X155455000Y-108800000D01*
D59*
X156970000Y-106750000D02*
X156900000Y-106680000D01*
X156870000Y-104400000D02*
X156330000Y-103860000D01*
X157930000Y-108550000D02*
X157930000Y-107100000D01*
X156970000Y-106750000D02*
X157580000Y-106750000D01*
X156330000Y-103860000D02*
X156330000Y-103760000D01*
X156870000Y-104730000D02*
X156870000Y-104400000D01*
X157580000Y-106750000D02*
X157930000Y-107100000D01*
X155505000Y-107025000D02*
X155505000Y-108750000D01*
X156900000Y-104760000D02*
X156870000Y-104730000D01*
X156337500Y-103752500D02*
X156337500Y-102162500D01*
D58*
%TO.N,/MCU_OSC/V_DIV*%
X140620000Y-94270000D02*
X141340000Y-94270000D01*
X140330000Y-95500000D02*
X140330000Y-94560000D01*
X139930000Y-95900000D02*
X140330000Y-95500000D01*
X139450000Y-95900000D02*
X139930000Y-95900000D01*
X142150000Y-89700000D02*
X142150000Y-90540000D01*
X142150000Y-90540000D02*
X141690000Y-91000000D01*
X153837500Y-89387500D02*
X153800000Y-89350000D01*
X153837500Y-90837500D02*
X153837500Y-89387500D01*
X141690000Y-91000000D02*
X141690000Y-94090000D01*
X140330000Y-94560000D02*
X140620000Y-94270000D01*
D59*
%TO.N,/MCU_OSC/D13*%
X163290000Y-94900000D02*
X164530000Y-94900000D01*
X165030000Y-94400000D02*
X165740000Y-94400000D01*
X163140000Y-94750000D02*
X163290000Y-94900000D01*
X162250000Y-94750000D02*
X163140000Y-94750000D01*
X164530000Y-94900000D02*
X165030000Y-94400000D01*
D58*
%TO.N,Net-(U7-ISET)*%
X174390000Y-69405000D02*
X172340000Y-69405000D01*
D60*
%TO.N,/D+*%
X166265000Y-93425000D02*
X163904392Y-93425000D01*
X163904392Y-93425000D02*
X163579392Y-93750000D01*
X166490000Y-93200000D02*
X166265000Y-93425000D01*
D58*
X120940000Y-89330000D02*
X120860000Y-89330000D01*
X118340000Y-86810000D02*
X117240000Y-86810000D01*
D60*
X163579392Y-93750000D02*
X162250000Y-93750000D01*
D58*
X120860000Y-89330000D02*
X118340000Y-86810000D01*
%TO.N,/D-*%
X163998632Y-94250000D02*
X162250000Y-94250000D01*
X122230000Y-87101800D02*
X122230000Y-88890000D01*
X121288200Y-86160000D02*
X122230000Y-87101800D01*
X117240000Y-86160000D02*
X121288200Y-86160000D01*
X164149316Y-94099316D02*
X163998632Y-94250000D01*
D59*
%TO.N,/SCK*%
X156250000Y-113950000D02*
X155325000Y-114875000D01*
X155837500Y-103862475D02*
X156250000Y-104274975D01*
X152965000Y-114165000D02*
X152965000Y-111975000D01*
X153675000Y-114875000D02*
X152965000Y-114165000D01*
X155325000Y-114875000D02*
X153675000Y-114875000D01*
X155837500Y-102162500D02*
X155837500Y-103862475D01*
X156250000Y-104274975D02*
X156250000Y-113950000D01*
%TO.N,/DATA2*%
X152965000Y-107025000D02*
X152965000Y-104469974D01*
X152965000Y-104469974D02*
X153837500Y-103597474D01*
X153837500Y-103597474D02*
X153837500Y-102162500D01*
%TO.N,/CS2*%
X152270000Y-99640000D02*
X152560000Y-99350000D01*
X158320000Y-99350000D02*
X159837500Y-100867500D01*
X160289949Y-103350000D02*
X160287501Y-103350000D01*
X142740000Y-102150000D02*
X151410000Y-102150000D01*
D57*
X141400000Y-111070000D02*
X141950000Y-111070000D01*
X140950000Y-111520000D02*
X140950000Y-111300000D01*
X140930000Y-111280000D02*
X140930000Y-106660000D01*
D59*
X152560000Y-99350000D02*
X158320000Y-99350000D01*
X159837500Y-102162500D02*
X159837500Y-102899999D01*
D57*
X140950000Y-113160000D02*
X140950000Y-111520000D01*
D59*
X151410000Y-102150000D02*
X152270000Y-101290000D01*
D57*
X140950000Y-111520000D02*
X141400000Y-111070000D01*
D59*
X140910000Y-103980000D02*
X142740000Y-102150000D01*
X140910000Y-103980000D02*
X140910000Y-104730000D01*
X152270000Y-101290000D02*
X152270000Y-99640000D01*
X159837500Y-100867500D02*
X159837500Y-102162500D01*
D57*
X140950000Y-111300000D02*
X140930000Y-111280000D01*
D59*
%TO.N,/DATA3*%
X153489142Y-104440807D02*
X154337500Y-103592449D01*
X153489142Y-105589142D02*
X153489142Y-104440807D01*
X153675000Y-105775000D02*
X153489142Y-105589142D01*
X154565196Y-105775000D02*
X153675000Y-105775000D01*
X154810000Y-106019804D02*
X154565196Y-105775000D01*
X154337500Y-103592449D02*
X154337500Y-102162500D01*
X154250000Y-111960000D02*
X154250000Y-108590196D01*
X154810000Y-108030196D02*
X154810000Y-106019804D01*
X154250000Y-108590196D02*
X154810000Y-108030196D01*
%TO.N,/DATA1*%
X154235000Y-107025000D02*
X154235000Y-107955000D01*
X153470000Y-108720000D02*
X152620000Y-108720000D01*
X152390000Y-104550000D02*
X153337500Y-103602500D01*
X154235000Y-107955000D02*
X153470000Y-108720000D01*
X152620000Y-108720000D02*
X152390000Y-108490000D01*
X153337500Y-103602500D02*
X153337500Y-102162500D01*
X152390000Y-108490000D02*
X152390000Y-104550000D01*
%TO.N,/DATA0*%
X150920000Y-111200000D02*
X150920000Y-105030000D01*
X150920000Y-105030000D02*
X152837500Y-103112500D01*
X151695000Y-111975000D02*
X150920000Y-111200000D01*
X152837500Y-103112500D02*
X152837500Y-102162500D01*
%TO.N,/~{WIFIRST}*%
X181780000Y-99230000D02*
X181200000Y-98650000D01*
X180655000Y-102475000D02*
X181780000Y-101350000D01*
X181780000Y-101350000D02*
X181780000Y-99230000D01*
X179864975Y-98650000D02*
X178964975Y-97750000D01*
X178964975Y-97750000D02*
X162250000Y-97750000D01*
X181200000Y-98650000D02*
X179864975Y-98650000D01*
%TO.N,/CS3*%
X184734200Y-80594200D02*
X185050000Y-80910000D01*
X183972200Y-62204600D02*
X184632600Y-62204600D01*
X186207400Y-66598800D02*
X186207400Y-64553200D01*
X136601200Y-77571600D02*
X136601200Y-78347200D01*
X183700000Y-63055000D02*
X183700000Y-62476800D01*
X184925600Y-62497600D02*
X185851800Y-62497600D01*
X186131200Y-66675000D02*
X186207400Y-66598800D01*
X184632600Y-62204600D02*
X184925600Y-62497600D01*
X183700000Y-62476800D02*
X183972200Y-62204600D01*
X185115200Y-83908000D02*
X183425200Y-83908000D01*
X136601200Y-80047200D02*
X136601200Y-84351200D01*
X136732800Y-77440000D02*
X136601200Y-77571600D01*
X164340000Y-95525000D02*
X164115000Y-95750000D01*
X164115000Y-95750000D02*
X162250000Y-95750000D01*
X136601200Y-84351200D02*
X136650000Y-84400000D01*
X185050000Y-80910000D02*
X185050000Y-82200000D01*
X139090000Y-77440000D02*
X136732800Y-77440000D01*
X186207400Y-64553200D02*
X185851800Y-64197600D01*
D58*
%TO.N,Net-(U6-ISET)*%
X148400000Y-71090000D02*
X150265000Y-71090000D01*
%TO.N,Net-(U$1A-PA01{slash}EINT1{slash}SERCOM1.1)*%
X150925000Y-93250000D02*
X150084380Y-93250000D01*
X149100000Y-92265620D02*
X149100000Y-91000000D01*
X150084380Y-93250000D02*
X149100000Y-92265620D01*
X147010900Y-90958200D02*
X149058200Y-90958200D01*
%TO.N,Net-(U$1A-PA00{slash}EINT0{slash}SERCOM1.0)*%
X147050000Y-88570000D02*
X149070000Y-88570000D01*
X150925000Y-91665000D02*
X150925000Y-92750000D01*
X150570000Y-88860000D02*
X150570000Y-91310000D01*
X149100000Y-88600000D02*
X150310000Y-88600000D01*
X150570000Y-91310000D02*
X150925000Y-91665000D01*
X150310000Y-88600000D02*
X150570000Y-88860000D01*
%TD*%
%TA.AperFunction,Conductor*%
%TO.N,GND*%
G36*
X174948794Y-91052489D02*
G01*
X174960000Y-91104000D01*
X174960000Y-92500000D01*
X174460000Y-92500000D01*
X174460000Y-91104000D01*
X174479685Y-91036961D01*
X174522340Y-91000000D01*
X174903312Y-91000000D01*
X174948794Y-91052489D01*
G37*
%TD.AperFunction*%
%TD*%
M02*
